<svg width="4985" height="6094" viewBox="0 0 4985 6094" fill="none" xmlns="http://www.w3.org/2000/svg">
<path d="M1468.97 622.507C1468.97 622.507 1825.98 1772.87 1167.76 2326.42C814.843 2623.23 477.364 3539.35 991.866 4345.58C1803.93 5618.11 3270.02 5250.17 3781.21 4484.46C3852.14 4378.21 3869.41 4528.98 3815.06 4679.06C3649.42 5136.4 2930.03 5427.04 2895.04 5520.53C2859.39 5615.75 3128.8 5601.94 3122.08 5704.53C3118.42 5760.41 2576.67 5682.34 2457.17 5757.61C2337.67 5832.88 2349.71 5927.46 2249.82 5973.82C2144.34 6022.77 1846.38 5983.4 1846.38 5983.4C1845.91 5983.66 1513.32 6168.42 1403.04 6058.39C963.918 5620.26 2.0537 5125.15 0.831055 3889.54C-0.339379 2706.6 859.438 2336.69 1337.51 1554.14C1490.98 1302.95 1468.97 622.507 1468.97 622.507Z" fill="#001C32"/>
<path d="M1468.97 622.507C1468.97 622.507 1825.98 1772.87 1167.76 2326.42C814.843 2623.23 477.364 3539.35 991.866 4345.58C1803.93 5618.11 3270.02 5250.17 3781.21 4484.46C3852.14 4378.21 3869.41 4528.98 3815.06 4679.06C3649.42 5136.4 2930.03 5427.04 2895.04 5520.53C2859.39 5615.75 3128.8 5601.94 3122.08 5704.53C3118.42 5760.41 2576.67 5682.34 2457.17 5757.61C2337.67 5832.88 2349.71 5927.46 2249.82 5973.82C2144.34 6022.77 1846.38 5983.4 1846.38 5983.4C1845.91 5983.66 1513.32 6168.42 1403.04 6058.39C963.918 5620.26 2.0537 5125.15 0.831055 3889.54C-0.339379 2706.6 859.438 2336.69 1337.51 1554.14C1490.98 1302.95 1468.97 622.507 1468.97 622.507Z" stroke="white"/>
<path d="M3130.26 0C3130.27 0.112887 3169.88 360.855 2946.96 475.637C1892.5 1018.58 3201.6 2083.69 3201.6 2083.69C3201.6 2083.69 2924.91 2517.61 2409.68 2723.69C1989.89 2891.6 1652.98 3070.32 1681.64 3680.12C1721.85 4535.68 2702.42 4837.19 2702.42 4837.19C2702.42 4837.19 2045.72 4157.09 2418.4 3716.4C2820.48 3240.96 3303.59 3532.7 3629.13 2956.65C4138.48 2055.37 4984.66 2296.03 4984.93 2296.11C4984.93 2296.11 4549.58 2490.88 4478.83 2702.3C4154.83 3670.44 3701.21 5061.62 2425.15 5020.29C1223.07 4981.37 624.551 3856.63 974.189 2894.36C1091.1 2572.59 1218.86 2364.68 1538.12 2194.29C1860.16 2022.42 1963.08 1625.8 1963.2 1625.36C1963.15 1625.97 1911.04 2248.54 1594.65 2498.8C1160.29 2842.38 1316.38 3558.5 1316.42 3558.68C1316.42 3558.68 1342.24 2896.96 1680.66 2576.56C2034.12 2241.93 2059.24 1939.24 2097.74 1380.03C2121.09 1040.76 2305.97 608.632 2604.45 476.808C2950.55 323.946 3130.26 0 3130.26 0Z" fill="#265780"/>
<path d="M3130.26 0C3130.27 0.112887 3169.88 360.855 2946.96 475.637C1892.5 1018.58 3201.6 2083.69 3201.6 2083.69C3201.6 2083.69 2924.91 2517.61 2409.68 2723.69C1989.89 2891.6 1652.98 3070.32 1681.64 3680.12C1721.85 4535.68 2702.42 4837.19 2702.42 4837.19C2702.42 4837.19 2045.72 4157.09 2418.4 3716.4C2820.48 3240.96 3303.59 3532.7 3629.13 2956.65C4138.48 2055.37 4984.66 2296.03 4984.93 2296.11C4984.93 2296.11 4549.58 2490.88 4478.83 2702.3C4154.83 3670.44 3701.21 5061.62 2425.15 5020.29C1223.07 4981.37 624.551 3856.63 974.189 2894.36C1091.1 2572.59 1218.86 2364.68 1538.12 2194.29C1860.16 2022.42 1963.08 1625.8 1963.2 1625.36C1963.15 1625.97 1911.04 2248.54 1594.65 2498.8C1160.29 2842.38 1316.38 3558.5 1316.42 3558.68C1316.42 3558.68 1342.24 2896.96 1680.66 2576.56C2034.12 2241.93 2059.24 1939.24 2097.74 1380.03C2121.09 1040.76 2305.97 608.632 2604.45 476.808C2950.55 323.946 3130.26 0 3130.26 0Z" stroke="white"/>
<path d="M3305.6 1406.88C3305.6 1406.88 3885.87 2305.41 3483.92 2960.87C3209.98 3407.59 2550.68 3284.6 2334.25 3633.09C2011.96 4152.04 2433.82 4628.99 2433.82 4628.99C2433.82 4628.99 1368.15 3903.82 1943.04 3133.51C2189.55 2803.2 2717.26 2857.74 3213.96 2240.52C3488.5 1899.37 3305.6 1406.88 3305.6 1406.88Z" fill="#87B2D5"/>
<path d="M3305.6 1406.88C3305.6 1406.88 3885.87 2305.41 3483.92 2960.87C3209.98 3407.59 2550.68 3284.6 2334.25 3633.09C2011.96 4152.04 2433.82 4628.99 2433.82 4628.99C2433.82 4628.99 1368.15 3903.82 1943.04 3133.51C2189.55 2803.2 2717.26 2857.74 3213.96 2240.52C3488.5 1899.37 3305.6 1406.88 3305.6 1406.88Z" stroke="white"/>
</svg>
