<svg width="500" height="500" viewBox="0 0 500 500" fill="none" xmlns="http://www.w3.org/2000/svg">
<path d="M378.74 427.731C301.93 470.281 177.4 470.281 100.59 427.731C23.7799 385.181 23.7799 316.201 100.59 273.651C177.4 231.101 301.93 231.111 378.74 273.651C455.55 316.191 455.55 385.181 378.74 427.731Z" fill="#F5F5F5"/>
<path d="M202.47 370.681L267.19 407.781C267.862 408.123 268.606 408.302 269.36 408.302C270.114 408.302 270.858 408.123 271.53 407.781L405.3 330.541C405.561 330.452 405.788 330.284 405.949 330.06C406.109 329.835 406.196 329.566 406.196 329.291C406.196 329.015 406.109 328.746 405.949 328.522C405.788 328.297 405.561 328.129 405.3 328.041L336.35 288.421C335.682 288.083 334.941 287.912 334.193 287.922C333.444 287.933 332.709 288.124 332.05 288.481L202.43 368.131C202.171 368.231 201.949 368.409 201.794 368.639C201.639 368.869 201.559 369.142 201.563 369.419C201.567 369.697 201.657 369.967 201.819 370.192C201.981 370.418 202.208 370.588 202.47 370.681Z" fill="#E0E0E0"/>
<path d="M137.21 389.001L68.42 349.301C68.1599 349.21 67.9346 349.04 67.7753 348.815C67.6159 348.59 67.5303 348.322 67.5303 348.046C67.5303 347.77 67.6159 347.502 67.7753 347.277C67.9346 347.052 68.1599 346.882 68.42 346.791L137 306.941C137.671 306.601 138.413 306.424 139.165 306.424C139.917 306.424 140.659 306.601 141.33 306.941L210.33 346.801C210.591 346.89 210.818 347.058 210.979 347.282C211.139 347.506 211.226 347.775 211.226 348.051C211.226 348.327 211.139 348.596 210.979 348.82C210.818 349.044 210.591 349.212 210.33 349.301L141.54 389.001C140.869 389.341 140.127 389.518 139.375 389.518C138.623 389.518 137.881 389.341 137.21 389.001Z" fill="#E0E0E0"/>
<path d="M319.68 422.75C339.17 422.75 354.97 413.344 354.97 401.74C354.97 390.137 339.17 380.73 319.68 380.73C300.19 380.73 284.39 390.137 284.39 401.74C284.39 413.344 300.19 422.75 319.68 422.75Z" fill="#E0E0E0"/>
<path d="M369.66 398.6C388.962 398.6 404.61 389.284 404.61 377.79C404.61 366.297 388.962 356.98 369.66 356.98C350.358 356.98 334.71 366.297 334.71 377.79C334.71 389.284 350.358 398.6 369.66 398.6Z" fill="#E0E0E0"/>
<path d="M73.1999 321.909C73.0999 315.909 68.5299 303.479 62.1399 295.769C55.7499 288.059 45.8199 282.509 38.8799 284.999C32.4199 287.339 33.2699 295.849 41.2599 301.369C49.2499 306.889 61.2599 313.779 64.8699 323.489L72.3599 335.349L73.1999 321.909Z" fill="#0B3555"/>
<path opacity="0.1" d="M73.1999 321.909C73.0999 315.909 68.5299 303.479 62.1399 295.769C55.7499 288.059 45.8199 282.509 38.8799 284.999C32.4199 287.339 33.2699 295.849 41.2599 301.369C49.2499 306.889 61.2599 313.779 64.8699 323.489L72.3599 335.349L73.1999 321.909Z" fill="black"/>
<path d="M73.7899 330.139C73.6955 330.133 73.6056 330.097 73.5336 330.036C73.4616 329.974 73.4112 329.891 73.3899 329.799C68.9999 309.299 52.0699 292.879 42.0499 289.359C41.9399 289.321 41.8497 289.24 41.799 289.135C41.7484 289.03 41.7415 288.909 41.7799 288.799C41.7978 288.744 41.8267 288.693 41.8649 288.649C41.9031 288.605 41.9498 288.57 42.0022 288.545C42.0545 288.519 42.1114 288.505 42.1694 288.502C42.2275 288.5 42.2855 288.509 42.3399 288.529C52.5499 292.109 69.7899 308.809 74.2499 329.609C74.2735 329.723 74.2511 329.842 74.1873 329.94C74.1236 330.037 74.0238 330.105 73.9099 330.129L73.7899 330.139Z" fill="white"/>
<path d="M70.9999 343.359C69.9999 339.989 65.7399 334.469 58.9999 329.969C51.5099 324.969 42.0999 322.809 39.8699 318.879C37.1999 314.149 41.1399 309.569 48.7599 310.379C56.3799 311.189 69.9199 321.319 72.3299 336.899L70.9999 343.359Z" fill="#0B3555"/>
<path d="M72.3599 339.779C72.2754 339.773 72.1945 339.742 72.1271 339.691C72.0597 339.639 72.0086 339.569 71.9799 339.489C65.3699 321.999 51.8199 315.999 45.5799 315.339C45.522 315.333 45.4659 315.316 45.4148 315.287C45.3638 315.259 45.3188 315.221 45.2825 315.176C45.2462 315.13 45.2194 315.078 45.2035 315.022C45.1876 314.966 45.183 314.907 45.1899 314.849C45.196 314.792 45.2137 314.736 45.2419 314.685C45.2701 314.635 45.3082 314.591 45.354 314.555C45.3997 314.52 45.4522 314.494 45.5082 314.479C45.5642 314.464 45.6226 314.461 45.6799 314.469C52.5799 315.239 66.0499 321.309 72.7999 339.179C72.8224 339.233 72.8337 339.291 72.8331 339.349C72.8326 339.407 72.8203 339.465 72.797 339.518C72.7736 339.571 72.7396 339.619 72.6972 339.659C72.6547 339.699 72.6046 339.73 72.5499 339.749C72.4887 339.77 72.4245 339.78 72.3599 339.779Z" fill="white"/>
<path d="M399 301.999C399 301.999 398.3 291.639 401.9 282.829C405.5 274.019 411.55 267.829 417.9 266.139C424.25 264.449 430.6 269.439 424.42 274.799C418.24 280.159 406.7 286.589 403.84 302.929L399 301.999Z" fill="#0B3555"/>
<path opacity="0.15" d="M399 301.999C399 301.999 398.3 291.639 401.9 282.829C405.5 274.019 411.55 267.829 417.9 266.139C424.25 264.449 430.6 269.439 424.42 274.799C418.24 280.159 406.7 286.589 403.84 302.929L399 301.999Z" fill="black"/>
<path d="M400.45 299H400.38C400.289 298.981 400.21 298.927 400.158 298.851C400.106 298.775 400.085 298.681 400.1 298.59C403.85 280.51 415.57 271.1 421.25 268.65C421.335 268.613 421.431 268.611 421.517 268.645C421.603 268.679 421.672 268.745 421.71 268.83C421.747 268.915 421.749 269.011 421.715 269.097C421.681 269.184 421.615 269.253 421.53 269.29C415.97 271.69 404.53 280.93 400.79 298.73C400.772 298.807 400.728 298.875 400.667 298.924C400.605 298.973 400.529 299 400.45 299Z" fill="white"/>
<path d="M431.49 293.209C431.12 294.729 429.72 295.739 428.4 296.579C427.08 297.419 425.65 298.319 425.12 299.789C424.06 302.789 427.3 306.059 426.12 308.979C425.826 309.572 425.414 310.1 424.911 310.529C424.407 310.959 423.822 311.282 423.19 311.479C422.149 311.827 421.091 312.121 420.02 312.359C419.504 312.446 418.983 312.5 418.46 312.519C416.908 312.463 415.38 312.917 414.11 313.809C412.19 315.399 412.03 318.209 411.11 320.529C410.533 321.901 409.665 323.131 408.567 324.136C407.47 325.141 406.167 325.896 404.75 326.349C403.81 326.649 402.06 327.149 400.99 326.789L400.76 326.699C400.6 326.579 400.4 326.409 400.3 326.319V326.269C399.67 324.939 400.02 323.379 399.78 321.939C399.786 321.853 399.786 321.766 399.78 321.679C399.41 320.019 399.06 318.369 398.71 316.679C398.07 313.629 397.48 310.559 396.93 307.489C396.59 305.489 395.93 303.349 396.45 301.319C397 299.079 399.32 298.609 399.82 296.419C400.03 295.549 400.06 294.649 400.25 293.769C400.558 292.476 401.215 291.293 402.15 290.348C403.084 289.402 404.26 288.732 405.55 288.409C409.55 287.459 413.81 290.079 417.8 289.039C418.8 288.759 419.8 288.259 420.8 287.879C423.97 286.659 427.94 286.879 430.29 289.339C430.792 289.837 431.164 290.45 431.373 291.125C431.582 291.799 431.622 292.515 431.49 293.209Z" fill="#0B3555"/>
<g opacity="0.07">
<path d="M431.49 293.209C431.12 294.729 429.72 295.739 428.4 296.579C427.08 297.419 425.65 298.319 425.12 299.789C424.06 302.789 427.3 306.059 426.12 308.979C425.826 309.572 425.414 310.1 424.911 310.529C424.407 310.959 423.822 311.282 423.19 311.479C422.165 311.877 421.103 312.172 420.02 312.359C419.504 312.446 418.983 312.5 418.46 312.519C416.908 312.463 415.38 312.917 414.11 313.809C412.19 315.399 412.03 318.209 411.11 320.529C410.533 321.901 409.665 323.131 408.567 324.136C407.47 325.141 406.167 325.896 404.75 326.349C403.81 326.649 402.06 327.149 400.99 326.789L400.76 326.699C400.697 326.672 400.636 326.639 400.58 326.599C400.472 326.522 400.378 326.427 400.3 326.319V326.269C399.55 325.219 399.95 323.199 399.78 321.939C399.786 321.853 399.786 321.766 399.78 321.679C399.41 320.019 399.06 318.369 398.71 316.679C398.07 313.629 397.48 310.559 396.93 307.489C396.59 305.489 395.93 303.349 396.45 301.319C397 299.079 399.32 298.609 399.82 296.419C400.03 295.549 400.06 294.649 400.25 293.769C400.558 292.476 401.215 291.293 402.15 290.348C403.084 289.402 404.26 288.732 405.55 288.409C409.55 287.459 413.81 290.079 417.8 289.039C418.8 288.759 419.8 288.259 420.8 287.879C423.97 286.659 427.94 286.879 430.29 289.339C430.792 289.837 431.164 290.45 431.373 291.125C431.582 291.799 431.622 292.515 431.49 293.209Z" fill="#263238"/>
</g>
<path d="M398.73 319.92C398.638 319.91 398.554 319.865 398.494 319.794C398.434 319.723 398.404 319.632 398.41 319.54C400.16 297.49 421.75 290.4 427 289.82C427.092 289.811 427.185 289.839 427.257 289.897C427.33 289.954 427.377 290.038 427.39 290.13C427.396 290.176 427.392 290.223 427.379 290.267C427.367 290.312 427.345 290.353 427.317 290.39C427.288 290.426 427.252 290.456 427.211 290.479C427.171 290.501 427.126 290.515 427.08 290.52C421.94 291.08 400.82 298.03 399.08 319.6C399.072 319.687 399.032 319.769 398.967 319.828C398.903 319.887 398.818 319.92 398.73 319.92Z" fill="white"/>
<path d="M421.39 304.759C421.319 304.759 421.249 304.738 421.19 304.699C418.82 303.301 416.171 302.443 413.431 302.185C410.692 301.928 407.929 302.277 405.34 303.209C405.296 303.227 405.249 303.236 405.201 303.235C405.153 303.235 405.106 303.224 405.063 303.205C405.02 303.185 404.981 303.157 404.949 303.122C404.916 303.087 404.892 303.045 404.876 303C404.86 302.956 404.854 302.908 404.857 302.86C404.861 302.813 404.874 302.767 404.896 302.724C404.918 302.682 404.948 302.645 404.985 302.615C405.022 302.584 405.064 302.562 405.11 302.549C407.803 301.579 410.677 301.216 413.526 301.488C416.375 301.759 419.129 302.658 421.59 304.119C421.629 304.145 421.661 304.178 421.687 304.218C421.712 304.257 421.729 304.301 421.736 304.347C421.744 304.393 421.742 304.44 421.73 304.485C421.719 304.53 421.698 304.572 421.67 304.609C421.64 304.656 421.599 304.695 421.55 304.721C421.501 304.747 421.446 304.76 421.39 304.759Z" fill="white"/>
<path d="M214.33 195.28C215.16 194.262 215.562 192.962 215.452 191.654C215.342 190.345 214.729 189.13 213.742 188.265C212.755 187.399 211.47 186.95 210.158 187.013C208.847 187.075 207.611 187.644 206.71 188.6C206.71 188.09 206.79 187.6 206.79 187.04C206.789 184.347 206.082 181.701 204.74 179.365C203.398 177.03 201.467 175.087 199.141 173.73C196.815 172.372 194.173 171.648 191.48 171.629C188.787 171.61 186.135 172.296 183.79 173.62C184.152 172.773 184.339 171.861 184.34 170.94C184.341 169.749 184.026 168.578 183.427 167.549C182.828 166.519 181.967 165.666 180.93 165.079C179.894 164.491 178.72 164.189 177.529 164.203C176.338 164.217 175.172 164.548 174.15 165.16C174.266 164.372 174.326 163.577 174.33 162.78C174.348 158.853 173.042 155.035 170.621 151.942C168.201 148.85 164.808 146.664 160.991 145.739C157.175 144.814 153.158 145.203 149.59 146.844C146.022 148.484 143.112 151.281 141.33 154.78C140.864 153.686 140.089 152.752 139.101 152.092C138.112 151.431 136.952 151.074 135.763 151.064C134.574 151.053 133.408 151.389 132.407 152.032C131.406 152.674 130.615 153.595 130.13 154.68C128.561 152.153 126.211 150.205 123.436 149.133C120.661 148.06 117.612 147.921 114.751 148.736C111.889 149.55 109.372 151.275 107.578 153.648C105.784 156.022 104.813 158.915 104.81 161.89C104.816 162.577 104.873 163.262 104.98 163.94C104.237 163.332 103.336 162.948 102.383 162.832C101.43 162.716 100.463 162.873 99.596 163.284C98.7286 163.696 97.9959 164.346 97.4832 165.157C96.9705 165.969 96.6989 166.91 96.7 167.87C96.7 167.87 96.7 167.87 96.7 167.93C94.8554 166.852 92.7565 166.286 90.62 166.29C87.6804 166.293 84.841 167.359 82.6248 169.29C80.4087 171.221 78.9651 173.889 78.56 176.8C77.1939 176.285 75.708 176.174 74.2809 176.483C72.8538 176.792 71.5462 177.506 70.5154 178.54C69.4845 179.574 68.7742 180.884 68.4699 182.312C68.1656 183.74 68.2802 185.226 68.8 186.59C64.9663 188.117 61.7844 190.932 59.8016 194.551C57.8187 198.17 57.1588 202.367 57.9353 206.42C58.7118 210.473 60.8762 214.129 64.0563 216.759C67.2363 219.388 71.2333 220.828 75.36 220.83L139.11 263.78L207.3 219.88C210.187 219.874 212.994 218.928 215.296 217.185C217.598 215.443 219.271 212.998 220.061 210.222C220.852 207.445 220.717 204.486 219.678 201.792C218.639 199.099 216.751 196.816 214.3 195.29L214.33 195.28ZM205.39 193.42C205.405 193.386 205.421 193.352 205.44 193.32C205.445 193.35 205.445 193.38 205.44 193.41L205.39 193.42Z" fill="#F5F5F5"/>
<path d="M90.63 166.279C87.6904 166.283 84.851 167.348 82.6348 169.279C80.4187 171.211 78.9751 173.878 78.57 176.789C77.2039 176.274 75.718 176.164 74.2909 176.472C72.8638 176.781 71.5562 177.495 70.5254 178.529C69.4945 179.563 68.7842 180.873 68.4799 182.301C68.1756 183.729 68.2902 185.215 68.81 186.579C64.9763 188.106 61.7944 190.921 59.8116 194.54C57.8288 198.16 57.1688 202.356 57.9453 206.409C58.7218 210.462 60.8862 214.118 64.0663 216.748C67.2463 219.378 71.2434 220.817 75.37 220.819L139.12 263.769L202.64 222.879L204.27 216.769C195.62 227.999 184.06 219.059 184.06 219.059C184.06 219.059 183.18 224.789 178.34 225.139C176.999 225.269 175.649 224.989 174.47 224.338C173.29 223.686 172.335 222.693 171.73 221.489C171.101 224.049 169.724 226.363 167.773 228.135C165.823 229.907 163.388 231.058 160.78 231.439C151.34 233.189 145.83 222.829 145.83 222.829C145.83 222.829 144.06 227.499 139.12 226.249C134.18 224.999 135.93 222.249 135.93 222.249C135.93 222.249 133.12 224.719 128.29 222.139C123.46 219.559 123.13 211.999 123.13 211.999C120.579 213.008 117.791 213.262 115.099 212.73C112.408 212.198 109.926 210.903 107.95 208.999C100.95 202.349 106.88 193.209 106.88 193.209C96.36 195.269 96.75 186.639 96.75 186.639C82.05 184.629 83.11 170.209 90.63 166.279Z" fill="#F0F0F0"/>
<path d="M155.53 244.911L153.3 377.531L167.17 369.521L171.73 235.561L155.53 244.911Z" fill="#FAFAFA"/>
<path d="M171.73 235.56L167.17 369.52L180.99 361.55L187.97 226.18L171.73 235.56Z" fill="#0B3555"/>
<path d="M143.7 251.739C142.365 252.436 140.875 252.78 139.37 252.739V384.109C140.875 384.15 142.365 383.806 143.7 383.109L153.3 377.569L155.53 244.949L143.7 251.739Z" fill="#0B3555"/>
<path d="M194.74 353.61L204.1 348.2C205.379 347.362 206.466 346.262 207.289 344.972C208.111 343.683 208.65 342.233 208.87 340.72L220.61 207.34L204.27 216.77L194.74 353.61Z" fill="#0B3555"/>
<path d="M187.97 226.18L180.99 361.55L194.74 353.61L204.27 216.77L187.97 226.18Z" fill="#FAFAFA"/>
<path d="M123.22 244.911L125.45 377.531L111.58 369.521L107.02 235.561L123.22 244.911Z" fill="#0B3555"/>
<path d="M107.02 235.56L111.58 369.52L97.7601 361.55L90.7701 226.18L107.02 235.56Z" fill="#E6E6E6"/>
<path d="M135 251.739C136.335 252.434 137.825 252.778 139.33 252.739V384.109C137.825 384.148 136.335 383.804 135 383.109L125.41 377.569L123.18 244.949L135 251.739Z" fill="#E6E6E6"/>
<path d="M83.9999 353.61L74.6399 348.2C73.3593 347.363 72.2715 346.264 71.449 344.974C70.6265 343.684 70.0882 342.234 69.8699 340.72L58.1299 207.34L74.4799 216.77L83.9999 353.61Z" fill="#E6E6E6"/>
<path d="M90.77 226.18L97.76 361.55L84.01 353.61L74.48 216.77L90.77 226.18Z" fill="#0B3555"/>
<path opacity="0.1" d="M123.22 244.911L125.45 377.531L111.58 369.521L107.02 235.561L123.22 244.911Z" fill="black"/>
<path opacity="0.1" d="M90.77 226.18L97.76 361.55L84.01 353.61L74.48 216.77L90.77 226.18Z" fill="black"/>
<path d="M135.93 222.279C135.139 223.37 134.098 224.255 132.894 224.861C131.691 225.466 130.359 225.775 129.012 225.76C127.665 225.745 126.341 225.407 125.151 224.775C123.961 224.143 122.94 223.235 122.173 222.127C121.407 221.019 120.917 219.743 120.745 218.407C120.573 217.07 120.723 215.712 121.184 214.446C121.645 213.18 122.403 212.043 123.394 211.13C124.385 210.217 125.58 209.555 126.88 209.199C125.97 210.459 125.426 211.946 125.308 213.496C125.189 215.045 125.501 216.597 126.208 217.981C126.916 219.365 127.991 220.526 129.317 221.338C130.642 222.149 132.166 222.579 133.72 222.579C134.467 222.581 135.211 222.48 135.93 222.279Z" fill="#E0E0E0"/>
<path d="M145.83 222.831C145.926 223.704 145.811 224.587 145.495 225.406C145.18 226.226 144.672 226.958 144.015 227.54C143.357 228.123 142.57 228.539 141.719 228.754C140.867 228.97 139.976 228.977 139.121 228.777C138.266 228.577 137.472 228.175 136.804 227.604C136.137 227.033 135.616 226.31 135.286 225.496C134.956 224.683 134.825 223.802 134.906 222.927C134.987 222.053 135.276 221.21 135.75 220.471C135.87 221.621 136.353 222.704 137.13 223.561C138.111 224.636 139.478 225.28 140.931 225.351C142.385 225.422 143.809 224.915 144.89 223.941C145.249 223.612 145.565 223.239 145.83 222.831Z" fill="#E0E0E0"/>
<path d="M112.19 182.891C112.929 184.018 113.387 185.306 113.525 186.647C113.664 187.988 113.478 189.342 112.985 190.597C112.492 191.851 111.705 192.969 110.69 193.857C109.676 194.745 108.463 195.376 107.154 195.698C105.845 196.02 104.478 196.024 103.168 195.708C101.857 195.393 100.641 194.768 99.6221 193.886C98.603 193.003 97.8103 191.89 97.3105 190.638C96.8108 189.386 96.6185 188.032 96.7499 186.691C97.7064 188.15 99.0919 189.276 100.715 189.914C102.339 190.553 104.121 190.672 105.815 190.255C107.509 189.838 109.032 188.906 110.173 187.587C111.315 186.268 112.02 184.627 112.19 182.891Z" fill="#E0E0E0"/>
<path d="M99.13 190.9C99.537 191.678 99.7515 192.542 99.7556 193.42C99.7598 194.298 99.5534 195.164 99.1538 195.945C98.7542 196.727 98.173 197.401 97.459 197.911C96.745 198.422 95.919 198.754 95.0503 198.879C94.1815 199.005 93.2954 198.92 92.4661 198.632C91.6369 198.345 90.8887 197.862 90.2843 197.226C89.6799 196.589 89.237 195.817 88.9927 194.974C88.7484 194.131 88.7097 193.241 88.88 192.38C89.4111 193.41 90.2597 194.241 91.3 194.75C91.9461 195.071 92.649 195.261 93.3686 195.31C94.0882 195.359 94.8104 195.266 95.4939 195.035C96.1774 194.805 96.8088 194.442 97.3521 193.968C97.8953 193.493 98.3398 192.917 98.66 192.27C98.8743 191.836 99.0323 191.375 99.13 190.9Z" fill="#E0E0E0"/>
<path d="M186.46 203.2C186.544 204.548 186.303 205.896 185.758 207.132C185.212 208.368 184.378 209.454 183.326 210.301C182.273 211.147 181.033 211.729 179.709 211.996C178.386 212.264 177.017 212.21 175.718 211.839C174.42 211.469 173.229 210.791 172.246 209.865C171.264 208.938 170.518 207.79 170.071 206.515C169.624 205.24 169.49 203.877 169.68 202.54C169.869 201.203 170.377 199.93 171.16 198.83C171.254 200.382 171.775 201.877 172.666 203.151C173.557 204.424 174.782 205.427 176.207 206.048C177.632 206.669 179.201 206.884 180.74 206.669C182.28 206.454 183.73 205.818 184.93 204.83C185.506 204.352 186.02 203.805 186.46 203.2Z" fill="#E0E0E0"/>
<path d="M195.59 199.219C195.686 200.092 195.571 200.976 195.255 201.795C194.94 202.614 194.432 203.346 193.775 203.929C193.117 204.511 192.33 204.928 191.479 205.143C190.627 205.358 189.736 205.366 188.881 205.166C188.026 204.966 187.232 204.563 186.564 203.992C185.897 203.422 185.376 202.699 185.046 201.885C184.716 201.071 184.585 200.19 184.666 199.316C184.747 198.441 185.036 197.599 185.51 196.859C185.623 198.028 186.11 199.13 186.9 199.999C187.881 201.075 189.248 201.719 190.702 201.79C192.155 201.861 193.579 201.354 194.66 200.379C195.019 200.035 195.332 199.645 195.59 199.219Z" fill="#E0E0E0"/>
<path d="M171.8 189.939C172.585 190.332 173.264 190.906 173.781 191.615C174.298 192.324 174.637 193.146 174.771 194.013C174.905 194.88 174.829 195.766 174.55 196.598C174.27 197.43 173.796 198.182 173.166 198.793C172.536 199.403 171.769 199.854 170.929 200.107C170.089 200.36 169.201 200.408 168.338 200.247C167.476 200.086 166.665 199.721 165.972 199.182C165.28 198.643 164.727 197.946 164.36 197.149C165.266 197.6 166.279 197.792 167.287 197.703C168.295 197.614 169.259 197.248 170.072 196.646C170.885 196.044 171.516 195.229 171.895 194.29C172.274 193.352 172.387 192.328 172.22 191.329C172.144 190.849 172.003 190.382 171.8 189.939Z" fill="#E0E0E0"/>
<path d="M349.53 86.0016C336.65 78.8216 318.98 80.0016 299.53 91.2516C260 114.002 228.06 169.392 228.06 214.932C228.06 240.202 237.9 257.122 253.39 263.312C265.83 268.312 281.92 266.312 299.48 256.172C338.92 233.392 370.9 178.002 370.9 132.462C370.9 109.432 362.72 93.3216 349.53 86.0016ZM350.23 113.622C346.23 118.002 341.99 122.782 337.76 127.812C329.234 137.89 321.224 148.393 313.76 159.282C312.76 160.782 311.76 162.232 310.9 163.592C309.941 162.879 308.748 162.554 307.56 162.682C307.86 161.622 308.16 160.512 308.47 159.352L306.92 161.702C305.96 160.991 304.768 160.666 303.58 160.792C304 159.352 304.42 157.792 304.84 156.152C307.927 144.306 310.295 132.284 311.93 120.152C312.77 114.292 313.4 108.512 313.87 103.152C323.51 100.552 332.11 101.462 338.93 105.432C343.347 107.113 347.244 109.927 350.23 113.592V113.622ZM252.69 165.762C260.1 148.292 271.64 131.762 285.15 119.762C285.3 121.442 285.46 123.142 285.66 124.852C286.8 123.752 287.95 122.682 289.13 121.642C289.54 126.462 290.13 131.532 291 136.402C292.466 145.869 294.843 155.172 298.1 164.182C298.51 165.332 298.98 166.392 299.35 167.372C298.039 168.814 296.917 170.417 296.01 172.142C295.12 171.812 294.19 171.452 293.19 171.142C285.378 168.81 277.282 167.562 269.13 167.432C264.973 167.261 260.809 167.331 256.66 167.642C256.96 166.932 257.27 166.212 257.58 165.512C255.93 165.532 254.3 165.622 252.69 165.732V165.762ZM260.15 241.202C258.988 240.211 257.907 239.127 256.92 237.962L256.19 239.322C248.41 232.712 243.71 221.322 243.71 205.902C243.71 204.762 243.77 203.582 243.77 202.432C248.1 200.962 252.77 199.272 257.5 197.342C267.317 193.303 276.805 188.508 285.88 183.002C287.19 182.182 288.44 181.402 289.59 180.622C289.619 181.941 290.017 183.227 290.74 184.332C291.74 183.712 292.67 183.112 293.56 182.512C293.583 183.891 294.018 185.232 294.81 186.362C293.81 187.602 292.81 188.982 291.73 190.432C285.1 199.502 277.06 211.672 269.81 224.062C266.37 229.812 263.13 235.602 260.15 241.172V241.202ZM303.47 240.002C296.47 244.062 289.64 246.482 283.47 247.232C283.84 246.292 284.21 245.342 284.57 244.392C282.904 244.823 281.21 245.141 279.5 245.342C281.75 239.652 283.94 233.622 286.03 227.482C290.164 215.446 293.666 203.203 296.52 190.802C296.88 189.212 297.15 187.672 297.46 186.232C298.189 185.971 298.889 185.635 299.55 185.232C300.257 184.818 300.927 184.343 301.55 183.812C301.813 184.994 302.147 186.159 302.55 187.302C302.55 187.402 302.61 187.492 302.63 187.592C302.91 187.462 303.19 187.302 303.48 187.142C304.189 186.731 304.859 186.256 305.48 185.722H305.53C305.773 186.906 306.087 188.075 306.47 189.222C309.065 197.752 312.597 205.968 317 213.722C318.972 217.291 321.149 220.744 323.52 224.062C317.611 230.282 310.862 235.647 303.47 240.002ZM343.08 188.692C342.99 188.902 342.88 189.112 342.77 189.322C339.712 187.104 336.504 185.099 333.17 183.322C332.44 182.912 331.68 182.522 330.93 182.142C325.866 179.874 320.586 178.125 315.17 176.922C314.12 176.682 313.08 176.502 312.17 176.382C312.32 176.032 312.44 175.692 312.56 175.382L311.22 175.072C310.23 174.84 309.229 174.663 308.22 174.542C308.925 172.852 309.347 171.058 309.47 169.232C310.62 168.692 311.88 168.022 313.13 167.362C323.021 161.862 332.523 155.691 341.57 148.892C346.27 145.402 350.91 141.692 355.24 138.162C355.24 139.312 355.3 140.432 355.3 141.572C355.3 142.122 355.3 142.672 355.3 143.232L359.23 140.052C359.23 141.202 359.23 142.312 359.23 143.452C359.23 158.822 354.53 175.702 346.76 191.272C345.58 190.322 344.35 189.482 343.08 188.662V188.692Z" fill="#0B3555"/>
<path opacity="0.4" d="M349.53 86.0016C336.65 78.8216 318.98 80.0016 299.53 91.2516C260 114.002 228.06 169.392 228.06 214.932C228.06 240.202 237.9 257.122 253.39 263.312C265.83 268.312 281.92 266.312 299.48 256.172C338.92 233.392 370.9 178.002 370.9 132.462C370.9 109.432 362.72 93.3216 349.53 86.0016ZM350.23 113.622C346.23 118.002 341.99 122.782 337.76 127.812C329.234 137.89 321.224 148.393 313.76 159.282C312.76 160.782 311.76 162.232 310.9 163.592C309.941 162.879 308.748 162.554 307.56 162.682C307.86 161.622 308.16 160.512 308.47 159.352L306.92 161.702C305.96 160.991 304.768 160.666 303.58 160.792C304 159.352 304.42 157.792 304.84 156.152C307.927 144.306 310.295 132.284 311.93 120.152C312.77 114.292 313.4 108.512 313.87 103.152C323.51 100.552 332.11 101.462 338.93 105.432C343.347 107.113 347.244 109.927 350.23 113.592V113.622ZM252.69 165.762C260.1 148.292 271.64 131.762 285.15 119.762C285.3 121.442 285.46 123.142 285.66 124.852C286.8 123.752 287.95 122.682 289.13 121.642C289.54 126.462 290.13 131.532 291 136.402C292.466 145.869 294.843 155.172 298.1 164.182C298.51 165.332 298.98 166.392 299.35 167.372C298.039 168.814 296.917 170.417 296.01 172.142C295.12 171.812 294.19 171.452 293.19 171.142C285.378 168.81 277.282 167.562 269.13 167.432C264.973 167.261 260.809 167.331 256.66 167.642C256.96 166.932 257.27 166.212 257.58 165.512C255.93 165.532 254.3 165.622 252.69 165.732V165.762ZM260.15 241.202C258.988 240.211 257.907 239.127 256.92 237.962L256.19 239.322C248.41 232.712 243.71 221.322 243.71 205.902C243.71 204.762 243.77 203.582 243.77 202.432C248.1 200.962 252.77 199.272 257.5 197.342C267.317 193.303 276.805 188.508 285.88 183.002C287.19 182.182 288.44 181.402 289.59 180.622C289.619 181.941 290.017 183.227 290.74 184.332C291.74 183.712 292.67 183.112 293.56 182.512C293.583 183.891 294.018 185.232 294.81 186.362C293.81 187.602 292.81 188.982 291.73 190.432C285.1 199.502 277.06 211.672 269.81 224.062C266.37 229.812 263.13 235.602 260.15 241.172V241.202ZM303.47 240.002C296.47 244.062 289.64 246.482 283.47 247.232C283.84 246.292 284.21 245.342 284.57 244.392C282.904 244.823 281.21 245.141 279.5 245.342C281.75 239.652 283.94 233.622 286.03 227.482C290.164 215.446 293.666 203.203 296.52 190.802C296.88 189.212 297.15 187.672 297.46 186.232C298.189 185.971 298.889 185.635 299.55 185.232C300.257 184.818 300.927 184.343 301.55 183.812C301.813 184.994 302.147 186.159 302.55 187.302C302.55 187.402 302.61 187.492 302.63 187.592C302.91 187.462 303.19 187.302 303.48 187.142C304.189 186.731 304.859 186.256 305.48 185.722H305.53C305.773 186.906 306.087 188.075 306.47 189.222C309.065 197.752 312.597 205.968 317 213.722C318.972 217.291 321.149 220.744 323.52 224.062C317.611 230.282 310.862 235.647 303.47 240.002ZM343.08 188.692C342.99 188.902 342.88 189.112 342.77 189.322C339.712 187.104 336.504 185.099 333.17 183.322C332.44 182.912 331.68 182.522 330.93 182.142C325.866 179.874 320.586 178.125 315.17 176.922C314.12 176.682 313.08 176.502 312.17 176.382C312.32 176.032 312.44 175.692 312.56 175.382L311.22 175.072C310.23 174.84 309.229 174.663 308.22 174.542C308.925 172.852 309.347 171.058 309.47 169.232C310.62 168.692 311.88 168.022 313.13 167.362C323.021 161.862 332.523 155.691 341.57 148.892C346.27 145.402 350.91 141.692 355.24 138.162C355.24 139.312 355.3 140.432 355.3 141.572C355.3 142.122 355.3 142.672 355.3 143.232L359.23 140.052C359.23 141.202 359.23 142.312 359.23 143.452C359.23 158.822 354.53 175.702 346.76 191.272C345.58 190.322 344.35 189.482 343.08 188.662V188.692Z" fill="white"/>
<path d="M349.53 85.9999C337.1 80.9999 321.01 82.9999 303.45 93.1399C264 115.89 232 171.27 232 216.82C232 239.82 240.19 255.95 253.37 263.31C266.26 270.49 283.93 269.31 303.43 258.05C342.87 235.28 374.85 179.9 374.85 134.35C374.87 109.08 365 92.1499 349.53 85.9999ZM312.53 175.32C313.004 173.944 313.293 172.512 313.39 171.06C314.53 170.51 315.79 169.85 317.04 169.18C326.933 163.683 336.439 157.515 345.49 150.72C348.79 148.26 352.06 145.72 355.23 143.17L359.16 139.99C359.16 141.14 359.16 142.25 359.16 143.39C359.16 158.76 354.46 175.64 346.69 191.21C345.53 190.35 344.3 189.51 343.03 188.69C341.13 187.47 339.13 186.3 337.09 185.18C335.05 184.06 332.98 183.04 330.88 182.12C325.816 179.852 320.536 178.103 315.12 176.9C314.07 176.66 313.03 176.48 312.12 176.36C312.29 176 312.41 175.64 312.53 175.29V175.32ZM350.23 113.62C346.23 118 341.99 122.78 337.76 127.81C329.234 137.888 321.224 148.392 313.76 159.28C312.76 160.78 311.76 162.23 310.9 163.59C309.941 162.877 308.748 162.552 307.56 162.68C307.86 161.62 308.16 160.51 308.47 159.35C308.58 158.92 308.69 158.48 308.81 158.04C311.896 146.194 314.263 134.172 315.9 122.04C316.74 116.2 317.36 110.41 317.83 105.04C325.69 102.92 332.83 103.14 338.93 105.44C343.346 107.119 347.243 109.929 350.23 113.59V113.62ZM303.47 187.15C304.179 186.74 304.849 186.264 305.47 185.73H305.52C305.763 186.914 306.077 188.083 306.46 189.23C309.059 197.757 312.594 205.97 317 213.72C318.972 217.289 321.149 220.742 323.52 224.06C317.624 230.266 310.893 235.62 303.52 239.97C296.52 244.03 289.69 246.45 283.52 247.2C283.89 246.26 284.26 245.31 284.62 244.36C286.49 239.51 288.3 234.46 290.05 229.36C294.189 217.329 297.69 205.089 300.54 192.69C300.9 191.09 301.16 189.56 301.47 188.11C301.898 187.977 302.313 187.806 302.71 187.6C302.9 187.44 303.18 187.28 303.47 187.12V187.15ZM247.68 207.79C247.68 206.64 247.74 205.46 247.74 204.32C252.07 202.84 256.74 201.15 261.46 199.23C271.278 195.187 280.77 190.393 289.85 184.89L290.74 184.33C291.74 183.71 292.67 183.11 293.56 182.51C293.583 183.889 294.018 185.23 294.81 186.36C293.81 187.6 292.81 188.98 291.73 190.43C285.1 199.5 277.06 211.67 269.81 224.06C266.37 229.84 263.13 235.63 260.15 241.2C258.987 240.209 257.907 239.125 256.92 237.96C251.09 231.1 247.68 220.85 247.68 207.76V207.79ZM289.13 121.67C289.54 126.49 290.13 131.56 291 136.43C292.466 145.897 294.843 155.2 298.1 164.21C298.51 165.36 298.98 166.42 299.35 167.4C298.039 168.842 296.917 170.445 296.01 172.17C295.12 171.84 294.19 171.48 293.19 171.17C285.377 168.838 277.282 167.59 269.13 167.46C264.973 167.289 260.809 167.359 256.66 167.67C256.96 166.96 257.27 166.24 257.58 165.54C264.308 150.352 273.833 136.565 285.66 124.9C286.8 123.75 288 122.68 289.13 121.64V121.67Z" fill="#0B3555"/>
<path opacity="0.15" d="M349.53 85.9999C337.1 80.9999 321.01 82.9999 303.45 93.1399C264 115.89 232 171.27 232 216.82C232 239.82 240.19 255.95 253.37 263.31C266.26 270.49 283.93 269.31 303.43 258.05C342.87 235.28 374.85 179.9 374.85 134.35C374.87 109.08 365 92.1499 349.53 85.9999ZM312.53 175.32C313.004 173.944 313.293 172.512 313.39 171.06C314.53 170.51 315.79 169.85 317.04 169.18C326.933 163.683 336.439 157.515 345.49 150.72C348.79 148.26 352.06 145.72 355.23 143.17L359.16 139.99C359.16 141.14 359.16 142.25 359.16 143.39C359.16 158.76 354.46 175.64 346.69 191.21C345.53 190.35 344.3 189.51 343.03 188.69C341.13 187.47 339.13 186.3 337.09 185.18C335.05 184.06 332.98 183.04 330.88 182.12C325.816 179.852 320.536 178.103 315.12 176.9C314.07 176.66 313.03 176.48 312.12 176.36C312.29 176 312.41 175.64 312.53 175.29V175.32ZM350.23 113.62C346.23 118 341.99 122.78 337.76 127.81C329.234 137.888 321.224 148.392 313.76 159.28C312.76 160.78 311.76 162.23 310.9 163.59C309.941 162.877 308.748 162.552 307.56 162.68C307.86 161.62 308.16 160.51 308.47 159.35C308.58 158.92 308.69 158.48 308.81 158.04C311.896 146.194 314.263 134.172 315.9 122.04C316.74 116.2 317.36 110.41 317.83 105.04C325.69 102.92 332.83 103.14 338.93 105.44C343.346 107.119 347.243 109.929 350.23 113.59V113.62ZM303.47 187.15C304.179 186.74 304.849 186.264 305.47 185.73H305.52C305.763 186.914 306.077 188.083 306.46 189.23C309.059 197.757 312.594 205.97 317 213.72C318.972 217.289 321.149 220.742 323.52 224.06C317.624 230.266 310.893 235.62 303.52 239.97C296.52 244.03 289.69 246.45 283.52 247.2C283.89 246.26 284.26 245.31 284.62 244.36C286.49 239.51 288.3 234.46 290.05 229.36C294.189 217.329 297.69 205.089 300.54 192.69C300.9 191.09 301.16 189.56 301.47 188.11C301.898 187.977 302.313 187.806 302.71 187.6C302.9 187.44 303.18 187.28 303.47 187.12V187.15ZM247.68 207.79C247.68 206.64 247.74 205.46 247.74 204.32C252.07 202.84 256.74 201.15 261.46 199.23C271.278 195.187 280.77 190.393 289.85 184.89L290.74 184.33C291.74 183.71 292.67 183.11 293.56 182.51C293.583 183.889 294.018 185.23 294.81 186.36C293.81 187.6 292.81 188.98 291.73 190.43C285.1 199.5 277.06 211.67 269.81 224.06C266.37 229.84 263.13 235.63 260.15 241.2C258.987 240.209 257.907 239.125 256.92 237.96C251.09 231.1 247.68 220.85 247.68 207.76V207.79ZM289.13 121.67C289.54 126.49 290.13 131.56 291 136.43C292.466 145.897 294.843 155.2 298.1 164.21C298.51 165.36 298.98 166.42 299.35 167.4C298.039 168.842 296.917 170.445 296.01 172.17C295.12 171.84 294.19 171.48 293.19 171.17C285.377 168.838 277.282 167.59 269.13 167.46C264.973 167.289 260.809 167.359 256.66 167.67C256.96 166.96 257.27 166.24 257.58 165.54C264.308 150.352 273.833 136.565 285.66 124.9C286.8 123.75 288 122.68 289.13 121.64V121.67Z" fill="black"/>
<path d="M294.81 186.33C293.81 187.57 292.81 188.95 291.73 190.4C285.1 199.47 277.06 211.64 269.81 224.03C266.37 229.81 263.13 235.6 260.15 241.17C258.988 240.18 257.907 239.096 256.92 237.93C259.69 232.77 262.68 227.46 265.85 222.14C273.1 209.76 281.14 197.59 287.77 188.51C288.77 187.07 289.85 185.68 290.84 184.45L290.74 184.3C291.74 183.68 292.67 183.08 293.56 182.48C293.583 183.86 294.019 185.201 294.81 186.33Z" fill="#0B3555"/>
<path opacity="0.4" d="M294.81 186.33C293.81 187.57 292.81 188.95 291.73 190.4C285.1 199.47 277.06 211.64 269.81 224.03C266.37 229.81 263.13 235.6 260.15 241.17C258.988 240.18 257.907 239.096 256.92 237.93C259.69 232.77 262.68 227.46 265.85 222.14C273.1 209.76 281.14 197.59 287.77 188.51C288.77 187.07 289.85 185.68 290.84 184.45L290.74 184.3C291.74 183.68 292.67 183.08 293.56 182.48C293.583 183.86 294.019 185.201 294.81 186.33Z" fill="black"/>
<path d="M323.51 224.061C317.614 230.267 310.883 235.622 303.51 239.971C296.51 244.031 289.68 246.451 283.51 247.201C283.88 246.261 284.25 245.311 284.61 244.361C289.876 242.972 294.925 240.858 299.61 238.081C306.981 233.73 313.712 228.375 319.61 222.171C317.215 218.854 315.008 215.405 313 211.841C308.656 204.156 305.169 196.017 302.6 187.571C302.88 187.441 303.16 187.281 303.45 187.121C304.159 186.711 304.829 186.235 305.45 185.701H305.5C305.743 186.885 306.057 188.054 306.44 189.201C309.044 197.739 312.585 205.963 317 213.721C318.969 217.291 321.142 220.743 323.51 224.061Z" fill="#0B3555"/>
<path opacity="0.3" d="M323.51 224.06C317.614 230.266 310.883 235.62 303.51 239.97C296.51 244.03 289.68 246.45 283.51 247.2C283.88 246.26 284.25 245.31 284.61 244.36C289.876 242.971 294.925 240.857 299.61 238.08C306.981 233.728 313.712 228.374 319.61 222.17" fill="black"/>
<path opacity="0.4" d="M317 213.72C312.607 205.949 309.089 197.716 306.51 189.17C306.127 188.023 305.814 186.854 305.57 185.67H305.52C304.899 186.204 304.229 186.68 303.52 187.09C303.23 187.25 302.95 187.41 302.67 187.54C305.214 195.993 308.679 204.142 313 211.84C314.979 215.402 317.156 218.851 319.52 222.17L323.52 224.06C321.149 220.742 318.972 217.29 317 213.72Z" fill="black"/>
<path d="M330.93 182.09C325.867 179.822 320.586 178.074 315.17 176.87C314.12 176.63 313.08 176.45 312.17 176.33C312.32 175.98 312.44 175.64 312.56 175.33C318.924 176.865 325.089 179.134 330.93 182.09Z" fill="#0B3555"/>
<path d="M359.21 143.361C359.21 158.731 354.51 175.611 346.74 191.181C345.58 190.321 344.35 189.481 343.08 188.661C350.4 173.831 354.91 157.841 355.23 143.141L359.16 139.961C359.16 141.111 359.21 142.221 359.21 143.361Z" fill="#0B3555"/>
<path opacity="0.4" d="M330.93 182.09C325.867 179.822 320.586 178.074 315.17 176.87C314.12 176.63 313.08 176.45 312.17 176.33C312.32 175.98 312.44 175.64 312.56 175.33C318.924 176.865 325.089 179.134 330.93 182.09Z" fill="black"/>
<path opacity="0.3" d="M359.21 143.361C359.21 158.731 354.51 175.611 346.74 191.181C345.58 190.321 344.35 189.481 343.08 188.661C350.4 173.831 354.91 157.841 355.23 143.141L359.16 139.961C359.16 141.111 359.21 142.221 359.21 143.361Z" fill="black"/>
<path d="M350.23 113.59C346.23 117.97 341.99 122.75 337.76 127.78C329.234 137.858 321.224 148.362 313.76 159.25C312.76 160.75 311.76 162.2 310.9 163.56C309.941 162.847 308.748 162.522 307.56 162.65C307.86 161.59 308.16 160.48 308.47 159.32L309.79 157.32C317.258 146.438 325.268 135.938 333.79 125.86C338.02 120.86 342.24 116.03 346.27 111.67C344.208 109.169 341.72 107.053 338.92 105.42C343.342 107.103 347.243 109.921 350.23 113.59Z" fill="#0B3555"/>
<path opacity="0.4" d="M350.23 113.59C346.23 117.97 341.99 122.75 337.76 127.78C329.234 137.858 321.224 148.362 313.76 159.25C312.76 160.75 311.76 162.2 310.9 163.56C309.941 162.847 308.748 162.522 307.56 162.65C307.86 161.59 308.16 160.48 308.47 159.32L309.79 157.32C317.258 146.438 325.268 135.938 333.79 125.86C338.02 120.86 342.24 116.03 346.27 111.67C344.208 109.169 341.72 107.053 338.92 105.42C343.342 107.103 347.243 109.921 350.23 113.59Z" fill="black"/>
<path d="M299.35 167.372C298.039 168.814 296.917 170.416 296.01 172.142C295.12 171.812 294.19 171.452 293.19 171.142C285.378 168.81 277.282 167.562 269.13 167.432C264.973 167.261 260.809 167.331 256.66 167.642C256.96 166.932 257.27 166.212 257.58 165.512C260.1 165.422 262.64 165.432 265.16 165.512C273.312 165.648 281.406 166.896 289.22 169.222C290.22 169.552 291.16 169.912 292.05 170.222C292.954 168.495 294.076 166.891 295.39 165.452C295.02 164.452 294.55 163.452 294.13 162.262C290.876 153.248 288.498 143.942 287.03 134.472C286.49 131.302 286.03 128.042 285.66 124.812C286.8 123.712 287.95 122.642 289.13 121.602C289.54 126.422 290.13 131.492 291 136.362C292.466 145.829 294.844 155.132 298.1 164.142C298.51 165.332 299 166.392 299.35 167.372Z" fill="#0B3555"/>
<path opacity="0.4" d="M295.39 165.491C294.076 166.931 292.954 168.534 292.05 170.261C291.16 169.921 290.22 169.561 289.22 169.261C281.406 166.935 273.312 165.687 265.16 165.551C262.64 165.441 260.1 165.431 257.58 165.551C257.27 166.251 256.96 166.971 256.66 167.681C260.809 167.37 264.973 167.3 269.13 167.471C277.282 167.601 285.378 168.85 293.19 171.181C294.19 171.511 295.12 171.871 296.01 172.181C296.917 170.456 298.039 168.853 299.35 167.411L295.39 165.491Z" fill="black"/>
<path opacity="0.3" d="M295.39 165.491C295.02 164.491 294.55 163.491 294.13 162.301C290.876 153.287 288.498 143.981 287.03 134.511C286.49 131.341 286.03 128.081 285.66 124.851C286.8 123.751 287.95 122.681 289.13 121.641C289.54 126.461 290.13 131.531 291 136.401C292.466 145.868 294.843 155.171 298.1 164.181C298.51 165.331 298.98 166.391 299.35 167.371" fill="black"/>
<path d="M337.76 113.221L367.91 130.611C366.946 130.066 365.943 129.591 364.91 129.191C356.14 125.701 344.8 127.081 332.42 134.191C304.62 150.241 282.09 189.291 282.09 221.391C282.09 237.111 287.51 248.251 296.29 253.651L266.5 236.421C257.44 231.141 251.82 219.901 251.82 203.901C251.82 171.801 274.36 132.761 302.16 116.711C314.54 109.561 325.88 108.181 334.64 111.711C335.701 112.145 336.73 112.653 337.72 113.231L337.76 113.221Z" fill="#455A64"/>
<path d="M269.2 231.84C261.45 227.33 257.2 217.41 257.2 203.93C257.2 173.57 278.59 136.52 304.88 121.34C311.88 117.34 318.72 115.19 324.71 115.19C327.444 115.166 330.158 115.658 332.71 116.64C333.53 116.979 334.325 117.373 335.09 117.82L344.7 123.37C339.472 124.76 334.458 126.859 329.8 129.61C300.58 146.49 276.8 187.67 276.8 221.42C276.739 226.82 277.412 232.202 278.8 237.42L269.2 231.84Z" fill="#37474F"/>
<path d="M364.94 129.19C356.18 125.69 344.84 127.08 332.46 134.19C304.66 150.25 282.12 189.28 282.12 221.39C282.12 237.62 287.89 248.96 297.19 254.15C306.27 259.21 318.72 258.38 332.46 250.44C360.26 234.44 382.8 195.36 382.8 163.26C382.8 145.48 375.86 133.55 364.94 129.19Z" fill="#37474F"/>
<path d="M252 200.08L282.28 217.56C282.4 215.26 282.64 212.93 282.97 210.56L252.7 193.08C252.34 195.453 252.107 197.787 252 200.08Z" fill="#455A64"/>
<path d="M292.49 123.431L322.76 140.911C324.6 139.441 326.48 138.061 328.38 136.781L298.11 119.311C296.21 120.581 294.33 122.001 292.49 123.431Z" fill="#455A64"/>
<path d="M278.16 137.67C276.79 139.31 275.47 141.01 274.16 142.74L304.44 160.22C305.72 158.48 307.05 156.79 308.44 155.14L278.16 137.67Z" fill="#455A64"/>
<path d="M261.9 163.301C260.98 165.241 260.12 167.201 259.32 169.181L289.59 186.661C290.39 184.661 291.25 182.701 292.17 180.781L261.9 163.301Z" fill="#455A64"/>
<path d="M367.91 130.621C366.948 130.069 365.945 129.591 364.91 129.191C356.59 125.881 346 126.951 334.37 133.191C338.79 130.761 345.64 127.081 353.37 122.291L367.91 130.621Z" fill="#263238"/>
<path d="M332.46 134.221C346.93 126.091 405.13 97.2708 405.13 56.0308L374.87 38.5508C374.87 79.7908 316.67 108.611 302.2 116.741L307.58 119.841L312.15 116.841L332.52 128.611L327.23 131.201L332.46 134.221Z" fill="#455A64"/>
<path d="M312.15 116.841C332.49 105.571 373.38 81.0909 379.08 46.6309L400.14 58.8009C397.74 92.9509 351.37 118.301 333.63 128.001L332.52 128.611L312.15 116.841Z" fill="#37474F"/>
<path d="M349.84 85C348.313 86.3867 346.757 87.7433 345.17 89.07L375.51 106.5C377.09 105.18 378.65 103.82 380.17 102.42L349.84 85Z" fill="#455A64"/>
<path d="M325.85 103.061C323.92 104.291 322.02 105.461 320.19 106.571L350.54 124.001C352.367 122.894 354.253 121.724 356.2 120.491L325.85 103.061Z" fill="#455A64"/>
<path d="M367.86 63.2402C366.9 64.9336 365.86 66.6002 364.74 68.2402L395.05 85.6502C396.16 84.0202 397.2 82.3702 398.16 80.6502L367.86 63.2402Z" fill="#455A64"/>
<path d="M312.15 116.84C307.41 119.44 303.28 122.29 303.28 122.29L323.28 133.84C323.28 133.84 327.47 131.38 332.52 128.61L312.15 116.84Z" fill="#37474F"/>
<path d="M377.3 102.002C364.42 94.8216 346.75 96.0016 327.25 107.252C287.81 130.032 255.83 185.422 255.83 230.962C255.83 256.232 265.67 273.152 281.17 279.342C293.6 284.342 309.69 282.342 327.25 272.202C366.7 249.422 398.68 194.042 398.68 148.492C398.68 125.482 390.49 109.372 377.3 102.002ZM378.01 129.622C374.01 134.002 369.76 138.782 365.53 143.812C357.007 153.893 348.997 164.396 341.53 175.282C340.53 176.782 339.53 178.232 338.67 179.592C337.711 178.879 336.518 178.554 335.33 178.682C335.63 177.622 335.94 176.512 336.24 175.352C335.7 176.162 335.19 176.942 334.7 177.702C333.74 176.992 332.548 176.667 331.36 176.792C331.78 175.352 332.2 173.792 332.62 172.152C335.702 160.304 338.07 148.283 339.71 136.152C340.55 130.292 341.17 124.512 341.64 119.152C351.28 116.552 359.88 117.462 366.71 121.432C371.127 123.134 375.02 125.965 378 129.642L378.01 129.622ZM280.46 181.762C287.88 164.292 299.46 147.762 312.92 135.762C313.07 137.442 313.24 139.142 313.43 140.852C314.57 139.752 315.727 138.682 316.9 137.642C317.31 142.462 317.9 147.532 318.77 152.402C320.234 161.87 322.615 171.174 325.88 180.182C326.29 181.332 326.75 182.392 327.13 183.372C325.816 184.814 324.691 186.416 323.78 188.142C322.9 187.812 321.96 187.452 320.96 187.142C313.148 184.81 305.052 183.562 296.9 183.432C292.743 183.261 288.579 183.331 284.43 183.642C284.73 182.932 285.04 182.212 285.36 181.512C283.71 181.582 282.08 181.672 280.46 181.782V181.762ZM287.93 257.202C286.762 256.214 285.678 255.13 284.69 253.962L283.96 255.322C276.18 248.712 271.49 237.272 271.49 221.902C271.49 220.762 271.55 219.582 271.55 218.432C275.87 216.962 280.55 215.272 285.27 213.342C295.089 209.301 304.581 204.506 313.66 199.002C314.96 198.182 316.21 197.402 317.37 196.622C317.396 197.94 317.791 199.226 318.51 200.332C319.51 199.712 320.44 199.112 321.33 198.512C321.353 199.891 321.788 201.232 322.58 202.362C321.58 203.602 320.58 204.982 319.51 206.432C312.87 215.502 304.83 227.672 297.59 240.062C294.14 245.862 290.91 251.652 287.93 257.222V257.202ZM331.25 256.002C324.2 260.062 317.42 262.482 311.2 263.232C311.57 262.292 311.95 261.342 312.31 260.392C310.643 260.821 308.949 261.139 307.24 261.342C309.48 255.652 311.67 249.622 313.76 243.482C317.903 231.449 321.405 219.205 324.25 206.802C324.62 205.212 324.88 203.672 325.19 202.232C325.92 201.973 326.621 201.638 327.28 201.232C327.989 200.821 328.658 200.345 329.28 199.812H329.33C329.582 200.992 329.899 202.157 330.28 203.302L330.37 203.592C330.64 203.462 330.92 203.302 331.22 203.142C331.93 202.732 332.599 202.256 333.22 201.722H333.28C333.519 202.907 333.833 204.076 334.22 205.222C336.791 213.77 340.309 222.005 344.71 229.772C346.682 233.339 348.856 236.791 351.22 240.112C345.33 246.306 338.61 251.654 331.25 256.002ZM370.86 204.692C370.76 204.902 370.65 205.112 370.54 205.322C367.482 203.104 364.274 201.099 360.94 199.322C360.21 198.912 359.46 198.522 358.71 198.142C353.645 195.869 348.361 194.12 342.94 192.922C341.89 192.682 340.85 192.502 339.94 192.382C340.086 192.055 340.216 191.721 340.33 191.382L339 191.002C338.01 190.771 337.009 190.594 336 190.472C336.696 188.779 337.118 186.987 337.25 185.162C338.39 184.622 339.65 183.952 340.9 183.292C350.791 177.792 360.293 171.621 369.34 164.822C374.04 161.332 378.68 157.622 383.01 154.092C383.01 155.242 383.07 156.362 383.07 157.502C383.07 158.052 383.07 158.602 383.07 159.162C384.41 158.092 385.72 157.022 387.01 155.982C387.01 157.132 387.01 158.242 387.01 159.382C387.01 174.752 382.32 191.632 374.54 207.202C373.36 206.362 372.133 205.532 370.86 204.712V204.692Z" fill="#0B3555"/>
<path opacity="0.4" d="M377.3 102.002C364.42 94.8216 346.75 96.0016 327.25 107.252C287.81 130.032 255.83 185.422 255.83 230.962C255.83 256.232 265.67 273.152 281.17 279.342C293.6 284.342 309.69 282.342 327.25 272.202C366.7 249.422 398.68 194.042 398.68 148.492C398.68 125.482 390.49 109.372 377.3 102.002ZM378.01 129.622C374.01 134.002 369.76 138.782 365.53 143.812C357.007 153.893 348.997 164.396 341.53 175.282C340.53 176.782 339.53 178.232 338.67 179.592C337.711 178.879 336.518 178.554 335.33 178.682C335.63 177.622 335.94 176.512 336.24 175.352C335.7 176.162 335.19 176.942 334.7 177.702C333.74 176.992 332.548 176.667 331.36 176.792C331.78 175.352 332.2 173.792 332.62 172.152C335.702 160.304 338.07 148.283 339.71 136.152C340.55 130.292 341.17 124.512 341.64 119.152C351.28 116.552 359.88 117.462 366.71 121.432C371.127 123.134 375.02 125.965 378 129.642L378.01 129.622ZM280.46 181.762C287.88 164.292 299.46 147.762 312.92 135.762C313.07 137.442 313.24 139.142 313.43 140.852C314.57 139.752 315.727 138.682 316.9 137.642C317.31 142.462 317.9 147.532 318.77 152.402C320.234 161.87 322.615 171.174 325.88 180.182C326.29 181.332 326.75 182.392 327.13 183.372C325.816 184.814 324.691 186.416 323.78 188.142C322.9 187.812 321.96 187.452 320.96 187.142C313.148 184.81 305.052 183.562 296.9 183.432C292.743 183.261 288.579 183.331 284.43 183.642C284.73 182.932 285.04 182.212 285.36 181.512C283.71 181.582 282.08 181.672 280.46 181.782V181.762ZM287.93 257.202C286.762 256.214 285.678 255.13 284.69 253.962L283.96 255.322C276.18 248.712 271.49 237.272 271.49 221.902C271.49 220.762 271.55 219.582 271.55 218.432C275.87 216.962 280.55 215.272 285.27 213.342C295.089 209.301 304.581 204.506 313.66 199.002C314.96 198.182 316.21 197.402 317.37 196.622C317.396 197.94 317.791 199.226 318.51 200.332C319.51 199.712 320.44 199.112 321.33 198.512C321.353 199.891 321.788 201.232 322.58 202.362C321.58 203.602 320.58 204.982 319.51 206.432C312.87 215.502 304.83 227.672 297.59 240.062C294.14 245.862 290.91 251.652 287.93 257.222V257.202ZM331.25 256.002C324.2 260.062 317.42 262.482 311.2 263.232C311.57 262.292 311.95 261.342 312.31 260.392C310.643 260.821 308.949 261.139 307.24 261.342C309.48 255.652 311.67 249.622 313.76 243.482C317.903 231.449 321.405 219.205 324.25 206.802C324.62 205.212 324.88 203.672 325.19 202.232C325.92 201.973 326.621 201.638 327.28 201.232C327.989 200.821 328.658 200.345 329.28 199.812H329.33C329.582 200.992 329.899 202.157 330.28 203.302L330.37 203.592C330.64 203.462 330.92 203.302 331.22 203.142C331.93 202.732 332.599 202.256 333.22 201.722H333.28C333.519 202.907 333.833 204.076 334.22 205.222C336.791 213.77 340.309 222.005 344.71 229.772C346.682 233.339 348.856 236.791 351.22 240.112C345.33 246.306 338.61 251.654 331.25 256.002ZM370.86 204.692C370.76 204.902 370.65 205.112 370.54 205.322C367.482 203.104 364.274 201.099 360.94 199.322C360.21 198.912 359.46 198.522 358.71 198.142C353.645 195.869 348.361 194.12 342.94 192.922C341.89 192.682 340.85 192.502 339.94 192.382C340.086 192.055 340.216 191.721 340.33 191.382L339 191.002C338.01 190.771 337.009 190.594 336 190.472C336.696 188.779 337.118 186.987 337.25 185.162C338.39 184.622 339.65 183.952 340.9 183.292C350.791 177.792 360.293 171.621 369.34 164.822C374.04 161.332 378.68 157.622 383.01 154.092C383.01 155.242 383.07 156.362 383.07 157.502C383.07 158.052 383.07 158.602 383.07 159.162C384.41 158.092 385.72 157.022 387.01 155.982C387.01 157.132 387.01 158.242 387.01 159.382C387.01 174.752 382.32 191.632 374.54 207.202C373.36 206.362 372.133 205.532 370.86 204.712V204.692Z" fill="white"/>
<path d="M377.3 102C364.87 96.9999 348.78 98.9999 331.22 109.14C291.77 131.92 259.79 187.3 259.79 232.85C259.79 255.85 267.98 271.98 281.17 279.34C294.05 286.52 311.72 285.34 331.22 274.08C370.66 251.31 402.64 195.93 402.64 150.38C402.64 125.13 392.8 108.2 377.3 102ZM340.3 191.32C340.774 189.944 341.063 188.512 341.16 187.06C342.31 186.51 343.57 185.85 344.82 185.18C354.71 179.683 364.212 173.515 373.26 166.72C376.56 164.26 379.83 161.72 383 159.17C384.34 158.1 385.65 157.03 386.94 155.99C386.94 157.14 386.94 158.25 386.94 159.39C386.94 174.76 382.25 191.64 374.47 207.21C373.31 206.35 372.093 205.51 370.82 204.69C368.91 203.47 366.91 202.3 364.87 201.18C362.83 200.06 360.77 199.04 358.67 198.12C353.605 195.848 348.321 194.099 342.9 192.9C341.85 192.66 340.81 192.48 339.9 192.36C340.05 192.027 340.184 191.686 340.3 191.34V191.32ZM378 129.64C374 134.02 369.75 138.8 365.52 143.83C356.997 153.911 348.987 164.414 341.52 175.3C340.52 176.8 339.52 178.25 338.66 179.61C337.701 178.897 336.508 178.572 335.32 178.7C335.62 177.64 335.93 176.53 336.23 175.37C336.35 174.94 336.45 174.5 336.57 174.06C339.661 162.215 342.028 150.192 343.66 138.06C344.5 132.22 345.13 126.43 345.6 121.06C353.45 118.94 360.6 119.16 366.7 121.46C371.117 123.152 375.013 125.972 378 129.64ZM331.24 203.17C331.949 202.76 332.619 202.284 333.24 201.75H333.3C333.539 202.935 333.853 204.104 334.24 205.25C336.811 213.799 340.329 222.033 344.73 229.8C346.702 233.367 348.876 236.819 351.24 240.14C345.342 246.344 338.611 251.698 331.24 256.05C324.19 260.11 317.41 262.53 311.19 263.28C311.56 262.34 311.94 261.39 312.3 260.44C314.16 255.59 315.97 250.54 317.72 245.44C321.859 233.409 325.36 221.169 328.21 208.77C328.57 207.17 328.83 205.64 329.15 204.19C329.578 204.057 329.993 203.886 330.39 203.68C330.67 203.49 331 203.33 331.25 203.17H331.24ZM275.44 223.81C275.44 222.66 275.5 221.48 275.5 220.34C279.83 218.86 284.5 217.17 289.23 215.25C299.045 211.207 308.533 206.413 317.61 200.91L318.5 200.35C319.5 199.73 320.43 199.13 321.32 198.53C321.343 199.909 321.778 201.25 322.57 202.38C321.57 203.62 320.57 205 319.5 206.45C312.86 215.52 304.82 227.69 297.58 240.08C294.13 245.86 290.9 251.65 287.92 257.22C286.752 256.232 285.668 255.148 284.68 253.98C278.86 247.15 275.45 236.9 275.45 223.81H275.44ZM316.89 137.69C317.3 142.51 317.89 147.58 318.76 152.45C320.224 161.918 322.605 171.222 325.87 180.23C326.28 181.38 326.74 182.44 327.12 183.42C325.806 184.862 324.681 186.465 323.77 188.19C322.89 187.86 321.95 187.5 320.95 187.19C313.138 184.858 305.042 183.61 296.89 183.48C292.733 183.309 288.569 183.379 284.42 183.69C284.72 182.98 285.03 182.26 285.35 181.56C292.074 166.372 301.597 152.586 313.42 140.92C314.567 139.807 315.727 138.73 316.9 137.69H316.89Z" fill="#0B3555"/>
<path d="M322.58 202.381C321.58 203.621 320.58 205.001 319.51 206.451C312.87 215.521 304.83 227.691 297.59 240.081C294.14 245.861 290.91 251.651 287.93 257.221C286.762 256.233 285.678 255.149 284.69 253.981C287.47 248.821 290.46 243.511 293.62 238.191C300.87 225.811 308.91 213.641 315.54 204.561C316.54 203.121 317.62 201.731 318.62 200.501L318.51 200.351C319.51 199.731 320.44 199.131 321.33 198.531C321.353 199.911 321.788 201.251 322.58 202.381Z" fill="#0B3555"/>
<path opacity="0.3" d="M322.58 202.381C321.58 203.621 320.58 205.001 319.51 206.451C312.87 215.521 304.83 227.691 297.59 240.081C294.14 245.861 290.91 251.651 287.93 257.221C286.762 256.233 285.678 255.149 284.69 253.981C287.47 248.821 290.46 243.511 293.62 238.191C300.87 225.811 308.91 213.641 315.54 204.561C316.54 203.121 317.62 201.731 318.62 200.501L318.51 200.351C319.51 199.731 320.44 199.131 321.33 198.531C321.353 199.911 321.788 201.251 322.58 202.381Z" fill="black"/>
<path d="M351.28 240.11C345.382 246.314 338.651 251.668 331.28 256.02C324.23 260.08 317.45 262.5 311.23 263.25C311.6 262.31 311.98 261.36 312.34 260.41C317.606 259.019 322.654 256.906 327.34 254.13C334.709 249.775 341.44 244.421 347.34 238.22C344.969 234.903 342.789 231.454 340.81 227.89C336.469 220.204 332.985 212.066 330.42 203.62C330.69 203.49 330.97 203.33 331.27 203.17C331.979 202.76 332.649 202.285 333.27 201.75H333.33C333.569 202.935 333.883 204.104 334.27 205.25C336.84 213.799 340.359 222.033 344.76 229.8C346.737 233.357 348.913 236.799 351.28 240.11Z" fill="#0B3555"/>
<path opacity="0.2" d="M351.28 240.111C345.382 246.315 338.651 251.669 331.28 256.021C324.23 260.081 317.45 262.501 311.23 263.251C311.6 262.311 311.98 261.361 312.34 260.411C317.606 259.02 322.654 256.906 327.34 254.131C334.709 249.776 341.44 244.422 347.34 238.221" fill="black"/>
<path opacity="0.3" d="M344.77 229.771C340.369 222.004 336.851 213.77 334.28 205.221C333.893 204.075 333.579 202.906 333.34 201.721H333.28C332.659 202.255 331.99 202.731 331.28 203.141C330.98 203.301 330.7 203.461 330.43 203.591C332.995 212.036 336.479 220.175 340.82 227.861C342.799 231.425 344.979 234.874 347.35 238.191L351.35 240.081C348.963 236.772 346.766 233.329 344.77 229.771Z" fill="black"/>
<path d="M358.71 198.141C353.645 195.869 348.361 194.12 342.94 192.921C341.89 192.681 340.85 192.501 339.94 192.381C340.086 192.054 340.216 191.72 340.33 191.381C346.697 192.917 352.865 195.186 358.71 198.141Z" fill="#0B3555"/>
<path d="M387 159.412C387 174.782 382.31 191.662 374.53 207.232C373.37 206.372 372.153 205.532 370.88 204.712C378.19 189.882 382.71 173.892 383.02 159.192C384.36 158.122 385.67 157.052 386.96 156.012C386.94 157.162 387 158.272 387 159.412Z" fill="#0B3555"/>
<path opacity="0.3" d="M358.71 198.141C353.645 195.869 348.361 194.12 342.94 192.921C341.89 192.681 340.85 192.501 339.94 192.381C340.086 192.054 340.216 191.72 340.33 191.381C346.697 192.917 352.865 195.186 358.71 198.141Z" fill="black"/>
<path opacity="0.2" d="M387 159.412C387 174.782 382.31 191.662 374.53 207.232C373.37 206.372 372.153 205.532 370.88 204.712C378.19 189.882 382.71 173.892 383.02 159.192C384.36 158.122 385.67 157.052 386.96 156.012C386.94 157.162 387 158.272 387 159.412Z" fill="black"/>
<path d="M378 129.641C374 134.021 369.75 138.801 365.52 143.831C356.997 153.912 348.987 164.415 341.52 175.301C340.52 176.801 339.52 178.251 338.66 179.611C337.701 178.898 336.508 178.573 335.32 178.701C335.62 177.641 335.93 176.531 336.23 175.371L337.56 173.371C345.024 162.486 353.035 151.986 361.56 141.911C365.79 136.911 370.01 132.081 374.03 127.721C371.97 125.222 369.485 123.106 366.69 121.471C371.109 123.159 375.009 125.976 378 129.641Z" fill="#0B3555"/>
<path opacity="0.3" d="M378 129.641C374 134.021 369.75 138.801 365.52 143.831C356.997 153.912 348.987 164.415 341.52 175.301C340.52 176.801 339.52 178.251 338.66 179.611C337.701 178.898 336.508 178.573 335.32 178.701C335.62 177.641 335.93 176.531 336.23 175.371L337.56 173.371C345.024 162.486 353.035 151.986 361.56 141.911C365.79 136.911 370.01 132.081 374.03 127.721C371.97 125.222 369.485 123.106 366.69 121.471C371.109 123.159 375.009 125.976 378 129.641Z" fill="black"/>
<path d="M327.13 183.42C325.817 184.862 324.691 186.465 323.78 188.19C322.9 187.86 321.96 187.5 320.96 187.19C313.148 184.859 305.052 183.61 296.9 183.48C292.743 183.309 288.579 183.379 284.43 183.69C284.73 182.98 285.04 182.26 285.36 181.56C287.88 181.47 290.42 181.48 292.94 181.56C301.092 181.7 309.187 182.952 317 185.28C318 185.61 318.93 185.97 319.82 186.28C320.727 184.555 321.849 182.952 323.16 181.51C322.79 180.51 322.32 179.51 321.9 178.32C318.65 169.306 316.276 160 314.81 150.53C314.26 147.36 313.81 144.1 313.43 140.87C314.57 139.77 315.727 138.7 316.9 137.66C317.31 142.48 317.9 147.55 318.77 152.42C320.234 161.889 322.615 171.193 325.88 180.2C326.29 181.38 326.75 182.44 327.13 183.42Z" fill="#0B3555"/>
<path opacity="0.3" d="M323.16 181.54C321.849 182.982 320.727 184.585 319.82 186.31C318.93 185.97 317.99 185.61 317 185.31C309.186 182.985 301.092 181.737 292.94 181.6C290.42 181.49 287.88 181.48 285.36 181.6C285.04 182.3 284.73 183.02 284.43 183.73C288.579 183.419 292.743 183.349 296.9 183.52C305.063 183.627 313.172 184.855 321 187.17C322 187.5 322.94 187.86 323.82 188.17C324.731 186.445 325.857 184.842 327.17 183.4L323.16 181.54Z" fill="black"/>
<path opacity="0.2" d="M323.16 181.541C322.79 180.541 322.32 179.541 321.9 178.351C318.65 169.337 316.276 160.031 314.81 150.561C314.26 147.391 313.81 144.131 313.43 140.901C314.57 139.801 315.727 138.731 316.9 137.691C317.31 142.511 317.9 147.581 318.77 152.451C320.234 161.92 322.615 171.224 325.88 180.231C326.29 181.381 326.75 182.441 327.13 183.421" fill="black"/>
<path d="M265.65 392.26H256.72L258.15 400.97C258.207 401.203 258.314 401.42 258.465 401.607C258.615 401.794 258.805 401.945 259.02 402.05C259.689 402.385 260.427 402.56 261.175 402.56C261.923 402.56 262.661 402.385 263.33 402.05C263.547 401.947 263.738 401.796 263.888 401.609C264.039 401.422 264.146 401.204 264.2 400.97L265.65 392.26Z" fill="#FAFAFA"/>
<path d="M261.19 394.619C263.664 394.619 265.67 393.46 265.67 392.029C265.67 390.599 263.664 389.439 261.19 389.439C258.716 389.439 256.71 390.599 256.71 392.029C256.71 393.46 258.716 394.619 261.19 394.619Z" fill="#FAFAFA"/>
<path d="M220.23 365.84H211.3L212.73 374.55C212.787 374.781 212.895 374.997 213.046 375.182C213.196 375.367 213.385 375.516 213.6 375.62C214.268 375.96 215.006 376.137 215.755 376.137C216.504 376.137 217.243 375.96 217.91 375.62C218.125 375.516 218.314 375.367 218.465 375.182C218.615 374.997 218.723 374.781 218.78 374.55L220.23 365.84Z" fill="#FAFAFA"/>
<path d="M212.59 363.769C210.84 364.769 210.84 366.419 212.59 367.429C213.572 367.928 214.658 368.188 215.76 368.188C216.862 368.188 217.948 367.928 218.93 367.429C220.69 366.429 220.69 364.779 218.93 363.769C217.948 363.27 216.862 363.01 215.76 363.01C214.658 363.01 213.572 363.27 212.59 363.769Z" fill="#FAFAFA"/>
<path d="M395.14 326.738H386.21L387.63 335.448C387.683 335.681 387.788 335.9 387.937 336.086C388.086 336.273 388.275 336.424 388.49 336.528C389.159 336.868 389.9 337.045 390.65 337.045C391.401 337.045 392.141 336.868 392.81 336.528C393.026 336.423 393.215 336.272 393.366 336.085C393.516 335.899 393.624 335.681 393.68 335.448L395.14 326.738Z" fill="#FAFAFA"/>
<path d="M387.5 324.679C385.75 325.679 385.75 327.329 387.5 328.339C388.482 328.838 389.568 329.098 390.67 329.098C391.772 329.098 392.858 328.838 393.84 328.339C395.59 327.339 395.59 325.689 393.84 324.679C392.858 324.18 391.772 323.92 390.67 323.92C389.568 323.92 388.482 324.18 387.5 324.679Z" fill="#FAFAFA"/>
<path d="M349.71 300.318H340.78L342.21 309.028C342.267 309.26 342.375 309.476 342.525 309.661C342.676 309.846 342.865 309.995 343.08 310.098C343.749 310.438 344.489 310.615 345.24 310.615C345.991 310.615 346.731 310.438 347.4 310.098C347.615 309.997 347.804 309.848 347.953 309.662C348.102 309.477 348.207 309.26 348.26 309.028L349.71 300.318Z" fill="#FAFAFA"/>
<path d="M342.08 298.249C340.33 299.249 340.33 300.899 342.08 301.919C343.062 302.418 344.148 302.678 345.25 302.678C346.352 302.678 347.438 302.418 348.42 301.919C350.17 300.919 350.17 299.269 348.42 298.249C347.438 297.75 346.352 297.49 345.25 297.49C344.148 297.49 343.062 297.75 342.08 298.249Z" fill="#FAFAFA"/>
<path d="M402.26 280.999V322.589C402.176 324.091 401.741 325.552 400.989 326.855C400.237 328.158 399.189 329.266 397.93 330.089L394.4 332.089H394.34C392.664 332.913 390.785 333.235 388.93 333.019L281.53 392.539C281.402 393.983 280.951 395.38 280.21 396.627C279.469 397.873 278.458 398.937 277.25 399.739L273.73 401.739C273.627 401.808 273.516 401.865 273.4 401.909C273.342 401.943 273.282 401.973 273.22 401.999H273.17C271.036 402.886 268.657 402.996 266.45 402.309C266.194 402.232 265.944 402.139 265.7 402.029L265.58 401.979C265.4 401.899 265.23 401.809 265.07 401.719L208.7 369.309C207.441 368.486 206.393 367.379 205.64 366.076C204.888 364.773 204.453 363.311 204.37 361.809V292.069C204.455 290.568 204.891 289.107 205.643 287.804C206.395 286.502 207.442 285.394 208.7 284.569L332.93 212.799C334.272 212.118 335.755 211.764 337.26 211.764C338.765 211.764 340.248 212.118 341.59 212.799L345.12 214.799C346.411 215.644 347.519 216.74 348.378 218.021C349.237 219.303 349.829 220.744 350.12 222.259L353.52 247.789L397.94 273.439C399.205 274.27 400.256 275.387 401.007 276.701C401.757 278.015 402.187 279.488 402.26 280.999Z" fill="#37474F"/>
<path d="M345.12 214.829L341.6 212.829C340.258 212.148 338.775 211.793 337.27 211.793C335.765 211.793 334.282 212.148 332.94 212.829L208.7 284.569C208.44 284.719 208.17 284.909 208.25 284.849C206.165 286.421 204.785 288.754 204.41 291.339C204.73 289.129 206.53 288.339 208.69 289.569L212.22 291.569C213.562 292.249 215.045 292.604 216.55 292.604C218.055 292.604 219.538 292.249 220.88 291.569L345.12 219.789C347.51 218.449 347.51 216.209 345.12 214.829Z" fill="#455A64"/>
<path d="M402.26 280.998V322.588C402.176 324.09 401.741 325.552 400.989 326.854C400.237 328.157 399.189 329.265 397.93 330.088L394.4 332.088H394.34C392.78 332.898 391.021 333.245 389.27 333.088C388.035 333.016 386.83 332.675 385.74 332.088L345.66 308.998C344.401 308.175 343.353 307.067 342.601 305.764C341.849 304.462 341.414 303 341.33 301.498V259.858C341.412 258.356 341.847 256.894 342.599 255.591C343.352 254.288 344.4 253.181 345.66 252.358L353.51 247.818L397.93 273.468C399.193 274.295 400.243 275.407 400.995 276.716C401.748 278.024 402.181 279.491 402.26 280.998Z" fill="#263238"/>
<path d="M353.51 247.818L345.66 252.358C343.28 253.728 343.28 255.978 345.66 257.358L385.74 280.498C386.999 281.321 388.048 282.429 388.8 283.732C389.552 285.035 389.987 286.496 390.07 287.998V329.598C390.07 332.348 392.02 333.468 394.4 332.098L397.93 330.098C399.188 329.274 400.235 328.166 400.987 326.863C401.739 325.561 402.175 324.1 402.26 322.598V280.998C402.175 279.497 401.739 278.036 400.987 276.734C400.235 275.431 399.188 274.323 397.93 273.498L353.51 247.818Z" fill="#455A64"/>
<path d="M390.07 287.999V329.599C390.07 332.349 392.02 333.469 394.4 332.099L397.93 330.099C399.188 329.275 400.235 328.167 400.987 326.864C401.739 325.561 402.175 324.101 402.26 322.599V280.999C402.213 279.482 401.78 278.002 401 276.699L388.81 283.699C389.593 285 390.027 286.481 390.07 287.999Z" fill="#37474F"/>
<path d="M388.27 333.089C387.855 333.95 387.323 334.751 386.69 335.469C385.464 336.592 384.095 337.55 382.62 338.319L286.77 393.699C286.099 394.039 285.357 394.216 284.605 394.216C283.853 394.216 283.111 394.039 282.44 393.699L268.36 385.569L240.19 369.309C238.882 368.618 237.787 367.584 237.023 366.317C236.259 365.05 235.855 363.598 235.855 362.119C235.855 360.639 236.259 359.188 237.023 357.921C237.787 356.654 238.882 355.619 240.19 354.929L256.19 345.699L268.38 338.699L336 299.569C337.343 298.892 338.826 298.539 340.33 298.539C341.834 298.539 343.317 298.892 344.66 299.569L384.74 322.719C385.975 323.493 387.011 324.548 387.763 325.797C388.516 327.046 388.963 328.454 389.07 329.909C389.036 331.014 388.763 332.099 388.27 333.089Z" fill="#263238"/>
<path d="M286.78 384.319L386.91 326.459C388.1 325.769 389.07 326.329 389.07 327.709V332.089C389.029 332.84 388.812 333.57 388.437 334.222C388.062 334.873 387.539 335.427 386.91 335.839L286.77 393.699C285.58 394.389 284.61 393.829 284.61 392.449V388.069C284.651 387.318 284.869 386.586 285.246 385.935C285.623 385.283 286.149 384.729 286.78 384.319Z" fill="#37474F"/>
<path d="M336 278.119L240.19 333.479C238.93 334.301 237.882 335.409 237.129 336.712C236.377 338.015 235.942 339.477 235.86 340.979V349.739C235.942 351.241 236.377 352.703 237.129 354.006C237.882 355.309 238.93 356.417 240.19 357.239L280.28 380.379C281.622 381.06 283.105 381.415 284.61 381.415C286.115 381.415 287.598 381.06 288.94 380.379L384.74 324.999C386 324.176 387.048 323.069 387.8 321.766C388.552 320.463 388.987 319.001 389.07 317.499V308.729C388.988 307.227 388.553 305.765 387.801 304.462C387.049 303.159 386 302.051 384.74 301.229L344.66 278.089C343.316 277.413 341.831 277.063 340.327 277.068C338.822 277.074 337.34 277.434 336 278.119Z" fill="#37474F"/>
<path d="M284.61 362.649V381.419C283.105 381.461 281.615 381.116 280.28 380.419L240.19 357.279C238.93 356.457 237.882 355.35 237.129 354.047C236.377 352.744 235.942 351.282 235.86 349.779V340.999C235.941 339.585 236.332 338.205 237.004 336.957C237.676 335.71 238.613 334.625 239.75 333.779C237.81 335.169 237.96 337.209 240.19 338.499L280.28 361.639C281.614 362.339 283.104 362.686 284.61 362.649Z" fill="#263238"/>
<path d="M288.94 361.62L384.74 306.26C387.13 304.88 387.13 302.64 384.74 301.26L344.66 278.12C343.318 277.439 341.835 277.084 340.33 277.084C338.826 277.084 337.342 277.439 336 278.12L240.19 333.48C237.8 334.86 237.8 337.1 240.19 338.48L280.28 361.62C281.622 362.3 283.106 362.655 284.61 362.655C286.115 362.655 287.598 362.3 288.94 361.62Z" fill="#455A64"/>
<path d="M325.81 278.649L292.59 279.559L292.22 243.459C292.16 241.278 292.531 239.108 293.31 237.071C294.089 235.034 295.262 233.17 296.762 231.587C298.262 230.004 300.059 228.731 302.051 227.843C304.043 226.954 306.19 226.467 308.37 226.409C310.551 226.349 312.722 226.719 314.759 227.498C316.797 228.277 318.661 229.45 320.245 230.95C321.829 232.45 323.103 234.247 323.992 236.239C324.882 238.23 325.371 240.378 325.43 242.559L325.81 278.649Z" fill="#263238"/>
<path d="M316.59 261.628C318.95 261.358 322.33 259.788 325.81 266.278C329.29 272.768 336 286.678 336 286.678L342.67 279.098L347.79 283.238C347.79 283.238 340.11 294.888 337.9 297.088C336.15 298.828 334.07 299.088 331.8 296.168C329.13 292.778 320.71 279.098 320.71 279.098L316.59 261.628Z" fill="#FFA8A7"/>
<path d="M364.51 281.669C364.611 281.542 364.674 281.388 364.693 281.227C364.711 281.066 364.684 280.902 364.614 280.755C364.544 280.609 364.435 280.484 364.298 280.397C364.161 280.309 364.003 280.261 363.84 280.259C363.724 280.259 363.609 280.283 363.502 280.33C363.395 280.376 363.3 280.444 363.22 280.529C363.22 280.439 363.22 280.349 363.22 280.259C363.22 279.914 363.152 279.573 363.02 279.254C362.887 278.935 362.694 278.646 362.449 278.403C362.205 278.159 361.915 277.967 361.596 277.835C361.277 277.704 360.935 277.638 360.59 277.639C360.138 277.636 359.693 277.754 359.3 277.979C359.374 277.805 359.404 277.615 359.387 277.426C359.37 277.238 359.307 277.056 359.203 276.898C359.099 276.74 358.958 276.609 358.792 276.519C358.626 276.428 358.439 276.38 358.25 276.379C358.043 276.379 357.839 276.434 357.66 276.539C357.67 276.402 357.67 276.265 357.66 276.129C357.635 275.476 357.398 274.85 356.984 274.345C356.571 273.839 356.004 273.482 355.369 273.329C354.735 273.175 354.067 273.232 353.468 273.492C352.869 273.752 352.371 274.2 352.05 274.769C351.987 274.565 351.86 274.387 351.688 274.26C351.516 274.134 351.309 274.066 351.095 274.066C350.882 274.066 350.674 274.134 350.502 274.26C350.33 274.387 350.203 274.565 350.14 274.769C349.873 274.338 349.473 274.006 349 273.824C348.527 273.641 348.008 273.618 347.521 273.757C347.033 273.896 346.605 274.19 346.3 274.594C345.995 274.999 345.83 275.492 345.83 275.999C345.82 276.115 345.82 276.232 345.83 276.349C345.704 276.244 345.55 276.177 345.387 276.157C345.225 276.136 345.059 276.163 344.911 276.233C344.763 276.304 344.638 276.415 344.551 276.554C344.464 276.694 344.418 276.855 344.42 277.019C344.117 276.839 343.772 276.743 343.42 276.739C342.92 276.741 342.438 276.923 342.062 277.252C341.685 277.581 341.44 278.034 341.37 278.529C341.226 278.476 341.074 278.449 340.92 278.449C340.75 278.448 340.582 278.48 340.425 278.544C340.268 278.609 340.125 278.704 340.005 278.824C339.885 278.944 339.79 279.087 339.726 279.244C339.661 279.401 339.629 279.569 339.63 279.739C339.632 279.896 339.659 280.051 339.71 280.199C339.03 280.436 338.458 280.91 338.098 281.534C337.738 282.158 337.615 282.89 337.751 283.598C337.887 284.305 338.273 284.94 338.838 285.386C339.404 285.833 340.111 286.061 340.83 286.029L351.68 293.339L363.29 285.859C363.781 285.858 364.259 285.698 364.651 285.402C365.042 285.106 365.327 284.69 365.462 284.218C365.596 283.745 365.573 283.242 365.396 282.784C365.219 282.326 364.897 281.938 364.48 281.679L364.51 281.669Z" fill="#F5F5F5"/>
<path d="M354.5 290.12L354.12 312.69L356.49 311.33L357.26 288.52L354.5 290.12Z" fill="#FAFAFA"/>
<path d="M357.26 288.518L356.49 311.328L358.84 309.968L360.03 286.928L357.26 288.518Z" fill="#0B3555"/>
<path d="M352.49 291.279C352.264 291.403 352.008 291.465 351.75 291.459V313.809C352.007 313.813 352.261 313.755 352.49 313.639L354.12 312.689L354.5 290.119L352.49 291.279Z" fill="#0B3555"/>
<path d="M361.18 308.619L362.77 307.699C362.988 307.557 363.173 307.371 363.313 307.151C363.452 306.932 363.544 306.686 363.58 306.429L365.58 283.719L362.8 285.329L361.18 308.619Z" fill="#0B3555"/>
<path d="M360.03 286.928L358.84 309.968L361.18 308.618L362.8 285.328L360.03 286.928Z" fill="#FAFAFA"/>
<path d="M349 290.12L349.38 312.69L347.02 311.33L346.25 288.52L349 290.12Z" fill="#0B3555"/>
<path d="M346.25 288.518L347.02 311.328L344.67 309.968L343.48 286.928L346.25 288.518Z" fill="#E0E0E0"/>
<path d="M351 291.279C351.224 291.402 351.475 291.464 351.73 291.459V313.809C351.477 313.812 351.226 313.754 351 313.639L349.36 312.689L349 290.119L351 291.279Z" fill="#E0E0E0"/>
<path d="M342.33 308.619L340.74 307.699C340.521 307.558 340.334 307.371 340.193 307.152C340.051 306.933 339.958 306.687 339.92 306.429L337.92 283.719L340.71 285.329L342.33 308.619Z" fill="#E0E0E0"/>
<path d="M343.48 286.928L344.67 309.968L342.33 308.618L340.71 285.328L343.48 286.928Z" fill="#0B3555"/>
<path opacity="0.1" d="M349 290.12L349.38 312.69L347.02 311.33L346.25 288.52L349 290.12Z" fill="black"/>
<path opacity="0.1" d="M343.48 286.928L344.67 309.968L342.33 308.618L340.71 285.328L343.48 286.928Z" fill="black"/>
<path d="M351.17 286.259C351.036 286.444 350.86 286.594 350.657 286.698C350.453 286.802 350.229 286.857 350 286.859C349.647 286.868 349.303 286.746 349.035 286.516C348.766 286.287 348.592 285.966 348.546 285.616C348.5 285.265 348.586 284.91 348.786 284.619C348.986 284.328 349.287 284.122 349.63 284.039C349.446 284.28 349.348 284.576 349.35 284.879C349.353 285.259 349.506 285.623 349.776 285.891C350.045 286.159 350.41 286.309 350.79 286.309C350.919 286.313 351.047 286.296 351.17 286.259Z" fill="#E0E0E0"/>
<path d="M352.85 286.359C352.866 286.507 352.846 286.656 352.792 286.794C352.738 286.933 352.652 287.056 352.541 287.154C352.43 287.253 352.297 287.323 352.153 287.359C352.009 287.395 351.858 287.397 351.714 287.363C351.569 287.329 351.435 287.261 351.322 287.165C351.209 287.068 351.121 286.946 351.064 286.809C351.008 286.672 350.986 286.523 350.999 286.375C351.012 286.227 351.061 286.084 351.14 285.959C351.159 286.152 351.24 286.335 351.37 286.479C351.537 286.662 351.769 286.772 352.016 286.785C352.263 286.798 352.505 286.713 352.69 286.549C352.754 286.496 352.809 286.431 352.85 286.359Z" fill="#E0E0E0"/>
<path d="M347.13 279.559C347.294 279.813 347.373 280.112 347.357 280.413C347.341 280.715 347.231 281.004 347.042 281.239C346.853 281.475 346.595 281.645 346.304 281.726C346.013 281.806 345.703 281.793 345.42 281.689C345.125 281.578 344.875 281.373 344.709 281.105C344.542 280.837 344.469 280.522 344.5 280.209C344.665 280.461 344.907 280.654 345.19 280.759C345.366 280.826 345.554 280.858 345.742 280.853C345.93 280.848 346.116 280.805 346.288 280.728C346.46 280.651 346.615 280.541 346.744 280.403C346.873 280.266 346.974 280.105 347.04 279.929C347.084 279.809 347.114 279.685 347.13 279.559Z" fill="#E0E0E0"/>
<path d="M344.9 280.918C344.969 281.049 345.006 281.195 345.006 281.343C345.006 281.491 344.969 281.637 344.9 281.768C344.846 281.878 344.771 281.976 344.678 282.057C344.586 282.137 344.479 282.199 344.363 282.238C344.246 282.277 344.124 282.293 344.001 282.284C343.879 282.275 343.76 282.243 343.65 282.188C343.469 282.099 343.321 281.953 343.231 281.773C343.141 281.592 343.112 281.386 343.15 281.188C343.228 281.341 343.347 281.47 343.493 281.561C343.64 281.651 343.808 281.698 343.98 281.698C344.152 281.698 344.321 281.651 344.467 281.561C344.614 281.47 344.733 281.341 344.81 281.188C344.857 281.105 344.888 281.013 344.9 280.918Z" fill="#E0E0E0"/>
<path d="M359.77 282.998C359.784 283.228 359.742 283.458 359.649 283.668C359.555 283.879 359.413 284.064 359.233 284.208C359.053 284.352 358.842 284.451 358.616 284.496C358.39 284.541 358.156 284.532 357.935 284.468C357.714 284.404 357.511 284.289 357.343 284.13C357.176 283.972 357.049 283.776 356.973 283.559C356.897 283.341 356.875 283.109 356.907 282.881C356.94 282.653 357.027 282.436 357.16 282.248C357.183 282.552 357.298 282.842 357.49 283.078C357.732 283.366 358.077 283.548 358.451 283.583C358.826 283.619 359.199 283.506 359.49 283.268C359.596 283.192 359.691 283.101 359.77 282.998Z" fill="#E0E0E0"/>
<path d="M361.32 282.339C361.336 282.487 361.316 282.636 361.262 282.775C361.208 282.913 361.122 283.037 361.011 283.135C360.9 283.233 360.767 283.303 360.623 283.34C360.479 283.376 360.328 283.377 360.184 283.343C360.039 283.31 359.905 283.242 359.792 283.145C359.679 283.049 359.591 282.927 359.534 282.789C359.478 282.652 359.456 282.503 359.469 282.355C359.482 282.207 359.531 282.065 359.61 281.939C359.628 282.11 359.693 282.273 359.798 282.409C359.903 282.545 360.044 282.649 360.204 282.71C360.365 282.771 360.539 282.787 360.708 282.755C360.876 282.723 361.033 282.645 361.16 282.529C361.224 282.476 361.279 282.412 361.32 282.339Z" fill="#E0E0E0"/>
<path d="M357.27 280.758C357.45 280.843 357.598 280.984 357.692 281.16C357.786 281.336 357.821 281.537 357.792 281.734C357.763 281.931 357.671 282.114 357.53 282.255C357.39 282.396 357.207 282.488 357.01 282.518C356.808 282.552 356.601 282.518 356.42 282.422C356.24 282.327 356.095 282.174 356.01 281.988C356.187 282.075 356.387 282.104 356.58 282.068C356.701 282.048 356.816 282.005 356.92 281.941C357.024 281.876 357.114 281.792 357.185 281.692C357.255 281.593 357.306 281.48 357.332 281.361C357.359 281.241 357.362 281.118 357.34 280.998C357.334 280.914 357.31 280.832 357.27 280.758Z" fill="#E0E0E0"/>
<path d="M342.33 277.068C342.33 277.778 343.26 278.758 343.8 279.298C344.34 279.838 346.04 280.718 346.5 281.348C346.96 281.978 347.62 281.938 347.81 280.918C348 279.898 346.29 278.098 346.25 277.558C346.21 277.018 348.45 277.068 349.87 277.608C351.29 278.148 352.81 280.688 353.36 281.938C353.91 283.188 357.36 283.088 357.26 279.498C357.16 275.908 355.38 274.208 353.41 273.288C351.229 272.365 348.816 272.138 346.5 272.638C344.29 273.138 341.87 274.938 340.71 278.458C340.941 278.412 341.18 278.433 341.4 278.518C341.441 278.223 341.545 277.941 341.706 277.69C341.866 277.44 342.079 277.227 342.33 277.068Z" fill="#FFA8A7"/>
<path d="M277.17 272.12C280.24 271 297.25 263.71 303.01 263.82L303.63 277.97L285.33 286.28L277.17 272.12Z" fill="#E0E0E0"/>
<path d="M347.88 352.838C347.3 353.448 346.64 354.148 346.71 354.918C346.929 356.546 347.653 358.064 348.78 359.258C350.38 360.988 351.44 364.258 351.78 366.548C352.12 368.838 352.28 374.548 355.13 376.768C357.98 378.988 364.89 380.148 364.89 375.978C364.89 371.808 356.64 355.738 356.64 355.738L347.88 352.838Z" fill="#263238"/>
<path d="M351.71 355.52C352.863 358.446 353.796 361.454 354.5 364.52C355.2 367.87 356.19 370.23 357.9 371.13C359.61 372.03 362.16 371.87 361.2 369.59C360.24 367.31 356.59 355.76 356.59 355.76L351.71 355.52Z" fill="#F28F8F"/>
<path d="M329.63 298.469C329.63 298.469 343.21 304.679 349.81 308.229C356.41 311.779 362.7 315.229 364.01 318.099C365.4 321.099 365.01 328.319 364.32 335.239C363.63 342.159 362.08 354.589 362.08 354.589L342.74 325.589L323.31 312.749L329.63 298.469Z" fill="#0B3555"/>
<path opacity="0.1" d="M354.72 328.998C352.81 324.558 348.65 321.608 344.72 319.198C341.62 317.278 333.89 312.778 330.86 311.018C331.466 309.501 331.805 307.89 331.86 306.258C331.86 306.258 330.91 308.438 329.79 310.408L328.98 311.738L348.88 326.588L362.55 350.998C362.55 350.998 356.63 333.388 354.72 328.998Z" fill="black"/>
<path d="M363.73 376.289C363.17 376.659 363.25 378.039 363.3 379.059C363.35 380.079 362.63 381.399 364.1 382.959C365.57 384.519 368.05 384.659 370.1 386.799C372.15 388.939 375.19 392.869 380.71 393.159C386.23 393.449 390.02 391.029 390.76 389.279C391.5 387.529 390.38 386.169 386.65 384.759C382.65 383.259 381.57 382.819 381.57 382.819L363.73 376.289Z" fill="#263238"/>
<path d="M367.73 364.398C367.73 364.398 371.45 371.118 373.54 374.148C375.86 377.29 378.649 380.055 381.81 382.348C382.51 382.878 384.04 383.828 384.61 384.258C384.747 384.333 384.864 384.439 384.953 384.568C385.041 384.696 385.098 384.844 385.12 384.998C385.141 385.153 385.126 385.31 385.076 385.458C385.026 385.605 384.941 385.739 384.83 385.848C383.91 387.188 379.08 388.458 375.92 386.978C372.76 385.498 369.26 382.148 367.29 380.828C366.29 380.178 365.37 379.548 364.68 379.078C364.354 378.861 364.09 378.562 363.914 378.211C363.739 377.861 363.658 377.47 363.68 377.078C363.68 376.848 363.68 376.588 363.68 376.278C363.68 374.628 360.31 368.578 360.31 368.578L367.73 364.398Z" fill="#FFA8A7"/>
<path d="M299.58 306.139C299.64 311.659 299.91 314.739 302.81 319.779C305.71 324.819 312.81 327.999 321.1 330.779C328 333.099 338.1 336.409 340.16 336.839C342.22 337.269 342.59 338.349 343.06 341.919C343.53 345.489 345.92 350.979 351.31 357.369C355.226 362.11 358.881 367.061 362.26 372.199C362.26 372.199 367.89 372.199 370.04 368.449C370.04 368.449 354.37 331.449 351.86 327.209C349.35 322.969 329 311.689 329 311.689C329 311.689 329.34 304.039 329.61 298.469L299.58 306.139Z" fill="#0B3555"/>
<path d="M303 263.819L298.1 266.279C298.1 266.279 301.48 269.669 300.55 277.999C299.9 283.899 298.55 284.409 295.55 286.069C299.55 295.129 299.55 308.469 299.55 308.469C299.55 308.469 306.6 312.249 319.41 308.609C330.67 305.419 329.55 298.469 329.55 298.469L324.71 294.739L323.62 285.919C323.62 285.919 327.43 282.089 325.78 275.269C324.13 268.449 316.51 261.629 316.51 261.629H313.51L303 263.819Z" fill="#FAFAFA"/>
<path d="M327.82 303.789C322.09 305.929 313.82 305.589 309.92 303.789C304.44 301.259 302.15 294.309 302.6 289.879C303.34 282.649 302.73 277.759 301 273.279H300.62C300.763 274.847 300.743 276.426 300.56 277.989C299.91 283.889 298.56 284.399 295.56 286.059C299.31 294.899 299.56 308.459 299.56 308.459C299.56 308.459 306.61 312.239 319.42 308.599C323.06 307.599 325.99 305.969 327.75 303.779L327.82 303.789Z" fill="#F0F0F0"/>
<path d="M318.81 233.568C320.59 234.568 322.88 238.908 322.91 248.158C322.91 256.008 320.46 258.008 319.2 258.598C317.94 259.188 315.47 258.918 313.06 258.598L313.11 261.848C313.11 261.848 317.42 266.568 317.27 268.728C317.12 270.888 311.75 271.998 308.6 269.998C306.321 268.341 304.337 266.313 302.73 263.998L302.49 253.128C302.49 253.128 301.12 254.538 298.68 252.518C296.68 250.848 295.92 247.958 297.41 246.358C297.798 245.976 298.271 245.692 298.79 245.529C299.309 245.366 299.86 245.329 300.396 245.421C300.933 245.513 301.439 245.731 301.875 246.057C302.31 246.384 302.662 246.809 302.9 247.298C306.038 247.085 309.073 246.092 311.73 244.408C313.679 243.285 315.335 241.718 316.565 239.834C317.795 237.951 318.564 235.804 318.81 233.568Z" fill="#FFA8A7"/>
<path d="M314.11 246.428C314.124 246.559 314.112 246.692 314.074 246.819C314.036 246.945 313.973 247.063 313.89 247.166C313.806 247.268 313.703 247.352 313.586 247.415C313.47 247.477 313.342 247.515 313.21 247.528C313.077 247.537 312.944 247.52 312.818 247.477C312.691 247.434 312.575 247.367 312.475 247.278C312.375 247.19 312.295 247.082 312.237 246.962C312.179 246.842 312.147 246.711 312.14 246.578C312.13 246.446 312.147 246.315 312.188 246.189C312.229 246.064 312.294 245.949 312.38 245.849C312.554 245.647 312.8 245.523 313.065 245.503C313.33 245.483 313.593 245.569 313.794 245.743C313.996 245.916 314.12 246.163 314.14 246.428H314.11Z" fill="#263238"/>
<path d="M314.55 253.068L316.86 253.738C316.823 253.892 316.755 254.037 316.661 254.163C316.567 254.29 316.448 254.397 316.312 254.477C316.176 254.558 316.025 254.61 315.869 254.63C315.712 254.651 315.553 254.64 315.4 254.598C315.089 254.501 314.828 254.288 314.67 254.003C314.511 253.718 314.469 253.384 314.55 253.068Z" fill="#F28F8F"/>
<path d="M322.11 243.179L320.11 241.859C320.188 241.722 320.293 241.601 320.42 241.506C320.546 241.411 320.691 241.343 320.845 241.307C320.999 241.27 321.159 241.266 321.315 241.294C321.47 241.322 321.619 241.381 321.75 241.469C322.016 241.656 322.201 241.936 322.267 242.253C322.334 242.571 322.278 242.902 322.11 243.179Z" fill="#263238"/>
<path d="M321.71 245.509C321.72 245.706 321.671 245.901 321.569 246.07C321.468 246.239 321.319 246.375 321.141 246.46C320.963 246.544 320.764 246.575 320.568 246.546C320.373 246.518 320.191 246.433 320.044 246.301C319.897 246.17 319.792 245.998 319.743 245.807C319.694 245.616 319.702 245.414 319.767 245.228C319.832 245.042 319.95 244.879 320.107 244.76C320.264 244.641 320.453 244.571 320.65 244.559C320.782 244.55 320.915 244.569 321.04 244.612C321.165 244.656 321.28 244.724 321.379 244.812C321.477 244.9 321.557 245.007 321.614 245.127C321.671 245.247 321.704 245.376 321.71 245.509Z" fill="#263238"/>
<path d="M317.25 244.578L317.37 250.998L320.46 249.948L317.25 244.578Z" fill="#F28F8F"/>
<path d="M313.06 258.589C310.54 258.329 305.31 256.979 304.44 254.949C304.796 255.977 305.455 256.873 306.33 257.519C307.92 258.799 313.11 260.159 313.11 260.159L313.06 258.589Z" fill="#F28F8F"/>
<path d="M313.11 261.838V260.158C313.11 260.158 317.19 259.428 319.34 260.158C321.305 260.864 323.128 261.917 324.72 263.268C325.903 264.709 326.584 266.496 326.66 268.358C326.61 270.638 324.42 271.428 321.47 269.578C319.88 268.578 319.27 266.658 318.22 265.668C316.258 264.78 314.513 263.473 313.11 261.838Z" fill="#B16668"/>
<path d="M298.11 266.279C293.66 268.329 290.97 269.639 289.52 276.279C288.07 282.919 282.23 314.629 282.23 314.629L289.15 316.839C289.15 316.839 294.24 301.109 295.68 295.839C297.12 290.569 299.94 282.659 300.56 277.989C301.18 273.319 301.68 270.099 298.11 266.279Z" fill="#FFA8A7"/>
<path d="M296.47 400.379H304.01V387.479H296.47V400.379Z" fill="#B16668"/>
<path d="M316.81 389.82L324.34 390.08L324.72 376.43L317.19 376.17L316.81 389.82Z" fill="#B16668"/>
<path d="M304 396.999V395.659C304.79 396.009 308.35 403.539 311.6 406.509C314.18 408.859 318.73 412.089 318.6 414.319C318.45 417.209 314.34 418.489 310.79 417.649C308.02 416.999 304.06 415.319 302.16 413.269C300.26 411.219 299.65 408.529 298.65 407.189C297.65 405.849 295.38 404.349 294.84 402.789C294.55 401.939 294.9 400.069 295.31 398.499C295.72 396.929 296.1 395.449 296.6 395.589V396.479C297.763 397.399 299.208 397.89 300.69 397.869C301.92 397.899 304 397.909 304 396.999Z" fill="#263238"/>
<path d="M324.42 387.759C324.81 387.759 325.13 388.319 325.99 389.259C327.519 390.543 329.223 391.604 331.05 392.409C333.87 393.819 341.26 395.719 343.74 396.829C345.29 397.529 344.9 399.939 342.74 401.289C341.1 402.289 335.88 403.289 331.24 402.239C328.7 401.669 324.85 399.919 322.97 399.619C320.9 399.299 317.1 398.899 315.56 397.839C314.02 396.779 314.64 394.509 315.07 392.559C315.55 390.439 316.23 387.179 316.93 387.329V387.999C317.84 389.369 322.45 389.929 324.44 388.919L324.42 387.759Z" fill="#263238"/>
<path d="M258.49 327.56C260.55 337.04 266.97 342.56 278.56 347.18C287.77 350.82 296.48 353.91 296.48 353.91C295.368 358.705 294.791 363.608 294.76 368.53C294.69 375.88 296.09 392.16 296.09 392.16C296.09 392.16 301.09 394.27 304.53 392.08C304.53 392.08 306.39 379.46 307.81 370.26C310.02 355.91 311.58 348.68 310.93 345.98C310.53 344.29 304.55 340.08 299.29 336.48L314.94 343.66C314.629 346.817 314.495 349.988 314.54 353.16C314.8 363.16 316.81 382.79 316.81 382.79C316.81 382.79 322.29 385.24 325.01 383.12C325.01 383.12 331.34 336.37 330.21 332.98C328.89 328.98 324.6 327.45 303.53 318.48C298.67 316.4 291.4 314 291.4 314L258.49 327.56Z" fill="#0B3555"/>
<path opacity="0.1" d="M258.49 327.56C260.55 337.04 266.97 342.56 278.56 347.18C287.77 350.82 296.48 353.91 296.48 353.91C295.368 358.705 294.791 363.608 294.76 368.53C294.69 375.88 296.09 392.16 296.09 392.16C296.09 392.16 301.09 394.27 304.53 392.08C304.53 392.08 306.39 379.46 307.81 370.26C310.02 355.91 311.58 348.68 310.93 345.98C310.53 344.29 304.55 340.08 299.29 336.48L314.94 343.66C314.629 346.817 314.495 349.988 314.54 353.16C314.8 363.16 316.81 382.79 316.81 382.79C316.81 382.79 322.29 385.24 325.01 383.12C325.01 383.12 331.34 336.37 330.21 332.98C328.89 328.98 324.6 327.45 303.53 318.48C298.67 316.4 291.4 314 291.4 314L258.49 327.56Z" fill="black"/>
<path d="M259.16 275.49C256.914 279.149 255.698 283.347 255.64 287.64L254.25 302.36C254.92 314.29 255.55 319.12 257.62 327.66C262.97 333.48 285.46 326.74 291.4 314.04C291.4 314.04 288.54 297.4 287.99 286.04C287.6 277.98 284.89 272.27 277.17 272.1L267.27 273.46L259.16 275.49Z" fill="#F5F5F5"/>
<path d="M288.154 257.72C292.387 253.486 292.387 246.623 288.154 242.39C283.92 238.156 277.057 238.156 272.823 242.39C268.59 246.623 268.59 253.486 272.823 257.72C277.057 261.953 283.92 261.953 288.154 257.72Z" fill="#263238"/>
<path d="M262.76 256.529C262.76 256.529 264.42 264.329 265.09 265.619C265.525 266.399 266.24 266.985 267.09 267.259L266.98 261.769L262.76 256.529Z" fill="#263238"/>
<path d="M264.85 245.339C264.268 245.27 263.678 245.336 263.126 245.53C262.573 245.724 262.072 246.042 261.66 246.459C260.29 247.859 261.06 252.239 262.76 256.529L265.89 256.879L264.85 245.339Z" fill="#263238"/>
<path d="M266.83 256.889C266.2 257.259 265.31 256.059 264.53 255.249C263.75 254.439 261.23 253.329 259.97 255.989C258.71 258.649 261.08 262.269 263.07 262.889C266.5 263.969 267.02 261.769 267.02 261.769L267.28 274.139C270.28 277.439 280.34 276.649 278.44 273.809V270.049C279.967 270.293 281.516 270.373 283.06 270.289C285.58 269.899 287.17 267.909 287.93 265.179C289.16 260.789 289.63 257.249 288.59 248.629C287.44 239.179 276.45 239.079 270.51 242.819C264.57 246.559 266.83 256.889 266.83 256.889Z" fill="#B16668"/>
<path d="M266.83 257.94C266.52 257.94 265.32 255.94 264.53 255.25C263.45 254.25 264.85 245.34 264.85 245.34C264.562 244.572 264.503 243.737 264.68 242.936C264.858 242.135 265.264 241.403 265.85 240.83C267.34 239.19 269.85 239.01 274.05 238.35C276.27 238 279.64 237.35 281.85 236.96C284.5 236.47 286.69 235.96 288.56 237.57C289.294 238.207 289.813 239.055 290.046 239.998C290.278 240.942 290.214 241.934 289.86 242.84C289.318 243.96 288.365 244.83 287.2 245.27C287.2 245.27 286.05 246.27 282.03 246.78C278.322 247.06 274.595 246.99 270.9 246.57C269.74 246.41 269.49 247.57 268.9 250.63C268.35 253.33 267.89 257.92 266.83 257.94Z" fill="#263238"/>
<path d="M264.85 245.999L261.06 243.999C261.178 243.74 261.346 243.508 261.556 243.317C261.766 243.125 262.013 242.978 262.281 242.885C262.549 242.791 262.834 242.753 263.117 242.773C263.401 242.792 263.677 242.869 263.93 242.999C264.442 243.282 264.824 243.754 264.996 244.313C265.167 244.873 265.115 245.477 264.85 245.999Z" fill="#263238"/>
<path d="M278.43 270.05C278.43 270.05 272.8 268.91 270.83 267.87C269.675 267.265 268.727 266.328 268.11 265.18C268.407 266.328 268.931 267.406 269.65 268.35C271.09 270.19 278.43 271.55 278.43 271.55V270.05Z" fill="#9A4A4D"/>
<path d="M277.07 255.478C277.06 255.702 276.984 255.917 276.851 256.098C276.718 256.278 276.535 256.414 276.324 256.49C276.113 256.566 275.885 256.577 275.668 256.523C275.451 256.469 275.255 256.352 275.104 256.186C274.954 256.02 274.856 255.813 274.823 255.592C274.791 255.371 274.824 255.145 274.92 254.942C275.016 254.74 275.17 254.571 275.362 254.456C275.555 254.342 275.777 254.287 276 254.298C276.295 254.321 276.571 254.456 276.77 254.676C276.969 254.895 277.076 255.182 277.07 255.478Z" fill="#263238"/>
<path d="M275.26 250.81L272.85 252.14C272.679 251.809 272.642 251.425 272.746 251.068C272.85 250.71 273.088 250.407 273.41 250.22C273.569 250.132 273.745 250.078 273.925 250.061C274.106 250.043 274.289 250.063 274.462 250.118C274.635 250.173 274.795 250.263 274.932 250.382C275.069 250.501 275.181 250.646 275.26 250.81Z" fill="#263238"/>
<path d="M277.92 263.27L280.49 264.27C280.434 264.442 280.344 264.602 280.224 264.739C280.105 264.876 279.959 264.988 279.796 265.067C279.633 265.146 279.455 265.192 279.273 265.201C279.092 265.21 278.911 265.182 278.74 265.12C278.565 265.052 278.404 264.951 278.268 264.821C278.132 264.691 278.023 264.536 277.947 264.365C277.87 264.193 277.829 264.008 277.824 263.82C277.82 263.632 277.852 263.445 277.92 263.27Z" fill="#9A4A4D"/>
<path d="M287.42 251.798L285.22 250.108C285.324 249.96 285.456 249.835 285.609 249.739C285.762 249.643 285.933 249.579 286.111 249.551C286.29 249.523 286.472 249.532 286.647 249.576C286.822 249.62 286.986 249.699 287.13 249.808C287.424 250.04 287.618 250.375 287.672 250.746C287.726 251.116 287.636 251.493 287.42 251.798Z" fill="#263238"/>
<path d="M286.46 255.159C286.45 255.38 286.376 255.593 286.246 255.772C286.116 255.951 285.936 256.088 285.729 256.166C285.522 256.244 285.296 256.259 285.081 256.21C284.865 256.161 284.668 256.05 284.515 255.89C284.362 255.73 284.259 255.529 284.22 255.311C284.18 255.094 284.205 254.869 284.292 254.665C284.379 254.462 284.523 254.288 284.708 254.166C284.892 254.044 285.109 253.979 285.33 253.979C285.635 253.989 285.924 254.118 286.135 254.339C286.346 254.559 286.463 254.853 286.46 255.159Z" fill="#263238"/>
<path d="M280.88 254.25L281.01 261.09L285.06 260.2L280.88 254.25Z" fill="#9A4A4D"/>
<path opacity="0.15" d="M299.29 336.48L290.24 331.63C290.24 331.63 293.93 328.97 294.42 325.51C294.42 325.51 294.64 329.76 293.04 331.63L312.67 342.63L299.29 336.48Z" fill="black"/>
<path d="M269.36 399.33V357.74C269.276 356.238 268.841 354.777 268.089 353.474C267.337 352.171 266.289 351.064 265.03 350.24L220.61 324.6L217.21 299.06C216.919 297.546 216.326 296.107 215.467 294.827C214.608 293.547 213.501 292.453 212.21 291.61L208.69 289.61C206.3 288.24 204.36 289.36 204.36 292.11V361.85C204.442 363.352 204.877 364.814 205.629 366.117C206.382 367.42 207.43 368.528 208.69 369.35L265 401.83C267.41 403.21 269.36 402.08 269.36 399.33Z" fill="#263238"/>
<path d="M281.54 350.698V392.298C281.545 392.392 281.545 392.485 281.54 392.578C281.412 394.023 280.961 395.42 280.22 396.666C279.479 397.912 278.468 398.976 277.26 399.778L273.74 401.778C273.637 401.847 273.526 401.904 273.41 401.948C273.352 401.982 273.292 402.012 273.23 402.038H273.18C273.066 402.089 272.949 402.132 272.83 402.168C270.783 402.918 268.547 402.981 266.46 402.348C266.204 402.272 265.954 402.178 265.71 402.068C267.79 402.928 269.4 401.758 269.41 399.268V357.738C269.326 356.236 268.891 354.775 268.139 353.472C267.387 352.17 266.339 351.062 265.08 350.238L257.22 345.698L220.66 324.598L228.52 320.058C229.864 319.383 231.346 319.031 232.85 319.031C234.354 319.031 235.837 319.383 237.18 320.058L269.41 338.668L277.26 343.198C278.51 344.027 279.549 345.137 280.292 346.439C281.035 347.742 281.463 349.201 281.54 350.698Z" fill="#455A64"/>
<path d="M269.36 357.739V399.329C269.36 401.819 267.74 402.989 265.66 402.129C265.904 402.239 266.154 402.333 266.41 402.409C268.497 403.042 270.733 402.979 272.78 402.229C272.899 402.193 273.016 402.15 273.13 402.099H273.18C273.242 402.073 273.302 402.043 273.36 402.009C273.476 401.965 273.587 401.908 273.69 401.839L277.21 399.839C278.418 399.037 279.429 397.973 280.17 396.727C280.911 395.481 281.362 394.084 281.49 392.639C281.495 392.546 281.495 392.453 281.49 392.359V350.699C281.438 349.194 281.001 347.727 280.22 346.439L268.04 353.439C268.839 354.737 269.294 356.217 269.36 357.739Z" fill="#37474F"/>
<path d="M255.9 279.1C252.75 280.22 243.68 299.45 241.72 303.21C239.76 306.97 234.58 318.58 235.59 323.26C236.6 327.94 256.51 337.82 258.49 339.79C260.86 342.17 261.49 343.32 265.04 343.69C267.94 344 268.78 346.27 271.56 347.47C274.34 348.67 279.18 346.58 277.03 342.62C274.5 337.94 272.42 336.91 270.11 335.96C266.9 334.64 264.96 334.53 262.76 333.17C260.56 331.81 247.69 319.6 247.69 319.6L254.25 306.81C254.25 306.81 258.25 297.29 258.58 290C258.91 282.71 255.9 279.1 255.9 279.1Z" fill="#B16668"/>
<path d="M259.16 275.488C253.16 277.678 250.06 283.698 246.66 290.488C243.26 297.278 240.18 304.598 240.18 304.598C243.536 308.053 247.835 310.442 252.54 311.468L259 299.188C259 299.188 265.89 285.738 259.16 275.488Z" fill="#E0E0E0"/>
</svg>
