<svg width="500" height="500" viewBox="0 0 500 500" fill="none" xmlns="http://www.w3.org/2000/svg">
<path d="M249.53 482.51C379.902 482.51 485.59 419.808 485.59 342.46C485.59 265.113 379.902 202.41 249.53 202.41C119.158 202.41 13.47 265.113 13.47 342.46C13.47 419.808 119.158 482.51 249.53 482.51Z" fill="#F5F5F5"/>
<path d="M316 422.398C368.103 422.398 410.34 398.016 410.34 367.939C410.34 337.861 368.103 313.479 316 313.479C263.897 313.479 221.66 337.861 221.66 367.939C221.66 398.016 263.897 422.398 316 422.398Z" fill="#E0E0E0"/>
<path d="M175.08 396.269L151.24 382.509L131.8 393.729L135.04 384.379L115.61 388.119L138.28 374.999L65.86 333.219C65.6094 333.135 65.3914 332.975 65.237 332.76C65.0825 332.546 64.9995 332.288 64.9995 332.024C64.9995 331.76 65.0825 331.502 65.237 331.288C65.3914 331.073 65.6094 330.913 65.86 330.829L236.86 232.469C237.503 232.144 238.214 231.975 238.935 231.975C239.656 231.975 240.367 232.144 241.01 232.469L350 295.299C350.251 295.383 350.469 295.543 350.623 295.758C350.777 295.972 350.861 296.23 350.861 296.494C350.861 296.758 350.777 297.016 350.623 297.23C350.469 297.445 350.251 297.605 350 297.689L179.22 396.269C178.578 396.594 177.869 396.764 177.15 396.764C176.431 396.764 175.722 396.594 175.08 396.269Z" fill="#E0E0E0"/>
<path d="M198.89 116.17V109.7C198.837 109.331 198.691 108.981 198.465 108.683C198.239 108.386 197.942 108.151 197.6 108L158.73 85.5301C157.8 85.0583 156.772 84.8125 155.73 84.8125C154.687 84.8125 153.66 85.0583 152.73 85.5301L41 150.05C40.6558 150.202 40.3564 150.441 40.1306 150.742C39.9047 151.043 39.7599 151.397 39.71 151.77V158.24C39.7553 158.62 39.8978 158.981 40.1238 159.29C40.3498 159.598 40.6516 159.843 41 160L79.87 182.44C80.7992 182.913 81.8272 183.16 82.87 183.16C83.9128 183.16 84.9408 182.913 85.87 182.44L197.6 117.89C197.943 117.737 198.241 117.499 198.465 117.197C198.689 116.896 198.832 116.542 198.88 116.17H198.89Z" fill="#F0F0F0"/>
<path d="M41 153.5L79.87 175.94C80.7992 176.413 81.8272 176.66 82.87 176.66C83.9128 176.66 84.9408 176.413 85.87 175.94L197.6 111.42C199.25 110.42 199.25 108.92 197.6 107.97L158.73 85.5301C157.8 85.0583 156.772 84.8125 155.73 84.8125C154.687 84.8125 153.66 85.0583 152.73 85.5301L41 150.05C39.36 151 39.36 152.54 41 153.5Z" fill="#FAFAFA"/>
<path d="M82.86 176.66V183.13C81.8152 183.148 80.7829 182.9 79.86 182.41L41 160C40.6565 159.848 40.3582 159.61 40.1339 159.308C39.9097 159.007 39.7671 158.653 39.72 158.28V151.8C39.7412 151.513 39.8378 151.237 40 151C39.54 151.84 39.88 152.8 41 153.46L79.88 175.9C80.7904 176.408 81.8175 176.67 82.86 176.66Z" fill="#E0E0E0"/>
<path d="M144.31 34.4102L177.13 53.4902V116.31L144.31 97.2402V34.4102Z" fill="#E0E0E0"/>
<path d="M176.07 54.5295L144.31 36.1895C142.373 38.2606 139.826 39.6615 137.04 40.1895L168.54 58.4595C168.54 58.4595 170.57 57.9995 176.07 54.5295Z" fill="white"/>
<path d="M165.49 58.3404C166.436 58.8185 167.48 59.0676 168.54 59.0676C169.6 59.0676 170.644 58.8185 171.59 58.3404L176.94 55.2504C178.63 54.2504 178.63 52.7004 176.94 51.7304L145.63 33.6504L144.31 34.4104L175.1 52.3004C175.321 52.3759 175.513 52.5186 175.649 52.7087C175.785 52.8988 175.858 53.1267 175.858 53.3604C175.858 53.5941 175.785 53.822 175.649 54.0121C175.513 54.2021 175.321 54.3449 175.1 54.4204L170.1 57.2504C169.531 57.5386 168.903 57.6887 168.265 57.6887C167.627 57.6887 166.999 57.5386 166.43 57.2504L135.68 39.3904L134.18 40.2604L165.49 58.3404Z" fill="#FAFAFA"/>
<path d="M134.18 40.2598V103.08L165.49 121.16C166.436 121.638 167.48 121.887 168.54 121.887C169.6 121.887 170.644 121.638 171.59 121.16L176.94 118.07C177.288 117.915 177.587 117.67 177.809 117.361C178.03 117.051 178.165 116.689 178.2 116.31V53.4798C178.167 53.8604 178.033 54.2253 177.811 54.5366C177.59 54.8478 177.289 55.0941 176.94 55.2498L171.59 58.3398C170.644 58.8178 169.6 59.0669 168.54 59.0669C167.48 59.0669 166.436 58.8178 165.49 58.3398L134.18 40.2598Z" fill="#E0E0E0"/>
<path d="M168.54 59.0705C169.602 59.0925 170.653 58.8412 171.59 58.3405L176.94 55.2505C177.289 55.0948 177.59 54.8485 177.811 54.5373C178.033 54.226 178.167 53.8611 178.2 53.4805V116.31C178.165 116.689 178.03 117.052 177.809 117.362C177.587 117.671 177.288 117.916 176.94 118.07L171.59 121.16C170.651 121.657 169.602 121.908 168.54 121.89V59.0705Z" fill="#EBEBEB"/>
<path d="M130.88 42.1602L163.71 61.2402V124.06L130.88 104.99V42.1602Z" fill="#EBEBEB"/>
<path d="M162.65 62.2795L130.88 43.9395C128.945 46.0088 126.403 47.4096 123.62 47.9395L155.12 66.1995C155.12 66.1995 157.15 65.7195 162.65 62.2795Z" fill="white"/>
<path d="M152.06 66.0904C153.007 66.5686 154.054 66.8177 155.115 66.8177C156.176 66.8177 157.223 66.5686 158.17 66.0904L163.52 63.0004C165.2 62.0004 165.2 60.4504 163.52 59.4804L132.21 41.4004L130.88 42.1604L161.67 60.0504C161.891 60.1259 162.083 60.2686 162.219 60.4587C162.355 60.6488 162.428 60.8767 162.428 61.1104C162.428 61.3441 162.355 61.572 162.219 61.7621C162.083 61.9521 161.891 62.0949 161.67 62.1704L156.67 65.0004C156.103 65.2933 155.473 65.4461 154.835 65.4461C154.197 65.4461 153.567 65.2933 153 65.0004L122.26 47.1504L120.76 48.0104L152.06 66.0904Z" fill="#FAFAFA"/>
<path d="M120.76 48V110.83L152.06 128.9C153.007 129.378 154.054 129.627 155.115 129.627C156.176 129.627 157.223 129.378 158.17 128.9L163.52 125.81C163.868 125.656 164.169 125.412 164.39 125.102C164.612 124.792 164.746 124.429 164.78 124.05V61.24C164.745 61.6189 164.61 61.9817 164.389 62.291C164.167 62.6004 163.868 62.8451 163.52 63L158.17 66.09C157.224 66.5728 156.177 66.8246 155.115 66.8246C154.053 66.8246 153.006 66.5728 152.06 66.09L120.76 48Z" fill="#EBEBEB"/>
<path d="M155.12 66.8202C156.166 66.8338 157.198 66.5826 158.12 66.0902L163.52 63.0002C163.868 62.8454 164.167 62.6006 164.389 62.2913C164.61 61.9819 164.745 61.6191 164.78 61.2402V124.06C164.746 124.439 164.612 124.803 164.39 125.112C164.169 125.422 163.868 125.666 163.52 125.82L158.17 128.91C157.248 129.403 156.216 129.654 155.17 129.64L155.12 66.8202Z" fill="#F0F0F0"/>
<path d="M119.97 82.7402V85.9302L124.82 88.4002V84.9702L119.97 82.7402Z" fill="#E0E0E0"/>
<path d="M124.15 86.1095L117.78 82.9395L110.66 87.0495L118.9 91.6195L124.15 86.1095Z" fill="white"/>
<path d="M114.45 92.7099V119.34C114.477 119.875 114.632 120.396 114.901 120.858C115.171 121.321 115.548 121.713 116 122L141.43 136.68C141.814 136.882 142.237 137.002 142.67 137.03L118.9 93.1699C118.47 93.143 118.05 93.0236 117.67 92.8199L115.96 91.8199C115.12 91.3499 114.45 91.7399 114.45 92.7099Z" fill="#EBEBEB"/>
<path d="M120.71 92.8202L124.6 88.5302L128.05 86.5302C128.36 86.0302 128.74 85.6502 128.54 85.2402L152.06 128.63V128.68C152.27 129.1 152.32 130.04 151.75 130.36L144.41 136.65C143.855 136.936 143.231 137.057 142.61 137L118.9 93.1702C119.524 93.2284 120.152 93.107 120.71 92.8202Z" fill="#F0F0F0"/>
<path d="M128.05 84.7808C128.89 85.2708 128.68 85.7808 128.05 86.5308L120.71 92.8208C120.245 93.0555 119.731 93.1777 119.21 93.1777C118.689 93.1777 118.175 93.0555 117.71 92.8208L111.26 89.0908C110.42 88.6108 110.26 87.9108 110.93 87.5308C111.363 87.3486 111.834 87.271 112.303 87.304C112.772 87.337 113.226 87.4797 113.63 87.7208L118.72 90.7208C118.876 90.7968 119.047 90.8363 119.22 90.8363C119.393 90.8363 119.564 90.7968 119.72 90.7208L124.32 86.0008C124.379 85.9785 124.43 85.9388 124.465 85.887C124.501 85.8352 124.52 85.7737 124.52 85.7108C124.52 85.6478 124.501 85.5863 124.465 85.5345C124.43 85.4827 124.379 85.443 124.32 85.4208L119.16 82.7708C118.32 82.2808 118.16 81.5808 118.83 81.2108C119.263 81.0286 119.734 80.951 120.203 80.984C120.672 81.017 121.126 81.1597 121.53 81.4008L128.05 84.7808Z" fill="#FAFAFA"/>
<path d="M82.1 57.5195L118.98 78.9495V149.52L82.1 128.1V57.5195Z" fill="#E0E0E0"/>
<path d="M117.79 80.1195L82.1 59.5195C79.927 61.8443 77.0679 63.414 73.94 63.9995L109.33 84.5095C109.33 84.5095 111.61 83.9995 117.79 80.1195Z" fill="white"/>
<path d="M105.9 84.3999C106.963 84.9377 108.138 85.218 109.33 85.218C110.522 85.218 111.697 84.9377 112.76 84.3999L118.76 80.9299C120.66 79.8399 120.66 78.0699 118.76 76.9299L83.59 56.6699L82.1 57.5199L116.69 77.6199C116.938 77.7033 117.154 77.8625 117.307 78.0751C117.46 78.2878 117.542 78.543 117.542 78.8049C117.542 79.0668 117.46 79.3221 117.307 79.5347C117.154 79.7473 116.938 79.9066 116.69 79.9899L111.11 83.1799C110.472 83.5056 109.766 83.6754 109.05 83.6754C108.334 83.6754 107.628 83.5056 106.99 83.1799L72.41 63.1199L70.73 64.1199L105.9 84.3999Z" fill="#FAFAFA"/>
<path d="M70.73 64.0898V134.66L105.9 155C106.963 155.538 108.138 155.818 109.33 155.818C110.522 155.818 111.697 155.538 112.76 155L118.76 151.53C119.152 151.353 119.49 151.074 119.738 150.722C119.986 150.37 120.135 149.959 120.17 149.53V78.9998C120.135 79.4287 119.986 79.8404 119.738 80.1921C119.49 80.5438 119.152 80.8227 118.76 80.9998L112.76 84.4799C111.697 85.0177 110.522 85.2979 109.33 85.2979C108.138 85.2979 106.963 85.0177 105.9 84.4799L70.73 64.0898Z" fill="#E0E0E0"/>
<path d="M109.33 85.2197C110.523 85.2427 111.703 84.9641 112.76 84.4097L118.76 80.9297C119.152 80.7526 119.49 80.4737 119.738 80.122C119.986 79.7703 120.135 79.3586 120.17 78.9297V149.5C120.135 149.929 119.986 150.34 119.738 150.692C119.49 151.044 119.152 151.323 118.76 151.5L112.76 154.97C111.704 155.527 110.524 155.809 109.33 155.79V85.2197Z" fill="#EBEBEB"/>
<path d="M67.03 66.2305L103.9 87.6605V158.23L67.03 136.81V66.2305Z" fill="#EBEBEB"/>
<path d="M102.71 88.8305L67 68.2305C64.8305 70.5565 61.9753 72.1295 58.85 72.7205L94.25 93.2305C94.25 93.2305 96.53 92.7005 102.71 88.8305Z" fill="white"/>
<path d="M90.82 93.1109C91.8834 93.6487 93.0583 93.9289 94.25 93.9289C95.4416 93.9289 96.6166 93.6487 97.68 93.1109L103.68 89.6409C105.58 88.5509 105.58 86.7809 103.68 85.6409L68.52 65.3809L67.02 66.2309L101.61 86.3309C101.858 86.4142 102.074 86.5734 102.227 86.7861C102.38 86.9987 102.462 87.254 102.462 87.5159C102.462 87.7778 102.38 88.033 102.227 88.2457C102.074 88.4583 101.858 88.6175 101.61 88.7009L96 91.8909C95.3614 92.2142 94.6557 92.3827 93.94 92.3827C93.2242 92.3827 92.5185 92.2142 91.88 91.8909L57.34 71.8309L55.65 72.8309L90.82 93.1109Z" fill="#FAFAFA"/>
<path d="M55.65 72.8008V143.371L90.82 163.681C91.8834 164.219 93.0583 164.499 94.25 164.499C95.4416 164.499 96.6166 164.219 97.68 163.681L103.68 160.211C104.072 160.034 104.41 159.755 104.658 159.403C104.906 159.051 105.055 158.64 105.09 158.211V87.6608C105.055 88.0897 104.906 88.5013 104.658 88.8531C104.41 89.2048 104.072 89.4837 103.68 89.6608L97.68 93.1308C96.618 93.6733 95.4425 93.9561 94.25 93.9561C93.0575 93.9561 91.882 93.6733 90.82 93.1308L55.65 72.8008Z" fill="#EBEBEB"/>
<path d="M94.25 93.9306C95.4446 93.9545 96.6254 93.6722 97.68 93.1106L103.68 89.6406C104.072 89.4635 104.41 89.1846 104.658 88.8329C104.906 88.4812 105.055 88.0695 105.09 87.6406V158.211C105.055 158.64 104.906 159.051 104.658 159.403C104.41 159.755 104.072 160.034 103.68 160.211L97.68 163.681C96.6238 164.238 95.4441 164.52 94.25 164.501V93.9306Z" fill="#F0F0F0"/>
<path d="M84.78 336.811L87.31 335.351L85.48 334.531C85.48 334.531 84 334.911 84 335.001C84.01 335.337 84.0434 335.671 84.1 336.001L84.78 336.811Z" fill="#0B3555"/>
<path opacity="0.5" d="M84.78 336.811L87.31 335.351L85.48 334.531C85.48 334.531 84 334.911 84 335.001C84.01 335.337 84.0434 335.671 84.1 336.001L84.78 336.811Z" fill="black"/>
<path d="M181.17 385.371C180.023 385.952 178.756 386.255 177.47 386.255C176.184 386.255 174.917 385.952 173.77 385.371L90.68 337.371L215.05 265.561L217.96 263.881L301.04 311.881C303.04 313.061 303.04 314.981 301.04 316.151L181.17 385.371Z" fill="#0B3555"/>
<path d="M150 294.75L121 311.43L102.24 300.6L80.42 313.21V328.93C80.42 330.84 82.56 333.55 83.34 333.11C84.7774 333.458 86.1749 333.954 87.51 334.59C89.6795 335.83 91.6936 337.324 93.51 339.04L160.08 300.61L150 294.75Z" fill="#0B3555"/>
<path opacity="0.15" d="M150 294.75L121 311.43L102.24 300.6L80.42 313.21V328.93C80.42 330.84 82.56 333.55 83.34 333.11C84.7774 333.458 86.1749 333.954 87.51 334.59C89.6795 335.83 91.6936 337.324 93.51 339.04L160.08 300.61L150 294.75Z" fill="black"/>
<path opacity="0.4" d="M80.42 328.931C80.42 330.721 82.29 333.211 83.17 333.151H83.25H83.34C83.4 333.151 85.98 331.511 86.26 331.471L88.77 323.181C88.77 323.181 88.62 313.491 88.77 313.491C88.2885 312.095 87.731 310.726 87.1 309.391L80.42 313.251V328.931Z" fill="black"/>
<path d="M173.76 385.371L168.76 382.461L93.53 339.001C93.4758 338.021 93.1273 337.08 92.53 336.301C91.6363 335.128 90.5179 334.146 89.24 333.411C88.1683 332.749 86.9476 332.367 85.69 332.301C84.8464 332.292 84.0236 332.563 83.35 333.071C82.398 331.153 81.9343 329.03 82 326.891H79.1C79.1 330.821 80.4 334.761 81.99 335.671L83.43 336.511C84.24 336.981 84.89 337.011 84.89 336.571V335.801C84.89 334.951 86.18 334.991 87.79 335.921C89.4 336.851 90.68 338.281 90.68 339.141V339.901C90.68 340.351 91.79 341.331 93.15 342.111L165.89 384.111L173.76 388.651C174.899 389.242 176.167 389.541 177.45 389.521V386.231C176.167 386.264 174.896 385.968 173.76 385.371Z" fill="#0B3555"/>
<path opacity="0.3" d="M173.76 385.371L168.76 382.461L93.53 339.001C93.4758 338.021 93.1273 337.08 92.53 336.301C91.6363 335.128 90.5179 334.146 89.24 333.411C88.1683 332.749 86.9476 332.367 85.69 332.301C84.8464 332.292 84.0236 332.563 83.35 333.071C82.398 331.153 81.9343 329.03 82 326.891H79.1C79.1 330.821 80.4 334.761 81.99 335.671L83.43 336.511C84.24 336.981 84.89 337.011 84.89 336.571V335.801C84.89 334.951 86.18 334.991 87.79 335.921C89.4 336.851 90.68 338.281 90.68 339.141V339.901C90.68 340.351 91.79 341.331 93.15 342.111L165.89 384.111L173.76 388.651C174.899 389.242 176.167 389.541 177.45 389.521V386.231C176.167 386.264 174.896 385.968 173.76 385.371Z" fill="black"/>
<path d="M302.56 314V317.34C302.526 317.79 302.373 318.222 302.116 318.593C301.859 318.964 301.509 319.26 301.1 319.45H301.04L189 384.12L181.14 388.66C180.001 389.251 178.733 389.55 177.45 389.53V386.24C178.739 386.271 180.013 385.968 181.15 385.36L186.15 382.47L301 316.15C301.434 315.972 301.811 315.677 302.086 315.297C302.362 314.917 302.526 314.468 302.56 314Z" fill="#0B3555"/>
<path opacity="0.2" d="M302.56 314V317.34C302.526 317.79 302.373 318.222 302.116 318.593C301.859 318.964 301.509 319.26 301.1 319.45H301.04L189 384.12L181.14 388.66C180.001 389.251 178.733 389.55 177.45 389.53V386.24C178.739 386.271 180.013 385.968 181.15 385.36L186.15 382.47L301 316.15C301.434 315.972 301.811 315.677 302.086 315.297C302.362 314.917 302.526 314.468 302.56 314Z" fill="black"/>
<path d="M177.47 364.081V383.281C176.609 383.303 175.758 383.1 175 382.691L165.89 377.441L96.47 337.351V317.301L177.47 364.081Z" fill="#EBEBEB"/>
<path opacity="0.15" d="M135.1 350.771L154.54 362.001C154.54 362.001 152.54 359.901 144.82 355.501C137.34 351.231 135.1 350.771 135.1 350.771Z" fill="black"/>
<path d="M299 296.33V311.12C298.953 311.975 298.705 312.806 298.278 313.548C297.851 314.289 297.256 314.92 296.54 315.39L189 377.44L179.9 382.69C179.145 383.098 178.297 383.301 177.44 383.28V366.11L299 296.33Z" fill="#F5F5F5"/>
<path d="M92.4 315V332C92.3146 331.94 92.2242 331.886 92.13 331.84C91.0655 331.17 89.8465 330.784 88.59 330.72C87.7492 330.71 86.9291 330.981 86.26 331.49V311.49L92.4 315Z" fill="#37474F"/>
<path d="M96.46 337.36C96.4095 336.379 96.0606 335.437 95.46 334.66C95.1593 334.243 94.8248 333.852 94.46 333.49L94.11 333.16L93.66 332.77L93.28 332.49C93.0185 332.29 92.7446 332.106 92.46 331.94V315L96.46 317.35V337.36Z" fill="#E0E0E0"/>
<path d="M215.05 242.151L90.68 314.001V315.661C90.68 316.591 89.39 316.931 87.79 316.011C86.19 315.091 84.89 313.931 84.89 312.331L84.73 310.751L211.45 237.601L211.96 237.301C212.095 237.536 212.171 237.8 212.18 238.071V238.841C212.18 239.731 213.46 241.211 215.05 242.151Z" fill="#0B3555"/>
<path opacity="0.1" d="M215.05 242.151L90.68 314.001V315.661C90.68 316.591 89.39 316.931 87.79 316.011C86.19 315.091 84.89 313.931 84.89 312.331L84.73 310.751L211.45 237.601L211.96 237.301C212.095 237.536 212.171 237.8 212.18 238.071V238.841C212.18 239.731 213.46 241.211 215.05 242.151Z" fill="black"/>
<path d="M173.77 361.941L92.52 315.001C91.52 314.461 90.52 314.001 90.15 314.231L90.68 313.941L215.05 242.121L216.51 241.291C217.31 240.821 219.06 241.081 220.43 241.871L301 288.441C303 289.631 303 291.551 301 292.721L181.17 361.941C180.023 362.522 178.756 362.825 177.47 362.825C176.184 362.825 174.917 362.522 173.77 361.941Z" fill="#0B3555"/>
<path d="M212 237.271L211.49 237.571L84.73 310.721C84.666 310.59 84.5738 310.473 84.46 310.381L84.03 310.141L83.12 309.611L82 309.001C81.7829 308.856 81.5223 308.789 81.262 308.813C81.0016 308.836 80.7573 308.949 80.57 309.131C80.5109 309.163 80.4597 309.207 80.42 309.261C80.2698 309.42 80.142 309.598 80.04 309.791C79.9043 310.015 79.7936 310.253 79.71 310.501C79.61 310.761 79.53 311.041 79.45 311.331C79.37 311.621 79.33 311.951 79.27 312.331C79.2313 312.526 79.2079 312.723 79.2 312.921C79.2 313.071 79.2 313.221 79.2 313.391C79.2 313.741 79.15 314.111 79.15 314.501V310.941C79.15 308.941 80.82 306.421 82.86 305.241L202.74 236.021C204.79 234.841 207.74 234.641 209.34 235.551L210.85 236.431C210.95 236.501 211.21 236.641 211.49 236.801C211.703 236.904 211.88 237.068 212 237.271Z" fill="#0B3555"/>
<path d="M173.79 362.002L168.79 359.092L111 325.692L92.52 315.002C91.21 314.232 90.14 314.002 90.07 314.352C90.0653 314.368 90.0653 314.385 90.07 314.402V315.242C90.07 316.162 88.77 316.162 87.17 315.242C85.57 314.322 84.92 313.242 84.9 312.332V311.422C84.9148 311.221 84.8837 311.019 84.8092 310.832C84.7347 310.645 84.6187 310.477 84.47 310.342L84.04 310.102L83.13 309.572L82 309.002C81.7829 308.856 81.5223 308.79 81.262 308.813C81.0016 308.837 80.7573 308.949 80.57 309.132C80.5109 309.163 80.4597 309.208 80.42 309.262C80.3202 309.362 80.2359 309.477 80.17 309.602C80.1177 309.658 80.0739 309.722 80.04 309.792C79.9043 310.016 79.7936 310.254 79.71 310.502C79.61 310.762 79.53 311.042 79.45 311.332C79.37 311.622 79.33 311.952 79.27 312.332C79.2313 312.526 79.2079 312.724 79.2 312.922C79.2 313.072 79.2 313.222 79.2 313.392C79.2 313.742 79.15 314.112 79.15 314.502V326.982H82V314.412C82 314.112 82 313.812 82 313.532L82.07 312.812C82.0624 312.789 82.0624 312.764 82.07 312.742C82.32 315.012 84.49 317.032 86.37 318.102C87.4138 318.756 88.6094 319.128 89.84 319.182C90.7765 319.192 91.684 318.857 92.39 318.242L92.65 318.382L93.15 318.682L165.89 360.682L173.76 365.222C173.76 365.222 173.76 365.222 173.81 365.222C174.936 365.795 176.186 366.084 177.45 366.062V362.772C176.185 362.824 174.927 362.559 173.79 362.002Z" fill="#0B3555"/>
<path opacity="0.3" d="M173.79 362.002L168.79 359.092L111 325.692L92.52 315.002C91.21 314.232 90.14 314.002 90.07 314.352C90.0653 314.368 90.0653 314.385 90.07 314.402V315.242C90.07 316.162 88.77 316.162 87.17 315.242C85.57 314.322 84.92 313.242 84.9 312.332V311.422C84.9148 311.221 84.8837 311.019 84.8092 310.832C84.7347 310.645 84.6187 310.477 84.47 310.342L84.04 310.102L83.13 309.572L82 309.002C81.7829 308.856 81.5223 308.79 81.262 308.813C81.0016 308.837 80.7573 308.949 80.57 309.132C80.5109 309.163 80.4597 309.208 80.42 309.262C80.3202 309.362 80.2359 309.477 80.17 309.602C80.1177 309.658 80.0739 309.722 80.04 309.792C79.9043 310.016 79.7936 310.254 79.71 310.502C79.61 310.762 79.53 311.042 79.45 311.332C79.37 311.622 79.33 311.952 79.27 312.332C79.2313 312.526 79.2079 312.724 79.2 312.922C79.2 313.072 79.2 313.222 79.2 313.392C79.2 313.742 79.15 314.112 79.15 314.502V326.982H82V314.412C82 314.112 82 313.812 82 313.532L82.07 312.812C82.0624 312.789 82.0624 312.764 82.07 312.742C82.32 315.012 84.49 317.032 86.37 318.102C87.4138 318.756 88.6094 319.128 89.84 319.182C90.7765 319.192 91.684 318.857 92.39 318.242L92.65 318.382L93.15 318.682L165.89 360.682L173.76 365.222C173.76 365.222 173.76 365.222 173.81 365.222C174.936 365.795 176.186 366.084 177.45 366.062V362.772C176.185 362.824 174.927 362.559 173.79 362.002Z" fill="black"/>
<path opacity="0.1" d="M220.43 241.901C219.06 241.111 217.31 240.851 216.51 241.321L215.06 242.151C213.46 241.211 212.18 239.731 212.18 238.811V238.001C212.171 237.73 212.095 237.466 211.96 237.231C211.862 237.021 211.706 236.844 211.51 236.721C211.23 236.561 210.97 236.421 210.87 236.351L209.36 235.471C207.76 234.561 204.81 234.761 202.76 235.941L82.81 305.151L82.68 305.241L167.38 354.141C168.144 354.529 168.988 354.73 169.845 354.73C170.702 354.73 171.546 354.529 172.31 354.141L293 283.791L220.43 241.901Z" fill="black"/>
<path d="M302.56 290.541V293.891C302.524 294.34 302.37 294.772 302.113 295.142C301.857 295.513 301.508 295.809 301.1 296.001H301.04L189 360.691L181.14 365.231C180 365.818 178.732 366.114 177.45 366.091V362.801C178.739 362.832 180.013 362.529 181.15 361.921L186.15 359.031L301 292.721C301.439 292.542 301.819 292.243 302.095 291.857C302.372 291.471 302.533 291.015 302.56 290.541Z" fill="#0B3555"/>
<path opacity="0.2" d="M302.56 290.541V293.891C302.524 294.34 302.37 294.772 302.113 295.142C301.857 295.513 301.508 295.809 301.1 296.001H301.04L189 360.691L181.14 365.231C180 365.818 178.732 366.114 177.45 366.091V362.801C178.739 362.832 180.013 362.529 181.15 361.921L186.15 359.031L301 292.721C301.439 292.542 301.819 292.243 302.095 291.857C302.372 291.471 302.533 291.015 302.56 290.541Z" fill="black"/>
<path d="M160.6 347.08L163.81 345.23C162.946 344.932 162.018 344.866 161.12 345.04C160.27 345.44 160.6 347.08 160.6 347.08Z" fill="black"/>
<path d="M158.4 345.062C158.763 344.665 159.204 344.349 159.695 344.132C160.187 343.916 160.718 343.804 161.255 343.804C161.792 343.804 162.323 343.916 162.815 344.132C163.306 344.349 163.747 344.665 164.11 345.062C167.23 347.922 167.39 350.762 168.68 350.712C169.97 350.662 170 327.852 170 327.852L157.71 339.282L158.4 345.062Z" fill="black"/>
<path d="M287.19 262.08L287.39 261.97L285.39 260.83L200.58 211.83L77 291.84C75 293.02 74.59 294.72 76.19 295.64L79.08 297.3L158.36 343.09L158.92 342.69L287.19 262.08Z" fill="#455A64"/>
<path d="M169 317.051L162.86 315.781V340.371C166.56 341.941 168.92 343.421 169.31 346.521L169 317.051Z" fill="#0B3555"/>
<path d="M160.1 340.69L81.57 295.35C80.8513 294.88 80.2532 294.248 79.8242 293.505C79.3951 292.761 79.147 291.927 79.1 291.07V266.84L158.4 313C158.4 313 159.34 316.43 162.15 317.51C164.96 318.59 162.82 319.68 162.82 319.68V340.35C160.39 340.08 160.1 340.69 160.1 340.69Z" fill="#EBEBEB"/>
<path d="M167.35 316.21C166.53 315.74 165.89 315.71 165.89 316.15V316.92C165.89 317.77 164.6 317.73 162.99 316.8C161.38 315.87 160.08 314.44 160.08 313.59V312.82C160.08 312.37 158.99 311.39 157.63 310.61L285.41 237.4L287.41 238.54C287.678 238.834 287.846 239.205 287.89 239.6V240.37C287.89 241.23 289.19 242.66 290.79 243.59C292.39 244.52 293.69 244.59 293.69 243.7V242.94C293.69 242.49 294.33 242.52 295.14 242.99L167.35 316.21Z" fill="#37474F"/>
<path d="M287.19 238.66L287.39 238.54L285.39 237.4L200.58 188.4L77 259.8C75 260.98 74.59 262.68 76.19 263.6L79.08 265.27L158.4 313L287.19 238.66Z" fill="#455A64"/>
<path d="M293.7 242.191L166 315.901L170.47 319.401L297.73 245.921C297.418 244.977 296.825 244.15 296.03 243.551L293.7 242.191Z" fill="#455A64"/>
<path d="M297.25 278.93C297.333 278.886 297.41 278.832 297.48 278.77C297.539 278.738 297.59 278.694 297.63 278.64C297.73 278.54 297.814 278.425 297.88 278.3C297.932 278.243 297.976 278.179 298.01 278.11C298.146 277.886 298.256 277.648 298.34 277.4C298.44 277.14 298.52 276.86 298.6 276.57C298.68 276.28 298.72 275.95 298.78 275.57C298.819 275.375 298.842 275.178 298.85 274.98C298.85 274.83 298.85 274.68 298.85 274.51C298.85 274.16 298.9 273.79 298.9 273.4V252.35C298.914 250.151 298.511 247.968 297.71 245.92L170.49 319.4L169.95 352.4L297.21 279L297.25 278.93Z" fill="#455A64"/>
<path opacity="0.1" d="M170.49 319.4C170.49 319.4 270.72 272.49 279.84 268.19C285.84 265.35 288.84 271.31 287.39 277.48C286.14 282.87 280.83 288.42 280.83 288.42L297.21 279C297.293 278.956 297.37 278.902 297.44 278.84C297.499 278.808 297.55 278.764 297.59 278.71C297.69 278.61 297.774 278.495 297.84 278.37C297.892 278.313 297.936 278.249 297.97 278.18C298.106 277.956 298.216 277.718 298.3 277.47C298.4 277.21 298.48 276.93 298.56 276.64C298.64 276.35 298.68 276.02 298.74 275.64C298.779 275.445 298.802 275.248 298.81 275.05C298.81 274.9 298.81 274.75 298.81 274.58C298.81 274.23 298.86 273.86 298.86 273.47V252.35C298.874 250.151 298.471 247.968 297.67 245.92L170.49 319.4Z" fill="black"/>
<path d="M171.67 325.83H168.82C168.883 323.674 168.409 321.537 167.44 319.61C166.766 320.118 165.944 320.389 165.1 320.38C163.845 320.315 162.627 319.933 161.56 319.27C160.278 318.54 159.159 317.557 158.27 316.38C158.209 316.296 158.152 316.21 158.1 316.12C157.588 315.404 157.29 314.558 157.24 313.68L82 270.26L79.45 268.77L76.19 266.89C75.9067 266.76 75.664 266.555 75.4878 266.298C75.3117 266.041 75.2088 265.741 75.19 265.43V262.09C75.2042 262.409 75.3047 262.717 75.4809 262.983C75.657 263.249 75.9021 263.462 76.19 263.6L84.83 268.6L157.57 310.6C158.92 311.38 160.03 312.36 160.03 312.8V313.57C160.096 314.085 160.332 314.563 160.7 314.93C161.343 315.691 162.124 316.325 163 316.8C164.61 317.73 165.91 317.8 165.91 316.92V316.15C165.91 315.71 166.55 315.73 167.36 316.2L168.8 317.04C170.37 318 171.67 321.9 171.67 325.83Z" fill="#37474F"/>
<path d="M168.82 325.832V346.932C168.82 347.232 168.82 347.522 168.82 347.812L168.75 348.522C168.755 348.545 168.755 348.569 168.75 348.592C168.49 346.332 166.33 344.312 164.45 343.242C163.404 342.584 162.205 342.209 160.97 342.152C160.034 342.144 159.127 342.478 158.42 343.092L158.16 342.952L157.67 342.652L84.93 300.652L80.75 298.242C80.37 298.022 79.95 297.792 79.56 297.552L76.04 295.552C75.8054 295.406 75.6104 295.205 75.4725 294.966C75.3347 294.727 75.2582 294.457 75.25 294.182V297.512C75.2611 297.769 75.333 298.02 75.4599 298.244C75.5868 298.469 75.765 298.66 75.98 298.802C76.39 299.052 76.83 299.292 77.28 299.562L78.09 300.032L79.48 300.842C79.8 301.032 80.08 301.202 80.35 301.342L80.96 301.702L82.03 302.322L139.82 335.672L158.26 346.322C159.57 347.092 160.64 347.322 160.71 346.962C160.71 346.902 160.71 346.842 160.71 346.822V346.082C160.71 345.152 162 345.152 163.6 346.082C165.2 347.012 165.85 348.082 165.88 348.982V349.892C165.864 350.093 165.893 350.296 165.966 350.484C166.039 350.673 166.153 350.843 166.3 350.982L166.73 351.222C166.99 351.362 167.3 351.552 167.64 351.752L168.77 352.402C168.989 352.546 169.251 352.612 169.513 352.588C169.774 352.565 170.02 352.453 170.21 352.272C170.263 352.24 170.311 352.2 170.35 352.152C170.45 352.046 170.537 351.928 170.61 351.802C170.656 351.749 170.696 351.692 170.73 351.632C170.866 351.408 170.977 351.17 171.06 350.922C171.163 350.65 171.25 350.373 171.32 350.092C171.39 349.782 171.45 349.462 171.5 349.092C171.544 348.901 171.568 348.707 171.57 348.512C171.57 348.352 171.57 348.212 171.57 348.042C171.57 347.682 171.57 347.312 171.57 346.932V325.832H168.82Z" fill="#37474F"/>
<path opacity="0.1" d="M297.75 245.91L176.8 315.75L85.37 263C84 262.22 84 260.94 85.37 260.15L205.06 191L285.4 237.4L287.4 238.55C287.657 238.827 287.825 239.176 287.88 239.55V240.32C287.88 241.18 289.18 242.62 290.77 243.54C290.852 243.591 290.94 243.635 291.03 243.67L293.69 242.13L294.96 242.86L295.13 242.94L296.07 243.48C296.862 244.102 297.448 244.949 297.75 245.91Z" fill="black"/>
<path d="M92.18 263.49L95.82 261.55L92.5 260.75C92.1861 261.126 91.9886 261.586 91.9318 262.072C91.8749 262.559 91.9612 263.052 92.18 263.49Z" fill="#0B3555"/>
<path opacity="0.5" d="M92.18 263.49L95.82 261.55L92.5 260.75C92.1861 261.126 91.9886 261.586 91.9318 262.072C91.8749 262.559 91.9612 263.052 92.18 263.49Z" fill="black"/>
<path d="M188.58 312C187.433 312.581 186.166 312.885 184.88 312.885C183.594 312.885 182.327 312.581 181.18 312L98.1 264L222.47 193.35L225.38 191.67L308.46 238.48C310.46 239.66 310.46 241.58 308.46 242.75L188.58 312Z" fill="#0B3555"/>
<path d="M157.39 222.59L128.39 239.27L109.64 228.44L87.84 241V255.6C87.84 257.51 89.98 260.22 90.75 259.78C92.1874 260.128 93.5849 260.624 94.92 261.26C97.0903 262.499 99.1046 263.993 100.92 265.71L167.49 228.44L157.39 222.59Z" fill="#0B3555"/>
<path opacity="0.15" d="M157.39 222.59L128.39 239.27L109.64 228.44L87.84 241V255.6C87.84 257.51 89.98 260.22 90.75 259.78C92.1874 260.128 93.5849 260.624 94.92 261.26C97.0903 262.499 99.1046 263.993 100.92 265.71L167.49 228.44L157.39 222.59Z" fill="black"/>
<path d="M99.81 242.79V258.6C99.7298 258.542 99.6464 258.488 99.56 258.44C98.4853 257.777 97.261 257.395 96 257.33C95.1804 257.246 94.3564 257.44 93.66 257.88V239.25L99.81 242.79Z" fill="#37474F"/>
<path d="M103.89 264.001C103.829 263.023 103.481 262.084 102.89 261.301C102.59 260.884 102.255 260.493 101.89 260.131L101.54 259.801L101.08 259.411L100.7 259.131C100.436 258.934 100.162 258.751 99.88 258.581V242.871L103.94 245.221V245.141L103.89 264.001Z" fill="#E0E0E0"/>
<path opacity="0.4" d="M87.84 255.6C87.84 257.51 89.98 260.22 90.75 259.78L93.66 257.88V245.88L90.74 240.88L89.15 240.32L87.83 241.08L87.84 255.6Z" fill="black"/>
<path d="M184.88 291.911V309.911C184.023 309.935 183.176 309.735 182.42 309.331L173.3 304.071L103.88 264.001V245.141L184.88 291.911Z" fill="#EBEBEB"/>
<path opacity="0.15" d="M109.13 257.221L128.56 268.441C128.56 268.441 126.56 266.341 118.85 261.951C111.36 257.681 109.13 257.221 109.13 257.221Z" fill="black"/>
<path d="M306.38 224.17V237.79C306.333 238.646 306.085 239.478 305.656 240.22C305.227 240.962 304.628 241.593 303.91 242.06L196.45 304.06L187.35 309.32C186.591 309.725 185.74 309.925 184.88 309.9V294L306.38 224.17Z" fill="#F5F5F5"/>
<path d="M222.47 170.002L98.1 241.802V243.472C98.1 244.402 96.8 244.742 95.21 243.812C93.62 242.882 92.3 241.732 92.3 240.142L92.15 238.562L218.87 165.402L219.38 165.102C219.51 165.338 219.582 165.602 219.59 165.872V166.642C219.59 167.572 220.88 169.052 222.47 170.002Z" fill="#0B3555"/>
<path opacity="0.1" d="M222.47 170.002L98.1 241.802V243.472C98.1 244.402 96.8 244.742 95.21 243.812C93.62 242.882 92.3 241.732 92.3 240.142L92.15 238.562L218.87 165.402L219.38 165.102C219.51 165.338 219.582 165.602 219.59 165.872V166.642C219.59 167.572 220.88 169.052 222.47 170.002Z" fill="black"/>
<path d="M181.18 289.771L99.94 242.871C98.94 242.331 97.94 241.871 97.57 242.101L98.1 241.801L222.47 170.001L223.92 169.161C224.73 168.701 226.48 168.961 227.84 169.741L308.46 216.291C310.46 217.471 310.46 219.391 308.46 220.561L188.58 289.771C187.433 290.353 186.166 290.656 184.88 290.656C183.594 290.656 182.327 290.353 181.18 289.771Z" fill="#0B3555"/>
<path d="M225.94 190.001L270.86 216.001C272.76 217.101 272.76 218.891 270.86 220.001L264.81 223.491C263.739 224.033 262.555 224.315 261.355 224.315C260.155 224.315 258.971 224.033 257.9 223.491L213 197.511C211.09 196.411 211.09 194.621 213 193.511L219 190.021C220.073 189.469 221.261 189.179 222.468 189.176C223.674 189.172 224.864 189.455 225.94 190.001Z" fill="white"/>
<path d="M178.11 281.44C177.97 281.443 177.832 281.408 177.71 281.34L116.71 246.21C116.587 246.14 116.485 246.039 116.414 245.917C116.344 245.795 116.306 245.656 116.306 245.515C116.306 245.374 116.344 245.235 116.414 245.113C116.485 244.991 116.587 244.89 116.71 244.82C117.275 244.492 117.743 244.021 118.069 243.456C118.394 242.89 118.566 242.248 118.566 241.595C118.566 240.942 118.394 240.301 118.069 239.735C117.743 239.169 117.275 238.698 116.71 238.37C116.587 238.302 116.486 238.202 116.415 238.08C116.345 237.959 116.308 237.82 116.31 237.68C116.309 237.54 116.346 237.402 116.417 237.281C116.487 237.16 116.588 237.059 116.71 236.99L218.59 178.17C218.712 178.101 218.85 178.064 218.99 178.064C219.13 178.064 219.268 178.101 219.39 178.17C221.33 179.288 223.531 179.877 225.77 179.877C228.009 179.877 230.21 179.288 232.15 178.17C232.272 178.101 232.41 178.064 232.55 178.064C232.69 178.064 232.828 178.101 232.95 178.17L293.88 213.35C294 213.422 294.1 213.522 294.17 213.643C294.24 213.764 294.278 213.901 294.28 214.04C294.28 214.18 294.242 214.317 294.172 214.439C294.102 214.56 294.001 214.66 293.88 214.73C293.315 215.058 292.847 215.529 292.521 216.095C292.196 216.661 292.024 217.302 292.024 217.955C292.024 218.608 292.196 219.25 292.521 219.816C292.847 220.381 293.315 220.852 293.88 221.18C294.001 221.25 294.102 221.351 294.172 221.472C294.242 221.593 294.28 221.73 294.28 221.87C294.278 222.01 294.24 222.146 294.17 222.267C294.1 222.388 294 222.489 293.88 222.56L192.05 281.33C191.928 281.399 191.79 281.436 191.65 281.436C191.51 281.436 191.372 281.399 191.25 281.33C189.312 280.215 187.116 279.628 184.88 279.628C182.644 279.628 180.448 280.215 178.51 281.33C178.388 281.4 178.251 281.438 178.11 281.44ZM118.51 245.44L178.12 279.75C180.201 278.642 182.522 278.062 184.88 278.062C187.238 278.062 189.559 278.642 191.64 279.75L292 221.78C291.488 221.283 291.081 220.689 290.803 220.032C290.525 219.375 290.382 218.669 290.382 217.955C290.382 217.242 290.525 216.536 290.803 215.879C291.081 215.221 291.488 214.627 292 214.13L232.5 179.78C230.414 180.889 228.087 181.468 225.725 181.468C223.363 181.468 221.036 180.889 218.95 179.78L118.51 237.78C119.022 238.277 119.429 238.871 119.707 239.529C119.985 240.186 120.128 240.892 120.128 241.605C120.128 242.319 119.985 243.025 119.707 243.682C119.429 244.339 119.022 244.933 118.51 245.43V245.44Z" fill="white"/>
<path d="M219.38 165.101L218.87 165.401L92.15 238.561C92.0843 238.424 91.9886 238.305 91.87 238.211L91.45 237.971L90.54 237.441C90.19 237.251 89.81 237.021 89.41 236.791C89.1907 236.646 88.9288 236.58 88.6673 236.604C88.4057 236.628 88.1598 236.739 87.97 236.921C87.9142 236.953 87.8663 236.997 87.83 237.051C87.6799 237.206 87.552 237.381 87.45 237.571C87.3121 237.797 87.2014 238.039 87.12 238.291C87.0154 238.558 86.9286 238.832 86.86 239.111C86.79 239.421 86.73 239.741 86.68 240.111C86.6364 240.301 86.613 240.496 86.61 240.691C86.61 240.851 86.61 240.991 86.61 241.161C86.61 241.521 86.61 241.891 86.61 242.271V238.711C86.61 236.711 88.28 234.201 90.31 233.021L210.2 163.791C212.2 162.611 215.2 162.411 216.79 163.321L218.3 164.211H218.36C218.46 164.281 218.72 164.421 219 164.581C219.171 164.717 219.303 164.896 219.38 165.101Z" fill="#0B3555"/>
<path d="M181.18 312.001L176.18 309.091L101 265.701C100.944 264.724 100.596 263.787 100 263.011C99.1111 261.834 97.9917 260.85 96.71 260.121C95.6195 259.443 94.3728 259.057 93.09 259.001C92.2461 258.99 91.4228 259.261 90.75 259.771C89.7812 257.844 89.3069 255.706 89.37 253.551H86.52C86.52 257.481 87.82 261.421 89.41 262.331L90.85 263.171C91.66 263.641 92.3 263.671 92.3 263.231V262.461C92.3 261.611 93.6 261.651 95.21 262.581C96.82 263.511 98.1 265.001 98.1 265.801V266.571C98.1 267.021 99.21 268.001 100.56 268.781L173.3 310.781L181.18 315.331C182.319 315.921 183.587 316.22 184.87 316.201V312.911C183.582 312.931 182.311 312.617 181.18 312.001Z" fill="#0B3555"/>
<path opacity="0.3" d="M181.18 312.001L176.18 309.091L101 265.701C100.944 264.724 100.596 263.787 100 263.011C99.1111 261.834 97.9917 260.85 96.71 260.121C95.6195 259.443 94.3728 259.057 93.09 259.001C92.2461 258.99 91.4228 259.261 90.75 259.771C89.7812 257.844 89.3069 255.706 89.37 253.551H86.52C86.52 257.481 87.82 261.421 89.41 262.331L90.85 263.171C91.66 263.641 92.3 263.671 92.3 263.231V262.461C92.3 261.611 93.6 261.651 95.21 262.581C96.82 263.511 98.1 265.001 98.1 265.801V266.571C98.1 267.021 99.21 268.001 100.56 268.781L173.3 310.781L181.18 315.331C182.319 315.921 183.587 316.22 184.87 316.201V312.911C183.582 312.931 182.311 312.617 181.18 312.001Z" fill="black"/>
<path d="M181.21 289.79L176.21 286.89L118.42 253.55L99.94 242.87C98.63 242.1 97.56 241.87 97.49 242.23V243.07C97.49 244 96.2 244 94.6 243.07C93 242.14 92.35 241.07 92.32 240.17V239.26C92.3371 239.058 92.3072 238.854 92.2326 238.665C92.158 238.476 92.0408 238.306 91.89 238.17L91.47 237.93C91.21 237.79 90.9 237.6 90.56 237.4C90.22 237.2 89.83 236.98 89.43 236.75C89.2107 236.606 88.9489 236.54 88.6873 236.563C88.4257 236.587 88.1799 236.699 87.99 236.88C87.9342 236.912 87.8863 236.957 87.85 237.01C87.7471 237.11 87.6595 237.225 87.59 237.35C87.5421 237.404 87.5018 237.465 87.47 237.53C87.3322 237.756 87.2214 237.998 87.14 238.25C87.0355 238.517 86.9486 238.791 86.88 239.07C86.81 239.38 86.75 239.7 86.7 240.07C86.6564 240.26 86.633 240.455 86.63 240.65C86.63 240.81 86.63 240.95 86.63 241.12C86.63 241.48 86.63 241.85 86.63 242.23V253.55H89.48V242.24C89.48 241.95 89.48 241.65 89.48 241.36L89.55 240.65C89.5452 240.627 89.5452 240.603 89.55 240.58C89.81 242.84 91.97 244.87 93.85 245.93C94.878 246.569 96.0512 246.937 97.26 247C98.1962 247.008 99.103 246.674 99.81 246.06L100.06 246.2L100.56 246.5L173.3 288.5L181.18 293.04H181.24C182.364 293.61 183.61 293.899 184.87 293.88V290.59C183.603 290.631 182.345 290.356 181.21 289.79Z" fill="#0B3555"/>
<path opacity="0.3" d="M181.21 289.79L176.21 286.89L118.42 253.55L99.94 242.87C98.63 242.1 97.56 241.87 97.49 242.23V243.07C97.49 244 96.2 244 94.6 243.07C93 242.14 92.35 241.07 92.32 240.17V239.26C92.3371 239.058 92.3072 238.854 92.2326 238.665C92.158 238.476 92.0408 238.306 91.89 238.17L91.47 237.93C91.21 237.79 90.9 237.6 90.56 237.4C90.22 237.2 89.83 236.98 89.43 236.75C89.2107 236.606 88.9489 236.54 88.6873 236.563C88.4257 236.587 88.1799 236.699 87.99 236.88C87.9342 236.912 87.8863 236.957 87.85 237.01C87.7471 237.11 87.6595 237.225 87.59 237.35C87.5421 237.404 87.5018 237.465 87.47 237.53C87.3322 237.756 87.2214 237.998 87.14 238.25C87.0355 238.517 86.9486 238.791 86.88 239.07C86.81 239.38 86.75 239.7 86.7 240.07C86.6564 240.26 86.633 240.455 86.63 240.65C86.63 240.81 86.63 240.95 86.63 241.12C86.63 241.48 86.63 241.85 86.63 242.23V253.55H89.48V242.24C89.48 241.95 89.48 241.65 89.48 241.36L89.55 240.65C89.5452 240.627 89.5452 240.603 89.55 240.58C89.81 242.84 91.97 244.87 93.85 245.93C94.878 246.569 96.0512 246.937 97.26 247C98.1962 247.008 99.103 246.674 99.81 246.06L100.06 246.2L100.56 246.5L173.3 288.5L181.18 293.04H181.24C182.364 293.61 183.61 293.899 184.87 293.88V290.59C183.603 290.631 182.345 290.356 181.21 289.79Z" fill="black"/>
<path d="M310 218.381V221.721C309.965 222.172 309.81 222.605 309.552 222.976C309.293 223.347 308.941 223.642 308.53 223.831H308.48L196.48 288.491L188.62 293.041C187.481 293.633 186.213 293.932 184.93 293.911V290.621C186.222 290.652 187.5 290.348 188.64 289.741L193.64 286.851L308.5 220.511C308.92 220.325 309.281 220.029 309.545 219.654C309.809 219.279 309.967 218.839 310 218.381Z" fill="#0B3555"/>
<path opacity="0.2" d="M310 218.381V221.721C309.965 222.172 309.81 222.605 309.552 222.976C309.293 223.347 308.941 223.642 308.53 223.831H308.48L196.48 288.491L188.62 293.041C187.481 293.633 186.213 293.932 184.93 293.911V290.621C186.222 290.652 187.5 290.348 188.64 289.741L193.64 286.851L308.5 220.511C308.92 220.325 309.281 220.029 309.545 219.654C309.809 219.279 309.967 218.839 310 218.381Z" fill="black"/>
<path d="M310 240.641V244.001C309.965 244.451 309.81 244.884 309.552 245.255C309.293 245.626 308.941 245.922 308.53 246.111H308.48L196.48 310.771L188.62 315.321C187.481 315.912 186.213 316.211 184.93 316.191V312.901C186.222 312.931 187.5 312.628 188.64 312.021L193.64 309.131L308.5 242.801C308.923 242.612 309.287 242.311 309.551 241.93C309.816 241.549 309.971 241.103 310 240.641Z" fill="#0B3555"/>
<path opacity="0.2" d="M310 240.641V244.001C309.965 244.451 309.81 244.884 309.552 245.255C309.293 245.626 308.941 245.922 308.53 246.111H308.48L196.48 310.771L188.62 315.321C187.481 315.912 186.213 316.211 184.93 316.191V312.901C186.222 312.931 187.5 312.628 188.64 312.021L193.64 309.131L308.5 242.801C308.923 242.612 309.287 242.311 309.551 241.93C309.816 241.549 309.971 241.103 310 240.641Z" fill="black"/>
<path d="M112.37 259.09V303.97L118.85 296.49L125.33 311.45V266.57L112.37 259.09Z" fill="#0B3555"/>
<path opacity="0.5" d="M112.37 259.09V303.97L118.85 296.49L125.33 311.45V266.57L112.37 259.09Z" fill="black"/>
<path d="M138.28 352.59V364.77C138.28 366.753 137.758 368.7 136.766 370.417C135.774 372.134 134.348 373.559 132.63 374.55L115.63 384.38L131.82 382.51L128.58 391.86L145.58 382.03C147.296 381.038 148.722 379.612 149.713 377.896C150.705 376.179 151.228 374.232 151.23 372.25V360.07L138.28 352.59Z" fill="#0B3555"/>
<path opacity="0.5" d="M138.28 352.59V364.77C138.28 366.753 137.758 368.7 136.766 370.417C135.774 372.134 134.348 373.559 132.63 374.55L115.63 384.38L131.82 382.51L128.58 391.86L145.58 382.03C147.296 381.038 148.722 379.612 149.713 377.896C150.705 376.179 151.228 374.232 151.23 372.25V360.07L138.28 352.59Z" fill="black"/>
<path d="M382.62 145.66V134.72L373.38 133.91C373.248 133.9 373.116 133.928 373 133.99L363.78 139.26C363.7 139.313 363.633 139.382 363.581 139.462C363.53 139.542 363.496 139.633 363.482 139.727C363.468 139.821 363.474 139.917 363.499 140.009C363.525 140.101 363.569 140.187 363.63 140.26L373.43 150.88L382.62 145.66Z" fill="#0B3555"/>
<path d="M373.43 150.92L363.63 140.3C363.534 140.201 363.472 140.074 363.451 139.938C363.43 139.802 363.451 139.662 363.513 139.539C363.574 139.415 363.672 139.313 363.793 139.247C363.914 139.181 364.053 139.155 364.19 139.17L373.43 139.97V150.92Z" fill="#0B3555"/>
<path d="M382.62 134.72L373.43 140L364.19 139.19C364.081 139.18 363.971 139.197 363.87 139.24C364.61 138.8 372.66 134.19 373 134.01C373.12 133.946 373.255 133.919 373.39 133.93L382.62 134.72Z" fill="#0B3555"/>
<path opacity="0.5" d="M382.62 134.72L373.43 140L364.19 139.19C364.081 139.18 363.971 139.197 363.87 139.24C364.61 138.8 372.66 134.19 373 134.01C373.12 133.946 373.255 133.919 373.39 133.93L382.62 134.72Z" fill="white"/>
<path d="M373.44 127.631C373.502 126.475 373.836 125.35 374.415 124.347C374.993 123.345 375.8 122.493 376.77 121.861L379.48 120.301C380.511 119.773 381.652 119.498 382.81 119.498C383.968 119.498 385.109 119.773 386.14 120.301L415 137.001C415.97 137.632 416.778 138.484 417.356 139.487C417.935 140.489 418.269 141.615 418.33 142.771V176.151C418.263 177.303 417.927 178.423 417.349 179.422C416.77 180.42 415.966 181.269 415 181.901L412.29 183.461C411.258 183.983 410.117 184.256 408.96 184.256C407.803 184.256 406.662 183.983 405.63 183.461L397.1 178.541L386.01 172.131L376.73 166.781C375.76 166.148 374.953 165.296 374.375 164.294C373.796 163.291 373.462 162.166 373.4 161.011L373.44 127.631Z" fill="#0B3555"/>
<path d="M402.35 157.091C402.331 154.896 401.872 152.726 401 150.711C400.203 148.602 398.784 146.785 396.93 145.501C394.15 143.861 391.82 147.191 391.46 151.121C391.13 146.781 388.85 140.741 386.06 139.121C385.453 138.653 384.691 138.435 383.928 138.511C383.166 138.587 382.462 138.952 381.96 139.531C380.942 140.901 380.443 142.588 380.55 144.291C380.55 150.931 384.55 156.961 387.86 163.291L391.38 169.951L394.95 167.461C398.3 165.051 402.32 163.741 402.35 157.091Z" fill="#FAFAFA"/>
<path opacity="0.2" d="M418.37 176.131C418.302 177.29 417.961 178.416 417.375 179.419C416.79 180.422 415.976 181.272 415 181.901L412.29 183.461C411.351 183.932 410.323 184.2 409.274 184.246C408.224 184.293 407.177 184.117 406.2 183.731C407.76 184.321 408.96 183.441 408.96 181.541V148.161C408.916 146.999 408.571 145.869 407.96 144.881L417.33 139.471C417.941 140.459 418.286 141.589 418.33 142.751L418.37 176.131Z" fill="black"/>
<path opacity="0.5" d="M373.55 126.681C373.94 125.271 375.23 124.821 376.77 125.681L405.67 142.371C406.659 142.979 407.47 143.838 408.02 144.861L417.38 139.451C416.809 138.444 415.99 137.601 415 137.001L386.15 120.301C385.118 119.778 383.977 119.506 382.82 119.506C381.663 119.506 380.522 119.778 379.49 120.301L376.77 121.871C375.936 122.414 375.221 123.12 374.667 123.946C374.114 124.773 373.734 125.703 373.55 126.681Z" fill="white"/>
<path d="M301.44 199.299C315.51 198.829 322.49 206.059 331.01 218.359C339.53 230.659 363.01 264.759 363.01 264.759L344.74 275.309L304.74 220.439L301.44 199.299Z" fill="#FFA8A7"/>
<path d="M288.73 109.569C258.18 111.089 245.82 135.359 250.06 157.569C253.74 176.829 268.22 187.249 287.95 187.249H290.42C311.89 187.249 326.18 165.249 328.82 153.389C335 125.849 315.81 108.229 288.73 109.569Z" fill="#37474F"/>
<path d="M364.07 396.469C364.82 414.939 334.56 418.559 307.98 405.879C287.93 396.319 278.98 389.419 260.73 375.799C238.12 358.889 231.34 333.279 247.47 302.859L324.38 298.859C337.77 314.379 386 334.999 402 371.679C409.77 391.069 383.08 401.279 364 396.469H364.07Z" fill="#455A64"/>
<path d="M364.07 396.469C362.07 379.059 348.82 370.469 337.45 362.039C326.08 353.609 302.19 338.999 302.19 338.999C302.19 338.999 314.07 341.769 324.97 330.559C324.637 332.966 323.778 335.27 322.454 337.307C321.13 339.345 319.374 341.066 317.31 342.349C317.31 342.349 350.38 361.259 360.31 377.289C363.926 382.984 365.268 389.83 364.07 396.469Z" fill="#37474F"/>
<path d="M282.81 199.299H274C265.47 199.899 257 200.559 257 200.559C243.34 205.489 243.4 216.259 242.72 221.909C241.72 229.909 243.98 234.469 246.61 242.069L259.21 278.509C259.21 278.509 254.33 289.389 247.48 302.859C279.1 320.499 317.55 314.609 327.05 301.729C327.45 298.999 326.05 270.099 324.51 256.149C328.917 252.642 331.788 247.559 332.517 241.975C333.247 236.39 331.778 230.74 328.42 226.219C316.53 209.969 305.71 200.169 301.42 199.299H282.81Z" fill="#0B3555"/>
<path opacity="0.3" d="M282.81 199.299H274C265.47 199.899 257 200.559 257 200.559C243.34 205.489 243.4 216.259 242.72 221.909C241.72 229.909 243.98 234.469 246.61 242.069L259.21 278.509C259.21 278.509 254.33 289.389 247.48 302.859C279.1 320.499 317.55 314.609 327.05 301.729C327.45 298.999 326.05 270.099 324.51 256.149C328.917 252.642 331.788 247.559 332.517 241.975C333.247 236.39 331.778 230.74 328.42 226.219C316.53 209.969 305.71 200.169 301.42 199.299H282.81Z" fill="black"/>
<path opacity="0.15" d="M256.64 284.06C255.56 286.38 254.16 289.33 252.53 292.67C252.25 293.26 251.96 293.86 251.66 294.46C251.29 295.22 250.91 296 250.51 296.79C249.51 298.73 248.51 300.79 247.51 302.86C248.68 303.51 249.86 304.11 251.04 304.7C272.2 315.22 295.76 315.75 311.45 311.05C300.784 312.468 289.953 311.997 279.45 309.66C276.974 309.089 274.637 308.03 272.575 306.545C270.514 305.059 268.769 303.178 267.444 301.01C266.119 298.842 265.24 296.431 264.858 293.919C264.476 291.407 264.599 288.844 265.22 286.38C265.302 286.039 265.409 285.705 265.54 285.38C267.54 280.49 271.95 281.13 271.95 281.13C269.913 279.793 268.162 278.065 266.797 276.046C265.433 274.028 264.482 271.758 264 269.37L262.34 264.3C258.528 252.782 258.333 240.373 261.78 228.74L261.87 228.41L248.43 220.75L246.08 222.38C245.346 224.746 244.916 227.196 244.8 229.67C244.8 230.3 244.8 230.94 244.8 231.58C244.8 231.88 244.8 232.18 244.8 232.47C244.8 233.01 244.86 233.54 244.91 234.07C244.96 234.6 244.99 234.92 245.05 235.34C245.11 235.76 245.17 236.24 245.25 236.69C245.33 237.14 245.46 237.78 245.58 238.32C245.66 238.66 245.72 239.01 245.81 239.32C246.04 240.21 246.3 241.1 246.6 241.97L259.2 278.41C259.2 278.41 258.27 280.59 256.64 284.06Z" fill="black"/>
<path d="M314.5 128.459C316.5 129.459 321.91 139.809 321.39 162.339C320.95 181.439 314.76 186.149 311.65 187.509C308.54 188.869 302.55 188.039 296.72 187.069V198.529C296.72 198.529 304.78 207.889 304.27 213.139C303.76 218.389 292.64 219.639 285.11 214.509C280.224 210.992 276.03 206.601 272.74 201.559V173.859C272.74 173.859 269.56 177.349 263.12 173.079C256.68 168.809 255.69 159.989 259.43 156.189C263.17 152.389 271.24 153.599 272.74 158.839C272.74 158.839 282.18 160.509 294.84 152.359C308.51 143.559 312.72 136.559 314.5 128.459Z" fill="#FFA8A7"/>
<path d="M317.62 149.81L312.28 147.26C312.429 146.905 312.649 146.584 312.926 146.317C313.203 146.049 313.532 145.841 313.892 145.704C314.252 145.567 314.636 145.506 315.021 145.522C315.406 145.539 315.783 145.633 316.13 145.8C316.846 146.149 317.4 146.761 317.678 147.507C317.955 148.254 317.934 149.079 317.62 149.81Z" fill="#263238"/>
<path d="M293.8 146.759L288.8 149.909C288.584 149.595 288.433 149.241 288.357 148.867C288.281 148.494 288.281 148.108 288.358 147.735C288.434 147.361 288.585 147.007 288.802 146.693C289.019 146.38 289.297 146.113 289.62 145.909C290.292 145.487 291.102 145.339 291.88 145.498C292.659 145.656 293.346 146.108 293.8 146.759Z" fill="#263238"/>
<path d="M272.52 153.58L272.85 165.26C273.617 165.278 274.38 165.14 275.093 164.854C275.805 164.568 276.452 164.141 276.995 163.597C277.537 163.054 277.963 162.407 278.248 161.694C278.532 160.981 278.669 160.217 278.65 159.45C278.581 157.871 277.904 156.379 276.763 155.285C275.621 154.192 274.101 153.581 272.52 153.58Z" fill="#37474F"/>
<path d="M297.93 156.809C297.933 157.279 297.798 157.74 297.542 158.134C297.286 158.529 296.919 158.839 296.488 159.027C296.057 159.214 295.58 159.271 295.117 159.19C294.653 159.109 294.224 158.894 293.882 158.571C293.54 158.248 293.301 157.832 293.193 157.374C293.086 156.916 293.116 156.437 293.278 155.995C293.441 155.554 293.73 155.171 294.109 154.892C294.488 154.614 294.94 154.453 295.41 154.429C295.732 154.418 296.053 154.472 296.355 154.586C296.656 154.7 296.932 154.873 297.166 155.094C297.4 155.315 297.589 155.581 297.72 155.875C297.851 156.169 297.922 156.487 297.93 156.809Z" fill="#263238"/>
<path d="M300 173.709L306.33 175.709C306.216 176.133 306.018 176.531 305.747 176.877C305.477 177.222 305.139 177.51 304.754 177.722C304.369 177.934 303.945 178.066 303.508 178.11C303.071 178.154 302.629 178.11 302.21 177.979C301.361 177.69 300.658 177.085 300.246 176.289C299.834 175.493 299.746 174.568 300 173.709Z" fill="#F28F8F"/>
<path d="M316.5 155.809C316.503 156.279 316.368 156.74 316.112 157.134C315.856 157.529 315.489 157.839 315.058 158.027C314.627 158.214 314.15 158.271 313.687 158.19C313.223 158.109 312.794 157.894 312.452 157.571C312.11 157.248 311.871 156.832 311.763 156.374C311.656 155.916 311.686 155.437 311.848 154.995C312.011 154.554 312.3 154.171 312.679 153.892C313.058 153.614 313.51 153.453 313.98 153.429C314.302 153.418 314.623 153.472 314.925 153.586C315.226 153.7 315.502 153.873 315.736 154.094C315.97 154.315 316.159 154.581 316.29 154.875C316.421 155.169 316.492 155.487 316.5 155.809Z" fill="#263238"/>
<path d="M304.77 154.43L305.16 168.89L312.76 166.53L304.77 154.43Z" fill="#F28F8F"/>
<path d="M296.72 187.069C290.58 186.269 277.95 182.639 275.98 177.639C275.98 177.639 276.64 180.779 280.41 184.019C284.18 187.259 296.72 190.899 296.72 190.899V187.069Z" fill="#F28F8F"/>
<path d="M386.29 239.75C386.29 239.75 386.05 236.23 390.69 232.8C395.33 229.37 401.39 226.62 403.37 218.1L409.76 221.79L399 239.89L386.29 239.75Z" fill="#0B3555"/>
<path opacity="0.75" d="M386.29 239.75C386.29 239.75 386.05 236.23 390.69 232.8C395.33 229.37 401.39 226.62 403.37 218.1L409.76 221.79L399 239.89L386.29 239.75Z" fill="white"/>
<path d="M386.29 239.749C386.29 239.749 379.29 236.249 364 239.409C348.71 242.569 336.19 246.659 306.79 246.009L314.42 250.419L390.75 245.999L386.29 239.749Z" fill="#0B3555"/>
<path opacity="0.75" d="M386.29 239.749C386.29 239.749 379.29 236.249 364 239.409C348.71 242.569 336.19 246.659 306.79 246.009L314.42 250.419L390.75 245.999L386.29 239.749Z" fill="white"/>
<path d="M306.79 246.01L279.5 333.84L287.13 338.25L314.42 250.42L306.79 246.01Z" fill="#0B3555"/>
<path opacity="0.8" d="M306.79 246.01L279.5 333.84L287.13 338.25L314.42 250.42L306.79 246.01Z" fill="white"/>
<path opacity="0.1" d="M306.79 246.01L279.5 333.84L287.13 338.25L314.42 250.42L306.79 246.01Z" fill="black"/>
<g opacity="0.1">
<path d="M403.36 222.82C402.645 224.656 401.579 226.334 400.22 227.76C398.849 229.188 397.386 230.524 395.84 231.76C394.285 232.923 392.845 234.232 391.54 235.67C390.927 236.376 390.409 237.16 390 238C389.613 238.808 389.425 239.696 389.45 240.59L388.52 240.73C388.503 239.658 388.757 238.598 389.26 237.65C389.72 236.744 390.298 235.904 390.98 235.15C392.367 233.737 393.888 232.461 395.52 231.34C397.096 230.184 398.598 228.932 400.02 227.59C401.432 226.232 402.566 224.612 403.36 222.82Z" fill="black"/>
<path d="M402.14 227.77C401.488 228.866 400.699 229.874 399.79 230.77C398.91 231.7 398.01 232.59 397.15 233.53C396.289 234.454 395.519 235.458 394.85 236.53C394.193 237.552 393.783 238.712 393.65 239.92L392.71 239.8C392.945 238.479 393.475 237.228 394.26 236.14C395.019 235.093 395.876 234.122 396.82 233.24C397.74 232.35 398.7 231.51 399.62 230.64C400.58 229.796 401.427 228.831 402.14 227.77Z" fill="black"/>
<path d="M336.19 246.661C340.367 246.282 344.52 245.671 348.63 244.831C352.75 244.001 356.82 242.981 360.91 242.031C365.011 241.029 369.209 240.483 373.43 240.401C375.55 240.335 377.672 240.418 379.78 240.651C380.844 240.768 381.897 240.968 382.93 241.251C384.025 241.522 385.048 242.027 385.93 242.731L385.28 243.411C384.518 242.796 383.636 242.346 382.69 242.091C381.707 241.809 380.704 241.598 379.69 241.461C377.628 241.196 375.549 241.075 373.47 241.101C369.275 241.101 365.092 241.567 361 242.491C356.9 243.361 352.8 244.311 348.67 245.061C344.543 245.823 340.376 246.357 336.19 246.661Z" fill="black"/>
<path d="M356.37 246.279C358.74 245.959 361.07 245.469 363.42 245.019C365.77 244.569 368.12 244.139 370.49 243.829C372.87 243.479 375.274 243.319 377.68 243.349C380.128 243.346 382.555 243.793 384.84 244.669L384.46 245.529C382.3 244.623 379.992 244.121 377.65 244.049C375.281 243.944 372.907 244.025 370.55 244.289C368.18 244.529 365.82 244.879 363.46 245.289C361.1 245.699 358.75 245.999 356.37 246.279Z" fill="black"/>
</g>
<path d="M409.78 217.4L397.2 238.85L367.92 333.03L371.74 335.23L384.3 308.93L413.58 219.59L409.78 217.4Z" fill="#0B3555"/>
<path opacity="0.2" d="M401.01 241.06L413.58 219.59L384.3 308.93L371.74 335.23L401.01 241.06Z" fill="black"/>
<path d="M384.65 246.1L309.37 250.93L280.09 345.1L283.91 347.3L359.19 342.47L388.46 248.3L384.65 246.1Z" fill="#0B3555"/>
<path opacity="0.2" d="M313.18 253.129L283.91 347.299L359.19 342.469L388.46 248.299L313.18 253.129Z" fill="black"/>
<path d="M297.16 342.92C297.089 342.919 297.019 342.902 296.955 342.871C296.891 342.84 296.835 342.795 296.79 342.74C296.745 342.679 296.714 342.609 296.701 342.534C296.687 342.46 296.69 342.383 296.71 342.31C296.943 341.559 296.991 340.763 296.848 339.99C296.705 339.217 296.377 338.49 295.891 337.872C295.405 337.254 294.775 336.763 294.058 336.442C293.34 336.122 292.555 335.98 291.77 336.03C291.694 336.033 291.618 336.019 291.549 335.987C291.479 335.956 291.418 335.909 291.37 335.85C291.321 335.791 291.288 335.721 291.274 335.645C291.26 335.57 291.266 335.493 291.29 335.42L313.56 263.79C313.588 263.7 313.641 263.621 313.714 263.562C313.788 263.504 313.877 263.468 313.97 263.46C316.024 263.323 317.989 262.57 319.607 261.297C321.226 260.025 322.422 258.294 323.04 256.33C323.068 256.239 323.124 256.159 323.199 256.1C323.274 256.041 323.365 256.006 323.46 256L375.18 252.68C375.256 252.677 375.332 252.692 375.401 252.723C375.471 252.754 375.532 252.801 375.58 252.86C375.627 252.92 375.659 252.99 375.673 253.065C375.687 253.14 375.683 253.217 375.66 253.29C375.421 254.041 375.371 254.838 375.514 255.613C375.657 256.387 375.989 257.114 376.48 257.73C376.959 258.356 377.587 258.852 378.306 259.173C379.026 259.494 379.814 259.631 380.6 259.57C380.676 259.564 380.753 259.578 380.823 259.609C380.893 259.641 380.954 259.689 381 259.75C381.049 259.809 381.082 259.879 381.096 259.955C381.11 260.03 381.104 260.108 381.08 260.18L358.82 331.81C358.791 331.901 358.735 331.98 358.66 332.039C358.585 332.098 358.495 332.133 358.4 332.14C356.347 332.28 354.383 333.034 352.765 334.306C351.147 335.578 349.95 337.308 349.33 339.27C349.303 339.362 349.248 339.443 349.173 339.502C349.098 339.561 349.006 339.596 348.91 339.6L297.19 342.92H297.16ZM292.38 335.08C293.205 335.124 294.011 335.344 294.744 335.725C295.476 336.106 296.12 336.639 296.63 337.288C297.14 337.938 297.506 338.689 297.703 339.491C297.899 340.293 297.922 341.128 297.77 341.94L348.54 338.68C349.241 336.661 350.507 334.885 352.187 333.565C353.868 332.244 355.892 331.434 358.02 331.23L380.02 260.52C379.194 260.477 378.387 260.258 377.653 259.878C376.919 259.498 376.275 258.965 375.763 258.315C375.252 257.666 374.885 256.914 374.688 256.111C374.491 255.309 374.468 254.473 374.62 253.66L323.86 256.92C323.157 258.938 321.891 260.712 320.21 262.033C318.53 263.353 316.507 264.164 314.38 264.37L292.38 335.08Z" fill="#FAFAFA"/>
<path opacity="0.3" d="M309.37 250.93L313.18 253.13L283.91 347.3L280.09 345.1L309.37 250.93Z" fill="black"/>
<path d="M388.46 248.299L401 241.059L371.73 335.229C369.78 340.309 365.47 342.579 359.18 342.469L388.46 248.299Z" fill="#0B3555"/>
<path opacity="0.3" d="M388.46 248.299L401 241.059L371.73 335.229C369.54 340.599 365.11 342.649 359.18 342.469L388.46 248.299Z" fill="black"/>
<path d="M396.77 238.609C394.44 237.239 389.77 237.749 386.29 239.749C382.81 241.749 381.91 244.469 384.24 245.839L388.46 248.299L401 241.059L397.19 238.849L396.77 238.609Z" fill="#455A64"/>
<path d="M381.77 269.8C386.29 269.89 391.2 269.32 393.39 265.58L396.3 256.26C393.55 260.02 389.95 261.98 384.3 261.82L381.77 269.8Z" fill="#E0E0E0"/>
<path d="M397.2 238.85C396.46 242.47 391.84 244.73 384.65 246.1L388.46 248.3C394.64 247.59 398.72 245.09 401.01 241.06L397.2 238.85Z" fill="#0B3555"/>
<path d="M257 200.559C249.18 201.029 240.87 203.629 237.31 217.779C233.75 231.929 224.06 279.399 223.31 285.779C222.56 292.159 222.41 297.309 237.74 302.219C255.04 307.749 283 309.919 290.9 310.339C305.47 311.129 315.18 306.839 319.83 298.469C324.48 290.099 325.83 278.959 312.75 284.359C298.87 290.099 293.05 290.239 293.05 290.239L295.71 281.679C291.36 283.569 287.71 289.519 283.36 290.239C279.5 290.889 250.11 280.719 250.11 280.719L260.11 238.049C260.11 238.049 269.24 211.159 257 200.559Z" fill="#FFA8A7"/>
<path d="M258.45 184.77C256.813 186.575 255.077 188.288 253.25 189.9C249.74 193.32 247.25 196.31 245.62 200.9C243.99 205.49 244.2 211.01 247.16 214.9C250.12 218.79 255.16 220.6 257.25 224.9C258.25 226.96 258.45 229.32 258.78 231.6C259.48 236.53 261 241.47 264.03 245.43C268.94 251.87 279.44 255.12 286.15 249.25C288.255 247.213 289.757 244.635 290.49 241.8C292.401 236.073 292.271 229.861 290.12 224.22C288.12 219.28 284.29 215.32 280.76 211.31C277.61 207.73 273.45 203.08 272.76 198.14C272.76 198.14 272.63 188.95 272.7 184.59C272.7 182.46 272.7 180.31 270.64 179.19C269.055 178.246 267.291 177.64 265.46 177.41C262.64 177.27 262.16 177.62 262.16 177.62C261.384 180.215 260.125 182.641 258.45 184.77Z" fill="#37474F"/>
<path d="M398.94 264C398.03 261 394.66 266.63 393.18 275.22C391.77 283.44 389.83 292.03 389.83 292.03L387.56 299.03C387.56 299.03 392.99 295.67 397.42 286.46C401.85 277.25 401.52 272.47 398.94 264Z" fill="#FFA8A7"/>
</svg>
