<svg width="500" height="500" viewBox="0 0 500 500" fill="none" xmlns="http://www.w3.org/2000/svg">
<path d="M413.9 251.251C322.79 198.651 175.55 198.651 85.03 251.251C-5.49001 303.851 -5.00001 389.151 86.1 441.751C177.2 494.351 324.45 494.361 414.98 441.751C505.51 389.141 505 303.861 413.9 251.251Z" fill="#F5F5F5"/>
<path d="M400.21 383.611C381.92 373.051 352.35 373.051 334.21 383.611C316.07 394.171 316.13 411.301 334.42 421.861C352.71 432.421 382.28 432.431 400.42 421.861C418.56 411.291 418.51 394.181 400.21 383.611Z" fill="#E0E0E0"/>
<path d="M309.14 304.761L248.16 269.561L187.57 304.761L248.55 339.971L309.14 304.761Z" fill="#E0E0E0"/>
<path d="M174.76 387.581C156.22 376.871 126.25 376.871 107.83 387.581C89.41 398.291 89.5 415.641 108.05 426.351C126.6 437.061 156.56 437.051 174.98 426.351C193.4 415.651 193.3 398.281 174.76 387.581Z" fill="#E0E0E0"/>
<path d="M245.38 373.64C243.461 372.663 241.338 372.154 239.185 372.154C237.032 372.154 234.909 372.663 232.99 373.64C229.58 375.64 229.6 378.84 232.99 380.82C234.909 381.796 237.032 382.305 239.185 382.305C241.338 382.305 243.461 381.796 245.38 380.82C248.83 378.84 248.82 375.62 245.38 373.64Z" fill="#E0E0E0"/>
<path d="M351.7 314.54C349.781 313.564 347.658 313.055 345.505 313.055C343.352 313.055 341.229 313.564 339.31 314.54C335.9 316.54 335.92 319.74 339.31 321.72C341.229 322.697 343.352 323.206 345.505 323.206C347.658 323.206 349.781 322.697 351.7 321.72C355.15 319.74 355.13 316.52 351.7 314.54Z" fill="#E0E0E0"/>
<path d="M160.65 325.501C158.732 324.519 156.609 324.008 154.455 324.008C152.301 324.008 150.178 324.519 148.26 325.501C144.85 327.501 144.87 330.691 148.26 332.671C150.178 333.652 152.301 334.164 154.455 334.164C156.609 334.164 158.732 333.652 160.65 332.671C164.1 330.691 164.08 327.481 160.65 325.501Z" fill="#E0E0E0"/>
<path d="M182.57 75.4698L182.63 95.3298L185.04 96.7299L184.97 74.0898L182.57 75.4698Z" fill="#F0F0F0"/>
<path d="M156.64 110.34L156.65 113.12L185.04 96.7301L182.63 95.3301L156.64 110.34Z" fill="#F5F5F5"/>
<path d="M187.87 69.0703L153.67 88.8203L153.75 118.14L188 98.4003L187.87 69.0703ZM156.65 113.12V110.34V90.4803L182.65 75.4803L185.05 74.1003L185 96.7303L156.65 113.12Z" fill="#E0E0E0"/>
<path d="M187.87 69.0699L185.46 67.6699L151.26 87.4199L153.67 88.8199L187.87 69.0699Z" fill="#F5F5F5"/>
<path d="M151.26 87.4199L151.34 116.74L153.75 118.14L153.67 88.8199L151.26 87.4199Z" fill="#F0F0F0"/>
<path d="M182.56 120.05L182.61 139.91L185.02 141.3L184.95 118.66L182.56 120.05Z" fill="#F0F0F0"/>
<path d="M156.63 154.91V157.69L185.02 141.3L182.61 139.91L156.63 154.91Z" fill="#F5F5F5"/>
<path d="M187.85 113.641L153.65 133.391L153.73 162.711L187.94 143.001L187.85 113.641ZM156.63 157.691V154.911L156.57 135.051L182.57 120.051L184.96 118.671L185 141.301L156.63 157.691Z" fill="#E0E0E0"/>
<path d="M187.85 113.64L185.45 112.24L151.24 131.99L153.65 133.39L187.85 113.64Z" fill="#F5F5F5"/>
<path d="M151.24 131.99L151.33 161.31L153.74 162.71L153.65 133.39L151.24 131.99Z" fill="#F0F0F0"/>
<path d="M233.46 95.8398V91.0098L233.24 91.1398L232.84 91.3798C228.944 93.9433 225.421 97.0324 222.37 100.56C221.82 101.17 221.27 101.78 220.74 102.4C217.93 105.61 215.18 109.01 212.36 112.2V119.99L215.76 117.99C220.193 109.545 226.201 102.026 233.46 95.8398Z" fill="#EBEBEB"/>
<path d="M233.49 107.8V101.35C230.524 104.492 228.076 108.087 226.24 112L233.49 107.8Z" fill="#EBEBEB"/>
<path d="M226.24 112C228.072 108.096 230.512 104.508 233.47 101.37V95.8398C226.206 102.028 220.195 109.55 215.76 118L226.24 112Z" fill="#FAFAFA"/>
<path d="M219.13 89.1891L219.62 89.0191C220.54 88.6925 221.46 88.3125 222.38 87.8791L222.72 87.7191L223.66 87.2591L223.85 87.1691C224.33 86.9191 224.85 86.6691 225.27 86.3991L225.58 86.2291L225.82 86.0791C228.394 84.5575 230.83 82.8143 233.1 80.8691L233.41 80.5991V72.4491C228.24 75.0891 223.15 75.9191 219.04 74.6391C216.227 73.7316 213.821 71.8669 212.24 69.3691L212.3 90.5491C214.629 90.4167 216.928 89.9589 219.13 89.1891Z" fill="#FAFAFA"/>
<path d="M222.35 100.56C225.401 97.0325 228.924 93.9433 232.82 91.3798L233.22 91.1398L233.44 91.0098V86.3398C226.538 90.4051 220.143 95.2759 214.39 100.85C213.7 101.5 213.01 102.18 212.32 102.85V112.23C215.14 109.04 217.89 105.64 220.7 102.43C221.25 101.78 221.8 101.17 222.35 100.56Z" fill="#FAFAFA"/>
<path d="M233.43 86.3396V80.5996L233.12 80.8696C230.85 82.8147 228.414 84.558 225.84 86.0796L225.6 86.2296L225.29 86.3996C224.82 86.6696 224.35 86.9196 223.87 87.1696L223.68 87.2596L222.75 87.7196L222.4 87.8896C221.48 88.3096 220.56 88.6896 219.64 89.0196L219.15 89.1896C216.942 89.9612 214.636 90.419 212.3 90.5496V102.82C212.99 102.18 213.68 101.5 214.37 100.82C220.128 95.2556 226.526 90.3949 233.43 86.3396Z" fill="#EBEBEB"/>
<path d="M233.37 65.8602V59.8602C231.712 59.4381 230.188 58.6019 228.941 57.4301C227.693 56.2583 226.764 54.7891 226.24 53.1602L219 57.3002C220.266 59.9994 222.311 62.2575 224.873 63.7832C227.434 65.3089 230.394 66.0324 233.37 65.8602Z" fill="#FAFAFA"/>
<path d="M219 74.6408C223.11 75.9208 228.2 75.0908 233.37 72.4508V65.8608C230.394 66.033 227.434 65.3096 224.873 63.7838C222.311 62.2581 220.266 60 219 57.3008L212.2 61.2208V69.3708C213.781 71.8685 216.187 73.7333 219 74.6408Z" fill="#EBEBEB"/>
<path d="M234.51 47L211 60.55L211.17 122.05L234.68 108.47L234.51 47ZM212.36 120V112.21V102.83V90.56L212.3 69.38V61.23L219 57.3L226.22 53.13L233.32 49.02V59.83V65.83V72.42V80.57V86.31V91V95.83V101.34V107.79L226.24 112L215.76 118L212.36 120Z" fill="white"/>
<path d="M233.35 59.8295V49.0195L226.25 53.1295C226.772 54.7549 227.696 56.2217 228.938 57.3933C230.179 58.5648 231.697 59.403 233.35 59.8295Z" fill="#EBEBEB"/>
<path d="M234.68 108.471L211.17 122.051L211.18 123.681L236.1 109.301L234.68 108.471Z" fill="#CACACA"/>
<path d="M234.51 46.9702L234.68 108.47L236.1 109.3L235.92 46.1602L234.51 46.9702Z" fill="#F0F0F0"/>
<path d="M239.7 39.6094L207.19 58.3794L207.4 130.229L239.9 111.459L239.7 39.6094ZM211.18 123.679V122.049L211 60.5494L234.51 46.9994L235.92 46.1894L236.1 109.319L211.18 123.679Z" fill="#E0E0E0"/>
<path d="M239.7 39.6099L237.02 38.1699L204.51 56.9399L207.19 58.3799L239.7 39.6099Z" fill="#F5F5F5"/>
<path d="M204.51 56.9395L204.72 128.789L207.4 130.229L207.19 58.3795L204.51 56.9395Z" fill="#F0F0F0"/>
<path d="M387.89 114.26L362.45 99.5703L387.89 114.26Z" fill="#E0E0E0"/>
<path d="M362.57 56.9297L362.45 99.5697L362.57 56.9297Z" fill="#E0E0E0"/>
<path d="M385.8 110.629L364.55 98.3691L385.8 110.629Z" fill="#E0E0E0"/>
<path d="M385.8 110.631L364.55 98.3708L364.66 60.5508L385.91 72.8208L385.8 110.631Z" fill="#EBEBEB"/>
<path d="M362.57 56.9297L388.01 71.6197L362.57 56.9297Z" fill="#E0E0E0"/>
<path d="M388.01 71.6191L387.89 114.259L388.01 71.6191Z" fill="#E0E0E0"/>
<path d="M357.76 102.24L392.56 122.33L392.71 69.0002L357.91 48.9102L357.76 102.24ZM362.45 99.5702L362.57 56.9302L388 71.6202L387.88 114.26L362.45 99.5702Z" fill="#EBEBEB"/>
<path d="M362.57 56.9297L362.45 99.5697L387.89 114.26L388 71.6197L362.57 56.9297ZM364.57 98.3697L364.68 60.5497L385.93 72.8197L385.82 110.63L364.57 98.3697Z" fill="#E0E0E0"/>
<path d="M395.59 67.2695L395.44 120.66L392.56 122.33L392.71 68.9495L395.59 67.2695Z" fill="#E0E0E0"/>
<path d="M357.91 48.8597L360.79 47.1797L395.59 67.2697L392.71 68.9497L357.91 48.8597Z" fill="#F5F5F5"/>
<path d="M434.25 141.01L408.81 126.32L434.25 141.01Z" fill="#E0E0E0"/>
<path d="M408.93 83.6895L408.81 126.319L408.93 83.6895Z" fill="#E0E0E0"/>
<path d="M432.16 137.389L410.91 125.119L432.16 137.389Z" fill="#E0E0E0"/>
<path d="M432.16 137.391L410.91 125.121L411.02 87.3105L432.27 99.5705L432.16 137.391Z" fill="#EBEBEB"/>
<path d="M408.93 83.6895L434.37 98.3794L408.93 83.6895Z" fill="#E0E0E0"/>
<path d="M434.37 98.3809L434.25 141.011L434.37 98.3809Z" fill="#E0E0E0"/>
<path d="M404.11 128.999L438.91 149.089L439.06 95.6994L404.26 75.6094L404.11 128.999ZM408.81 126.319L408.93 83.6894L434.37 98.3794L434.25 140.999L408.81 126.319Z" fill="#EBEBEB"/>
<path d="M408.93 83.6895L408.81 126.319L434.25 140.999L434.37 98.3695L408.93 83.6895ZM410.93 125.119L411 87.3094L432.25 99.5695L432.14 137.389L410.93 125.119Z" fill="#E0E0E0"/>
<path d="M441.95 94.0293L441.8 147.409L438.91 149.089L439.06 95.6993L441.95 94.0293Z" fill="#E0E0E0"/>
<path d="M404.26 75.6097L407.15 73.9297L441.95 94.0297L439.06 95.6997L404.26 75.6097Z" fill="#F5F5F5"/>
<path d="M387.89 179.78L362.45 165.09L387.89 179.78Z" fill="#E0E0E0"/>
<path d="M362.57 122.459L362.45 165.089L362.57 122.459Z" fill="#E0E0E0"/>
<path d="M385.8 176.161L364.55 163.891L385.8 176.161Z" fill="#E0E0E0"/>
<path d="M385.8 176.16L364.55 163.89L364.66 126.08L385.91 138.35L385.8 176.16Z" fill="#EBEBEB"/>
<path d="M362.57 122.459L388.01 137.149L362.57 122.459Z" fill="#E0E0E0"/>
<path d="M388.01 137.15L387.89 179.78L388.01 137.15Z" fill="#E0E0E0"/>
<path d="M357.76 167.771L392.56 187.861L392.71 134.471L357.91 114.381L357.76 167.771ZM362.45 165.091L362.57 122.461L388 137.151L387.88 179.781L362.45 165.091Z" fill="#EBEBEB"/>
<path d="M362.57 122.459L362.45 165.089L387.89 179.779L388.01 137.149L362.57 122.459ZM364.57 163.889L364.68 126.079L385.93 138.349L385.82 176.159L364.57 163.889Z" fill="#E0E0E0"/>
<path d="M395.59 132.801L395.44 186.181L392.56 187.861L392.71 134.471L395.59 132.801Z" fill="#E0E0E0"/>
<path d="M357.91 114.379L360.79 112.699L395.59 132.799L392.71 134.469L357.91 114.379Z" fill="#F5F5F5"/>
<path d="M434.25 206.54L408.81 191.85L434.25 206.54Z" fill="#E0E0E0"/>
<path d="M408.93 149.209L408.81 191.849L408.93 149.209Z" fill="#E0E0E0"/>
<path d="M432.16 202.91L410.91 190.65L432.16 202.91Z" fill="#E0E0E0"/>
<path d="M432.16 202.91L410.91 190.65L411.02 152.83L432.27 165.1L432.16 202.91Z" fill="#EBEBEB"/>
<path d="M408.93 149.209L434.37 163.899L408.93 149.209Z" fill="#E0E0E0"/>
<path d="M434.37 163.9L434.25 206.54L434.37 163.9Z" fill="#E0E0E0"/>
<path d="M404.11 194.521L438.91 214.611L439.06 161.231L404.26 141.141L404.11 194.521ZM408.81 191.851L408.93 149.211L434.37 163.901L434.25 206.541L408.81 191.851Z" fill="#EBEBEB"/>
<path d="M408.93 149.209L408.81 191.849L434.25 206.539L434.37 163.899L408.93 149.209ZM410.93 190.649L411.04 152.829L432.29 165.099L432.18 202.909L410.93 190.649Z" fill="#E0E0E0"/>
<path d="M441.95 159.551L441.8 212.941L438.91 214.611L439.06 161.231L441.95 159.551Z" fill="#E0E0E0"/>
<path d="M404.26 141.139L407.15 139.459L441.95 159.549L439.06 161.229L404.26 141.139Z" fill="#F5F5F5"/>
<path d="M129.29 77.8105L121.93 90.5506L57.03 128.021L49.62 123.811L129.29 77.8105Z" fill="#E0E0E0"/>
<path d="M101.46 159.18L101.52 158.57V159.18H101.46Z" fill="#353C56"/>
<path d="M122.22 192.42L129.63 196.64L49.95 242.64L57.32 229.89L122.22 192.42Z" fill="#E0E0E0"/>
<path d="M104.2 142.301C105.585 146.249 106.312 150.397 106.35 154.581C106.432 159.736 106.212 164.891 105.69 170.021C105.62 170.881 105.54 171.751 105.47 172.611L100.88 173.141L101.5 159.141V158.531C101.6 157.531 101.64 156.441 101.64 155.421V148.331C102.717 146.423 103.576 144.401 104.2 142.301Z" fill="#E0E0E0"/>
<path d="M101.64 148.369V155.459C101.64 156.459 101.64 157.519 101.5 158.569L101.44 159.179C100.992 163.153 100.031 167.052 98.58 170.779L96.78 175.489L95 172.169C93.7416 169.763 92.9863 167.126 92.78 164.419C92.7 163.539 92.65 162.639 92.65 161.709C95.1391 159.588 97.2492 157.058 98.89 154.229C99.8656 152.51 100.698 150.714 101.38 148.859C101.45 148.689 101.55 148.529 101.64 148.369Z" fill="#EBEBEB"/>
<path d="M92.64 164.079L92.76 164.419C92.9725 167.128 93.7347 169.765 95 172.169L96.82 175.489L98.62 170.779C100.071 167.052 101.032 163.153 101.48 159.179L100.9 173.179L105.49 172.649C105.56 171.789 105.64 170.919 105.71 170.059L110.87 165.919C111.081 162.983 111.081 160.035 110.87 157.099L122.17 154.539V160.909L113.51 173.399C109.193 179.876 103.518 185.335 96.88 189.399C91 192.739 85.12 193.999 80.17 192.579L68 189.149L66.16 188.619L92.64 164.079Z" fill="#F5F5F5"/>
<path d="M97.48 127.84C98.0017 129.43 99.0239 130.808 100.394 131.769C101.764 132.729 103.408 133.221 105.08 133.17V136.41C105.075 137.142 105.032 137.873 104.95 138.6C104.801 139.852 104.547 141.09 104.19 142.3C103.569 144.413 102.71 146.45 101.63 148.37C101.54 148.53 101.44 148.69 101.35 148.86C99.2559 152.593 96.2531 155.737 92.62 158C89.22 160 86.13 160.19 83.86 159C81.59 157.81 80.07 154.92 80.06 150.88V145.81C83.3744 142.923 86.2333 139.551 88.54 135.81C88.88 135.69 89.23 135.55 89.54 135.39C89.85 135.23 90.06 135.14 90.32 134.99L90.59 134.85C90.98 134.62 91.37 134.37 91.77 134.09C92.4137 133.628 93.0282 133.127 93.61 132.59C93.77 132.45 93.91 132.31 94.06 132.16C95.3818 130.874 96.5314 129.422 97.48 127.84Z" fill="#EBEBEB"/>
<path d="M57 127.999L121.9 90.5293L122.08 154.529L110.78 157.089C110.46 152.379 109.366 147.753 107.54 143.399C114.4 135.669 118.91 126.619 118.89 119.299C118.89 107.709 107.44 104.879 93.39 112.989C79.34 121.099 68 137.059 68 148.649C68 157.419 74.56 161.169 83.82 158.969C86.09 160.199 89.18 159.969 92.58 157.969V161.669C92.58 162.599 92.63 163.499 92.71 164.379L92.59 164.039L66.2 188.619L68.04 189.149L63.94 226.069L57.32 229.889L57 127.999Z" fill="#E0E0E0"/>
<g opacity="0.1">
<path d="M57 127.999L121.9 90.5293L122.08 154.529L110.78 157.089C110.46 152.379 109.366 147.753 107.54 143.399C114.4 135.669 118.91 126.619 118.89 119.299C118.89 107.709 107.44 104.879 93.39 112.989C79.34 121.099 68 137.059 68 148.649C68 157.419 74.56 161.169 83.82 158.969C86.09 160.199 89.18 159.969 92.58 157.969V161.669C92.58 162.599 92.63 163.499 92.71 164.379L92.59 164.039L66.2 188.619L68.04 189.149L63.94 226.069L57.32 229.889L57 127.999Z" fill="black"/>
</g>
<path d="M105 138.6C106.017 140.104 106.891 141.701 107.61 143.37C109.436 147.724 110.53 152.349 110.85 157.06C111.061 159.996 111.061 162.943 110.85 165.88L105.69 170C106.212 164.87 106.432 159.715 106.35 154.56C106.312 150.376 105.585 146.227 104.2 142.28C104.569 141.077 104.837 139.846 105 138.6Z" fill="#EBEBEB"/>
<path d="M68 189.149L80.13 192.579C85.13 193.989 90.94 192.739 96.8 189.349C103.438 185.286 109.113 179.826 113.43 173.349L122.09 160.859V161.999L115.09 174.429C110.09 183.309 103.44 190.159 96.77 194.009C90.1 197.859 83.42 198.709 78.4 195.599L68 189.149Z" fill="#E0E0E0"/>
<path d="M68 189.149L78.44 195.629C83.44 198.739 90.14 197.889 96.81 194.039C103.48 190.189 110.14 183.339 115.13 174.459L122.13 162.029L122.22 192.419L96.89 207.049L63.94 226.049L68 189.149Z" fill="#F5F5F5"/>
<path d="M92.51 121.21C99.43 117.21 105.04 120.43 105.06 128.37V133.17C103.388 133.221 101.744 132.729 100.374 131.768C99.0039 130.808 97.9817 129.429 97.46 127.84C96.5183 129.424 95.3755 130.879 94.06 132.17C93.91 132.32 93.77 132.46 93.61 132.6C93.0282 133.137 92.4137 133.638 91.77 134.1C91.37 134.38 90.98 134.63 90.59 134.86L90.32 135C90.06 135.15 89.8 135.28 89.54 135.4C89.28 135.52 88.85 135.7 88.54 135.82C86.2333 139.561 83.3744 142.933 80.06 145.82V142.82C80 134.88 85.6 125.2 92.51 121.21Z" fill="#E0E0E0"/>
<g opacity="0.05">
<path d="M92.51 121.21C99.43 117.21 105.04 120.43 105.06 128.37V133.17C103.388 133.221 101.744 132.729 100.374 131.768C99.0039 130.808 97.9817 129.429 97.46 127.84C96.5183 129.424 95.3755 130.879 94.06 132.17C93.91 132.32 93.77 132.46 93.61 132.6C93.0282 133.137 92.4137 133.638 91.77 134.1C91.37 134.38 90.98 134.63 90.59 134.86L90.32 135C90.06 135.15 89.8 135.28 89.54 135.4C89.28 135.52 88.85 135.7 88.54 135.82C86.2333 139.561 83.3744 142.933 80.06 145.82V142.82C80 134.88 85.6 125.2 92.51 121.21Z" fill="black"/>
</g>
<path d="M93.42 113C107.42 104.89 118.89 107.72 118.92 119.31C118.92 126.63 114.43 135.68 107.57 143.41C106.866 141.729 106.006 140.119 105 138.6C105.082 137.873 105.125 137.142 105.13 136.41V133.17V128.37C105.13 120.43 99.5 117.22 92.58 121.21C85.66 125.2 80 134.88 80 142.82V150.82C80 154.82 81.47 157.67 83.8 158.94C74.54 161.14 68 157.39 67.98 148.62C68 137.06 79.37 121.07 93.42 113Z" fill="#F5F5F5"/>
<path d="M49.62 123.811L57.03 128.021L57.32 229.891L49.95 242.641L49.62 123.811Z" fill="#EBEBEB"/>
<path d="M129.29 77.8105L129.63 196.641L122.22 192.421L122.13 162.031V160.871L122.11 154.501L121.93 90.5506L129.29 77.8105Z" fill="#EBEBEB"/>
<path d="M49.62 123.809L129.29 77.8093L125.78 75.7793L46.1 121.779L49.62 123.809Z" fill="#F5F5F5"/>
<path d="M49.95 242.639L49.62 123.809L46.1 121.779V240.319L49.95 242.639Z" fill="#E0E0E0"/>
<path d="M101.36 148.859C100.678 150.715 99.8456 152.511 98.87 154.229C97.2292 157.058 95.1191 159.588 92.63 161.709V157.999C96.2631 155.736 99.2659 152.592 101.36 148.859Z" fill="#E0E0E0"/>
<path d="M174.32 83.0098L181.4 88.5898L181.42 94.0498L157.85 107.65L157.83 102.2L162.32 93.2798L166.36 96.4098L164.93 100.84L167 96.9098L174.32 83.0098Z" fill="#E0E0E0"/>
<path d="M166.57 85.7605C167.68 85.1205 168.57 85.6405 168.57 86.9105C168.533 87.6053 168.332 88.2815 167.985 88.8844C167.637 89.4872 167.152 89.9998 166.57 90.3805C165.46 91.0205 164.57 90.5005 164.57 89.2305C164.606 88.5353 164.806 87.8584 165.153 87.2553C165.501 86.6522 165.986 86.14 166.57 85.7605Z" fill="#E0E0E0"/>
<path d="M174.3 127.59L181.39 133.17L181.4 138.62L157.83 152.22L157.81 146.77L162.31 137.85L166.34 140.98L164.91 145.41L166.98 141.48L174.3 127.59Z" fill="#E0E0E0"/>
<path d="M166.56 130.331C167.67 129.691 168.56 130.211 168.56 131.481C168.526 132.176 168.327 132.854 167.979 133.457C167.631 134.061 167.145 134.572 166.56 134.951C165.45 135.591 164.56 135.081 164.56 133.801C164.598 133.106 164.799 132.43 165.147 131.827C165.494 131.225 165.978 130.712 166.56 130.331Z" fill="#E0E0E0"/>
<path d="M253.32 262.17V260H254.52C254.757 259.8 255.011 259.623 255.28 259.47C256.455 258.832 257.756 258.46 259.09 258.38C261.023 258.186 262.971 258.565 264.69 259.47C264.959 259.623 265.213 259.8 265.45 260H266.62V262.19C266.557 262.779 266.339 263.342 265.988 263.82C265.636 264.298 265.164 264.674 264.62 264.91C263.554 265.486 262.385 265.846 261.18 265.97C259.119 266.24 257.024 265.87 255.18 264.91C254.645 264.669 254.184 264.29 253.845 263.812C253.505 263.334 253.3 262.774 253.25 262.19L253.32 262.17Z" fill="#455A64"/>
<path opacity="0.3" d="M253.32 262.17V260H254.52C254.757 259.8 255.011 259.623 255.28 259.47C256.455 258.832 257.756 258.46 259.09 258.38C261.023 258.186 262.971 258.565 264.69 259.47C264.959 259.623 265.213 259.8 265.45 260H266.62V262.19C266.557 262.779 266.339 263.342 265.988 263.82C265.636 264.298 265.164 264.674 264.62 264.91C263.554 265.486 262.385 265.846 261.18 265.97C259.119 266.24 257.024 265.87 255.18 264.91C254.645 264.669 254.184 264.29 253.845 263.812C253.505 263.334 253.3 262.774 253.25 262.19L253.32 262.17Z" fill="white"/>
<path d="M255.28 257.251C256.455 256.614 257.756 256.241 259.09 256.161C261.023 255.967 262.971 256.346 264.69 257.251C267.28 258.751 267.26 261.191 264.69 262.691C263.628 263.276 262.457 263.637 261.25 263.751C259.19 264.029 257.093 263.662 255.25 262.701C252.66 261.191 252.67 258.751 255.28 257.251Z" fill="#455A64"/>
<path opacity="0.4" d="M255.28 257.251C256.455 256.614 257.756 256.241 259.09 256.161C261.023 255.967 262.971 256.346 264.69 257.251C267.28 258.751 267.26 261.191 264.69 262.691C263.628 263.276 262.457 263.637 261.25 263.751C259.19 264.029 257.093 263.662 255.25 262.701C252.66 261.191 252.67 258.751 255.28 257.251Z" fill="white"/>
<path d="M262.49 160.59V260.31C262.463 260.526 262.38 260.732 262.251 260.907C262.121 261.082 261.949 261.221 261.75 261.31C261.349 261.534 260.907 261.673 260.45 261.72C259.673 261.816 258.884 261.673 258.19 261.31C257.993 261.22 257.823 261.081 257.697 260.906C257.571 260.73 257.492 260.525 257.47 260.31V160.59H262.49Z" fill="#455A64"/>
<path opacity="0.3" d="M262.49 160.59V260.31C262.463 260.526 262.38 260.732 262.251 260.907C262.121 261.082 261.949 261.221 261.75 261.31C261.349 261.534 260.907 261.673 260.45 261.72C259.673 261.816 258.884 261.673 258.19 261.31C257.993 261.22 257.823 261.081 257.697 260.906C257.571 260.73 257.492 260.525 257.47 260.31V160.59H262.49Z" fill="white"/>
<path d="M253.78 160.721C253.78 161.907 254.132 163.067 254.791 164.054C255.45 165.041 256.388 165.81 257.484 166.264C258.58 166.718 259.787 166.837 260.951 166.605C262.114 166.374 263.184 165.802 264.023 164.963C264.862 164.124 265.433 163.055 265.665 161.891C265.896 160.727 265.777 159.521 265.323 158.425C264.869 157.328 264.1 156.391 263.113 155.732C262.127 155.073 260.967 154.721 259.78 154.721C258.193 154.734 256.674 155.37 255.552 156.493C254.429 157.615 253.793 159.133 253.78 160.721Z" fill="#455A64"/>
<path opacity="0.4" d="M253.78 160.721C253.78 161.907 254.132 163.067 254.791 164.054C255.45 165.041 256.388 165.81 257.484 166.264C258.58 166.718 259.787 166.837 260.951 166.605C262.114 166.374 263.184 165.802 264.023 164.963C264.862 164.124 265.433 163.055 265.665 161.891C265.896 160.727 265.777 159.521 265.323 158.425C264.869 157.328 264.1 156.391 263.113 155.732C262.127 155.073 260.967 154.721 259.78 154.721C258.193 154.734 256.674 155.37 255.552 156.493C254.429 157.615 253.793 159.133 253.78 160.721Z" fill="white"/>
<path d="M259.1 158.73C259.098 159.142 259.218 159.545 259.446 159.888C259.673 160.232 259.997 160.5 260.377 160.659C260.757 160.818 261.175 160.861 261.58 160.781C261.984 160.702 262.355 160.505 262.647 160.214C262.939 159.924 263.138 159.553 263.219 159.15C263.3 158.746 263.26 158.327 263.103 157.947C262.945 157.566 262.679 157.24 262.337 157.011C261.994 156.782 261.592 156.66 261.18 156.66C260.63 156.66 260.103 156.878 259.713 157.266C259.323 157.654 259.103 158.18 259.1 158.73Z" fill="white"/>
<path d="M318.64 224.001C327.145 223.947 335.404 221.141 342.18 216.001C342.568 215.699 342.823 215.258 342.891 214.771C342.959 214.285 342.835 213.791 342.545 213.394C342.255 212.997 341.822 212.729 341.337 212.646C340.853 212.564 340.355 212.673 339.95 212.951C329.41 220.671 317.35 222.301 305.07 217.671C285.94 210.471 268.87 188.721 263.56 164.781C263.506 164.539 263.405 164.309 263.263 164.106C263.12 163.903 262.939 163.73 262.73 163.596C262.52 163.463 262.287 163.372 262.042 163.329C261.798 163.286 261.547 163.292 261.305 163.346C261.063 163.4 260.833 163.501 260.63 163.643C260.427 163.786 260.254 163.967 260.12 164.176C259.987 164.385 259.897 164.619 259.854 164.864C259.811 165.108 259.816 165.359 259.87 165.601C265.44 190.711 283.48 213.601 303.74 221.211C308.498 223.032 313.546 223.977 318.64 224.001Z" fill="#0B3555"/>
<path d="M183.16 234.301C189.565 234.233 195.907 233.028 201.89 230.741C228.43 220.971 253.89 192.091 259.89 165.011C259.944 164.769 259.949 164.518 259.906 164.274C259.863 164.029 259.773 163.796 259.64 163.586C259.506 163.377 259.333 163.196 259.13 163.053C258.927 162.911 258.697 162.81 258.455 162.756C258.213 162.702 257.962 162.697 257.718 162.739C257.473 162.782 257.24 162.873 257.03 163.006C256.821 163.14 256.64 163.313 256.497 163.516C256.355 163.719 256.254 163.949 256.2 164.191C250.54 189.711 225.58 217.981 200.56 227.191C189.83 231.191 173.96 233.531 159.27 222.441C159.076 222.262 158.847 222.126 158.597 222.041C158.348 221.956 158.083 221.924 157.82 221.947C157.558 221.971 157.303 222.049 157.072 222.177C156.842 222.304 156.64 222.479 156.481 222.689C156.322 222.9 156.209 223.141 156.148 223.398C156.088 223.655 156.082 223.921 156.131 224.18C156.18 224.439 156.282 224.685 156.432 224.903C156.582 225.12 156.775 225.303 157 225.441C164.493 231.22 173.698 234.338 183.16 234.301Z" fill="#0B3555"/>
<g opacity="0.3">
<path d="M318.64 224.001C327.145 223.947 335.404 221.141 342.18 216.001C342.568 215.699 342.823 215.258 342.891 214.771C342.959 214.285 342.835 213.791 342.545 213.394C342.255 212.997 341.822 212.729 341.337 212.646C340.853 212.564 340.355 212.673 339.95 212.951C329.41 220.671 317.35 222.301 305.07 217.671C285.94 210.471 268.87 188.721 263.56 164.781C263.506 164.539 263.405 164.309 263.263 164.106C263.12 163.903 262.939 163.73 262.73 163.596C262.52 163.463 262.287 163.372 262.042 163.329C261.798 163.286 261.547 163.292 261.305 163.346C261.063 163.4 260.833 163.501 260.63 163.643C260.427 163.786 260.254 163.967 260.12 164.176C259.987 164.385 259.897 164.619 259.854 164.864C259.811 165.108 259.816 165.359 259.87 165.601C265.44 190.711 283.48 213.601 303.74 221.211C308.498 223.032 313.546 223.977 318.64 224.001Z" fill="white"/>
</g>
<g opacity="0.3">
<path d="M183.16 234.301C189.565 234.233 195.907 233.028 201.89 230.741C228.43 220.971 253.89 192.091 259.89 165.011C259.944 164.769 259.949 164.518 259.906 164.274C259.863 164.029 259.773 163.796 259.64 163.586C259.506 163.377 259.333 163.196 259.13 163.053C258.927 162.911 258.697 162.81 258.455 162.756C258.213 162.702 257.962 162.697 257.718 162.739C257.473 162.782 257.24 162.873 257.03 163.006C256.821 163.14 256.64 163.313 256.497 163.516C256.355 163.719 256.254 163.949 256.2 164.191C250.54 189.711 225.58 217.981 200.56 227.191C189.83 231.191 173.96 233.531 159.27 222.441C159.076 222.262 158.847 222.126 158.597 222.041C158.348 221.956 158.083 221.924 157.82 221.947C157.558 221.971 157.303 222.049 157.072 222.177C156.842 222.304 156.64 222.479 156.481 222.689C156.322 222.9 156.209 223.141 156.148 223.398C156.088 223.655 156.082 223.921 156.131 224.18C156.18 224.439 156.282 224.685 156.432 224.903C156.582 225.12 156.775 225.303 157 225.441C164.493 231.22 173.698 234.338 183.16 234.301Z" fill="white"/>
</g>
<path d="M248.19 265.301L197.71 294.641L197.69 303.951L248.5 333.291L298.97 303.951L299 294.641L248.19 265.301Z" fill="#0B3555"/>
<path opacity="0.2" d="M248.52 323.971L248.5 333.291L298.97 303.951L299 294.641L248.52 323.971Z" fill="black"/>
<path opacity="0.3" d="M197.71 294.641L197.69 303.951L248.5 333.291L248.52 323.971L197.71 294.641Z" fill="black"/>
<path d="M286.74 218.371L248.23 196.131L209.96 218.371L248.48 240.611L286.74 218.371Z" fill="#0B3555"/>
<path opacity="0.1" d="M286.74 218.371L248.23 196.131L209.96 218.371L248.48 240.611L286.74 218.371Z" fill="black"/>
<path d="M248.48 240.611L248.46 316.471L286.72 294.231L286.74 218.371L248.48 240.611Z" fill="#0B3555"/>
<path opacity="0.3" d="M248.48 240.611L248.46 316.471L286.72 294.231L286.74 218.371L248.48 240.611Z" fill="black"/>
<path d="M209.96 218.371L209.94 294.231L248.46 316.471L248.48 240.611L209.96 218.371Z" fill="#0B3555"/>
<path opacity="0.4" d="M209.96 218.371L209.94 294.231L248.46 316.471L248.48 240.611L209.96 218.371Z" fill="black"/>
<g opacity="0.2">
<path d="M260.67 212.331C261.78 211.691 262.67 212.211 262.67 213.481L262.9 293.861C262.865 294.555 262.665 295.231 262.318 295.832C261.97 296.434 261.484 296.944 260.9 297.321C259.8 297.961 258.9 297.451 258.9 296.181L258.67 215.791C258.707 215.097 258.908 214.422 259.256 213.821C259.603 213.22 260.088 212.709 260.67 212.331Z" fill="black"/>
<path d="M268.69 207.702C269.8 207.062 270.69 207.582 270.69 208.852L270.92 289.232C270.883 289.926 270.683 290.601 270.335 291.202C269.988 291.803 269.503 292.314 268.92 292.692C267.82 293.332 266.92 292.822 266.92 291.552L266.69 211.162C266.727 210.468 266.928 209.794 267.276 209.192C267.623 208.591 268.108 208.08 268.69 207.702Z" fill="black"/>
<path d="M276.71 203.071C277.82 202.431 278.71 202.951 278.71 204.221L279 284.601C278.963 285.295 278.763 285.97 278.415 286.571C278.068 287.173 277.583 287.683 277 288.061C275.9 288.701 275 288.191 275 286.921L274.77 206.531C274.801 205.843 274.992 205.171 275.329 204.571C275.666 203.97 276.139 203.456 276.71 203.071Z" fill="black"/>
</g>
<g opacity="0.2">
<path d="M236.24 212.331C235.14 211.691 234.24 212.211 234.24 213.481L234 293.861C234.034 294.555 234.233 295.231 234.581 295.833C234.929 296.435 235.415 296.945 236 297.321C237.11 297.961 238 297.451 238 296.181L238.22 215.791C238.187 215.099 237.991 214.424 237.646 213.822C237.302 213.221 236.82 212.71 236.24 212.331Z" fill="black"/>
<path d="M228.22 207.702C227.12 207.062 226.22 207.582 226.22 208.852L226 289.232C226.035 289.926 226.235 290.602 226.582 291.203C226.93 291.805 227.416 292.315 228 292.692C229.11 293.332 230 292.822 230 291.552L230.22 211.162C230.185 210.468 229.985 209.792 229.638 209.19C229.29 208.589 228.804 208.079 228.22 207.702Z" fill="black"/>
<path d="M220.2 203.071C219.1 202.431 218.2 202.951 218.2 204.221L218 284.601C218.035 285.295 218.235 285.971 218.582 286.572C218.93 287.174 219.416 287.684 220 288.061C221.11 288.701 222 288.191 222 286.921L222.22 206.531C222.183 205.835 221.98 205.158 221.629 204.556C221.277 203.955 220.788 203.445 220.2 203.071Z" fill="black"/>
</g>
<path d="M248.19 176.59L197.71 205.93L197.69 215.25L248.5 244.58L298.97 215.25L299 205.93L248.19 176.59Z" fill="#0B3555"/>
<path opacity="0.1" d="M299 205.93L248.19 176.6L197.71 205.93L248.52 235.26L299 205.93Z" fill="black"/>
<path opacity="0.2" d="M248.52 235.26L248.5 244.58L298.97 215.25L299 205.93L248.52 235.26Z" fill="black"/>
<path opacity="0.3" d="M197.71 205.93L197.69 215.25L248.5 244.58L248.52 235.26L197.71 205.93Z" fill="black"/>
<path d="M338.25 113C338.25 113 339.1 109.44 336.87 109C336.87 109 338.79 105 336.37 104.16C333.95 103.32 330.9 111.46 327.37 114.76C326.61 115.6 321.02 120.63 322.09 116.92C323 113.75 323.91 110.74 322.18 109.49C322.059 109.413 321.923 109.362 321.781 109.342C321.639 109.322 321.494 109.333 321.357 109.374C321.219 109.414 321.092 109.484 320.984 109.579C320.876 109.673 320.789 109.789 320.73 109.92C320.04 111.41 318.4 114.08 317.47 115.86C316.27 118.12 316.47 122.56 314.7 124.78C308.6 134.09 301.63 138.57 296.43 145.2L292.09 141C284.74 133.65 271.63 117.1 262.01 117.53L261.96 139.53C261.96 139.53 271.96 147.05 282.85 154.53L291.17 160.75C292.311 161.598 293.612 162.206 294.995 162.537C296.378 162.869 297.813 162.917 299.215 162.679C300.616 162.44 301.955 161.921 303.151 161.151C304.346 160.381 305.373 159.377 306.17 158.2L323.54 132.39C324.28 131.282 325.262 130.356 326.41 129.68C329.18 128.04 334.49 124.68 336.41 122.31C339.2 118.89 339.57 115.3 338.25 113Z" fill="#0B3555"/>
<path opacity="0.2" d="M338.25 113C338.25 113 339.1 109.44 336.87 109C336.87 109 338.79 105 336.37 104.16C333.95 103.32 330.9 111.46 327.37 114.76C326.61 115.6 321.02 120.63 322.09 116.92C323 113.75 323.91 110.74 322.18 109.49C322.059 109.413 321.923 109.362 321.781 109.342C321.639 109.322 321.494 109.333 321.357 109.374C321.219 109.414 321.092 109.484 320.984 109.579C320.876 109.673 320.789 109.789 320.73 109.92C320.04 111.41 318.4 114.08 317.47 115.86C316.27 118.12 316.47 122.56 314.7 124.78C308.6 134.09 301.63 138.57 296.43 145.2L292.09 141C284.74 133.65 271.63 117.1 262.01 117.53L261.96 139.53C261.96 139.53 271.96 147.05 282.85 154.53L291.17 160.75C292.311 161.598 293.612 162.206 294.995 162.537C296.378 162.869 297.813 162.917 299.215 162.679C300.616 162.44 301.955 161.921 303.151 161.151C304.346 160.381 305.373 159.377 306.17 158.2L323.54 132.39C324.28 131.282 325.262 130.356 326.41 129.68C329.18 128.04 334.49 124.68 336.41 122.31C339.2 118.89 339.57 115.3 338.25 113Z" fill="white"/>
<path opacity="0.2" d="M262 133.13V139.44C262 139.44 268.8 144.57 277.33 150.57C277.205 143.276 275.197 136.138 271.5 129.85C268.408 131.148 265.235 132.244 262 133.13Z" fill="black"/>
<path d="M226.67 125.17C240.44 118.72 250.76 117.97 262.01 117.49C278.86 128.33 272.55 137.36 272.26 151.84C272.112 167.764 273.857 183.649 277.46 199.16C255.39 216.79 226.17 212.65 219.51 208.41C221.08 165.28 219.19 128.27 226.67 125.17Z" fill="#0B3555"/>
<path opacity="0.2" d="M226.67 125.17C240.44 118.72 250.76 117.97 262.01 117.49C278.86 128.33 272.55 137.36 272.26 151.84C272.112 167.764 273.857 183.649 277.46 199.16C255.39 216.79 226.17 212.65 219.51 208.41C221.08 165.28 219.19 128.27 226.67 125.17Z" fill="white"/>
<path opacity="0.2" d="M225.66 137.85C224.3 138.96 222.92 140.12 221.55 141.3C220.97 147.5 220.69 155.21 220.49 163.98C224.223 155.791 225.994 146.843 225.66 137.85Z" fill="black"/>
<path d="M244 116C243.365 116.629 242.567 117.068 241.696 117.267C240.825 117.467 239.915 117.419 239.07 117.13C238.235 116.769 237.515 116.187 236.986 115.447C236.458 114.707 236.141 113.837 236.07 112.93C234.667 112.634 233.387 111.918 232.401 110.876C231.414 109.835 230.769 108.518 230.55 107.1C230.17 104.27 232.34 101.65 234.9 100.39C234.187 99.8099 233.599 99.092 233.169 98.2794C232.74 97.4668 232.478 96.5761 232.4 95.6603C232.428 93.7084 233.2 91.8409 234.56 90.4403C233.571 89.7704 232.8 88.8245 232.345 87.7201C231.889 86.6158 231.768 85.4018 231.998 84.2293C232.227 83.0568 232.796 81.9777 233.634 81.1261C234.472 80.2746 235.541 79.6883 236.71 79.4403C236.004 78.1472 235.706 76.6705 235.856 75.2049C236.006 73.7394 236.597 72.3536 237.55 71.2303C238.569 70.1911 239.879 69.4857 241.308 69.2072C242.736 68.9286 244.215 69.0901 245.55 69.6703C246.044 68.9011 246.696 68.2462 247.464 67.7496C248.231 67.2529 249.096 66.9258 250 66.7903C250.893 66.6399 251.808 66.6769 252.686 66.899C253.564 67.121 254.386 67.5233 255.1 68.0803C255.445 67.5748 255.901 67.1551 256.433 66.8534C256.965 66.5518 257.559 66.3762 258.17 66.3403C258.793 66.3011 259.417 66.403 259.995 66.6385C260.574 66.874 261.091 67.2369 261.51 67.7003C262.61 65.9103 265.2 65.4103 267.25 65.8403C268.271 66.0814 269.215 66.5736 269.997 67.2721C270.78 67.9706 271.375 68.8533 271.73 69.8403C272.069 70.835 272.204 71.888 272.127 72.9361C272.05 73.9843 271.762 75.0061 271.28 75.9403C272.15 76.4022 272.891 77.074 273.436 77.8947C273.981 78.7154 274.312 79.6591 274.4 80.6403C274.453 81.5772 274.259 82.5116 273.837 83.3503C273.416 84.189 272.783 84.9027 272 85.4203C272.495 86.4229 272.777 87.517 272.828 88.6339C272.88 89.7508 272.7 90.8662 272.3 91.9103C271.86 92.8613 271.214 93.7032 270.41 94.3757C269.607 95.0482 268.664 95.5347 267.65 95.8003C261.2 97.4403 256.48 103.7 251.06 107.57C248.06 109.67 246.51 113.4 244 116Z" fill="#0B3555"/>
<path opacity="0.3" d="M244 116C243.365 116.629 242.567 117.068 241.696 117.267C240.825 117.467 239.915 117.419 239.07 117.13C238.235 116.769 237.515 116.187 236.986 115.447C236.458 114.707 236.141 113.837 236.07 112.93C234.667 112.634 233.387 111.918 232.401 110.876C231.414 109.835 230.769 108.518 230.55 107.1C230.17 104.27 232.34 101.65 234.9 100.39C234.187 99.8099 233.599 99.092 233.169 98.2794C232.74 97.4668 232.478 96.5761 232.4 95.6603C232.428 93.7084 233.2 91.8409 234.56 90.4403C233.571 89.7704 232.8 88.8245 232.345 87.7201C231.889 86.6158 231.768 85.4018 231.998 84.2293C232.227 83.0568 232.796 81.9777 233.634 81.1261C234.472 80.2746 235.541 79.6883 236.71 79.4403C236.004 78.1472 235.706 76.6705 235.856 75.2049C236.006 73.7394 236.597 72.3536 237.55 71.2303C238.569 70.1911 239.879 69.4857 241.308 69.2072C242.736 68.9286 244.215 69.0901 245.55 69.6703C246.044 68.9011 246.696 68.2462 247.464 67.7496C248.231 67.2529 249.096 66.9258 250 66.7903C250.893 66.6399 251.808 66.6769 252.686 66.899C253.564 67.121 254.386 67.5233 255.1 68.0803C255.445 67.5748 255.901 67.1551 256.433 66.8534C256.965 66.5518 257.559 66.3762 258.17 66.3403C258.793 66.3011 259.417 66.403 259.995 66.6385C260.574 66.874 261.091 67.2369 261.51 67.7003C262.61 65.9103 265.2 65.4103 267.25 65.8403C268.271 66.0814 269.215 66.5736 269.997 67.2721C270.78 67.9706 271.375 68.8533 271.73 69.8403C272.069 70.835 272.204 71.888 272.127 72.9361C272.05 73.9843 271.762 75.0061 271.28 75.9403C272.15 76.4022 272.891 77.074 273.436 77.8947C273.981 78.7154 274.312 79.6591 274.4 80.6403C274.453 81.5772 274.259 82.5116 273.837 83.3503C273.416 84.189 272.783 84.9027 272 85.4203C272.495 86.4229 272.777 87.517 272.828 88.6339C272.88 89.7508 272.7 90.8662 272.3 91.9103C271.86 92.8613 271.214 93.7032 270.41 94.3757C269.607 95.0482 268.664 95.5347 267.65 95.8003C261.2 97.4403 256.48 103.7 251.06 107.57C248.06 109.67 246.51 113.4 244 116Z" fill="black"/>
<path d="M268.47 81.3594C265.873 83.8705 262.431 85.3189 258.82 85.4194C255.43 85.4194 252.14 84.3394 248.87 83.4194C248.586 85.0088 247.797 86.4643 246.62 87.5694C245.311 88.6838 243.699 89.3804 241.99 89.5694C242.475 92.6336 242.475 95.7551 241.99 98.8194C241.948 99.1422 241.816 99.4466 241.609 99.6978C241.402 99.949 241.129 100.137 240.82 100.239C239.72 100.559 238.99 99.4294 238.45 98.5194C237.859 97.4568 237.018 96.5542 236 95.8894C235.496 95.556 234.919 95.35 234.318 95.2891C233.717 95.2281 233.11 95.314 232.55 95.5394C232.111 95.7653 231.723 96.0788 231.41 96.4607C231.097 96.8425 230.865 97.2845 230.73 97.7594C230.46 98.7123 230.409 99.7139 230.58 100.689C230.786 102.332 231.448 103.883 232.49 105.169C233.01 105.806 233.656 106.329 234.387 106.706C235.119 107.083 235.919 107.305 236.74 107.359C237.541 107.433 238.347 107.285 239.069 106.932C239.792 106.58 240.405 106.036 240.84 105.359L240.91 105.659C241.028 106.145 241.179 106.623 241.36 107.089C242.084 109.013 243.282 110.723 244.843 112.06C246.405 113.397 248.278 114.319 250.29 114.739C252.37 115.179 254.67 115.589 257.02 115.949C258.17 116.119 259.33 116.289 260.49 116.429C262.615 116.682 264.755 116.114 266.475 114.841C268.194 113.567 269.362 111.685 269.74 109.579C271.34 100.629 271.87 90.2094 268.47 81.3594Z" fill="#0B3555"/>
<path opacity="0.2" d="M268.47 81.3594C265.873 83.8705 262.431 85.3189 258.82 85.4194C255.43 85.4194 252.14 84.3394 248.87 83.4194C248.586 85.0088 247.797 86.4643 246.62 87.5694C245.311 88.6838 243.699 89.3804 241.99 89.5694C242.475 92.6336 242.475 95.7551 241.99 98.8194C241.948 99.1422 241.816 99.4466 241.609 99.6978C241.402 99.949 241.129 100.137 240.82 100.239C239.72 100.559 238.99 99.4294 238.45 98.5194C237.859 97.4568 237.018 96.5542 236 95.8894C235.496 95.556 234.919 95.35 234.318 95.2891C233.717 95.2281 233.11 95.314 232.55 95.5394C232.111 95.7653 231.723 96.0788 231.41 96.4607C231.097 96.8425 230.865 97.2845 230.73 97.7594C230.46 98.7123 230.409 99.7139 230.58 100.689C230.786 102.332 231.448 103.883 232.49 105.169C233.01 105.806 233.656 106.329 234.387 106.706C235.119 107.083 235.919 107.305 236.74 107.359C237.541 107.433 238.347 107.285 239.069 106.932C239.792 106.58 240.405 106.036 240.84 105.359L240.91 105.659C241.028 106.145 241.179 106.623 241.36 107.089C242.084 109.013 243.282 110.723 244.843 112.06C246.405 113.397 248.278 114.319 250.29 114.739C252.37 115.179 254.67 115.589 257.02 115.949C258.17 116.119 259.33 116.289 260.49 116.429C262.615 116.682 264.755 116.114 266.475 114.841C268.194 113.567 269.362 111.685 269.74 109.579C271.34 100.629 271.87 90.2094 268.47 81.3594Z" fill="white"/>
<path d="M241.38 107.07V122.64C242.844 124.632 244.722 126.284 246.885 127.482C249.048 128.68 251.444 129.396 253.91 129.58C254.699 129.694 255.502 129.651 256.275 129.454C257.047 129.256 257.772 128.908 258.41 128.43C258.881 127.992 259.232 127.44 259.428 126.827C259.624 126.214 259.659 125.561 259.53 124.93C259.319 123.997 258.752 123.183 257.95 122.66C257.666 122.485 257.43 122.241 257.264 121.951C257.098 121.661 257.007 121.334 257 121V115.94C254.65 115.58 252.35 115.17 250.27 114.73C248.264 114.303 246.398 113.377 244.844 112.038C243.291 110.7 242.099 108.991 241.38 107.07Z" fill="#0B3555"/>
<path opacity="0.2" d="M241.38 107.07V122.64C242.844 124.632 244.722 126.284 246.885 127.482C249.048 128.68 251.444 129.396 253.91 129.58C254.699 129.694 255.502 129.651 256.275 129.454C257.047 129.256 257.772 128.908 258.41 128.43C258.881 127.992 259.232 127.44 259.428 126.827C259.624 126.214 259.659 125.561 259.53 124.93C259.319 123.997 258.752 123.183 257.95 122.66C257.666 122.485 257.43 122.241 257.264 121.951C257.098 121.661 257.007 121.334 257 121V115.94C254.65 115.58 252.35 115.17 250.27 114.73C248.264 114.303 246.398 113.377 244.844 112.038C243.291 110.7 242.099 108.991 241.38 107.07Z" fill="white"/>
<path opacity="0.2" d="M251.78 118.151C253.505 118.606 255.264 118.917 257.04 119.081V115.931C254.69 115.571 252.39 115.161 250.31 114.721C248.419 114.322 246.651 113.479 245.15 112.262C243.65 111.045 242.46 109.488 241.68 107.721C242.061 110.158 243.157 112.427 244.83 114.241C246.751 116.147 249.153 117.498 251.78 118.151Z" fill="black"/>
<path d="M234.56 90.4299C245.04 94.1899 264.96 95.8299 272.73 88.1699C274.053 90.5788 274.455 93.3867 273.86 96.0699C273.593 97.4921 272.945 98.8151 271.985 99.8981C271.025 100.981 269.79 101.784 268.41 102.22C257 105.8 242 98.7699 232.79 93.3099C232.717 93.0046 232.705 92.6879 232.754 92.3779C232.804 92.0679 232.914 91.7707 233.078 91.5033C233.243 91.2358 233.458 91.0034 233.712 90.8192C233.967 90.6351 234.255 90.5028 234.56 90.4299Z" fill="#0B3555"/>
<path opacity="0.1" d="M234.56 90.4299C245.04 94.1899 264.96 95.8299 272.73 88.1699C274.053 90.5788 274.455 93.3867 273.86 96.0699C273.593 97.4921 272.945 98.8151 271.985 99.8981C271.025 100.981 269.79 101.784 268.41 102.22C257 105.8 242 98.7699 232.79 93.3099C232.717 93.0046 232.705 92.6879 232.754 92.3779C232.804 92.0679 232.914 91.7707 233.078 91.5033C233.243 91.2358 233.458 91.0034 233.712 90.8192C233.967 90.6351 234.255 90.5028 234.56 90.4299Z" fill="black"/>
<g opacity="0.2">
<path d="M271.84 92.7695C261.611 95.9375 250.721 96.3104 240.3 93.8495C245.326 95.9467 250.745 96.9358 256.188 96.7495C261.631 96.5631 266.969 95.2056 271.84 92.7695Z" fill="black"/>
<path d="M271.41 99.0589C264.059 100.693 256.433 100.632 249.11 98.8789C256.227 101.884 264.245 101.948 271.41 99.0589Z" fill="black"/>
<path d="M270.84 95.0801C266.596 97.1922 261.93 98.3202 257.19 98.3801C261.997 99.1092 266.897 97.9244 270.84 95.0801Z" fill="black"/>
</g>
<path d="M257 117.741C262.18 124.491 252 157.481 220.31 171.431L220.36 168.381L216.23 171.431C216.23 171.431 217.51 196.221 214.98 208.691C247.22 231.691 275.15 206.851 279.67 199.321C273.56 176.941 271.88 160.501 272.5 147.201C273.12 133.901 267.59 122.731 262.92 117.491L262.25 116.811L257 117.051V117.741Z" fill="#0B3555"/>
<path opacity="0.2" d="M257 117.741C262.18 124.491 252 157.481 220.31 171.431L220.36 168.381L216.23 171.431C216.23 171.431 217.51 196.221 214.98 208.691C247.22 231.691 275.15 206.851 279.67 199.321C273.56 176.941 271.88 160.501 272.5 147.201C273.12 133.901 267.59 122.731 262.92 117.491L262.25 116.811L257 117.051V117.741Z" fill="black"/>
<g opacity="0.2">
<path d="M225 179.34C230.566 178.144 235.806 175.756 240.36 172.34C250.867 164.42 258.058 152.881 260.54 139.96C261.628 134.391 261.726 128.674 260.83 123.07C260.665 128.612 259.839 134.114 258.37 139.46C257.569 142.418 256.549 145.313 255.32 148.12C254.089 151.014 252.631 153.806 250.96 156.47C247.701 161.763 243.655 166.528 238.96 170.6C234.799 174.234 230.087 177.184 225 179.34Z" fill="black"/>
<path d="M254.79 169.51C257.036 166.226 258.908 162.701 260.37 159C263.745 150.54 265.16 141.425 264.51 132.34C264.234 128.38 263.52 124.463 262.38 120.66C263.277 128.954 263.112 137.328 261.89 145.58C260.554 153.827 258.168 161.869 254.79 169.51Z" fill="black"/>
<path d="M218.53 209.531C232.89 201.082 244.51 188.674 252 173.791C247.118 180.364 241.888 186.669 236.33 192.681C230.706 198.615 224.764 204.24 218.53 209.531Z" fill="black"/>
<path d="M239.9 205.27C243.757 202.426 247.268 199.14 250.36 195.48C257.499 187.106 262.52 177.14 265 166.42C266.086 161.752 266.623 156.972 266.6 152.18C265.734 156.824 264.592 161.412 263.18 165.92C261.566 170.995 259.56 175.936 257.18 180.7C254.782 185.45 252.013 190.004 248.9 194.32C246.122 198.147 243.117 201.803 239.9 205.27Z" fill="black"/>
<path d="M249.61 211C252.822 208.229 255.684 205.076 258.13 201.61C263.768 193.664 267.329 184.434 268.49 174.76C269.006 170.549 269.006 166.291 268.49 162.08C268.204 166.251 267.653 170.399 266.84 174.5C265.903 179.1 264.589 183.616 262.91 188C261.206 192.388 259.139 196.626 256.73 200.67C254.583 204.264 252.205 207.715 249.61 211Z" fill="black"/>
<path d="M242.26 159C235.643 165.835 227.481 170.98 218.46 174C223.235 173.239 227.806 171.517 231.897 168.939C235.988 166.361 239.513 162.979 242.26 159Z" fill="black"/>
<path d="M255.1 163.109C245.799 176.391 232.658 186.511 217.44 192.109C221.228 191.443 224.921 190.322 228.44 188.769C236.517 185.237 243.604 179.777 249.08 172.869C251.469 169.868 253.49 166.591 255.1 163.109Z" fill="black"/>
</g>
<path d="M214.67 215L195.23 180.89C194.347 179.115 193.859 177.169 193.8 175.187C193.741 173.205 194.113 171.234 194.89 169.41L205.7 144C207.457 139.881 210.032 136.163 213.269 133.068C216.505 129.974 220.337 127.57 224.53 126L227.25 125C228.8 140.24 224.2 147.59 210.25 174.07C210.25 174.07 217.6 198.77 223.35 209.76C227.962 211.95 232.131 214.971 235.65 218.67C236.019 219.062 236.234 219.575 236.256 220.113C236.278 220.651 236.106 221.179 235.77 221.6C235.47 221.973 235.051 222.232 234.583 222.332C234.115 222.433 233.626 222.368 233.2 222.15C231.33 221.15 229.47 220.15 227.59 219.24C229.546 223.531 231.992 227.582 234.88 231.31C235.224 231.742 235.399 232.285 235.374 232.836C235.348 233.388 235.123 233.912 234.74 234.31C234.487 234.577 234.173 234.78 233.824 234.9C233.476 235.02 233.104 235.054 232.74 235L226.66 234.11C224.894 233.848 223.218 233.161 221.778 232.107C220.337 231.053 219.174 229.664 218.39 228.06C216.364 223.97 215.103 219.544 214.67 215Z" fill="#0B3555"/>
<g opacity="0.2">
<path d="M214.67 215L195.23 180.89C194.347 179.115 193.859 177.169 193.8 175.187C193.741 173.205 194.113 171.234 194.89 169.41L205.7 144C207.457 139.881 210.032 136.163 213.269 133.068C216.505 129.974 220.337 127.57 224.53 126L227.25 125C228.8 140.24 224.2 147.59 210.25 174.07C210.25 174.07 217.6 198.77 223.35 209.76C227.962 211.95 232.131 214.971 235.65 218.67C236.019 219.062 236.234 219.575 236.256 220.113C236.278 220.651 236.106 221.179 235.77 221.6C235.47 221.973 235.051 222.232 234.583 222.332C234.115 222.433 233.626 222.368 233.2 222.15C231.33 221.15 229.47 220.15 227.59 219.24C229.546 223.531 231.992 227.582 234.88 231.31C235.224 231.742 235.399 232.285 235.374 232.836C235.348 233.388 235.123 233.912 234.74 234.31C234.487 234.577 234.173 234.78 233.824 234.9C233.476 235.02 233.104 235.054 232.74 235L226.66 234.11C224.894 233.848 223.218 233.161 221.778 232.107C220.337 231.053 219.174 229.664 218.39 228.06C216.364 223.97 215.103 219.544 214.67 215Z" fill="white"/>
</g>
<path d="M147.68 328V325.76H148.9C149.147 325.554 149.411 325.37 149.69 325.21C150.886 324.56 152.211 324.181 153.57 324.1C155.547 323.906 157.538 324.291 159.3 325.21C159.573 325.37 159.83 325.554 160.07 325.76H161.27V328C161.21 328.598 160.994 329.17 160.643 329.658C160.292 330.146 159.818 330.533 159.27 330.78C158.188 331.379 156.992 331.747 155.76 331.86C153.664 332.132 151.535 331.755 149.66 330.78C149.107 330.539 148.63 330.154 148.278 329.665C147.926 329.175 147.712 328.6 147.66 328H147.68Z" fill="#455A64"/>
<path opacity="0.3" d="M147.68 328V325.76H148.9C149.147 325.554 149.411 325.37 149.69 325.21C150.886 324.56 152.211 324.181 153.57 324.1C155.547 323.906 157.538 324.291 159.3 325.21C159.573 325.37 159.83 325.554 160.07 325.76H161.27V328C161.21 328.598 160.994 329.17 160.643 329.658C160.292 330.146 159.818 330.533 159.27 330.78C158.188 331.379 156.992 331.747 155.76 331.86C153.664 332.132 151.535 331.755 149.66 330.78C149.107 330.539 148.63 330.154 148.278 329.665C147.926 329.175 147.712 328.6 147.66 328H147.68Z" fill="white"/>
<path d="M149.69 323.001C150.886 322.351 152.211 321.972 153.57 321.891C155.547 321.697 157.538 322.082 159.3 323.001C161.94 324.541 161.93 327.001 159.3 328.571C158.218 329.17 157.022 329.538 155.79 329.651C153.694 329.923 151.565 329.546 149.69 328.571C147 327.001 147 324.511 149.69 323.001Z" fill="#455A64"/>
<path opacity="0.4" d="M149.69 323.001C150.886 322.351 152.211 321.972 153.57 321.891C155.547 321.697 157.538 322.082 159.3 323.001C161.94 324.541 161.93 327.001 159.3 328.571C158.218 329.17 157.022 329.538 155.79 329.651C153.694 329.923 151.565 329.546 149.69 328.571C147 327.001 147 324.511 149.69 323.001Z" fill="white"/>
<path d="M157.05 224.221V326.111C157.019 326.327 156.934 326.532 156.803 326.707C156.672 326.882 156.499 327.02 156.3 327.111C155.89 327.338 155.437 327.477 154.97 327.521C154.176 327.622 153.371 327.479 152.66 327.111C152.462 327.02 152.291 326.881 152.161 326.706C152.032 326.531 151.949 326.326 151.92 326.111V224.221H157.05Z" fill="#455A64"/>
<path opacity="0.3" d="M157.05 224.221V326.111C157.019 326.327 156.934 326.532 156.803 326.707C156.672 326.882 156.499 327.02 156.3 327.111C155.89 327.338 155.437 327.477 154.97 327.521C154.176 327.622 153.371 327.479 152.66 327.111C152.462 327.02 152.291 326.881 152.161 326.706C152.032 326.531 151.949 326.326 151.92 326.111V224.221H157.05Z" fill="white"/>
<path d="M148.16 224.36C148.16 225.582 148.523 226.778 149.202 227.794C149.882 228.811 150.847 229.603 151.977 230.07C153.107 230.538 154.35 230.659 155.549 230.42C156.748 230.181 157.85 229.591 158.713 228.726C159.577 227.861 160.165 226.759 160.402 225.559C160.64 224.36 160.516 223.117 160.047 221.988C159.577 220.859 158.784 219.894 157.766 219.216C156.749 218.538 155.553 218.178 154.33 218.18C153.519 218.18 152.716 218.34 151.967 218.65C151.217 218.961 150.537 219.416 149.964 219.99C149.391 220.564 148.936 221.246 148.627 221.995C148.317 222.745 148.159 223.549 148.16 224.36Z" fill="#455A64"/>
<path opacity="0.4" d="M148.16 224.36C148.16 225.582 148.523 226.778 149.202 227.794C149.882 228.811 150.847 229.603 151.977 230.07C153.107 230.538 154.35 230.659 155.549 230.42C156.748 230.181 157.85 229.591 158.713 228.726C159.577 227.861 160.165 226.759 160.402 225.559C160.64 224.36 160.516 223.117 160.047 221.988C159.577 220.859 158.784 219.894 157.766 219.216C156.749 218.538 155.553 218.178 154.33 218.18C153.519 218.18 152.716 218.34 151.967 218.65C151.217 218.961 150.537 219.416 149.964 219.99C149.391 220.564 148.936 221.246 148.627 221.995C148.317 222.745 148.159 223.549 148.16 224.36Z" fill="white"/>
<path d="M153.59 222.331C153.59 222.75 153.714 223.16 153.947 223.509C154.18 223.857 154.511 224.129 154.899 224.29C155.286 224.45 155.712 224.492 156.124 224.41C156.535 224.328 156.913 224.126 157.209 223.83C157.506 223.534 157.707 223.156 157.789 222.745C157.871 222.333 157.829 221.907 157.669 221.52C157.508 221.132 157.236 220.801 156.888 220.568C156.539 220.335 156.129 220.211 155.71 220.211C155.148 220.211 154.609 220.434 154.211 220.832C153.813 221.229 153.59 221.769 153.59 222.331Z" fill="white"/>
<path d="M338.73 317.111V314.871H340C340.247 314.665 340.511 314.481 340.79 314.321C341.986 313.671 343.311 313.292 344.67 313.211C346.647 313.017 348.638 313.403 350.4 314.321C350.673 314.481 350.93 314.665 351.17 314.871H352.37V317.111C352.312 317.71 352.097 318.283 351.746 318.771C351.394 319.26 350.92 319.646 350.37 319.891C349.272 320.509 348.055 320.887 346.8 321.001C344.704 321.273 342.575 320.896 340.7 319.921C340.147 319.681 339.67 319.295 339.318 318.806C338.966 318.317 338.752 317.742 338.7 317.141L338.73 317.111Z" fill="#455A64"/>
<path opacity="0.3" d="M338.73 317.111V314.871H340C340.247 314.665 340.511 314.481 340.79 314.321C341.986 313.671 343.311 313.292 344.67 313.211C346.647 313.017 348.638 313.403 350.4 314.321C350.673 314.481 350.93 314.665 351.17 314.871H352.37V317.111C352.312 317.71 352.097 318.283 351.746 318.771C351.394 319.26 350.92 319.646 350.37 319.891C349.272 320.509 348.055 320.887 346.8 321.001C344.704 321.273 342.575 320.896 340.7 319.921C340.147 319.681 339.67 319.295 339.318 318.806C338.966 318.317 338.752 317.742 338.7 317.141L338.73 317.111Z" fill="white"/>
<path d="M340.74 312.081C341.936 311.431 343.261 311.052 344.62 310.971C346.597 310.777 348.588 311.162 350.35 312.081C352.99 313.621 352.98 316.081 350.35 317.651C349.268 318.25 348.072 318.618 346.84 318.731C344.744 319.003 342.615 318.626 340.74 317.651C338.06 316.111 338.07 313.621 340.74 312.081Z" fill="#455A64"/>
<path opacity="0.4" d="M340.74 312.081C341.936 311.431 343.261 311.052 344.62 310.971C346.597 310.777 348.588 311.162 350.35 312.081C352.99 313.621 352.98 316.081 350.35 317.651C349.268 318.25 348.072 318.618 346.84 318.731C344.744 319.003 342.615 318.626 340.74 317.651C338.06 316.111 338.07 313.621 340.74 312.081Z" fill="white"/>
<path d="M348.1 213.33V315.22C348.069 315.436 347.984 315.641 347.853 315.816C347.722 315.991 347.549 316.13 347.35 316.22C346.938 316.444 346.486 316.583 346.02 316.63C345.226 316.727 344.422 316.585 343.71 316.22C343.512 316.129 343.341 315.99 343.211 315.815C343.082 315.64 342.999 315.436 342.97 315.22V213.33H348.1Z" fill="#455A64"/>
<path opacity="0.3" d="M348.1 213.33V315.22C348.069 315.436 347.984 315.641 347.853 315.816C347.722 315.991 347.549 316.13 347.35 316.22C346.938 316.444 346.486 316.583 346.02 316.63C345.226 316.727 344.422 316.585 343.71 316.22C343.512 316.129 343.341 315.99 343.211 315.815C343.082 315.64 342.999 315.436 342.97 315.22V213.33H348.1Z" fill="white"/>
<path d="M339.21 213.471C339.21 214.694 339.573 215.889 340.252 216.905C340.932 217.922 341.898 218.714 343.027 219.182C344.157 219.649 345.4 219.771 346.599 219.532C347.798 219.292 348.9 218.703 349.763 217.837C350.627 216.972 351.215 215.87 351.452 214.671C351.69 213.471 351.566 212.228 351.097 211.099C350.627 209.97 349.834 209.006 348.816 208.328C347.799 207.65 346.603 207.289 345.38 207.291C344.569 207.291 343.766 207.451 343.017 207.762C342.267 208.072 341.587 208.528 341.014 209.102C340.441 209.676 339.986 210.357 339.677 211.107C339.367 211.857 339.209 212.66 339.21 213.471Z" fill="#455A64"/>
<path opacity="0.4" d="M339.21 213.471C339.21 214.694 339.573 215.889 340.252 216.905C340.932 217.922 341.898 218.714 343.027 219.182C344.157 219.649 345.4 219.771 346.599 219.532C347.798 219.292 348.9 218.703 349.763 217.837C350.627 216.972 351.215 215.87 351.452 214.671C351.69 213.471 351.566 212.228 351.097 211.099C350.627 209.97 349.834 209.006 348.816 208.328C347.799 207.65 346.603 207.289 345.38 207.291C344.569 207.291 343.766 207.451 343.017 207.762C342.267 208.072 341.587 208.528 341.014 209.102C340.441 209.676 339.986 210.357 339.677 211.107C339.367 211.857 339.209 212.66 339.21 213.471Z" fill="white"/>
<path d="M344.64 211.431C344.64 211.85 344.764 212.26 344.997 212.608C345.23 212.957 345.561 213.229 345.949 213.389C346.336 213.55 346.762 213.592 347.174 213.51C347.585 213.428 347.963 213.226 348.259 212.93C348.556 212.633 348.757 212.255 348.839 211.844C348.921 211.433 348.879 211.007 348.719 210.619C348.558 210.232 348.286 209.901 347.938 209.668C347.589 209.435 347.179 209.311 346.76 209.311C346.198 209.311 345.659 209.534 345.261 209.931C344.863 210.329 344.64 210.868 344.64 211.431Z" fill="white"/>
<path d="M213.87 288C222.547 287.918 230.965 285.035 237.87 279.78C238.284 279.477 238.56 279.023 238.639 278.517C238.718 278.01 238.592 277.493 238.29 277.08C237.988 276.666 237.533 276.389 237.027 276.311C236.521 276.232 236.004 276.357 235.59 276.66C224.82 284.54 212.5 286.21 199.95 281.49C180.4 274.12 162.95 251.9 157.54 227.49C157.485 227.242 157.383 227.008 157.238 226.8C157.093 226.592 156.908 226.415 156.694 226.278C156.481 226.142 156.243 226.049 155.993 226.004C155.743 225.96 155.488 225.965 155.24 226.02C154.992 226.074 154.758 226.177 154.55 226.322C154.342 226.467 154.165 226.652 154.029 226.865C153.892 227.079 153.799 227.317 153.755 227.567C153.71 227.816 153.716 228.072 153.77 228.32C159.46 253.98 177.89 277.32 198.59 285.14C203.469 287.009 208.646 287.978 213.87 288Z" fill="#0B3555"/>
<path d="M266.89 288.751C273.425 288.676 279.895 287.444 286 285.111C313.1 275.111 339.15 245.631 345.29 217.951C345.401 217.451 345.31 216.927 345.035 216.495C344.76 216.063 344.325 215.757 343.825 215.646C343.325 215.534 342.801 215.626 342.369 215.901C341.937 216.176 341.631 216.611 341.52 217.111C335.73 243.201 310.23 272.111 284.66 281.491C273.66 285.491 257.48 287.971 242.48 276.641C242.279 276.475 242.046 276.351 241.796 276.277C241.546 276.203 241.284 276.181 241.024 276.211C240.765 276.242 240.515 276.324 240.289 276.454C240.063 276.584 239.865 276.758 239.708 276.967C239.551 277.175 239.438 277.413 239.376 277.666C239.314 277.92 239.303 278.183 239.345 278.44C239.388 278.698 239.482 278.944 239.622 279.164C239.762 279.384 239.945 279.574 240.16 279.721C247.82 285.615 257.225 288.792 266.89 288.751Z" fill="#0B3555"/>
<g opacity="0.5">
<path d="M213.87 288C222.547 287.918 230.965 285.035 237.87 279.78C238.284 279.477 238.56 279.023 238.639 278.517C238.718 278.01 238.592 277.493 238.29 277.08C237.988 276.666 237.533 276.389 237.027 276.311C236.521 276.232 236.004 276.357 235.59 276.66C224.82 284.54 212.5 286.21 199.95 281.49C180.4 274.12 162.95 251.9 157.54 227.49C157.485 227.242 157.383 227.008 157.238 226.8C157.093 226.592 156.908 226.415 156.694 226.278C156.481 226.142 156.243 226.049 155.993 226.004C155.743 225.96 155.488 225.965 155.24 226.02C154.992 226.074 154.758 226.177 154.55 226.322C154.342 226.467 154.165 226.652 154.029 226.865C153.892 227.079 153.799 227.317 153.755 227.567C153.71 227.816 153.716 228.072 153.77 228.32C159.46 253.98 177.89 277.32 198.59 285.14C203.469 287.009 208.646 287.978 213.87 288Z" fill="white"/>
</g>
<g opacity="0.5">
<path d="M266.89 288.751C273.425 288.676 279.895 287.444 286 285.111C313.1 275.111 339.15 245.631 345.29 217.951C345.401 217.451 345.31 216.927 345.035 216.495C344.76 216.063 344.325 215.757 343.825 215.646C343.325 215.534 342.801 215.626 342.369 215.901C341.937 216.176 341.631 216.611 341.52 217.111C335.73 243.201 310.23 272.111 284.66 281.491C273.66 285.491 257.48 287.971 242.48 276.641C242.279 276.475 242.046 276.351 241.796 276.277C241.546 276.203 241.284 276.181 241.024 276.211C240.765 276.242 240.515 276.324 240.289 276.454C240.063 276.584 239.865 276.758 239.708 276.967C239.551 277.175 239.438 277.413 239.376 277.666C239.314 277.92 239.303 278.183 239.345 278.44C239.388 278.698 239.482 278.944 239.622 279.164C239.762 279.384 239.945 279.574 240.16 279.721C247.82 285.615 257.225 288.792 266.89 288.751Z" fill="white"/>
</g>
<path d="M232.41 376.091V373.851H233.64C233.883 373.645 234.144 373.461 234.42 373.301C235.62 372.651 236.948 372.272 238.31 372.191C240.274 372.003 242.25 372.389 244 373.301C244.273 373.46 244.53 373.645 244.77 373.851H246V376.081C245.943 376.68 245.728 377.253 245.377 377.742C245.025 378.23 244.55 378.617 244 378.861C242.914 379.459 241.715 379.827 240.48 379.941C238.387 380.214 236.261 379.837 234.39 378.861C233.838 378.619 233.361 378.234 233.009 377.745C232.657 377.256 232.443 376.681 232.39 376.081L232.41 376.091Z" fill="#455A64"/>
<path opacity="0.3" d="M232.41 376.091V373.851H233.64C233.883 373.645 234.144 373.461 234.42 373.301C235.62 372.651 236.948 372.272 238.31 372.191C240.274 372.003 242.25 372.389 244 373.301C244.273 373.46 244.53 373.645 244.77 373.851H246V376.081C245.943 376.68 245.728 377.253 245.377 377.742C245.025 378.23 244.55 378.617 244 378.861C242.914 379.459 241.715 379.827 240.48 379.941C238.387 380.214 236.261 379.837 234.39 378.861C233.838 378.619 233.361 378.234 233.009 377.745C232.657 377.256 232.443 376.681 232.39 376.081L232.41 376.091Z" fill="white"/>
<path d="M234.42 371.061C235.62 370.411 236.948 370.032 238.31 369.951C240.284 369.758 242.272 370.143 244.03 371.061C246.67 372.601 246.66 375.061 244.03 376.631C242.944 377.23 241.745 377.597 240.51 377.711C238.417 377.984 236.291 377.607 234.42 376.631C231.74 375.091 231.75 372.601 234.42 371.061Z" fill="#455A64"/>
<path opacity="0.4" d="M234.42 371.061C235.62 370.411 236.948 370.032 238.31 369.951C240.284 369.758 242.272 370.143 244.03 371.061C246.67 372.601 246.66 375.061 244.03 376.631C242.944 377.23 241.745 377.597 240.51 377.711C238.417 377.984 236.291 377.607 234.42 376.631C231.74 375.091 231.75 372.601 234.42 371.061Z" fill="white"/>
<path d="M241.78 272.311V374.191C241.749 374.407 241.664 374.612 241.533 374.787C241.402 374.961 241.229 375.1 241.03 375.191C240.618 375.414 240.166 375.554 239.7 375.601C238.906 375.698 238.102 375.555 237.39 375.191C237.192 375.1 237.021 374.96 236.891 374.786C236.762 374.611 236.679 374.406 236.65 374.191V272.311H241.78Z" fill="#455A64"/>
<path opacity="0.3" d="M241.78 272.311V374.191C241.749 374.407 241.664 374.612 241.533 374.787C241.402 374.961 241.229 375.1 241.03 375.191C240.618 375.414 240.166 375.554 239.7 375.601C238.906 375.698 238.102 375.555 237.39 375.191C237.192 375.1 237.021 374.96 236.891 374.786C236.762 374.611 236.679 374.406 236.65 374.191V272.311H241.78Z" fill="white"/>
<path d="M232.89 272.45C232.89 273.672 233.253 274.867 233.932 275.884C234.612 276.901 235.577 277.693 236.707 278.16C237.837 278.628 239.08 278.749 240.279 278.51C241.478 278.271 242.58 277.681 243.443 276.816C244.307 275.951 244.895 274.849 245.132 273.649C245.37 272.45 245.246 271.207 244.777 270.078C244.307 268.949 243.514 267.984 242.496 267.306C241.479 266.628 240.283 266.268 239.06 266.27C238.249 266.27 237.446 266.429 236.697 266.74C235.947 267.051 235.267 267.506 234.694 268.08C234.121 268.654 233.666 269.336 233.357 270.085C233.047 270.835 232.889 271.638 232.89 272.45Z" fill="#455A64"/>
<path opacity="0.4" d="M232.89 272.45C232.89 273.672 233.253 274.867 233.932 275.884C234.612 276.901 235.577 277.693 236.707 278.16C237.837 278.628 239.08 278.749 240.279 278.51C241.478 278.271 242.58 277.681 243.443 276.816C244.307 275.951 244.895 274.849 245.132 273.649C245.37 272.45 245.246 271.207 244.777 270.078C244.307 268.949 243.514 267.984 242.496 267.306C241.479 266.628 240.283 266.268 239.06 266.27C238.249 266.27 237.446 266.429 236.697 266.74C235.947 267.051 235.267 267.506 234.694 268.08C234.121 268.654 233.666 269.336 233.357 270.085C233.047 270.835 232.889 271.638 232.89 272.45Z" fill="white"/>
<path d="M240.44 272.531C241.611 272.531 242.56 271.582 242.56 270.411C242.56 269.24 241.611 268.291 240.44 268.291C239.269 268.291 238.32 269.24 238.32 270.411C238.32 271.582 239.269 272.531 240.44 272.531Z" fill="white"/>
<path d="M362.25 216.861C361.36 218.531 360.47 220.211 359.57 221.861L361.96 223.471C362.09 221.351 362.11 219.001 362.25 216.861Z" fill="#F28F8F"/>
<path d="M384.72 236.449C390.32 231.969 394.96 240.369 398.35 249.729C400.41 255.409 402.52 260.949 403.86 264.429C404.292 265.549 404.432 266.76 404.266 267.948C404.1 269.136 403.633 270.262 402.91 271.219L392.91 284.479L388.46 274.849L393.98 266.469L388.36 256.189L384.72 236.449Z" fill="#0B3555"/>
<path d="M331.06 281C328.056 282.467 324.822 283.407 321.5 283.78C318.166 284.148 314.797 283.565 311.78 282.1C308.746 280.545 306.434 277.875 305.33 274.65C305.804 274.132 306.44 273.794 307.134 273.69C307.828 273.586 308.536 273.724 309.14 274.08C312.055 275.706 315.493 276.119 318.71 275.23C317.701 274.195 316.796 273.063 316.01 271.85C315.62 271.25 315.26 270.46 315.66 269.85C315.839 269.631 316.081 269.474 316.354 269.4C316.627 269.327 316.916 269.34 317.18 269.44C317.711 269.651 318.197 269.964 318.61 270.36C321.039 272.321 323.908 273.662 326.97 274.27C328.24 276.38 329.81 278.88 331.06 281Z" fill="#FFC0BF"/>
<path d="M348.38 410.69C349.207 411.33 350.251 411.621 351.29 411.5C354.418 411.497 357.531 411.063 360.54 410.21C362.245 409.772 363.88 409.098 365.4 408.21C367.15 407.11 368.617 405.613 369.68 403.84C369.277 401.89 369.043 399.91 368.98 397.92C366.43 397.92 363.78 397.92 361.22 397.92V402C357.32 404.612 352.99 406.517 348.43 407.63C348.169 407.859 347.973 408.152 347.86 408.48C347.733 408.86 347.714 409.268 347.806 409.659C347.898 410.049 348.097 410.406 348.38 410.69Z" fill="#FFC0BF"/>
<path d="M370.28 406.341C370.05 405.501 369.85 404.661 369.68 403.811C368.617 405.583 367.15 407.081 365.4 408.181C363.88 409.069 362.245 409.742 360.54 410.181C357.531 411.034 354.418 411.468 351.29 411.471C350.251 411.591 349.207 411.301 348.38 410.661C348.102 410.38 347.907 410.028 347.815 409.643C347.723 409.259 347.739 408.857 347.86 408.481C347.973 408.153 348.169 407.86 348.43 407.631C348.08 407.711 347.74 407.801 347.43 407.871C346.194 408.041 344.999 408.43 343.9 409.021C343.356 409.325 342.921 409.79 342.654 410.353C342.387 410.915 342.302 411.547 342.41 412.161C342.628 412.681 342.956 413.149 343.372 413.53C343.788 413.912 344.282 414.199 344.82 414.371C348.803 416.131 353.293 416.369 357.44 415.041C359.99 414.211 362.44 412.771 365.14 412.851C366.67 412.851 368.35 413.401 369.64 412.561C370.091 412.22 370.451 411.773 370.688 411.261C370.925 410.748 371.032 410.185 371 409.621C370.907 408.5 370.665 407.397 370.28 406.341Z" fill="#0B3555"/>
<path d="M379.93 381.34C379.294 381.405 378.698 381.677 378.232 382.115C377.766 382.552 377.456 383.13 377.35 383.76C377.27 384.99 378.22 386.01 379.09 386.86L382.45 390.13C383.314 391.122 384.415 391.879 385.65 392.33C386.296 392.49 386.971 392.502 387.622 392.363C388.274 392.225 388.885 391.94 389.41 391.53C390.034 391.044 390.543 390.426 390.9 389.72C390.79 388.96 390.7 388.2 390.55 387.44C390.442 386.468 390.099 385.538 389.55 384.73C388.48 383.41 386.75 383.23 385.18 383.07C384.041 382.853 382.995 382.295 382.18 381.47C381.445 381.286 380.682 381.242 379.93 381.34Z" fill="#FFC0BF"/>
<path d="M390.9 389.72C390.543 390.426 390.034 391.044 389.41 391.53C388.885 391.94 388.274 392.225 387.622 392.364C386.971 392.502 386.296 392.491 385.65 392.33C384.415 391.879 383.314 391.122 382.45 390.13L379.09 386.86C378.22 386.01 377.27 384.99 377.35 383.76C377.456 383.13 377.766 382.552 378.232 382.115C378.698 381.678 379.294 381.406 379.93 381.34C380.678 381.244 381.438 381.288 382.17 381.47L381.84 381.23C380.979 380.623 380.058 380.106 379.09 379.69C378.07 379.157 376.894 379.002 375.77 379.25C375.104 379.51 374.531 379.963 374.124 380.551C373.718 381.139 373.497 381.835 373.49 382.55C373.498 383.991 374.008 385.384 374.93 386.49C375.852 387.584 376.855 388.607 377.93 389.55C379.319 390.89 380.599 392.338 381.76 393.88C382.554 395.066 383.462 396.171 384.47 397.18C385.486 398.207 386.866 398.792 388.31 398.81C388.908 398.798 389.491 398.622 389.995 398.301C390.5 397.98 390.906 397.527 391.17 396.99C391.414 396.27 391.5 395.506 391.42 394.75C391.332 393.066 391.158 391.387 390.9 389.72Z" fill="#0B3555"/>
<path d="M356.14 290.999C353.78 320.759 355.55 351.769 355.55 351.769C355.55 351.769 359.66 384.999 360.26 398.999C363.62 402.319 370.06 398.999 370.06 398.999C371.9 374.689 376.77 365.329 371.46 350.199L375.26 315.319L376.77 343.319L382.51 386.949C386 389.489 390.51 386.949 390.51 386.949C392.37 365.569 396.74 355.849 390.51 338.459C397.97 303.839 395.51 290.679 394.51 287.189L356.14 290.999Z" fill="#263238"/>
<path opacity="0.4" d="M356.14 290.999C353.78 320.759 355.55 351.769 355.55 351.769C355.55 351.769 359.66 384.999 360.26 398.999C363.62 402.319 370.06 398.999 370.06 398.999C371.9 374.689 376.77 365.329 371.46 350.199L375.26 315.319L376.77 343.319L382.51 386.949C386 389.489 390.51 386.949 390.51 386.949C392.37 365.569 396.74 355.849 390.51 338.459C397.97 303.839 395.51 290.679 394.51 287.189L356.14 290.999Z" fill="black"/>
<path opacity="0.1" d="M356.14 290.999C353.78 320.759 355.55 351.769 355.55 351.769C355.55 351.769 359.66 384.999 360.26 398.999C363.62 402.319 370.06 398.999 370.06 398.999C371.9 374.689 376.77 365.329 371.46 350.199L375.26 315.319L376.77 343.319L382.51 386.949C386 389.489 390.51 386.949 390.51 386.949C392.37 365.569 396.74 355.849 390.51 338.459C397.97 303.839 395.51 290.679 394.51 287.189L356.14 290.999Z" fill="white"/>
<path opacity="0.2" d="M384.72 236.449C390.32 231.969 394.96 240.369 398.35 249.729C400.41 255.409 402.52 260.949 403.86 264.429C404.292 265.549 404.432 266.76 404.266 267.948C404.1 269.136 403.633 270.262 402.91 271.219L392.91 284.479L388.46 274.849L393.98 266.469L388.36 256.189L384.72 236.449Z" fill="white"/>
<path d="M366.16 239.27C371.16 237.72 385.74 234.54 389.44 237.87C392.66 240.78 394.76 250.81 390.44 263.69C389.178 267.366 389.361 271.384 390.95 274.93C392.84 278.992 394.318 283.233 395.36 287.59C383.65 299.53 363.02 297.68 355.21 292.59C355.313 283.042 356.135 273.515 357.67 264.09L366.16 239.27Z" fill="#0B3555"/>
<path opacity="0.4" d="M366.16 239.27C371.16 237.72 385.74 234.54 389.44 237.87C392.66 240.78 394.76 250.81 390.44 263.69C389.178 267.366 389.361 271.384 390.95 274.93C392.84 278.992 394.318 283.233 395.36 287.59C383.65 299.53 363.02 297.68 355.21 292.59C355.313 283.042 356.135 273.515 357.67 264.09L366.16 239.27Z" fill="white"/>
<path opacity="0.1" d="M366.16 239.27C371.16 237.72 385.74 234.54 389.44 237.87C392.66 240.78 394.76 250.81 390.44 263.69C389.178 267.366 389.361 271.384 390.95 274.93C392.84 278.992 394.318 283.233 395.36 287.59C383.65 299.53 363.02 297.68 355.21 292.59C355.313 283.042 356.135 273.515 357.67 264.09L366.16 239.27Z" fill="white"/>
<path d="M362.65 212.9C361.3 212.102 360.201 210.942 359.476 209.551C358.751 208.16 358.431 206.594 358.55 205.03C358.731 203.433 359.29 201.901 360.18 200.562C361.07 199.223 362.267 198.115 363.67 197.33C365.083 196.565 366.637 196.095 368.237 195.947C369.837 195.799 371.451 195.977 372.98 196.47C375.68 197.31 378.07 199.03 380.85 199.59C383.26 200.08 385.85 199.66 388.12 200.59C390.97 201.76 392.63 204.79 393.36 207.79C394.377 212.029 394.002 216.482 392.29 220.49C390.058 224.964 386.618 228.722 382.36 231.34C378.53 235.92 371.71 232.92 368.81 229.04C365.91 225.16 362.65 212.9 362.65 212.9Z" fill="#263238"/>
<path d="M364.4 209.561C362.718 212.168 361.689 215.142 361.4 218.231C361.112 221.309 361.068 224.405 361.27 227.491C361.198 228.691 361.495 229.884 362.12 230.911C362.599 231.431 363.19 231.836 363.848 232.096C364.506 232.356 365.214 232.463 365.92 232.411C367.34 232.411 368.62 232.411 370.16 232.411L370.46 238.801C375.51 241.601 381.18 239.651 382.65 237.661L382.39 231.401C374.55 232.871 370.31 230.181 369.58 225.321C370.375 225.469 371.194 225.441 371.977 225.237C372.76 225.033 373.488 224.658 374.11 224.141C374.667 223.585 375.091 222.91 375.349 222.167C375.607 221.424 375.693 220.632 375.6 219.851C375.531 219.144 375.244 218.477 374.78 217.941C374.364 217.539 373.843 217.263 373.277 217.144C372.71 217.026 372.122 217.069 371.58 217.271C370.492 217.694 369.592 218.492 369.04 219.521C368.502 220.545 368.108 221.638 367.87 222.771C367.408 222.4 367.069 221.897 366.899 221.329C366.73 220.761 366.737 220.154 366.92 219.591C367.13 219.011 367.55 218.461 367.46 217.851C367.37 217.241 366.66 216.741 366.33 216.121C366.071 215.584 366.028 214.968 366.21 214.401C366.394 213.837 366.649 213.299 366.97 212.801C366.261 211.611 365.396 210.522 364.4 209.561Z" fill="#FFC0BF"/>
<path d="M394.62 227.85C391.829 224.95 389.691 221.486 388.35 217.69C387.015 213.875 386.966 209.727 388.21 205.88C388.907 203.712 390.212 201.789 391.97 200.34C392.851 199.625 393.872 199.101 394.967 198.803C396.062 198.505 397.208 198.439 398.33 198.61C401.87 199.26 404.4 202.67 405.04 206.2C405.68 209.73 404.78 213.37 403.63 216.77C402.2 221.02 398.91 226.25 399.48 232.26C397.708 230.968 396.079 229.489 394.62 227.85Z" fill="#263238"/>
<path d="M366.16 239.27C356.93 235.27 355.87 244.04 350.8 253.39C347.69 259.39 343.86 265.2 343.86 265.2C338.545 268.58 332.796 271.224 326.77 273.06C324.77 278.36 329.42 283.56 329.42 283.56L349.24 274.93C352.598 273.461 355.428 271.001 357.35 267.88C364.49 256.31 369.71 248.11 366.16 239.27Z" fill="#0B3555"/>
<path opacity="0.2" d="M366.16 239.27C356.93 235.27 355.87 244.04 350.8 253.39C347.69 259.39 343.86 265.2 343.86 265.2C338.545 268.58 332.796 271.224 326.77 273.06C324.77 278.36 329.42 283.56 329.42 283.56L349.24 274.93C352.598 273.461 355.428 271.001 357.35 267.88C364.49 256.31 369.71 248.11 366.16 239.27Z" fill="white"/>
<path opacity="0.3" d="M388.07 300.75C384.819 303.565 380.661 305.113 376.36 305.11L375.26 315.29L376.26 333.99L378.31 306.99C380.291 306.715 382.188 306.016 383.873 304.939C385.558 303.861 386.99 302.433 388.07 300.75Z" fill="black"/>
<path d="M144.43 220.58C145.186 220.781 145.893 221.134 146.509 221.617C147.124 222.1 147.635 222.703 148.01 223.39L151.93 230.54L164.73 245.17C168.55 249.533 171.218 254.782 172.49 260.44C172.75 261.6 172.717 262.806 172.394 263.949C172.071 265.093 171.468 266.138 170.64 266.99C169.315 268.346 167.506 269.121 165.61 269.144C163.714 269.166 161.887 268.435 160.53 267.11L156.26 262.92L157.19 256.34L146.09 234.72L140 231.14C139.362 230.769 138.814 230.26 138.395 229.652C137.977 229.043 137.698 228.349 137.58 227.62L137.11 224.79L144.43 220.58Z" fill="#8F5453"/>
<path d="M109.23 264.13L106.86 269.13L112.51 275.35L112.1 290.2L93.88 274.35C93.0636 273.641 92.503 272.683 92.2843 271.624C92.0657 270.565 92.2012 269.464 92.67 268.49L98.23 256.93L109.23 264.13Z" fill="#8F5453"/>
<path d="M103.61 273.559C105.039 272.362 106.154 270.835 106.86 269.109L108.27 270.659C107.155 272.197 105.482 273.238 103.61 273.559Z" fill="#693635"/>
<path d="M109.68 265.33C102.44 264.69 97.51 257.19 97.51 257.19C103.99 243.93 109.64 229.19 120.94 232.71L109.68 265.33Z" fill="#37474F"/>
<path d="M116.12 246.68L109.68 265.33C107.445 265.082 105.306 264.289 103.45 263.02C106.073 256.502 110.461 250.843 116.12 246.68Z" fill="#263238"/>
<path d="M137.93 421.22C138.61 423.38 140.93 424.61 143.22 424.79C145.51 424.97 147.69 424.33 149.91 423.93C154.91 423.03 159.68 423.93 164.64 423.8C166.271 423.818 167.899 423.643 169.49 423.28C171.085 422.904 172.528 422.053 173.63 420.84C174.254 420.097 174.665 419.198 174.82 418.24C174.92 418.961 174.865 419.695 174.66 420.393C174.455 421.091 174.104 421.738 173.63 422.29C172.533 423.509 171.087 424.36 169.49 424.73C167.9 425.097 166.272 425.275 164.64 425.26C159.64 425.38 154.89 424.48 149.91 425.38C147.69 425.79 145.47 426.38 143.22 426.24C140.97 426.1 138.61 424.83 137.93 422.68C137.715 421.937 137.654 421.158 137.75 420.39C137.785 420.672 137.845 420.95 137.93 421.22Z" fill="#455A64"/>
<path d="M138.05 417.1C138.36 415.6 138.66 414.1 138.97 412.58C139.085 411.774 139.342 410.995 139.73 410.28C139.933 409.93 140.225 409.639 140.576 409.437C140.927 409.236 141.325 409.13 141.73 409.13C144.45 408.77 148.28 407.79 150.54 409.34C154.118 411.79 158.386 413.03 162.72 412.88C164.97 412.8 167.22 412.34 169.46 412.61C171.7 412.88 174.02 414.13 174.68 416.28C174.875 416.928 174.917 417.613 174.8 418.28C174.645 419.238 174.234 420.136 173.61 420.88C172.508 422.093 171.065 422.944 169.47 423.32C167.879 423.683 166.251 423.858 164.62 423.84C159.62 423.96 154.87 423.07 149.89 423.97C147.67 424.37 145.45 424.97 143.2 424.83C140.95 424.69 138.59 423.42 137.91 421.26C137.825 420.989 137.765 420.711 137.73 420.43C137.663 419.31 137.771 418.187 138.05 417.1Z" fill="#455A64"/>
<g opacity="0.5">
<path opacity="0.6" d="M137.93 421.22C138.61 423.38 140.93 424.61 143.22 424.79C145.51 424.97 147.69 424.33 149.91 423.93C154.91 423.03 159.68 423.93 164.64 423.8C166.271 423.818 167.899 423.643 169.49 423.28C171.085 422.904 172.528 422.053 173.63 420.84C174.254 420.097 174.665 419.198 174.82 418.24C174.92 418.961 174.865 419.695 174.66 420.393C174.455 421.091 174.104 421.738 173.63 422.29C172.533 423.509 171.087 424.36 169.49 424.73C167.9 425.097 166.272 425.275 164.64 425.26C159.64 425.38 154.89 424.48 149.91 425.38C147.69 425.79 145.47 426.38 143.22 426.24C140.97 426.1 138.61 424.83 137.93 422.68C137.715 421.937 137.654 421.158 137.75 420.39C137.785 420.672 137.845 420.95 137.93 421.22Z" fill="white"/>
<path d="M138.05 417.1C138.36 415.6 138.66 414.1 138.97 412.58C139.085 411.774 139.342 410.995 139.73 410.28C139.933 409.93 140.225 409.639 140.576 409.437C140.927 409.236 141.325 409.13 141.73 409.13C144.45 408.77 148.28 407.79 150.54 409.34C154.118 411.79 158.386 413.03 162.72 412.88C164.97 412.8 167.22 412.34 169.46 412.61C171.7 412.88 174.02 414.13 174.68 416.28C174.875 416.928 174.917 417.613 174.8 418.28C174.645 419.238 174.234 420.136 173.61 420.88C172.508 422.093 171.065 422.944 169.47 423.32C167.879 423.683 166.251 423.858 164.62 423.84C159.62 423.96 154.87 423.07 149.89 423.97C147.67 424.37 145.45 424.97 143.2 424.83C140.95 424.69 138.59 423.42 137.91 421.26C137.825 420.989 137.765 420.711 137.73 420.43C137.663 419.31 137.771 418.187 138.05 417.1Z" fill="white"/>
</g>
<path d="M151.22 404.609L151.42 410.499C151.44 411.103 151.224 411.69 150.82 412.137C150.415 412.585 149.852 412.858 149.25 412.899C147.277 413.06 145.293 413.06 143.32 412.899C142.526 412.815 141.788 412.451 141.238 411.872C140.689 411.293 140.363 410.537 140.32 409.739L140.08 405.399L151.22 404.609Z" fill="#8F5453"/>
<path d="M112.79 401.481C112.784 402.471 113.146 403.428 113.806 404.167C114.465 404.906 115.375 405.374 116.36 405.481C117.659 405.704 118.995 405.556 120.214 405.054C121.433 404.551 122.486 403.715 123.25 402.641C123.99 401.571 124.41 400.301 125.11 399.211C126.168 397.739 127.479 396.466 128.98 395.451C130.473 394.43 131.787 393.17 132.87 391.721C133.385 391.008 133.722 390.182 133.852 389.312C133.983 388.442 133.903 387.553 133.62 386.721C133.757 386.917 133.878 387.124 133.98 387.341C134.313 388.213 134.423 389.154 134.301 390.079C134.178 391.005 133.828 391.885 133.28 392.641C132.174 394.141 130.821 395.442 129.28 396.491C127.73 397.54 126.376 398.853 125.28 400.371C124.57 401.501 124.14 402.801 123.38 403.901C122.609 405 121.542 405.859 120.304 406.378C119.065 406.896 117.704 407.053 116.38 406.831C115.267 406.664 114.255 406.09 113.54 405.221C112.906 404.21 112.618 403.02 112.72 401.831C112.77 401.731 112.78 401.601 112.79 401.481Z" fill="#455A64"/>
<path d="M114.57 394.09C116.36 390.95 120.05 388.67 122.9 386.45C124.458 385.098 126.376 384.23 128.42 383.95C129.44 383.826 130.474 384.009 131.389 384.476C132.305 384.943 133.061 385.672 133.56 386.57C133.577 386.627 133.597 386.684 133.62 386.74C133.903 387.572 133.983 388.461 133.852 389.331C133.722 390.201 133.385 391.027 132.87 391.74C131.787 393.189 130.473 394.449 128.98 395.47C127.479 396.485 126.168 397.758 125.11 399.23C124.41 400.32 123.99 401.59 123.25 402.66C122.486 403.734 121.433 404.57 120.214 405.073C118.995 405.575 117.659 405.723 116.36 405.5C115.375 405.393 114.465 404.925 113.806 404.186C113.146 403.447 112.784 402.49 112.79 401.5C112.775 401.216 112.775 400.933 112.79 400.65C112.833 398.349 113.444 396.096 114.57 394.09Z" fill="#455A64"/>
<g opacity="0.5">
<path opacity="0.6" d="M112.79 401.479C112.784 402.469 113.146 403.426 113.806 404.165C114.465 404.904 115.375 405.372 116.36 405.479C117.659 405.702 118.995 405.554 120.214 405.052C121.433 404.549 122.486 403.713 123.25 402.639C123.99 401.569 124.41 400.299 125.11 399.209C126.168 397.737 127.479 396.464 128.98 395.449C130.473 394.428 131.787 393.168 132.87 391.719C133.385 391.006 133.722 390.18 133.852 389.31C133.983 388.44 133.903 387.552 133.62 386.719C133.757 386.915 133.878 387.122 133.98 387.339C134.313 388.211 134.423 389.152 134.301 390.077C134.178 391.003 133.828 391.883 133.28 392.639C132.174 394.139 130.821 395.44 129.28 396.489C127.73 397.538 126.376 398.851 125.28 400.369C124.57 401.499 124.14 402.799 123.38 403.899C122.609 404.998 121.542 405.857 120.304 406.376C119.065 406.894 117.704 407.051 116.38 406.829C115.267 406.662 114.255 406.088 113.54 405.219C112.906 404.208 112.618 403.018 112.72 401.829C112.77 401.729 112.78 401.599 112.79 401.479Z" fill="white"/>
<path d="M114.57 394.09C116.36 390.95 120.05 388.67 122.9 386.45C124.458 385.098 126.376 384.23 128.42 383.95C129.44 383.826 130.474 384.009 131.389 384.476C132.305 384.943 133.061 385.672 133.56 386.57C133.577 386.627 133.597 386.684 133.62 386.74C133.903 387.572 133.983 388.461 133.852 389.331C133.722 390.201 133.385 391.027 132.87 391.74C131.787 393.189 130.473 394.449 128.98 395.47C127.479 396.485 126.168 397.758 125.11 399.23C124.41 400.32 123.99 401.59 123.25 402.66C122.486 403.734 121.433 404.57 120.214 405.073C118.995 405.575 117.659 405.723 116.36 405.5C115.375 405.393 114.465 404.925 113.806 404.186C113.146 403.447 112.784 402.49 112.79 401.5C112.775 401.216 112.775 400.933 112.79 400.65C112.833 398.349 113.444 396.096 114.57 394.09Z" fill="white"/>
</g>
<path d="M122.33 391.371V396.721C121.016 397.334 119.573 397.621 118.125 397.556C116.676 397.492 115.264 397.078 114.01 396.351L113.51 391.541L122.33 391.371Z" fill="#8F5453"/>
<path d="M144.43 220.58C145.65 223.73 145.02 227.16 143.5 228.51C141.98 229.86 137.87 228.73 137.87 228.73L144.43 220.58Z" fill="#693635"/>
<path d="M112.1 294.311C110.5 299.121 112.47 321.991 113.41 343.931C109.93 352.221 110.87 375.761 112.87 392.471C112.87 392.471 116.35 394.611 122.64 392.471L130.53 346.331L131.62 320.261C131.62 320.261 133.62 343.391 135.88 358.261C133.74 369.631 134.27 371.771 139.55 406.731C141.387 407.653 143.414 408.134 145.47 408.134C147.526 408.134 149.553 407.653 151.39 406.731C154.39 357.611 153.28 312.841 152.71 296.731L112.1 294.311Z" fill="#0B3555"/>
<path opacity="0.4" d="M112.1 294.311C110.5 299.121 112.47 321.991 113.41 343.931C109.93 352.221 110.87 375.761 112.87 392.471C112.87 392.471 116.35 394.611 122.64 392.471L130.53 346.331L131.62 320.261C131.62 320.261 133.62 343.391 135.88 358.261C133.74 369.631 134.27 371.771 139.55 406.731C141.387 407.653 143.414 408.134 145.47 408.134C147.526 408.134 149.553 407.653 151.39 406.731C154.39 357.611 153.28 312.841 152.71 296.731L112.1 294.311Z" fill="black"/>
<path opacity="0.3" d="M131 336.141L131.9 314.871C126.4 314.871 121.3 310.761 117.42 306.871C121.15 313.511 128.37 316.451 128.37 316.451L131 336.141Z" fill="black"/>
<path d="M153.55 256.371V298.001C129 308.301 113.13 299.001 111 294.181C112.13 277.231 108.13 257.401 108.43 248.971C108.73 240.541 109.78 231.051 122.84 232.971L136.74 234.331L143.74 236.041L153.55 256.371Z" fill="#37474F"/>
<path d="M153.55 261.73L143.5 250.68C145.134 258.274 148.582 265.359 153.55 271.33V261.73Z" fill="#263238"/>
<path d="M167.72 254.14L154.55 241.14C151.611 238.277 147.806 236.469 143.73 236H143.49C137.91 248.22 145.29 254.18 145.29 254.18L157.53 265.43C162.154 262.989 165.764 258.989 167.72 254.14Z" fill="#37474F"/>
<path d="M143.37 205.7C143.624 205.405 143.787 205.043 143.838 204.658C143.89 204.273 143.828 203.881 143.66 203.53C144.006 203.634 144.369 203.662 144.727 203.611C145.084 203.561 145.426 203.435 145.73 203.24C146.028 203.056 146.269 202.793 146.428 202.481C146.587 202.169 146.657 201.819 146.63 201.47C146.594 201.12 146.443 200.791 146.201 200.536C145.958 200.281 145.638 200.113 145.29 200.06C145.931 199.902 146.495 199.52 146.878 198.982C147.262 198.445 147.44 197.787 147.38 197.13C147.261 196.529 146.981 195.973 146.571 195.518C146.161 195.064 145.635 194.729 145.05 194.55C143.874 194.21 142.635 194.145 141.43 194.36C141.624 193.701 141.578 192.994 141.299 192.366C141.021 191.738 140.529 191.229 139.91 190.93C139.354 190.737 138.758 190.686 138.177 190.78C137.596 190.875 137.047 191.111 136.58 191.47C135.656 192.194 134.861 193.07 134.23 194.06C132.907 193.342 131.443 192.921 129.94 192.827C128.438 192.733 126.933 192.968 125.53 193.515C124.128 194.063 122.862 194.91 121.82 195.997C120.779 197.084 119.987 198.385 119.5 199.81C118.398 200.171 117.403 200.798 116.601 201.635C115.798 202.472 115.214 203.494 114.9 204.61C114.333 206.84 114.469 209.19 115.29 211.34C116.11 213.477 117.167 215.517 118.44 217.42L120.18 220.17C120.91 221.32 122.77 224.17 123.5 225.33C125.129 226.088 126.921 226.428 128.715 226.318C130.508 226.208 132.246 225.652 133.77 224.7C136.761 222.715 139.066 219.855 140.37 216.51C141.731 213.017 142.736 209.395 143.37 205.7Z" fill="#263238"/>
<path d="M127.93 226.53C126.369 226.557 124.823 226.215 123.42 225.53L121.78 222.97C121.12 221.97 120.47 220.97 120.1 220.36L118.36 217.61C117.08 215.699 116.02 213.649 115.2 211.5C114.363 209.317 114.223 206.927 114.8 204.66C115.118 203.53 115.707 202.493 116.515 201.641C117.324 200.789 118.328 200.147 119.44 199.77C119.966 198.35 120.782 197.055 121.835 195.967C122.889 194.879 124.157 194.022 125.56 193.45C126.961 192.921 128.457 192.691 129.952 192.775C131.447 192.859 132.908 193.256 134.24 193.94C134.866 192.982 135.647 192.134 136.55 191.43C137.04 191.052 137.617 190.802 138.228 190.703C138.839 190.603 139.465 190.657 140.05 190.86C140.665 191.161 141.165 191.656 141.472 192.269C141.779 192.881 141.877 193.577 141.75 194.25C142.897 194.081 144.068 194.163 145.18 194.49C145.798 194.675 146.353 195.027 146.783 195.507C147.214 195.987 147.503 196.576 147.62 197.21C147.71 197.921 147.52 198.638 147.09 199.21C146.79 199.629 146.397 199.972 145.94 200.21C146.195 200.352 146.413 200.551 146.577 200.793C146.74 201.034 146.844 201.311 146.88 201.6C146.907 201.984 146.828 202.368 146.652 202.71C146.475 203.053 146.208 203.34 145.88 203.54C145.319 203.889 144.653 204.027 144 203.93C144.124 204.269 144.152 204.635 144.079 204.989C144.007 205.342 143.837 205.668 143.59 205.93C142.959 209.619 141.953 213.235 140.59 216.72C139.278 220.099 136.951 222.988 133.93 224.99C132.108 226.043 130.033 226.575 127.93 226.53ZM123.62 225.2C125.219 225.937 126.976 226.264 128.732 226.151C130.489 226.037 132.19 225.487 133.68 224.55C136.629 222.572 138.906 219.743 140.21 216.44C141.568 212.96 142.573 209.352 143.21 205.67V205.61C143.45 205.342 143.603 205.007 143.647 204.649C143.692 204.292 143.627 203.93 143.46 203.61L143.28 203.23L143.68 203.37C143.999 203.468 144.335 203.494 144.665 203.447C144.995 203.401 145.311 203.282 145.59 203.1C145.861 202.935 146.082 202.698 146.228 202.416C146.375 202.134 146.441 201.817 146.42 201.5C146.385 201.191 146.25 200.901 146.035 200.676C145.82 200.45 145.537 200.301 145.23 200.25L143.94 200.09L145.23 199.9C145.826 199.759 146.35 199.403 146.7 198.9C147.072 198.413 147.238 197.799 147.16 197.19C147.046 196.624 146.782 196.098 146.395 195.669C146.007 195.239 145.512 194.922 144.96 194.75C143.805 194.425 142.593 194.36 141.41 194.56H141.13L141.23 194.29C141.402 193.672 141.353 193.014 141.092 192.428C140.831 191.843 140.374 191.366 139.8 191.08C139.27 190.902 138.705 190.857 138.154 190.95C137.602 191.042 137.083 191.269 136.64 191.61C135.731 192.324 134.95 193.186 134.33 194.16L134.24 194.28L134.11 194.21C132.807 193.523 131.374 193.119 129.904 193.024C128.434 192.929 126.96 193.146 125.58 193.66C124.201 194.215 122.954 195.054 121.921 196.122C120.887 197.19 120.09 198.464 119.58 199.86V199.94H119.49C118.42 200.3 117.452 200.914 116.67 201.729C115.888 202.544 115.315 203.536 115 204.62C114.459 206.82 114.598 209.132 115.4 211.25C116.216 213.361 117.266 215.373 118.53 217.25L120.27 220.01C120.63 220.59 121.27 221.6 121.94 222.61C122.61 223.62 123.26 224.62 123.62 225.2Z" fill="#272525"/>
<path d="M145 212.84L147.19 216.65L145.02 217.45C145.093 215.914 145.087 214.375 145 212.84Z" fill="#693635"/>
<path d="M143.37 205.701C144.179 208.01 144.713 210.407 144.96 212.841C145.04 214.377 145.04 215.916 144.96 217.451C144.871 219.617 144.62 221.773 144.21 223.901C144.066 225.071 143.629 226.185 142.94 227.141C142.491 227.629 141.949 228.022 141.347 228.299C140.744 228.575 140.093 228.729 139.43 228.751C138.105 228.804 136.78 228.677 135.49 228.371V234.631C130.74 235.751 126.81 236.241 123.08 233.381L123.48 225.381C125.762 225.702 128.087 225.336 130.16 224.331C133.44 222.561 134.36 219.731 133.9 218.151C133.608 218.538 133.208 218.829 132.751 218.989C132.294 219.149 131.799 219.171 131.33 219.051C130.88 218.93 130.459 218.717 130.094 218.427C129.73 218.136 129.429 217.773 129.21 217.361C128.77 216.536 128.498 215.632 128.41 214.701C128.178 213.578 128.352 212.409 128.9 211.401C129.319 210.841 129.898 210.422 130.561 210.199C131.223 209.976 131.938 209.959 132.61 210.151C133.957 210.574 135.082 211.512 135.74 212.761C135.956 213.145 136.14 213.547 136.29 213.961C136.344 214.123 136.453 214.262 136.597 214.353C136.742 214.444 136.914 214.483 137.084 214.461C137.253 214.44 137.411 214.361 137.528 214.237C137.646 214.113 137.717 213.952 137.73 213.781C137.896 211.982 137.571 210.171 136.79 208.541C137.332 208.815 137.932 208.956 138.54 208.951C138.86 208.95 139.175 208.879 139.465 208.745C139.755 208.61 140.013 208.414 140.22 208.171C140.419 207.92 140.532 207.611 140.543 207.291C140.554 206.971 140.461 206.655 140.28 206.391C140.807 206.585 141.379 206.624 141.927 206.501C142.475 206.379 142.976 206.101 143.37 205.701Z" fill="#8F5453"/>
</svg>
