<svg width="500" height="500" viewBox="0 0 500 500" fill="none" xmlns="http://www.w3.org/2000/svg">
<path d="M444.71 349.14H264C262.447 349.138 260.958 348.52 259.859 347.421C258.761 346.323 258.143 344.834 258.14 343.28V80.0004C258.145 78.4488 258.765 76.9624 259.863 75.8661C260.961 74.7699 262.448 74.153 264 74.1504H444.71C446.262 74.153 447.749 74.7699 448.847 75.8661C449.945 76.9624 450.565 78.4488 450.57 80.0004V343.28C450.567 344.834 449.949 346.323 448.851 347.421C447.752 348.52 446.263 349.138 444.71 349.14ZM264 74.4004C263.261 74.3951 262.528 74.536 261.843 74.8149C261.159 75.0939 260.536 75.5054 260.011 76.0258C259.486 76.5462 259.069 77.1652 258.784 77.8473C258.499 78.5294 258.351 79.2611 258.35 80.0004V343.28C258.35 344.768 258.941 346.195 259.993 347.247C261.045 348.299 262.472 348.89 263.96 348.89H444.71C446.198 348.89 447.625 348.299 448.677 347.247C449.729 346.195 450.32 344.768 450.32 343.28V80.0004C450.32 78.5125 449.729 77.0856 448.677 76.0335C447.625 74.9814 446.198 74.3904 444.71 74.3904L264 74.4004Z" fill="#F0F0F0"/>
<path d="M236.28 349.141H55.53C53.9767 349.138 52.4877 348.52 51.3893 347.421C50.2909 346.323 49.6727 344.834 49.67 343.281V80.0006C49.6727 78.4473 50.2909 76.9583 51.3893 75.8599C52.4877 74.7615 53.9767 74.1433 55.53 74.1406H236.28C237.833 74.1433 239.322 74.7615 240.421 75.8599C241.519 76.9583 242.137 78.4473 242.14 80.0006V343.281C242.137 344.834 241.519 346.323 240.421 347.421C239.322 348.52 237.833 349.138 236.28 349.141ZM55.53 74.4006C54.0439 74.4006 52.6185 74.9903 51.5667 76.0402C50.5149 77.0901 49.9227 78.5145 49.92 80.0006V343.281C49.92 344.768 50.5111 346.195 51.5632 347.247C52.6153 348.3 54.0422 348.891 55.53 348.891H236.28C237.768 348.891 239.195 348.3 240.247 347.247C241.299 346.195 241.89 344.768 241.89 343.281V80.0006C241.89 78.5128 241.299 77.0858 240.247 76.0338C239.195 74.9817 237.768 74.3906 236.28 74.3906L55.53 74.4006Z" fill="#F0F0F0"/>
<path d="M500 410.211H0V410.461H500V410.211Z" fill="#F0F0F0"/>
<path d="M127.77 89.3398H63.15V246.15H127.77V89.3398Z" fill="#F0F0F0"/>
<path d="M120.49 238.871L120.49 96.6211H70.43V238.871H120.49Z" fill="white"/>
<path d="M113.39 105.471H77.76V230.021H113.39V105.471Z" fill="#F5F5F5"/>
<path d="M92.46 178.7C99.833 178.7 105.81 172.723 105.81 165.35C105.81 157.977 99.833 152 92.46 152C85.087 152 79.11 157.977 79.11 165.35C79.11 172.723 85.087 178.7 92.46 178.7Z" fill="white"/>
<path d="M87.67 167.74C87.67 167.74 99 150.94 113.38 149.74V213C113.38 213 83.64 180.8 87.67 167.74Z" fill="#E0E0E0"/>
<path d="M77.76 163.89C77.76 163.89 84.68 161.95 97.92 177.73C110.35 192.52 113.38 211.54 113.38 211.54V230H77.76V163.89Z" fill="#E6E6E6"/>
<path d="M443.4 89.4512H397.89V134.961H443.4V89.4512Z" fill="#F0F0F0"/>
<path d="M439.51 93.3398H401.78V131.07H439.51V93.3398Z" fill="white"/>
<path d="M435.45 97.9609H405.83V126.451H435.45V97.9609Z" fill="#F5F5F5"/>
<path d="M420.64 120.471C425.704 120.471 429.81 116.365 429.81 111.301C429.81 106.236 425.704 102.131 420.64 102.131C415.576 102.131 411.47 106.236 411.47 111.301C411.47 116.365 415.576 120.471 420.64 120.471Z" fill="white"/>
<path d="M418.59 111.681C418.59 111.681 425.59 104.681 435.44 105.121V126.451L418.59 111.681Z" fill="#E0E0E0"/>
<path d="M405.83 107.322C408.78 106.928 411.779 107.158 414.634 107.999C417.489 108.84 420.135 110.272 422.4 112.202C427.309 116.407 431.691 121.192 435.45 126.452H405.83V107.322Z" fill="#E6E6E6"/>
<path d="M448.17 398.741L454.56 303.391H380.99L387.38 398.741H448.17Z" fill="#F0F0F0"/>
<path d="M453.95 312.361L381.89 316.521L381.37 308.961H454.18L453.95 312.361Z" fill="#E0E0E0"/>
<path d="M455.33 300.611H380.23C378.214 300.611 376.58 302.246 376.58 304.261V305.311C376.58 307.327 378.214 308.961 380.23 308.961H455.33C457.346 308.961 458.98 307.327 458.98 305.311V304.261C458.98 302.246 457.346 300.611 455.33 300.611Z" fill="#F0F0F0"/>
<path d="M446.32 324.301L444.51 356.171H391.04L389.23 324.301H446.32Z" fill="#E0E0E0"/>
<path d="M420.45 341.551C420.45 342.079 420.293 342.595 420 343.034C419.707 343.473 419.29 343.816 418.802 344.018C418.314 344.22 417.777 344.273 417.259 344.17C416.741 344.067 416.265 343.812 415.892 343.439C415.519 343.065 415.264 342.59 415.161 342.072C415.058 341.554 415.111 341.017 415.313 340.529C415.515 340.041 415.858 339.624 416.297 339.331C416.736 339.037 417.252 338.881 417.78 338.881C418.131 338.881 418.478 338.95 418.802 339.084C419.126 339.218 419.42 339.415 419.668 339.663C419.916 339.911 420.113 340.205 420.247 340.529C420.381 340.853 420.45 341.2 420.45 341.551Z" fill="#F0F0F0"/>
<path d="M443.81 363.641L442.16 392.701H393.4L391.75 363.641H443.81Z" fill="#E0E0E0"/>
<path d="M420.45 379.221C420.452 379.749 420.297 380.266 420.005 380.707C419.713 381.147 419.296 381.491 418.809 381.694C418.321 381.898 417.784 381.952 417.265 381.85C416.747 381.749 416.27 381.495 415.896 381.122C415.521 380.749 415.266 380.273 415.162 379.755C415.058 379.237 415.11 378.7 415.312 378.211C415.514 377.723 415.856 377.305 416.296 377.011C416.735 376.717 417.251 376.561 417.78 376.561C418.486 376.561 419.164 376.84 419.664 377.339C420.165 377.838 420.447 378.514 420.45 379.221Z" fill="#F0F0F0"/>
<path d="M394.36 410.21C395.319 406.925 397.311 404.037 400.039 401.971C402.767 399.905 406.088 398.773 409.51 398.74H387.43L387.88 410.21H394.36Z" fill="#E0E0E0"/>
<path d="M441.22 410.21H447.68L448.14 398.74H426.07C429.49 398.782 432.806 399.918 435.532 401.983C438.259 404.047 440.252 406.93 441.22 410.21Z" fill="#E0E0E0"/>
<path d="M421.31 291.2V283.42C421.313 282.05 421.858 280.736 422.827 279.767C423.796 278.798 425.11 278.253 426.48 278.25H433.07C434.44 278.253 435.754 278.798 436.723 279.767C437.692 280.736 438.237 282.05 438.24 283.42V291.2C438.237 292.57 437.692 293.884 436.723 294.853C435.754 295.822 434.44 296.367 433.07 296.37H426.48C425.11 296.367 423.796 295.822 422.827 294.853C421.858 293.884 421.313 292.57 421.31 291.2ZM426.48 280.91C425.814 280.91 425.176 281.174 424.705 281.645C424.235 282.116 423.97 282.754 423.97 283.42V291.2C423.97 291.867 424.234 292.506 424.705 292.978C425.175 293.451 425.813 293.717 426.48 293.72H433.07C433.738 293.72 434.379 293.454 434.852 292.982C435.325 292.509 435.59 291.868 435.59 291.2V283.42C435.59 283.09 435.525 282.762 435.398 282.457C435.271 282.152 435.086 281.875 434.851 281.642C434.617 281.408 434.339 281.224 434.034 281.098C433.728 280.973 433.401 280.909 433.07 280.91H426.48Z" fill="#E0E0E0"/>
<path d="M427.26 300.781C433.692 301.141 440.138 301.141 446.57 300.781V274.341C440.141 273.891 433.689 273.891 427.26 274.341V300.781Z" fill="#E0E0E0"/>
<path d="M296.5 405.111H283.9V410.221H296.5V405.111Z" fill="#E0E0E0"/>
<path d="M312.12 393.081C312.12 393.321 312.07 393.561 312.04 393.801C311.897 394.858 311.656 395.899 311.32 396.911C310.73 398.755 309.804 400.474 308.59 401.981C308.45 402.161 308.3 402.341 308.14 402.511C306.205 404.633 303.762 406.226 301.04 407.141C300.82 407.231 300.59 407.301 300.37 407.381C297.078 408.385 293.638 408.818 290.2 408.661C287.14 408.781 281.2 408.561 276.29 405.741L275.69 405.381C273.322 403.929 271.398 401.853 270.13 399.381C270.02 399.171 269.91 398.941 269.8 398.711C269.53 398.118 269.293 397.511 269.09 396.891C268.416 394.901 268.128 392.8 268.24 390.701C268.24 390.451 268.24 390.191 268.31 389.951C269.4 380.061 279.83 374.441 279.83 374.441H300.58C300.58 374.441 300.91 374.621 301.45 374.971C301.65 375.091 301.87 375.231 302.11 375.401C305.44 377.681 313 383.851 312.12 393.081Z" fill="#E0E0E0"/>
<path d="M274 353.911C274 353.911 281.29 351.251 283.17 358.971C285.05 366.691 290.46 364.701 291.48 362.971C293.48 359.641 293.78 347.581 290.31 346.861C286.14 346.001 275.41 350.391 274 353.911Z" fill="#E0E0E0"/>
<path d="M290.27 346.891C281.73 347.011 279.46 354.521 278.09 361.131L275.31 356.001L277.31 365.201C277.1 366.201 276.88 367.141 276.63 367.951C275.954 369.907 274.847 371.686 273.392 373.158C271.936 374.629 270.169 375.754 268.22 376.451C268.22 376.451 267.84 373.801 267.5 370.091L270.61 365.201L267.23 366.621C266.85 360.791 266.8 353.771 268.23 349.781C270.97 342.061 278.34 344.431 278.34 344.431L290.27 346.891Z" fill="#F0F0F0"/>
<path d="M311.57 338.781C311.57 338.781 307.09 337.431 302.39 343.841C297.87 350.021 296.06 350.741 293 348.341C289.94 345.941 291.78 332.481 295.25 331.761C299.39 330.891 310.11 335.261 311.57 338.781Z" fill="#E0E0E0"/>
<path d="M326 373.841C322.256 372.47 318.993 370.038 316.61 366.841L321.55 355.241L314.77 363.681C314.479 363.03 314.225 362.362 314.01 361.681C311.07 352.381 311.67 332.181 294.78 331.931L311.57 328.101C311.57 328.101 322.09 324.711 326 335.731C327.063 339.241 327.625 342.884 327.67 346.551L321.55 340.881C321.55 340.881 325.79 347.041 327.74 349.611C327.69 357.717 327.109 365.811 326 373.841Z" fill="#F0F0F0"/>
<path d="M268.84 320.89C268.84 320.89 276.13 318.23 278.01 325.95C279.89 333.67 289.39 336.62 290.37 332.84C291.37 328.84 289.11 314.48 285.64 313.75C281.5 312.89 270.29 317.37 268.84 320.89Z" fill="#E0E0E0"/>
<path d="M286 313.821C272.19 314.021 269.88 327.711 267.88 337.821L260.88 327.671C260.97 327.961 264.7 340.071 266.14 344.871C262.89 353.351 254.51 355.981 254.51 355.981C254.51 355.981 252.16 339.771 252.92 327.331C254.98 325.631 258.61 322.581 258.61 322.581L253.22 323.911C253.43 321.87 253.863 319.858 254.51 317.911C258.43 306.911 268.94 310.281 268.94 310.281L286 313.821Z" fill="#F0F0F0"/>
<path d="M289.67 374.461H291.49C293.832 357.868 293.495 341.007 290.49 324.521C289.292 317.511 287.403 310.638 284.85 304.001C284.756 303.781 284.578 303.607 284.356 303.518C284.134 303.429 283.885 303.432 283.665 303.526C283.445 303.62 283.271 303.798 283.182 304.02C283.093 304.242 283.096 304.491 283.19 304.711C285.683 311.218 287.532 317.953 288.71 324.821C291.706 341.207 292.031 357.971 289.67 374.461Z" fill="#E0E0E0"/>
<path d="M179.82 295.33H156.95C156.63 295.33 156.37 295.59 156.37 295.91V302.08C156.37 302.4 156.63 302.66 156.95 302.66H179.82C180.14 302.66 180.4 302.4 180.4 302.08V295.91C180.4 295.59 180.14 295.33 179.82 295.33Z" fill="#F5F5F5"/>
<path d="M206.71 295.33H183.84C183.52 295.33 183.26 295.59 183.26 295.91V302.08C183.26 302.4 183.52 302.66 183.84 302.66H206.71C207.03 302.66 207.29 302.4 207.29 302.08V295.91C207.29 295.59 207.03 295.33 206.71 295.33Z" fill="#F5F5F5"/>
<path d="M193.26 304.311H170.39C170.07 304.311 169.81 304.57 169.81 304.891V311.071C169.81 311.391 170.07 311.651 170.39 311.651H193.26C193.58 311.651 193.84 311.391 193.84 311.071V304.891C193.84 304.57 193.58 304.311 193.26 304.311Z" fill="#F5F5F5"/>
<path d="M439.47 148.061H416.6C416.28 148.061 416.02 148.32 416.02 148.641V154.821C416.02 155.141 416.28 155.401 416.6 155.401H439.47C439.79 155.401 440.05 155.141 440.05 154.821V148.641C440.05 148.32 439.79 148.061 439.47 148.061Z" fill="#F5F5F5"/>
<path d="M426.02 157.041H403.15C402.83 157.041 402.57 157.301 402.57 157.621V163.801C402.57 164.121 402.83 164.381 403.15 164.381H426.02C426.34 164.381 426.6 164.121 426.6 163.801V157.621C426.6 157.301 426.34 157.041 426.02 157.041Z" fill="#F5F5F5"/>
<path d="M459.67 454.189C459.67 458.029 367.94 461.189 254.79 461.189C141.64 461.189 49.92 458.069 49.92 454.189C49.92 450.309 141.65 447.189 254.79 447.189C367.93 447.189 459.67 450.339 459.67 454.189Z" fill="#F0F0F0"/>
<path d="M161 419.91L161.58 423.19L161.7 423.87L163.33 433.13L163.46 433.89L166.46 450.65C166.509 450.925 166.579 451.196 166.67 451.46C166.759 451.719 166.87 451.97 167 452.21C167.449 453.054 168.119 453.759 168.938 454.251C169.757 454.742 170.695 455.001 171.65 455H195.26C196.498 454.998 197.696 454.562 198.644 453.767C199.593 452.972 200.232 451.869 200.45 450.65L201.59 444.19L201.71 443.5L203.39 433.96L203.62 432.64L204.35 428.53L204.48 427.75L205.86 419.91H161Z" fill="#263238"/>
<path d="M184.4 419.909C183.124 415.251 181.315 410.754 179.01 406.509C178.78 406.079 178.13 406.459 178.36 406.889C180.601 411.009 182.366 415.37 183.62 419.889L184.4 419.909Z" fill="#2F3026"/>
<path d="M181.83 370.059C183.601 385.962 184.019 401.986 183.08 417.959C183.08 418.439 183.8 418.439 183.83 417.959C184.769 401.986 184.351 385.962 182.58 370.059C182.53 369.579 181.78 369.579 181.83 370.059Z" fill="#2F3026"/>
<path d="M183.15 380.229C183.15 380.229 189.4 371.389 189.35 365.889C189.29 359.689 186.02 360.569 186.02 360.569C186.02 360.569 187.31 341.729 182.81 340.819C182.81 340.819 182.02 325.309 175.53 327.389C169.04 329.469 172 342.819 172 342.819C170.869 344.183 170.13 345.828 169.86 347.579C169.19 352.859 174.11 361.669 174.11 361.669C174.11 361.669 171.11 363.319 172.11 367.869C173.11 372.419 183.21 380.229 183.21 380.229H183.15Z" fill="#0B3555"/>
<path d="M178 341.449C180.627 354.981 182.298 368.682 183 382.449C183 382.929 183.78 382.929 183.75 382.449C183.051 368.629 181.38 354.875 178.75 341.289C178.66 340.809 177.93 341.009 178.03 341.489L178 341.449Z" fill="#263238"/>
<path d="M183.49 416.27C183.49 416.27 170.07 411.97 168.69 407.18C167.31 402.39 168.69 400.39 168.69 400.39C168.69 400.39 158.53 386.39 161.92 383.26C161.92 383.26 154.66 369.54 161.3 367.99C167.94 366.44 172.25 379.43 172.25 379.43C173.921 380.026 175.4 381.063 176.53 382.43C179.81 386.62 180.1 396.71 180.1 396.71C180.1 396.71 181.97 395.71 183.51 400.04C185.05 404.37 183.51 416.29 183.51 416.29L183.49 416.27Z" fill="#0B3555"/>
<path d="M168.52 385.44C174.079 395.977 178.917 406.878 183 418.07C183.17 418.52 183.89 418.33 183.73 417.87C179.606 406.619 174.732 395.658 169.14 385.06C168.92 384.63 168.27 385.01 168.49 385.44H168.52Z" fill="#263238"/>
<path d="M186.71 403.519C186.71 403.519 199.71 398.009 200.63 393.119C201.55 388.229 200.02 386.359 200.02 386.359C200.02 386.359 208.87 371.449 205.21 368.689C205.21 368.689 211.21 354.359 204.44 353.419C197.67 352.479 194.57 365.809 194.57 365.809C192.957 366.546 191.575 367.708 190.57 369.169C187.68 373.639 188.31 383.709 188.31 383.709C188.31 383.709 186.31 382.839 185.21 387.339C184.11 391.839 186.69 403.519 186.69 403.519H186.71Z" fill="#0B3555"/>
<path d="M200 367.099C191.642 383.661 186.142 401.515 183.73 419.909H184.48C186.878 401.646 192.345 383.92 200.65 367.479C200.87 367.049 200.22 366.669 200 367.099Z" fill="#263238"/>
<path d="M386.26 114.43H136.15V274.38H386.26V114.43Z" fill="#0B3555"/>
<path opacity="0.6" d="M386.26 114.43H136.15V274.38H386.26V114.43Z" fill="white"/>
<path opacity="0.7" d="M380.95 268.56V120.24L141.47 120.24V268.56H380.95Z" fill="white"/>
<path d="M170.65 153.19C168.21 151.83 152.25 142.52 158.65 133.98C161.88 129.65 169.03 131.76 170.65 135.4C172.27 131.76 179.42 129.65 182.65 133.98C189.06 142.52 173.1 151.83 170.65 153.19Z" fill="#0B3555"/>
<path d="M173 134.78C173.002 135.254 172.863 135.717 172.602 136.111C172.341 136.505 171.968 136.813 171.532 136.996C171.095 137.178 170.614 137.227 170.15 137.136C169.686 137.045 169.259 136.818 168.924 136.484C168.588 136.15 168.36 135.724 168.267 135.26C168.174 134.796 168.22 134.315 168.401 133.878C168.582 133.441 168.888 133.067 169.281 132.804C169.674 132.541 170.137 132.4 170.61 132.4C171.242 132.4 171.848 132.651 172.296 133.097C172.744 133.543 172.997 134.148 173 134.78Z" fill="#0B3555"/>
<path opacity="0.3" d="M173 134.78C173.002 135.254 172.863 135.717 172.602 136.111C172.341 136.505 171.968 136.813 171.532 136.996C171.095 137.178 170.614 137.227 170.15 137.136C169.686 137.045 169.259 136.818 168.924 136.484C168.588 136.15 168.36 135.724 168.267 135.26C168.174 134.796 168.22 134.315 168.401 133.878C168.582 133.441 168.888 133.067 169.281 132.804C169.674 132.541 170.137 132.4 170.61 132.4C171.242 132.4 171.848 132.651 172.296 133.097C172.744 133.543 172.997 134.148 173 134.78Z" fill="black"/>
<path d="M291.27 223.13C288.82 221.77 272.86 212.46 279.27 203.92C282.5 199.58 289.65 201.7 291.27 205.34C292.88 201.7 300.03 199.58 303.27 203.92C309.67 212.46 293.71 221.77 291.27 223.13Z" fill="#0B3555"/>
<path opacity="0.5" d="M291.27 223.13C288.82 221.77 272.86 212.46 279.27 203.92C282.5 199.58 289.65 201.7 291.27 205.34C292.88 201.7 300.03 199.58 303.27 203.92C309.67 212.46 293.71 221.77 291.27 223.13Z" fill="white"/>
<path d="M293.65 204.72C293.648 205.19 293.507 205.65 293.244 206.04C292.981 206.43 292.609 206.733 292.174 206.912C291.739 207.09 291.261 207.136 290.8 207.043C290.339 206.95 289.915 206.723 289.584 206.389C289.252 206.056 289.026 205.632 288.935 205.171C288.844 204.709 288.892 204.231 289.072 203.797C289.253 203.363 289.558 202.992 289.949 202.73C290.34 202.469 290.8 202.33 291.27 202.33C291.902 202.333 292.507 202.586 292.954 203.034C293.4 203.482 293.65 204.088 293.65 204.72Z" fill="#0B3555"/>
<path opacity="0.3" d="M293.65 204.72C293.648 205.19 293.507 205.65 293.244 206.04C292.981 206.43 292.609 206.733 292.174 206.912C291.739 207.09 291.261 207.136 290.8 207.043C290.339 206.95 289.915 206.723 289.584 206.389C289.252 206.056 289.026 205.632 288.935 205.171C288.844 204.709 288.892 204.231 289.072 203.797C289.253 203.363 289.558 202.992 289.949 202.73C290.34 202.469 290.8 202.33 291.27 202.33C291.902 202.333 292.507 202.586 292.954 203.034C293.4 203.482 293.65 204.088 293.65 204.72Z" fill="black"/>
<path d="M184.87 166.869H152.1V199.639H184.87V166.869Z" fill="#0B3555"/>
<path d="M181.78 196.561V169.971H155.19V196.561H181.78Z" fill="#0B3555"/>
<path opacity="0.2" d="M181.78 169.971H155.19V196.551H181.78V169.971Z" fill="white"/>
<path opacity="0.8" d="M176.71 180.06C176.712 180.897 176.465 181.717 176.001 182.414C175.537 183.111 174.877 183.655 174.103 183.976C173.33 184.297 172.479 184.382 171.657 184.219C170.836 184.056 170.081 183.653 169.489 183.061C168.897 182.469 168.494 181.714 168.331 180.893C168.168 180.071 168.253 179.22 168.574 178.446C168.895 177.673 169.439 177.013 170.136 176.549C170.833 176.085 171.653 175.838 172.49 175.84C173.609 175.84 174.683 176.284 175.474 177.076C176.265 177.867 176.71 178.941 176.71 180.06Z" fill="white"/>
<path d="M217.44 143.51V159.11H201.84V146.4C202.18 145.7 202.666 145.08 203.264 144.581C203.862 144.083 204.56 143.718 205.31 143.51H217.44Z" fill="#0B3555"/>
<path opacity="0.3" d="M205.31 143.51V146.82L201.84 146.4C202.18 145.7 202.666 145.08 203.264 144.581C203.862 144.083 204.56 143.718 205.31 143.51Z" fill="black"/>
<path opacity="0.5" d="M211.11 145.85L211.82 141.08H208.57L208.9 145.85H211.11Z" fill="white"/>
<path d="M248.17 140.721V156.321H232.57V143.611C232.91 142.91 233.396 142.291 233.994 141.792C234.592 141.294 235.29 140.929 236.04 140.721H248.17Z" fill="#0B3555"/>
<path opacity="0.5" d="M248.17 140.721V156.321H232.57V143.611C232.91 142.91 233.396 142.291 233.994 141.792C234.592 141.294 235.29 140.929 236.04 140.721H248.17Z" fill="white"/>
<path d="M236 140.721V144.001L232.53 143.581C232.874 142.886 233.361 142.272 233.959 141.779C234.557 141.286 235.253 140.925 236 140.721Z" fill="#0B3555"/>
<path opacity="0.5" d="M241.83 143.061L242.55 138.301H239.3L239.63 143.061H241.83Z" fill="white"/>
<path d="M234 166.529V182.129H218.4V169.419C218.74 168.719 219.226 168.099 219.824 167.601C220.422 167.103 221.12 166.737 221.87 166.529H234Z" fill="#0B3555"/>
<path opacity="0.3" d="M234 166.529V182.129H218.4V169.419C218.74 168.719 219.226 168.099 219.824 167.601C220.422 167.103 221.12 166.737 221.87 166.529H234Z" fill="white"/>
<path d="M221.83 166.529V169.839L218.36 169.419C218.7 168.719 219.186 168.099 219.784 167.601C220.382 167.103 221.08 166.737 221.83 166.529Z" fill="#0B3555"/>
<path opacity="0.5" d="M227.63 168.87L228.34 164.1H225.09L225.42 168.87H227.63Z" fill="white"/>
<path d="M170.65 166.45C170.65 166.921 170.51 167.381 170.249 167.773C169.987 168.164 169.616 168.469 169.181 168.649C168.746 168.829 168.267 168.876 167.806 168.785C167.344 168.693 166.92 168.466 166.587 168.133C166.254 167.8 166.028 167.376 165.936 166.915C165.844 166.453 165.891 165.974 166.071 165.54C166.251 165.105 166.556 164.733 166.948 164.471C167.339 164.21 167.799 164.07 168.27 164.07C168.901 164.07 169.507 164.321 169.953 164.767C170.399 165.214 170.65 165.819 170.65 166.45Z" fill="#0B3555"/>
<path opacity="0.3" d="M170.65 166.45C170.65 166.921 170.51 167.381 170.249 167.773C169.987 168.164 169.616 168.469 169.181 168.649C168.746 168.829 168.267 168.876 167.806 168.785C167.344 168.693 166.92 168.466 166.587 168.133C166.254 167.8 166.028 167.376 165.936 166.915C165.844 166.453 165.891 165.974 166.071 165.54C166.251 165.105 166.556 164.733 166.948 164.471C167.339 164.21 167.799 164.07 168.27 164.07C168.901 164.07 169.507 164.321 169.953 164.767C170.399 165.214 170.65 165.819 170.65 166.45Z" fill="black"/>
<path d="M260.04 255.811L240.37 254.241L241.79 230.521L259.79 227.971L260.04 255.811Z" fill="#0B3555"/>
<path d="M281.88 255.811L262.51 254.241L265.65 229.961L282.71 231.701L281.88 255.811Z" fill="#0B3555"/>
<g opacity="0.1">
<path d="M281.88 255.811L262.51 254.241L265.65 229.961L282.71 231.701L281.88 255.811Z" fill="white"/>
</g>
<path d="M304.8 254.241L286.81 255.811L284.57 231.701L303.02 229.301L304.8 254.241Z" fill="#0B3555"/>
<path d="M307.04 254.42L326.52 257.77L329.58 231.88L311.47 229.48L307.04 254.42Z" fill="#0B3555"/>
<g opacity="0.2">
<path d="M307.04 254.42L326.52 257.77L329.58 231.88L311.47 229.48L307.04 254.42Z" fill="black"/>
</g>
<path d="M255.92 242C255.666 243.503 254.879 244.865 253.704 245.836C252.529 246.807 251.044 247.324 249.52 247.29H245.13L247 236.74H251.38C254.74 236.74 256.46 238.94 255.92 242ZM249.74 244.35C250.423 244.391 251.096 244.172 251.623 243.735C252.151 243.299 252.493 242.679 252.58 242C252.676 241.706 252.695 241.392 252.635 241.088C252.575 240.784 252.438 240.501 252.238 240.265C252.037 240.03 251.779 239.849 251.489 239.742C251.199 239.634 250.886 239.602 250.58 239.65H249.79L248.96 244.35H249.74Z" fill="white"/>
<path d="M273.94 236.74C276.59 236.74 277.94 238.25 277.94 240.19C277.945 240.87 277.725 241.533 277.314 242.076C276.904 242.618 276.326 243.01 275.67 243.19L277.96 247.19H274.33L272.33 243.42V247.19H269V236.74H273.94ZM273.64 239.5H272.34V241.29H273.64C274.27 241.29 274.64 241.02 274.64 240.39C274.648 240.261 274.627 240.133 274.578 240.013C274.529 239.894 274.453 239.787 274.357 239.702C274.26 239.616 274.146 239.553 274.022 239.518C273.897 239.483 273.767 239.477 273.64 239.5Z" fill="#263238"/>
<path d="M297.29 238.559H293.35V241.169H296.84V242.819H293.35V245.569H297.29V247.259H291.29V236.869H297.29V238.559Z" fill="white"/>
<path d="M353.93 254.321L334.31 255.891L331.87 231.781L351.99 229.381L353.93 254.321Z" fill="#0B3555"/>
<path d="M337.91 237H340.91L342.58 244.23L346.74 237H349.74L347.9 247.44H345.35L346.47 241.18L343 247.44H341L339.75 241.15L338.65 247.44H336.11L337.91 237Z" fill="#0B3555"/>
<g opacity="0.6">
<path d="M337.91 237H340.91L342.58 244.23L346.74 237H349.74L347.9 247.44H345.35L346.47 241.18L343 247.44H341L339.75 241.15L338.65 247.44H336.11L337.91 237Z" fill="black"/>
</g>
<path d="M319.72 245.85H316.21L315.4 247.44H311.94L317.65 236.91H321.45L323.45 247.44H320L319.72 245.85ZM318.93 240.44L317.45 243.37H319.36L318.93 240.44Z" fill="#0B3555"/>
<g opacity="0.6">
<path d="M319.72 245.85H316.21L315.4 247.44H311.94L317.65 236.91H321.45L323.45 247.44H320L319.72 245.85ZM318.93 240.44L317.45 243.37H319.36L318.93 240.44Z" fill="white"/>
</g>
<path d="M181.78 179.51V196.55H155.19V191.41L163.82 182.44L172.49 190.14L181.78 179.51Z" fill="#0B3555"/>
<path opacity="0.5" d="M181.78 179.51V196.55H155.19V191.41L163.82 182.44L172.49 190.14L181.78 179.51Z" fill="white"/>
<path d="M347.86 173.83V204.78H322.41V173.83H324.66C324.45 174.078 324.336 174.395 324.34 174.72C324.34 175.118 324.498 175.499 324.779 175.781C325.061 176.062 325.442 176.22 325.84 176.22C326.238 176.22 326.619 176.062 326.901 175.781C327.182 175.499 327.34 175.118 327.34 174.72C327.343 174.396 327.233 174.082 327.03 173.83H328.53C328.334 174.085 328.229 174.398 328.23 174.72C328.213 174.923 328.239 175.126 328.305 175.319C328.371 175.511 328.476 175.687 328.614 175.837C328.751 175.986 328.918 176.106 329.105 176.187C329.291 176.269 329.492 176.311 329.695 176.311C329.898 176.311 330.099 176.269 330.285 176.187C330.472 176.106 330.639 175.986 330.776 175.837C330.914 175.687 331.019 175.511 331.085 175.319C331.151 175.126 331.177 174.923 331.16 174.72C331.162 174.398 331.056 174.085 330.86 173.83H332.36C332.164 174.085 332.059 174.398 332.06 174.72C332.06 175.11 332.215 175.484 332.491 175.76C332.766 176.035 333.14 176.19 333.53 176.19C333.92 176.19 334.294 176.035 334.569 175.76C334.845 175.484 335 175.11 335 174.72C335.003 174.396 334.893 174.082 334.69 173.83H336.19C335.987 174.082 335.877 174.396 335.88 174.72C335.863 174.924 335.889 175.129 335.955 175.323C336.022 175.516 336.128 175.694 336.266 175.844C336.405 175.995 336.573 176.115 336.761 176.197C336.948 176.279 337.15 176.322 337.355 176.322C337.56 176.322 337.762 176.279 337.949 176.197C338.137 176.115 338.305 175.995 338.444 175.844C338.582 175.694 338.688 175.516 338.755 175.323C338.821 175.129 338.847 174.924 338.83 174.72C338.834 174.395 338.721 174.078 338.51 173.83H340C339.797 174.082 339.687 174.396 339.69 174.72C339.69 175.11 339.845 175.484 340.121 175.76C340.396 176.035 340.77 176.19 341.16 176.19C341.55 176.19 341.924 176.035 342.199 175.76C342.475 175.484 342.63 175.11 342.63 174.72C342.633 174.396 342.523 174.082 342.32 173.83H343.83C343.627 174.082 343.517 174.396 343.52 174.72C343.52 175.11 343.675 175.484 343.951 175.76C344.226 176.035 344.6 176.19 344.99 176.19C345.38 176.19 345.754 176.035 346.029 175.76C346.305 175.484 346.46 175.11 346.46 174.72C346.463 174.396 346.353 174.082 346.15 173.83H347.86Z" fill="#0B3555"/>
<path opacity="0.5" d="M347.86 173.83V204.78H322.41V173.83H324.66C324.45 174.078 324.336 174.395 324.34 174.72C324.34 175.118 324.498 175.499 324.779 175.781C325.061 176.062 325.442 176.22 325.84 176.22C326.238 176.22 326.619 176.062 326.901 175.781C327.182 175.499 327.34 175.118 327.34 174.72C327.343 174.396 327.233 174.082 327.03 173.83H328.53C328.334 174.085 328.229 174.398 328.23 174.72C328.213 174.923 328.239 175.126 328.305 175.319C328.371 175.511 328.476 175.687 328.614 175.837C328.751 175.986 328.918 176.106 329.105 176.187C329.291 176.269 329.492 176.311 329.695 176.311C329.898 176.311 330.099 176.269 330.285 176.187C330.472 176.106 330.639 175.986 330.776 175.837C330.914 175.687 331.019 175.511 331.085 175.319C331.151 175.126 331.177 174.923 331.16 174.72C331.162 174.398 331.056 174.085 330.86 173.83H332.36C332.164 174.085 332.059 174.398 332.06 174.72C332.06 175.11 332.215 175.484 332.491 175.76C332.766 176.035 333.14 176.19 333.53 176.19C333.92 176.19 334.294 176.035 334.569 175.76C334.845 175.484 335 175.11 335 174.72C335.003 174.396 334.893 174.082 334.69 173.83H336.19C335.987 174.082 335.877 174.396 335.88 174.72C335.863 174.924 335.889 175.129 335.955 175.323C336.022 175.516 336.128 175.694 336.266 175.844C336.405 175.995 336.573 176.115 336.761 176.197C336.948 176.279 337.15 176.322 337.355 176.322C337.56 176.322 337.762 176.279 337.949 176.197C338.137 176.115 338.305 175.995 338.444 175.844C338.582 175.694 338.688 175.516 338.755 175.323C338.821 175.129 338.847 174.924 338.83 174.72C338.834 174.395 338.721 174.078 338.51 173.83H340C339.797 174.082 339.687 174.396 339.69 174.72C339.69 175.11 339.845 175.484 340.121 175.76C340.396 176.035 340.77 176.19 341.16 176.19C341.55 176.19 341.924 176.035 342.199 175.76C342.475 175.484 342.63 175.11 342.63 174.72C342.633 174.396 342.523 174.082 342.32 173.83H343.83C343.627 174.082 343.517 174.396 343.52 174.72C343.52 175.11 343.675 175.484 343.951 175.76C344.226 176.035 344.6 176.19 344.99 176.19C345.38 176.19 345.754 176.035 346.029 175.76C346.305 175.484 346.46 175.11 346.46 174.72C346.463 174.396 346.353 174.082 346.15 173.83H347.86Z" fill="white"/>
<path d="M335.45 176.56C336.593 176.56 337.52 175.633 337.52 174.49C337.52 173.347 336.593 172.42 335.45 172.42C334.307 172.42 333.38 173.347 333.38 174.49C333.38 175.633 334.307 176.56 335.45 176.56Z" fill="#0B3555"/>
<path opacity="0.3" d="M335.45 176.56C336.593 176.56 337.52 175.633 337.52 174.49C337.52 173.347 336.593 172.42 335.45 172.42C334.307 172.42 333.38 173.347 333.38 174.49C333.38 175.633 334.307 176.56 335.45 176.56Z" fill="black"/>
<path d="M345.53 180.77H324.74V181.21H345.53V180.77Z" fill="#0B3555"/>
<path d="M345.53 183.359H324.74V183.799H345.53V183.359Z" fill="#0B3555"/>
<path d="M345.53 185.961H324.74V186.401H345.53V185.961Z" fill="#0B3555"/>
<path d="M345.53 188.551H324.74V188.991H345.53V188.551Z" fill="#0B3555"/>
<path d="M345.53 191.141H324.74V191.581H345.53V191.141Z" fill="#0B3555"/>
<path d="M345.53 193.73H324.74V194.17H345.53V193.73Z" fill="#0B3555"/>
<path d="M345.53 196.32H324.74V196.76H345.53V196.32Z" fill="#0B3555"/>
<path d="M345.53 198.91H324.74V199.35H345.53V198.91Z" fill="#0B3555"/>
<path d="M261.68 187.24V218.18H236.22V187.24H238.47C238.265 187.491 238.156 187.806 238.16 188.13C238.16 188.52 238.315 188.894 238.591 189.17C238.866 189.445 239.24 189.6 239.63 189.6C240.02 189.6 240.394 189.445 240.669 189.17C240.945 188.894 241.1 188.52 241.1 188.13C241.103 187.808 240.997 187.495 240.8 187.24H242.3C242.095 187.491 241.986 187.806 241.99 188.13C241.99 188.52 242.145 188.894 242.421 189.17C242.696 189.445 243.07 189.6 243.46 189.6C243.85 189.6 244.224 189.445 244.499 189.17C244.775 188.894 244.93 188.52 244.93 188.13C244.934 187.806 244.825 187.491 244.62 187.24H246.13C245.925 187.491 245.816 187.806 245.82 188.13C245.82 188.52 245.975 188.894 246.251 189.17C246.526 189.445 246.9 189.6 247.29 189.6C247.68 189.6 248.054 189.445 248.329 189.17C248.605 188.894 248.76 188.52 248.76 188.13C248.764 187.806 248.655 187.491 248.45 187.24H250C249.803 187.495 249.697 187.808 249.7 188.13C249.7 188.52 249.855 188.894 250.131 189.17C250.406 189.445 250.78 189.6 251.17 189.6C251.56 189.6 251.934 189.445 252.209 189.17C252.485 188.894 252.64 188.52 252.64 188.13C252.644 187.806 252.535 187.491 252.33 187.24H253.84C253.628 187.488 253.514 187.804 253.52 188.13C253.52 188.528 253.678 188.91 253.959 189.191C254.241 189.472 254.622 189.63 255.02 189.63C255.418 189.63 255.799 189.472 256.081 189.191C256.362 188.91 256.52 188.528 256.52 188.13C256.526 187.804 256.412 187.488 256.2 187.24H257.72C257.508 187.488 257.394 187.804 257.4 188.13C257.43 188.5 257.599 188.846 257.872 189.097C258.146 189.349 258.503 189.489 258.875 189.489C259.246 189.489 259.604 189.349 259.878 189.097C260.151 188.846 260.319 188.5 260.35 188.13C260.356 187.804 260.242 187.488 260.03 187.24H261.68Z" fill="#0B3555"/>
<path opacity="0.5" d="M261.68 187.24V218.18H236.22V187.24H238.47C238.265 187.491 238.156 187.806 238.16 188.13C238.16 188.52 238.315 188.894 238.591 189.17C238.866 189.445 239.24 189.6 239.63 189.6C240.02 189.6 240.394 189.445 240.669 189.17C240.945 188.894 241.1 188.52 241.1 188.13C241.103 187.808 240.997 187.495 240.8 187.24H242.3C242.095 187.491 241.986 187.806 241.99 188.13C241.99 188.52 242.145 188.894 242.421 189.17C242.696 189.445 243.07 189.6 243.46 189.6C243.85 189.6 244.224 189.445 244.499 189.17C244.775 188.894 244.93 188.52 244.93 188.13C244.934 187.806 244.825 187.491 244.62 187.24H246.13C245.925 187.491 245.816 187.806 245.82 188.13C245.82 188.52 245.975 188.894 246.251 189.17C246.526 189.445 246.9 189.6 247.29 189.6C247.68 189.6 248.054 189.445 248.329 189.17C248.605 188.894 248.76 188.52 248.76 188.13C248.764 187.806 248.655 187.491 248.45 187.24H250C249.803 187.495 249.697 187.808 249.7 188.13C249.7 188.52 249.855 188.894 250.131 189.17C250.406 189.445 250.78 189.6 251.17 189.6C251.56 189.6 251.934 189.445 252.209 189.17C252.485 188.894 252.64 188.52 252.64 188.13C252.644 187.806 252.535 187.491 252.33 187.24H253.84C253.628 187.488 253.514 187.804 253.52 188.13C253.52 188.528 253.678 188.91 253.959 189.191C254.241 189.472 254.622 189.63 255.02 189.63C255.418 189.63 255.799 189.472 256.081 189.191C256.362 188.91 256.52 188.528 256.52 188.13C256.526 187.804 256.412 187.488 256.2 187.24H257.72C257.508 187.488 257.394 187.804 257.4 188.13C257.43 188.5 257.599 188.846 257.872 189.097C258.146 189.349 258.503 189.489 258.875 189.489C259.246 189.489 259.604 189.349 259.878 189.097C260.151 188.846 260.319 188.5 260.35 188.13C260.356 187.804 260.242 187.488 260.03 187.24H261.68Z" fill="white"/>
<path d="M251.33 187.89C251.332 188.3 251.212 188.701 250.986 189.043C250.76 189.385 250.437 189.651 250.059 189.81C249.681 189.968 249.264 190.01 248.862 189.932C248.46 189.853 248.09 189.656 247.8 189.367C247.509 189.078 247.311 188.709 247.23 188.308C247.15 187.906 247.19 187.489 247.347 187.11C247.503 186.731 247.768 186.408 248.109 186.18C248.449 185.952 248.85 185.83 249.26 185.83C249.531 185.829 249.8 185.881 250.051 185.984C250.302 186.087 250.531 186.238 250.723 186.43C250.915 186.621 251.068 186.849 251.172 187.099C251.276 187.35 251.33 187.619 251.33 187.89Z" fill="#0B3555"/>
<path opacity="0.3" d="M251.33 187.89C251.332 188.3 251.212 188.701 250.986 189.043C250.76 189.385 250.437 189.651 250.059 189.81C249.681 189.968 249.264 190.01 248.862 189.932C248.46 189.853 248.09 189.656 247.8 189.367C247.509 189.078 247.311 188.709 247.23 188.308C247.15 187.906 247.19 187.489 247.347 187.11C247.503 186.731 247.768 186.408 248.109 186.18C248.449 185.952 248.85 185.83 249.26 185.83C249.531 185.829 249.8 185.881 250.051 185.984C250.302 186.087 250.531 186.238 250.723 186.43C250.915 186.621 251.068 186.849 251.172 187.099C251.276 187.35 251.33 187.619 251.33 187.89Z" fill="black"/>
<path d="M259.35 194.18H238.56V194.62H259.35V194.18Z" fill="#0B3555"/>
<path d="M259.35 196.77H238.56V197.21H259.35V196.77Z" fill="#0B3555"/>
<path d="M259.35 199.359H238.56V199.799H259.35V199.359Z" fill="#0B3555"/>
<path d="M259.35 201.949H238.56V202.389H259.35V201.949Z" fill="#0B3555"/>
<path d="M259.35 204.539H238.56V204.979H259.35V204.539Z" fill="#0B3555"/>
<path d="M259.35 207.131H238.56V207.571H259.35V207.131Z" fill="#0B3555"/>
<path d="M259.35 209.721H238.56V210.161H259.35V209.721Z" fill="#0B3555"/>
<path d="M259.35 212.311H238.56V212.751H259.35V212.311Z" fill="#0B3555"/>
<path d="M198.19 221.519H151.65C151.308 221.519 150.98 221.384 150.738 221.142C150.496 220.9 150.36 220.572 150.36 220.229C150.36 219.887 150.496 219.559 150.738 219.317C150.98 219.075 151.308 218.939 151.65 218.939H198.19C198.533 218.939 198.862 219.075 199.106 219.317C199.349 219.558 199.487 219.886 199.49 220.229C199.487 220.572 199.349 220.901 199.106 221.142C198.862 221.384 198.533 221.519 198.19 221.519Z" fill="#0B3555"/>
<path d="M198.19 226H151.65C151.308 226 150.98 225.864 150.738 225.622C150.496 225.38 150.36 225.052 150.36 224.71C150.36 224.368 150.496 224.04 150.738 223.798C150.98 223.556 151.308 223.42 151.65 223.42H198.19C198.533 223.42 198.862 223.556 199.106 223.797C199.349 224.039 199.487 224.367 199.49 224.71C199.49 224.88 199.456 225.049 199.391 225.206C199.325 225.363 199.229 225.506 199.109 225.626C198.988 225.746 198.844 225.84 198.687 225.905C198.529 225.969 198.36 226.001 198.19 226Z" fill="#0B3555"/>
<path d="M198.19 245.49H151.65C151.307 245.488 150.979 245.35 150.737 245.106C150.496 244.863 150.36 244.533 150.36 244.19C150.36 243.848 150.496 243.52 150.738 243.278C150.98 243.036 151.308 242.9 151.65 242.9H198.19C198.533 242.9 198.862 243.036 199.106 243.278C199.349 243.519 199.487 243.847 199.49 244.19C199.49 244.535 199.353 244.866 199.109 245.11C198.865 245.353 198.535 245.49 198.19 245.49Z" fill="#0B3555"/>
<path d="M198.19 249.56H151.65C151.308 249.56 150.98 249.425 150.738 249.183C150.496 248.941 150.36 248.613 150.36 248.27C150.36 247.928 150.496 247.6 150.738 247.358C150.98 247.116 151.308 246.98 151.65 246.98H198.19C198.533 246.98 198.862 247.116 199.106 247.358C199.349 247.599 199.487 247.927 199.49 248.27C199.487 248.614 199.349 248.942 199.106 249.183C198.862 249.425 198.533 249.56 198.19 249.56Z" fill="#0B3555"/>
<path d="M220.69 253.689H207.84C207.368 253.689 206.915 253.502 206.581 253.168C206.247 252.834 206.06 252.381 206.06 251.909V239.059C206.063 238.589 206.251 238.139 206.585 237.807C206.918 237.475 207.37 237.289 207.84 237.289H220.69C221.16 237.289 221.612 237.475 221.945 237.807C222.279 238.139 222.467 238.589 222.47 239.059V251.909C222.47 252.381 222.282 252.834 221.949 253.168C221.615 253.502 221.162 253.689 220.69 253.689ZM207.84 238.689C207.741 238.689 207.646 238.728 207.575 238.797C207.504 238.866 207.463 238.96 207.46 239.059V251.909C207.46 252.01 207.5 252.107 207.571 252.178C207.643 252.249 207.739 252.289 207.84 252.289H220.69C220.789 252.286 220.883 252.245 220.952 252.174C221.021 252.103 221.06 252.008 221.06 251.909V239.059C221.057 238.962 221.018 238.869 220.949 238.8C220.88 238.731 220.787 238.692 220.69 238.689H207.84Z" fill="#0B3555"/>
<path d="M220.69 229.73H207.84C207.368 229.73 206.915 229.543 206.581 229.209C206.247 228.875 206.06 228.422 206.06 227.95V215.1C206.06 214.628 206.247 214.175 206.581 213.842C206.915 213.508 207.368 213.32 207.84 213.32H220.69C221.162 213.32 221.615 213.508 221.949 213.842C222.282 214.175 222.47 214.628 222.47 215.1V228C222.457 228.464 222.264 228.904 221.931 229.227C221.599 229.55 221.153 229.73 220.69 229.73ZM207.84 214.73C207.739 214.73 207.643 214.77 207.571 214.842C207.5 214.913 207.46 215.01 207.46 215.11V228C207.46 228.05 207.47 228.099 207.489 228.144C207.508 228.19 207.536 228.231 207.572 228.266C207.607 228.3 207.649 228.327 207.695 228.345C207.741 228.363 207.791 228.372 207.84 228.37H220.69C220.788 228.37 220.882 228.331 220.952 228.262C221.021 228.193 221.06 228.098 221.06 228V215.1C221.06 215.001 221.021 214.906 220.952 214.835C220.883 214.764 220.789 214.723 220.69 214.72L207.84 214.73Z" fill="#0B3555"/>
<path d="M212.7 225.93H212.58C212.392 225.914 212.21 225.852 212.051 225.749C211.892 225.646 211.761 225.506 211.67 225.34C210.803 223.912 209.798 222.572 208.67 221.34C208.488 221.106 208.4 220.812 208.423 220.516C208.446 220.22 208.579 219.944 208.796 219.741C209.012 219.538 209.297 219.423 209.594 219.42C209.891 219.416 210.178 219.523 210.4 219.72C211.286 220.687 212.102 221.716 212.84 222.8C214.94 220.56 219.84 215.8 224.66 213.65C224.803 213.588 224.956 213.554 225.111 213.551C225.267 213.548 225.421 213.575 225.566 213.632C225.711 213.689 225.843 213.773 225.956 213.881C226.068 213.989 226.158 214.118 226.22 214.26C226.282 214.403 226.316 214.556 226.319 214.712C226.322 214.867 226.295 215.022 226.238 215.167C226.181 215.311 226.097 215.444 225.989 215.556C225.881 215.668 225.753 215.758 225.61 215.82C219.8 218.34 213.61 225.45 213.61 225.53C213.495 225.658 213.355 225.759 213.198 225.828C213.041 225.897 212.871 225.932 212.7 225.93Z" fill="#0B3555"/>
<g opacity="0.5">
<path d="M212.7 225.93H212.58C212.392 225.914 212.21 225.852 212.051 225.749C211.892 225.646 211.761 225.506 211.67 225.34C210.803 223.912 209.798 222.572 208.67 221.34C208.488 221.106 208.4 220.812 208.423 220.516C208.446 220.22 208.579 219.944 208.796 219.741C209.012 219.538 209.297 219.423 209.594 219.42C209.891 219.416 210.178 219.523 210.4 219.72C211.286 220.687 212.102 221.716 212.84 222.8C214.94 220.56 219.84 215.8 224.66 213.65C224.803 213.588 224.956 213.554 225.111 213.551C225.267 213.548 225.421 213.575 225.566 213.632C225.711 213.689 225.843 213.773 225.956 213.881C226.068 213.989 226.158 214.118 226.22 214.26C226.282 214.403 226.316 214.556 226.319 214.712C226.322 214.867 226.295 215.022 226.238 215.167C226.181 215.311 226.097 215.444 225.989 215.556C225.881 215.668 225.753 215.758 225.61 215.82C219.8 218.34 213.61 225.45 213.61 225.53C213.495 225.658 213.355 225.759 213.198 225.828C213.041 225.897 212.871 225.932 212.7 225.93Z" fill="white"/>
</g>
<g opacity="0.3">
<path d="M198.19 221.519H151.65C151.308 221.519 150.98 221.384 150.738 221.142C150.496 220.9 150.36 220.572 150.36 220.229C150.36 219.887 150.496 219.559 150.738 219.317C150.98 219.075 151.308 218.939 151.65 218.939H198.19C198.533 218.939 198.862 219.075 199.106 219.317C199.349 219.558 199.487 219.886 199.49 220.229C199.487 220.572 199.349 220.901 199.106 221.142C198.862 221.384 198.533 221.519 198.19 221.519Z" fill="white"/>
<path d="M198.19 226H151.65C151.308 226 150.98 225.864 150.738 225.622C150.496 225.38 150.36 225.052 150.36 224.71C150.36 224.368 150.496 224.04 150.738 223.798C150.98 223.556 151.308 223.42 151.65 223.42H198.19C198.533 223.42 198.862 223.556 199.106 223.797C199.349 224.039 199.487 224.367 199.49 224.71C199.49 224.88 199.456 225.049 199.391 225.206C199.325 225.363 199.229 225.506 199.109 225.626C198.988 225.746 198.844 225.84 198.687 225.905C198.529 225.969 198.36 226.001 198.19 226Z" fill="white"/>
</g>
<g opacity="0.3">
<path d="M198.19 245.49H151.65C151.307 245.488 150.979 245.35 150.737 245.106C150.496 244.863 150.36 244.533 150.36 244.19C150.36 243.848 150.496 243.52 150.738 243.278C150.98 243.036 151.308 242.9 151.65 242.9H198.19C198.533 242.9 198.862 243.036 199.106 243.278C199.349 243.519 199.487 243.847 199.49 244.19C199.49 244.535 199.353 244.866 199.109 245.11C198.865 245.353 198.535 245.49 198.19 245.49Z" fill="white"/>
<path d="M198.19 249.56H151.65C151.308 249.56 150.98 249.425 150.738 249.183C150.496 248.941 150.36 248.613 150.36 248.27C150.36 247.928 150.496 247.6 150.738 247.358C150.98 247.116 151.308 246.98 151.65 246.98H198.19C198.533 246.98 198.862 247.116 199.106 247.358C199.349 247.599 199.487 247.927 199.49 248.27C199.487 248.614 199.349 248.942 199.106 249.183C198.862 249.425 198.533 249.56 198.19 249.56Z" fill="white"/>
</g>
<path d="M358.2 140.59C359.295 144.496 359.207 148.638 357.948 152.494C356.689 156.35 354.315 159.746 351.126 162.253C347.936 164.759 344.076 166.264 340.031 166.576C335.987 166.889 331.941 165.995 328.405 164.008C324.868 162.021 322.001 159.03 320.164 155.413C318.328 151.797 317.605 147.716 318.087 143.689C318.569 139.661 320.235 135.867 322.873 132.786C325.512 129.705 329.005 127.476 332.91 126.38C335.504 125.652 338.215 125.442 340.89 125.763C343.565 126.083 346.15 126.927 348.498 128.246C350.847 129.566 352.912 131.335 354.577 133.453C356.242 135.571 357.473 137.996 358.2 140.59Z" fill="#0B3555"/>
<path d="M342.83 161.741C339.744 162.606 336.47 162.536 333.423 161.541C330.376 160.546 327.693 158.67 325.712 156.15C323.731 153.63 322.542 150.579 322.294 147.383C322.047 144.188 322.753 140.99 324.322 138.195C325.891 135.401 328.254 133.134 331.111 131.681C333.968 130.229 337.192 129.656 340.375 130.036C343.558 130.415 346.556 131.73 348.992 133.813C351.428 135.896 353.192 138.655 354.06 141.741C355.223 145.882 354.693 150.316 352.587 154.066C350.481 157.817 346.971 160.577 342.83 161.741Z" fill="#FCF7F6"/>
<path d="M341.67 157.6C339.402 158.236 336.997 158.186 334.758 157.455C332.519 156.724 330.547 155.345 329.091 153.493C327.636 151.642 326.762 149.4 326.58 147.052C326.398 144.704 326.916 142.354 328.07 140.301C329.223 138.247 330.959 136.582 333.059 135.515C335.159 134.448 337.528 134.027 339.867 134.307C342.205 134.586 344.409 135.552 346.198 137.084C347.988 138.615 349.283 140.643 349.92 142.91C350.772 145.952 350.382 149.208 348.835 151.963C347.288 154.717 344.711 156.745 341.67 157.6Z" fill="#0B3555"/>
<path d="M340.51 153.461C339.061 153.867 337.524 153.835 336.094 153.368C334.663 152.901 333.403 152.021 332.473 150.838C331.543 149.655 330.984 148.223 330.868 146.723C330.751 145.222 331.082 143.721 331.819 142.409C332.555 141.097 333.664 140.032 335.005 139.35C336.347 138.668 337.86 138.399 339.354 138.577C340.849 138.755 342.256 139.371 343.4 140.349C344.544 141.327 345.372 142.622 345.78 144.071C346.325 146.015 346.076 148.095 345.088 149.856C344.099 151.616 342.453 152.913 340.51 153.461Z" fill="#FCF7F6"/>
<path d="M339.35 149.32C338.72 149.498 338.051 149.484 337.428 149.282C336.806 149.079 336.257 148.696 335.852 148.182C335.447 147.667 335.204 147.044 335.153 146.391C335.102 145.738 335.246 145.085 335.567 144.514C335.887 143.943 336.37 143.48 336.953 143.183C337.537 142.887 338.196 142.77 338.846 142.848C339.496 142.925 340.109 143.194 340.606 143.62C341.103 144.046 341.463 144.61 341.64 145.24C341.871 146.085 341.761 146.987 341.332 147.75C340.904 148.514 340.191 149.078 339.35 149.32Z" fill="#0B3555"/>
<path d="M361.41 133.49L356.41 132.74L357.16 127.74C357.171 127.672 357.169 127.602 357.153 127.535C357.137 127.467 357.107 127.404 357.066 127.348C357.025 127.292 356.974 127.245 356.914 127.209C356.855 127.173 356.789 127.15 356.72 127.14C356.582 127.12 356.442 127.155 356.33 127.237C356.217 127.32 356.142 127.443 356.12 127.58L355.31 132.93L353.41 134.33L354.06 130.02C354.09 129.948 354.102 129.87 354.098 129.791C354.093 129.713 354.07 129.637 354.032 129.569C353.994 129.5 353.94 129.442 353.876 129.397C353.812 129.352 353.738 129.322 353.661 129.31C353.583 129.298 353.504 129.303 353.429 129.325C353.354 129.348 353.285 129.387 353.227 129.44C353.17 129.493 353.125 129.558 353.096 129.631C353.067 129.704 353.054 129.782 353.06 129.86L352.24 135.21L349.84 136.98L350.5 132.66C350.517 132.524 350.481 132.387 350.399 132.277C350.317 132.166 350.195 132.093 350.06 132.07C349.992 132.059 349.922 132.061 349.854 132.078C349.787 132.094 349.723 132.123 349.667 132.164C349.611 132.205 349.564 132.257 349.529 132.316C349.493 132.376 349.47 132.442 349.46 132.51L348.64 137.86L338.51 145.31C338.419 145.515 338.372 145.736 338.372 145.96C338.372 146.184 338.419 146.406 338.51 146.61L349.37 138.61L354.54 139.4C354.651 139.383 354.754 139.33 354.834 139.25C354.913 139.17 354.965 139.067 354.982 138.955C354.999 138.844 354.979 138.73 354.927 138.63C354.874 138.53 354.791 138.45 354.69 138.4L350.57 137.77L353 136L358.16 136.78C358.272 136.764 358.376 136.713 358.457 136.634C358.538 136.554 358.591 136.451 358.609 136.339C358.627 136.228 358.608 136.113 358.556 136.012C358.504 135.912 358.421 135.83 358.32 135.78L354.2 135.16L356.1 133.76L361.26 134.54C361.328 134.552 361.398 134.549 361.466 134.533C361.533 134.517 361.597 134.488 361.653 134.447C361.708 134.406 361.756 134.354 361.791 134.294C361.827 134.235 361.85 134.169 361.86 134.1C361.871 134.031 361.869 133.959 361.852 133.891C361.835 133.822 361.805 133.757 361.763 133.701C361.721 133.644 361.669 133.596 361.608 133.56C361.547 133.524 361.48 133.5 361.41 133.49Z" fill="#0B3555"/>
<path opacity="0.3" d="M361.41 133.49L356.41 132.74L357.16 127.74C357.171 127.672 357.169 127.602 357.153 127.535C357.137 127.467 357.107 127.404 357.066 127.348C357.025 127.292 356.974 127.245 356.914 127.209C356.855 127.173 356.789 127.15 356.72 127.14C356.582 127.12 356.442 127.155 356.33 127.237C356.217 127.32 356.142 127.443 356.12 127.58L355.31 132.93L353.41 134.33L354.06 130.02C354.09 129.948 354.102 129.87 354.098 129.791C354.093 129.713 354.07 129.637 354.032 129.569C353.994 129.5 353.94 129.442 353.876 129.397C353.812 129.352 353.738 129.322 353.661 129.31C353.583 129.298 353.504 129.303 353.429 129.325C353.354 129.348 353.285 129.387 353.227 129.44C353.17 129.493 353.125 129.558 353.096 129.631C353.067 129.704 353.054 129.782 353.06 129.86L352.24 135.21L349.84 136.98L350.5 132.66C350.517 132.524 350.481 132.387 350.399 132.277C350.317 132.166 350.195 132.093 350.06 132.07C349.992 132.059 349.922 132.061 349.854 132.078C349.787 132.094 349.723 132.123 349.667 132.164C349.611 132.205 349.564 132.257 349.529 132.316C349.493 132.376 349.47 132.442 349.46 132.51L348.64 137.86L338.51 145.31C338.419 145.515 338.372 145.736 338.372 145.96C338.372 146.184 338.419 146.406 338.51 146.61L349.37 138.61L354.54 139.4C354.651 139.383 354.754 139.33 354.834 139.25C354.913 139.17 354.965 139.067 354.982 138.955C354.999 138.844 354.979 138.73 354.927 138.63C354.874 138.53 354.791 138.45 354.69 138.4L350.57 137.77L353 136L358.16 136.78C358.272 136.764 358.376 136.713 358.457 136.634C358.538 136.554 358.591 136.451 358.609 136.339C358.627 136.228 358.608 136.113 358.556 136.012C358.504 135.912 358.421 135.83 358.32 135.78L354.2 135.16L356.1 133.76L361.26 134.54C361.328 134.552 361.398 134.549 361.466 134.533C361.533 134.517 361.597 134.488 361.653 134.447C361.708 134.406 361.756 134.354 361.791 134.294C361.827 134.235 361.85 134.169 361.86 134.1C361.871 134.031 361.869 133.959 361.852 133.891C361.835 133.822 361.805 133.757 361.763 133.701C361.721 133.644 361.669 133.596 361.608 133.56C361.547 133.524 361.48 133.5 361.41 133.49Z" fill="black"/>
<path d="M143.01 306.559L132.86 454.999H72.04L61.89 306.559H143.01Z" fill="#0B3555"/>
<path opacity="0.3" d="M142.33 316.439L62.8801 321.019L62.3101 312.689H142.59L142.33 316.439Z" fill="black"/>
<path d="M144.3 303.479H60.61C58.6329 303.479 57.03 305.081 57.03 307.059V309.108C57.03 311.086 58.6329 312.689 60.61 312.689H144.3C146.277 312.689 147.88 311.086 147.88 309.108V307.059C147.88 305.081 146.277 303.479 144.3 303.479Z" fill="#0B3555"/>
<g opacity="0.3">
<path d="M133.92 329.6L131.93 364.75H72.97L70.98 329.6H133.92Z" fill="black"/>
</g>
<path d="M105.39 348.63C105.388 349.211 105.214 349.778 104.89 350.26C104.565 350.743 104.106 351.118 103.568 351.339C103.031 351.56 102.44 351.617 101.87 351.502C101.301 351.387 100.778 351.107 100.368 350.695C99.9574 350.284 99.6784 349.76 99.5658 349.19C99.4531 348.62 99.5119 348.029 99.7348 347.492C99.9576 346.956 100.334 346.497 100.818 346.174C101.301 345.852 101.869 345.68 102.45 345.68C102.837 345.68 103.22 345.756 103.577 345.904C103.935 346.053 104.259 346.27 104.532 346.544C104.806 346.818 105.022 347.144 105.169 347.502C105.316 347.859 105.391 348.243 105.39 348.63Z" fill="#0B3555"/>
<g opacity="0.3">
<path d="M131.15 372.979L129.33 405.018H75.57L73.75 372.979H131.15Z" fill="black"/>
</g>
<path d="M105.39 390.159C105.39 390.74 105.218 391.309 104.895 391.792C104.571 392.276 104.112 392.652 103.575 392.875C103.038 393.097 102.447 393.156 101.876 393.042C101.306 392.929 100.782 392.649 100.371 392.238C99.96 391.826 99.6799 391.303 99.5665 390.732C99.4531 390.162 99.5113 389.571 99.7338 389.034C99.9563 388.496 100.333 388.037 100.817 387.714C101.3 387.391 101.869 387.219 102.45 387.219C103.23 387.219 103.978 387.529 104.529 388.08C105.08 388.631 105.39 389.379 105.39 390.159Z" fill="#0B3555"/>
<g opacity="0.3">
<path d="M128.75 413.109L127.09 442.479H77.82L76.15 413.109H128.75Z" fill="black"/>
</g>
<path d="M105.39 427.799C105.39 428.381 105.218 428.949 104.895 429.433C104.571 429.916 104.112 430.293 103.575 430.516C103.038 430.738 102.447 430.796 101.876 430.683C101.306 430.569 100.782 430.289 100.371 429.878C99.96 429.467 99.6799 428.943 99.5665 428.373C99.4531 427.803 99.5113 427.212 99.7338 426.674C99.9563 426.137 100.333 425.678 100.817 425.355C101.3 425.032 101.869 424.859 102.45 424.859C103.23 424.859 103.978 425.169 104.529 425.72C105.08 426.272 105.39 427.02 105.39 427.799Z" fill="#0B3555"/>
<path d="M105.32 244.52H99.6V303.48H105.32V244.52Z" fill="#263238"/>
<g opacity="0.2">
<path d="M105.32 247.389V252.459L99.6 254.219V247.389H105.32Z" fill="black"/>
</g>
<path d="M116.24 242.959H115.34V267.389H116.24V242.959Z" fill="#263238"/>
<path d="M115.79 269.169C116.889 269.169 117.78 268.278 117.78 267.179C117.78 266.08 116.889 265.189 115.79 265.189C114.691 265.189 113.8 266.08 113.8 267.179C113.8 268.278 114.691 269.169 115.79 269.169Z" fill="#0B3555"/>
<path d="M133.4 246.389C112.892 249.568 92.0175 249.568 71.51 246.389L86.19 205.769C96.9494 203.9 107.951 203.9 118.71 205.769L133.4 246.389Z" fill="#0B3555"/>
<g opacity="0.3">
<path d="M133.4 246.389C112.892 249.568 92.0175 249.568 71.51 246.389L86.19 205.769C96.9494 203.9 107.951 203.9 118.71 205.769L133.4 246.389Z" fill="white"/>
</g>
<path opacity="0.2" d="M130.92 240.61C128.44 240.87 125.98 241.08 123.54 241.27L114.66 205.49C114.622 205.342 114.528 205.215 114.396 205.136C114.265 205.057 114.109 205.034 113.96 205.07C113.811 205.108 113.683 205.202 113.603 205.333C113.523 205.463 113.497 205.62 113.53 205.77L122.37 241.35C115.81 241.83 109.37 242.08 103.03 242.1V205C103.03 204.846 102.969 204.699 102.86 204.59C102.751 204.481 102.604 204.42 102.45 204.42C102.296 204.42 102.149 204.481 102.04 204.59C101.931 204.699 101.87 204.846 101.87 205V242.15C95.46 242.15 89.08 241.89 82.64 241.41L91.48 205.81C91.5012 205.667 91.4685 205.522 91.3885 205.402C91.3084 205.283 91.1867 205.197 91.047 205.162C90.9072 205.127 90.7595 205.146 90.6325 205.213C90.5056 205.281 90.4084 205.394 90.36 205.53L81.47 241.33C78.99 241.14 76.47 240.92 73.99 240.65C73.8362 240.634 73.6823 240.68 73.5623 240.777C73.4423 240.875 73.3659 241.016 73.35 241.17C73.3341 241.324 73.38 241.478 73.4775 241.598C73.575 241.718 73.7162 241.794 73.87 241.81C76.4967 242.077 79.11 242.31 81.71 242.51H81.77H81.91C81.9566 242.515 82.0035 242.515 82.05 242.51C88.8 243.02 95.48 243.29 102.2 243.29C108.92 243.29 115.99 243.01 123.08 242.48H123.16C125.76 242.28 128.38 242.05 131.04 241.79C131.116 241.782 131.19 241.759 131.257 241.723C131.325 241.686 131.384 241.637 131.433 241.578C131.481 241.518 131.517 241.45 131.539 241.376C131.561 241.303 131.568 241.226 131.56 241.15C131.552 241.074 131.529 241 131.493 240.933C131.456 240.865 131.407 240.806 131.348 240.757C131.288 240.709 131.22 240.673 131.147 240.651C131.073 240.629 130.996 240.622 130.92 240.63V240.61Z" fill="black"/>
<path d="M116.49 297.65V303.48H88.42V297.65L102.46 294.42L116.49 297.65Z" fill="#0B3555"/>
<g opacity="0.3">
<path d="M116.49 297.65V303.48H88.42V297.65L102.46 294.42L116.49 297.65Z" fill="white"/>
</g>
<path d="M366.17 188.859C360.03 193.779 353.8 198.529 347.39 203.129C344.19 205.439 340.95 207.679 337.61 209.929C335.9 211.049 334.27 212.119 332.26 213.279C331.98 213.439 331.77 213.569 331.43 213.739L331 213.999L330.75 214.129L330.36 214.309L329.95 214.479L329.74 214.559L329.48 214.669C328.997 214.821 328.502 214.931 328 214.999C327.476 215.076 326.944 215.076 326.42 214.999C325.826 214.937 325.242 214.803 324.68 214.599L324.26 214.449L324.06 214.359L323.94 214.299L323.74 214.199L322.97 213.749C322.384 213.365 321.819 212.947 321.28 212.499C320.8 212.119 320.42 211.779 320 211.419C316.86 208.619 314.06 205.899 311.25 203.089C308.44 200.279 305.71 197.479 303.01 194.619C297.57 188.939 292.273 183.133 287.12 177.199L291.93 172.199C297.977 177.139 304 182.116 310 187.129L319 194.579C322 197.019 325 199.579 327.89 201.699L328.89 202.439C329.115 202.602 329.349 202.752 329.59 202.889C329.55 202.85 329.502 202.82 329.45 202.799L329.21 202.689L328.88 202.559C328.433 202.396 327.965 202.302 327.49 202.279C327.081 202.249 326.669 202.249 326.26 202.279C325.881 202.328 325.509 202.418 325.15 202.549H325.08H325H324.92H324.87L324.94 202.499L325.1 202.409L325.54 202.119C326.85 201.239 328.43 200.059 329.92 198.939C332.92 196.669 336.01 194.269 339.08 191.939C345.19 187.179 351.38 182.419 357.59 177.769L366.17 188.859Z" fill="#7F3E3B"/>
<path d="M358.18 174.75L341 187.92L351.76 203.92L364.27 196.53C364.27 196.53 361.56 178.38 358.18 174.75Z" fill="#263238"/>
<path d="M365.74 434.711L363.23 446.721H356.91L356.22 434.711H365.74Z" fill="#7F3E3B"/>
<path d="M338.84 455.21C339.05 451.3 340.73 450.13 342.84 450C344.95 449.87 352.84 447.22 352.84 447.22C352.84 447.22 354.4 444.73 355.84 444.22C357.28 443.71 358.73 445.22 358.73 445.22L362.68 444.74C362.68 444.74 363.81 442.95 364.68 444.52C366.03 446.94 366.1 453.66 366.04 455.23L338.84 455.21Z" fill="#263238"/>
<path d="M339.32 454.19H344.25L365.81 454.07C366.08 454.07 366.01 453.65 365.74 453.66H364.28C364.287 453.641 364.287 453.62 364.28 453.6C363.963 453.152 363.744 452.643 363.637 452.104C363.529 451.566 363.536 451.011 363.657 450.476C363.777 449.94 364.009 449.436 364.337 448.996C364.665 448.556 365.082 448.189 365.56 447.92C365.78 447.79 365.5 447.42 365.29 447.56C364.781 447.853 364.337 448.247 363.986 448.719C363.636 449.191 363.386 449.729 363.253 450.302C363.12 450.874 363.106 451.467 363.212 452.045C363.318 452.623 363.542 453.173 363.87 453.66H360.87L339.32 453.77C339 453.77 339.05 454.19 339.32 454.19Z" fill="#0B3555"/>
<path d="M354.09 448.91C352.92 447.59 351.27 447.219 350.09 448.209C349.9 448.369 349.63 448.01 349.82 447.85C351.15 446.71 353.07 447.21 354.39 448.7C354.58 448.92 354.26 449.13 354.07 448.91H354.09Z" fill="white"/>
<path d="M351.88 449.611C350.72 448.291 349.07 447.921 347.88 448.911C347.69 449.071 347.42 448.711 347.6 448.551C348.93 447.411 350.86 447.911 352.18 449.401C352.37 449.621 352.04 449.831 351.85 449.611H351.88Z" fill="white"/>
<path d="M349.6 450.31C348.44 449 346.78 448.62 345.6 449.61C345.42 449.78 345.15 449.41 345.33 449.25C346.66 448.11 348.58 448.61 349.9 450.1C350.1 450.32 349.77 450.53 349.58 450.31H349.6Z" fill="white"/>
<path d="M432.58 425.01L436.37 437.11L430.23 440.18L424.58 428.52L432.58 425.01Z" fill="#7F3E3B"/>
<path d="M418.58 456.41C416.86 452.89 417.75 451.06 419.58 449.91C421.41 448.76 426.95 442.61 426.95 442.61C426.95 442.61 427.1 439.68 428.1 438.54C429.1 437.4 431.1 437.99 431.1 437.99L435.1 435.4C435.1 435.4 435.1 432.8 436.37 434.23C438.19 436.33 440.95 442.03 441.66 443.43L418.58 456.41Z" fill="#263238"/>
<path d="M418.25 455L422.49 452.69L441 442.51C441.24 442.39 441 442.03 440.75 442.16L439.49 442.85C439.002 442.571 438.575 442.197 438.233 441.751C437.892 441.305 437.642 440.795 437.5 440.251C437.357 439.708 437.325 439.141 437.404 438.584C437.483 438.028 437.672 437.493 437.96 437.01C438.09 436.79 437.68 436.59 437.56 436.81C436.949 437.858 436.775 439.103 437.074 440.278C437.374 441.453 438.123 442.463 439.16 443.09C438.29 443.57 437.43 444.09 436.55 444.52L418 454.62C417.76 454.75 418 455.11 418.25 455Z" fill="#0B3555"/>
<path d="M428.82 443.48C427.16 442.9 425.54 443.379 425.01 444.809C424.92 445.039 424.51 444.86 424.6 444.63C425.2 442.99 427.12 442.48 429 443.14C429.28 443.24 429.09 443.58 428.82 443.48Z" fill="white"/>
<path d="M427.24 445.171C425.58 444.591 423.95 445.061 423.43 446.501C423.34 446.731 422.93 446.551 423.01 446.321C423.62 444.671 425.54 444.171 427.42 444.831C427.69 444.921 427.51 445.261 427.24 445.171Z" fill="white"/>
<path d="M425.59 446.889C423.93 446.309 422.3 446.789 421.78 448.219C421.69 448.449 421.28 448.219 421.36 448.039C421.97 446.389 423.89 445.889 425.77 446.549C426.04 446.649 425.86 446.989 425.59 446.889Z" fill="white"/>
<path d="M386.58 277.41C385.27 293.497 383.009 309.491 379.81 325.31C378.68 331.17 377.38 337.4 375.91 344.04C378.37 384.16 365.52 438.04 365.52 438.04L355.76 437.82C355.76 437.82 352.45 375.76 352.5 343.27C352.58 290.04 357.35 239.34 357.35 239.34L383.91 239.23C383.91 239.23 388.77 247.21 386.58 277.41Z" fill="#0B3555"/>
<path opacity="0.2" d="M386.58 277.41C385.27 293.496 383.009 309.491 379.81 325.31C373.5 304.02 382.08 258.59 382.08 258.59L386.58 277.41Z" fill="black"/>
<path d="M378.4 247.66C378.4 247.66 383.72 326 388.72 352.66L425.28 432.6L434.2 427.6C434.2 427.6 418 354.44 408.05 341.72C408.05 341.72 417.37 275 408.05 245L378.4 247.66Z" fill="#0B3555"/>
<path d="M425.94 435.87L423.63 432.36L435.2 426.42L436.58 430.41L425.94 435.87Z" fill="#263238"/>
<path d="M354.72 440.09L354.27 435.91H367.28L366.69 440.09H354.72Z" fill="#263238"/>
<path d="M353.05 186.701C353.44 197.121 345.32 203.091 355.05 210.551C355.89 219.241 351.88 235.551 354.57 249.761C354.673 250.318 354.923 250.838 355.294 251.267C355.665 251.696 356.143 252.018 356.68 252.201C363.92 254.571 388.83 253.461 407.68 248.861C408.547 248.649 409.298 248.107 409.772 247.351C410.246 246.595 410.407 245.684 410.22 244.811C407.37 231.811 405.87 210.701 409.33 183.921C409.527 182.42 409.424 180.894 409.027 179.433C408.629 177.972 407.945 176.604 407.015 175.41C406.085 174.215 404.926 173.217 403.607 172.474C402.288 171.731 400.834 171.257 399.33 171.081C397.55 170.871 395.66 170.691 393.72 170.571C386.913 169.971 380.072 169.864 373.25 170.251C371.03 170.411 368.74 170.661 366.56 170.931C362.741 171.396 359.234 173.271 356.727 176.189C354.22 179.106 352.895 182.856 353.01 186.701" fill="#263238"/>
<path d="M409.94 184.381C414.581 188.912 418.987 193.678 423.14 198.661C425.25 201.151 427.26 203.751 429.24 206.471C430.24 207.851 431.18 209.271 432.12 210.791C432.59 211.561 433.06 212.361 433.52 213.211L433.86 213.881L434.03 214.221L434.11 214.391L434.29 214.771C434.946 216.181 435.196 217.747 435.01 219.291C434.904 220.204 434.636 221.091 434.22 221.911C434.12 222.101 434.02 222.301 433.91 222.481L433.59 222.961C433.385 223.257 433.157 223.538 432.91 223.801C432.198 224.574 431.359 225.22 430.43 225.711C429.288 226.322 428.071 226.782 426.81 227.081C424.954 227.514 423.063 227.785 421.16 227.891C417.796 228.096 414.424 228.096 411.06 227.891C404.579 227.507 398.13 226.712 391.75 225.511L392.31 218.611C398.53 218.361 404.84 218.051 410.93 217.551C413.93 217.271 417 216.971 419.78 216.441C421.025 216.217 422.251 215.903 423.45 215.501C423.91 215.331 424.28 215.111 424.21 215.091C424.14 215.071 424.01 215.141 423.6 215.551C423.53 215.631 423.4 215.771 423.28 215.931L423.13 216.161C423.062 216.259 423.002 216.363 422.95 216.471C422.717 216.939 422.561 217.443 422.49 217.961C422.396 218.712 422.488 219.474 422.76 220.181L422.82 220.301L422.76 220.201L422.64 220.021L422.41 219.651C422.07 219.131 421.7 218.651 421.29 218.041C420.48 216.941 419.57 215.801 418.62 214.671C416.75 212.381 414.7 210.121 412.62 207.841C410.54 205.561 408.45 203.311 406.32 201.061C404.19 198.811 402.04 196.531 399.98 194.311L409.94 184.381Z" fill="#7F3E3B"/>
<path d="M406.89 175.239L418.25 189.439L404.15 202.109L393.21 190.249C391.963 188.861 391.124 187.155 390.785 185.32C390.446 183.484 390.621 181.591 391.29 179.849C391.88 178.395 392.809 177.102 394 176.079C399.13 171.629 406.89 175.239 406.89 175.239Z" fill="#263238"/>
<path d="M360.15 143.32C360.5 142.73 355.79 136.02 362.93 131.24C362.93 131.24 364.45 126.92 368.32 125.24C369.48 124.767 370.725 124.541 371.977 124.578C373.229 124.614 374.459 124.911 375.59 125.45C375.59 125.45 377.13 121.1 383.73 121.94C385.505 122.082 387.169 122.862 388.414 124.136C389.658 125.41 390.399 127.092 390.5 128.87C390.5 128.87 396.07 131.21 396.18 137.09C396.159 138.21 395.894 139.311 395.404 140.318C394.913 141.325 394.209 142.213 393.34 142.92C393.34 142.92 396.02 148.43 394.18 151.57C393.677 152.342 393.024 153.006 392.26 153.522C391.495 154.037 390.635 154.393 389.73 154.57C389.73 154.57 389.6 158.87 385.45 159.71C381.3 160.55 374.86 153.41 374.86 153.41L360.15 143.32Z" fill="#263238"/>
<path d="M390.24 127.64C390.24 127.64 386.19 124.46 389.42 121.85C389.42 121.85 388.95 117.92 392.59 117.36C396.23 116.8 396.89 119.74 396.89 119.74C396.89 119.74 397.79 116.35 402.68 117.55C407.57 118.75 405.44 124.76 405.44 124.76C405.44 124.76 408.64 126.64 407.39 130.02C407.081 130.947 406.447 131.731 405.605 132.227C404.763 132.723 403.771 132.898 402.81 132.72C402.81 132.72 403.94 136.29 401.05 136.98C400.233 137.192 399.381 137.236 398.546 137.111C397.71 136.986 396.909 136.693 396.19 136.25L390.24 127.64Z" fill="#263238"/>
<path d="M390.5 129.14C391.951 129.779 393.225 130.76 394.216 131.998C395.207 133.236 395.884 134.694 396.19 136.25C396.19 136.25 397.91 133.96 395.95 130.69C393.59 126.76 390.24 127.69 390.24 127.69L390.5 129.14Z" fill="#0B3555"/>
<path d="M371.64 170.581C371.582 170.677 371.532 170.777 371.49 170.881C369.63 179.211 380.93 177.101 385.49 169.881C382.49 165.821 381.85 158.741 382.56 153.631L373.34 161.241L371.58 163.001C371.997 164.262 372.262 165.567 372.37 166.891C372.497 168.166 372.243 169.45 371.64 170.581Z" fill="#7F3E3B"/>
<g opacity="0.2">
<path d="M372.37 166.851C372.262 165.527 371.997 164.221 371.58 162.961L373.37 161.251L378.15 161.141C378.15 161.141 375.9 165.761 372.37 166.851Z" fill="black"/>
</g>
<path d="M386.06 144.08C384.8 153.32 384.39 155.68 379.44 160.08C371.98 166.72 361.2 164.74 359.73 155.31C358.4 146.82 360.68 133.14 369.86 130.12C379.04 127.1 387.31 134.82 386.06 144.06" fill="#7F3E3B"/>
<path d="M367.58 155.169C367.04 155.188 366.503 155.082 366.01 154.859C365.956 154.821 365.918 154.764 365.903 154.7C365.889 154.635 365.898 154.567 365.93 154.509C365.965 154.454 366.02 154.415 366.084 154.4C366.147 154.385 366.214 154.396 366.27 154.429C367.181 154.764 368.184 154.743 369.08 154.369C369.551 154.149 369.959 153.814 370.267 153.394C370.574 152.975 370.771 152.485 370.84 151.969C370.845 151.937 370.856 151.905 370.874 151.877C370.891 151.849 370.914 151.825 370.941 151.806C370.969 151.787 370.999 151.774 371.032 151.768C371.064 151.762 371.098 151.762 371.13 151.769C371.195 151.782 371.252 151.819 371.29 151.873C371.327 151.928 371.342 151.995 371.33 152.059C371.248 152.656 371.017 153.222 370.659 153.707C370.301 154.191 369.827 154.577 369.28 154.829C368.743 155.061 368.164 155.177 367.58 155.169Z" fill="#263238"/>
<path d="M381.94 139.149C381.94 139.149 378.94 143.499 380.13 147.509C381.32 151.519 387.04 147.509 387.04 147.509C387.04 147.509 391.75 137.369 381.94 139.149Z" fill="#263238"/>
<path d="M362.24 134.659C362.24 134.659 362.75 136.309 365.5 135.039C366.442 134.628 367.305 134.056 368.05 133.349C368.354 133.736 368.761 134.029 369.225 134.194C369.689 134.359 370.19 134.388 370.67 134.279C371.544 134.061 372.347 133.62 373 132.999C373 132.999 373.68 136.239 375.5 136.219C376.476 136.236 377.448 136.08 378.37 135.759C378.37 135.759 376.94 138.149 379.01 139.429C381.08 140.709 382.46 140.029 382.46 140.029C382.46 140.029 383.27 143.389 386.03 144.029C388.79 144.669 387.85 136.589 387.85 136.589C387.85 136.589 373.52 119.739 362.24 134.659Z" fill="#263238"/>
<path d="M372.12 145.35C372.07 146.11 371.62 146.69 371.12 146.65C370.62 146.61 370.27 145.97 370.32 145.22C370.37 144.47 370.83 143.88 371.32 143.92C371.81 143.96 372.17 144.6 372.11 145.35" fill="#263238"/>
<path d="M364.23 145C364.17 145.75 363.72 146.34 363.23 146.3C362.74 146.26 362.38 145.62 362.44 144.86C362.5 144.1 362.94 143.53 363.44 143.56C363.94 143.59 364.28 144.24 364.23 145Z" fill="#263238"/>
<path d="M363.65 143.58L361.88 142.92C361.88 142.92 362.7 144.41 363.65 143.58Z" fill="#263238"/>
<path d="M366.68 145.311C366.68 145.311 365.22 147.221 363.68 148.851C363.561 148.973 363.471 149.121 363.417 149.283C363.363 149.445 363.346 149.617 363.368 149.786C363.39 149.956 363.451 150.118 363.544 150.261C363.638 150.403 363.763 150.523 363.91 150.611C364.633 151.03 365.401 151.366 366.2 151.611L366.68 145.311Z" fill="#630F0F"/>
<path d="M373.62 143.691C373.564 143.668 373.514 143.635 373.473 143.591C373.432 143.548 373.4 143.497 373.38 143.441C373.189 142.915 372.876 142.442 372.468 142.06C372.06 141.678 371.567 141.397 371.03 141.241C370.973 141.229 370.919 141.206 370.87 141.173C370.822 141.14 370.781 141.098 370.749 141.049C370.717 141.001 370.695 140.946 370.684 140.889C370.673 140.832 370.673 140.773 370.685 140.716C370.697 140.658 370.72 140.604 370.753 140.556C370.785 140.508 370.827 140.466 370.876 140.434C370.925 140.402 370.979 140.38 371.037 140.369C371.094 140.358 371.153 140.359 371.21 140.371C371.893 140.553 372.522 140.898 373.044 141.374C373.566 141.851 373.966 142.447 374.21 143.111C374.253 143.221 374.251 143.343 374.204 143.452C374.157 143.56 374.069 143.646 373.96 143.691C373.854 143.73 373.736 143.73 373.63 143.691" fill="#263238"/>
<path d="M361.11 141.299C360.995 141.283 360.89 141.222 360.82 141.129C360.782 141.085 360.753 141.034 360.735 140.979C360.718 140.923 360.711 140.865 360.717 140.807C360.723 140.749 360.74 140.692 360.768 140.641C360.796 140.59 360.834 140.545 360.88 140.509C361.424 140.046 362.072 139.722 362.768 139.563C363.465 139.405 364.189 139.417 364.88 139.599C364.978 139.646 365.057 139.727 365.1 139.827C365.143 139.926 365.149 140.039 365.116 140.142C365.083 140.246 365.014 140.334 364.921 140.391C364.828 140.447 364.717 140.468 364.61 140.449C364.066 140.318 363.499 140.318 362.955 140.448C362.411 140.578 361.905 140.836 361.48 141.199C361.387 141.274 361.269 141.31 361.15 141.299" fill="#263238"/>
<path d="M371.55 144L369.77 143.34C369.77 143.34 370.6 144.82 371.55 144Z" fill="#263238"/>
<path d="M388.87 150.759C388.469 151.507 387.914 152.16 387.242 152.678C386.569 153.195 385.795 153.563 384.97 153.759C382.86 154.179 381.97 151.839 382.76 149.589C383.44 147.589 385.35 144.899 387.38 145.499C389.41 146.099 389.97 148.799 388.87 150.759Z" fill="#7F3E3B"/>
<path d="M384.56 154.691C384.806 154.868 385.098 154.968 385.401 154.979C385.704 154.99 386.003 154.91 386.26 154.751C386.518 154.591 386.722 154.359 386.848 154.083C386.973 153.808 387.014 153.501 386.965 153.202C386.916 152.903 386.779 152.625 386.572 152.404C386.365 152.183 386.097 152.028 385.802 151.96C385.507 151.891 385.198 151.912 384.915 152.019C384.631 152.126 384.386 152.314 384.21 152.561C383.975 152.89 383.88 153.299 383.945 153.698C384.011 154.097 384.232 154.454 384.56 154.691Z" fill="white"/>
<path d="M294.604 153.692L262.363 144.447L253.118 176.688L285.359 185.933L294.604 153.692Z" fill="#0B3555"/>
<path d="M283.191 182.005L290.694 155.84L264.529 148.337L257.026 174.503L283.191 182.005Z" fill="#0B3555"/>
<path opacity="0.2" d="M283.191 182.005L290.694 155.84L264.529 148.337L257.026 174.503L283.191 182.005Z" fill="white"/>
<path opacity="0.8" d="M286 164.879C285.694 165.959 285.075 166.923 284.22 167.65C283.366 168.377 282.315 168.834 281.201 168.964C280.087 169.094 278.959 168.89 277.961 168.379C276.962 167.868 276.138 167.072 275.592 166.092C275.046 165.112 274.803 163.992 274.894 162.874C274.984 161.756 275.405 160.69 276.101 159.811C276.798 158.931 277.74 158.279 278.808 157.935C279.876 157.591 281.021 157.572 282.1 157.879C283.545 158.291 284.767 159.26 285.498 160.573C286.23 161.885 286.41 163.434 286 164.879Z" fill="white"/>
<path d="M288.19 164.62L283.19 182.01L268.42 177.78L269.85 172.78C269.85 172.78 277.48 162.61 288.19 164.62Z" fill="#0B3555"/>
<path opacity="0.5" d="M288.19 164.62L283.19 182.01L268.42 177.78L269.85 172.78C269.85 172.78 277.48 162.61 288.19 164.62Z" fill="white"/>
<path d="M272.09 178.83L257.09 174.51L261.8 158.08C265.05 160.16 272.61 166.28 272.09 178.83Z" fill="#0B3555"/>
<path opacity="0.6" d="M272.09 178.83L257.09 174.51L261.8 158.08C265.05 160.16 272.61 166.28 272.09 178.83Z" fill="white"/>
<path d="M293.54 173.88C293.54 173.88 294.79 166.62 294.17 165.12C293.55 163.62 288.92 161.25 288.42 161.19C287.92 161.13 288.04 163.9 290.48 165.86C289.341 168.071 288.507 170.426 288 172.86C287.677 174.403 287.63 175.991 287.86 177.55L293.54 173.88Z" fill="#7F3E3B"/>
<path d="M383.206 202.366L357.083 207.842L362.56 233.964L388.682 228.488L383.206 202.366Z" fill="#0B3555"/>
<path opacity="0.5" d="M383.206 202.366L357.083 207.842L362.56 233.964L388.682 228.488L383.206 202.366Z" fill="white"/>
<path d="M385.58 213.661L385.1 211.391C386.723 211.934 388.244 212.745 389.6 213.791C390.748 215.291 391.787 216.872 392.71 218.521L392.07 225.281C389.549 225.389 387.024 225.252 384.53 224.871C381.11 224.241 378.11 219.131 377.93 217.961C377.75 216.791 374.22 215.381 375.29 214.571C376.36 213.761 385.58 213.661 385.58 213.661Z" fill="#7F3E3B"/>
</svg>
